G04 #@! TF.FileFunction,Soldermask,Bot*
%FSLAX46Y46*%
G04 Gerber Fmt 4.6, Leading zero omitted, Abs format (unit mm)*
G04 Created by KiCad (PCBNEW 4.0.6) date 08/19/17 00:13:46*
%MOMM*%
%LPD*%
G01*
G04 APERTURE LIST*
%ADD10C,0.100000*%
%ADD11R,0.800000X0.750000*%
%ADD12C,3.000000*%
%ADD13R,2.000000X0.700000*%
%ADD14R,0.750000X0.800000*%
%ADD15R,0.800000X0.800000*%
%ADD16R,1.270000X0.970000*%
%ADD17R,3.300000X2.300000*%
%ADD18R,2.600000X1.200000*%
%ADD19R,0.900000X0.500000*%
%ADD20R,0.500000X0.900000*%
%ADD21R,1.750000X0.450000*%
%ADD22R,1.524000X1.524000*%
%ADD23C,1.524000*%
%ADD24R,1.600000X1.600000*%
%ADD25O,1.600000X1.600000*%
%ADD26O,5.000000X3.200000*%
%ADD27R,0.650000X1.060000*%
%ADD28R,1.100000X0.800000*%
%ADD29R,1.100000X2.000000*%
%ADD30C,2.000000*%
%ADD31C,1.400000*%
%ADD32R,1.400000X1.400000*%
%ADD33R,1.700000X1.700000*%
%ADD34O,1.700000X1.700000*%
%ADD35C,0.254000*%
G04 APERTURE END LIST*
D10*
D11*
X117121600Y-123596600D03*
X115621600Y-123596600D03*
D12*
X127500000Y-167500000D03*
X102500000Y-167500000D03*
X102500000Y-102500000D03*
D13*
X113840500Y-110211500D03*
X113840500Y-108711500D03*
D11*
X124106000Y-158878500D03*
X122606000Y-158878500D03*
X124118000Y-153544501D03*
X122618000Y-153544501D03*
X123140000Y-117907000D03*
X124640000Y-117907000D03*
D14*
X121921500Y-119292000D03*
X121921500Y-117792000D03*
X120715000Y-119292000D03*
X120715000Y-117792000D03*
D15*
X114022000Y-106604000D03*
X112422000Y-106604000D03*
D16*
X125781001Y-155571500D03*
X125781001Y-156851500D03*
D17*
X106237000Y-131507000D03*
D18*
X101787000Y-118987000D03*
X101787000Y-120987000D03*
D17*
X106237000Y-114467000D03*
D18*
X101787000Y-122987000D03*
X101787000Y-124987000D03*
X101787000Y-126987000D03*
D19*
X123509000Y-122340000D03*
X123509000Y-120840000D03*
X124779000Y-122340000D03*
X124779000Y-120840000D03*
X126049000Y-122340000D03*
X126049000Y-120840000D03*
X127319000Y-122340000D03*
X127319000Y-120840000D03*
D20*
X111075000Y-123685500D03*
X112575000Y-123685500D03*
X111075000Y-124955500D03*
X112575000Y-124955500D03*
X117274000Y-110287000D03*
X115774000Y-110287000D03*
D10*
G36*
X119744585Y-137060976D02*
X119567808Y-136884199D01*
X120274915Y-136177092D01*
X120451692Y-136353869D01*
X119744585Y-137060976D01*
X119744585Y-137060976D01*
G37*
G36*
X119391031Y-136707423D02*
X119214254Y-136530646D01*
X119921361Y-135823539D01*
X120098138Y-136000316D01*
X119391031Y-136707423D01*
X119391031Y-136707423D01*
G37*
G36*
X119037478Y-136353869D02*
X118860701Y-136177092D01*
X119567808Y-135469985D01*
X119744585Y-135646762D01*
X119037478Y-136353869D01*
X119037478Y-136353869D01*
G37*
G36*
X118683925Y-136000316D02*
X118507148Y-135823539D01*
X119214255Y-135116432D01*
X119391032Y-135293209D01*
X118683925Y-136000316D01*
X118683925Y-136000316D01*
G37*
G36*
X118330371Y-135646763D02*
X118153594Y-135469986D01*
X118860701Y-134762879D01*
X119037478Y-134939656D01*
X118330371Y-135646763D01*
X118330371Y-135646763D01*
G37*
G36*
X117976818Y-135293209D02*
X117800041Y-135116432D01*
X118507148Y-134409325D01*
X118683925Y-134586102D01*
X117976818Y-135293209D01*
X117976818Y-135293209D01*
G37*
G36*
X117623264Y-134939656D02*
X117446487Y-134762879D01*
X118153594Y-134055772D01*
X118330371Y-134232549D01*
X117623264Y-134939656D01*
X117623264Y-134939656D01*
G37*
G36*
X117269711Y-134586102D02*
X117092934Y-134409325D01*
X117800041Y-133702218D01*
X117976818Y-133878995D01*
X117269711Y-134586102D01*
X117269711Y-134586102D01*
G37*
G36*
X116916158Y-134232549D02*
X116739381Y-134055772D01*
X117446488Y-133348665D01*
X117623265Y-133525442D01*
X116916158Y-134232549D01*
X116916158Y-134232549D01*
G37*
G36*
X116562604Y-133878996D02*
X116385827Y-133702219D01*
X117092934Y-132995112D01*
X117269711Y-133171889D01*
X116562604Y-133878996D01*
X116562604Y-133878996D01*
G37*
G36*
X116209051Y-133525442D02*
X116032274Y-133348665D01*
X116739381Y-132641558D01*
X116916158Y-132818335D01*
X116209051Y-133525442D01*
X116209051Y-133525442D01*
G37*
G36*
X115855497Y-133171889D02*
X115678720Y-132995112D01*
X116385827Y-132288005D01*
X116562604Y-132464782D01*
X115855497Y-133171889D01*
X115855497Y-133171889D01*
G37*
G36*
X115501944Y-132818335D02*
X115325167Y-132641558D01*
X116032274Y-131934451D01*
X116209051Y-132111228D01*
X115501944Y-132818335D01*
X115501944Y-132818335D01*
G37*
G36*
X115148391Y-132464782D02*
X114971614Y-132288005D01*
X115678721Y-131580898D01*
X115855498Y-131757675D01*
X115148391Y-132464782D01*
X115148391Y-132464782D01*
G37*
G36*
X114794837Y-132111229D02*
X114618060Y-131934452D01*
X115325167Y-131227345D01*
X115501944Y-131404122D01*
X114794837Y-132111229D01*
X114794837Y-132111229D01*
G37*
G36*
X114441284Y-131757675D02*
X114264507Y-131580898D01*
X114971614Y-130873791D01*
X115148391Y-131050568D01*
X114441284Y-131757675D01*
X114441284Y-131757675D01*
G37*
G36*
X114264507Y-128292852D02*
X114441284Y-128116075D01*
X115148391Y-128823182D01*
X114971614Y-128999959D01*
X114264507Y-128292852D01*
X114264507Y-128292852D01*
G37*
G36*
X114618060Y-127939298D02*
X114794837Y-127762521D01*
X115501944Y-128469628D01*
X115325167Y-128646405D01*
X114618060Y-127939298D01*
X114618060Y-127939298D01*
G37*
G36*
X114971614Y-127585745D02*
X115148391Y-127408968D01*
X115855498Y-128116075D01*
X115678721Y-128292852D01*
X114971614Y-127585745D01*
X114971614Y-127585745D01*
G37*
G36*
X115325167Y-127232192D02*
X115501944Y-127055415D01*
X116209051Y-127762522D01*
X116032274Y-127939299D01*
X115325167Y-127232192D01*
X115325167Y-127232192D01*
G37*
G36*
X115678720Y-126878638D02*
X115855497Y-126701861D01*
X116562604Y-127408968D01*
X116385827Y-127585745D01*
X115678720Y-126878638D01*
X115678720Y-126878638D01*
G37*
G36*
X116032274Y-126525085D02*
X116209051Y-126348308D01*
X116916158Y-127055415D01*
X116739381Y-127232192D01*
X116032274Y-126525085D01*
X116032274Y-126525085D01*
G37*
G36*
X116385827Y-126171531D02*
X116562604Y-125994754D01*
X117269711Y-126701861D01*
X117092934Y-126878638D01*
X116385827Y-126171531D01*
X116385827Y-126171531D01*
G37*
G36*
X116739381Y-125817978D02*
X116916158Y-125641201D01*
X117623265Y-126348308D01*
X117446488Y-126525085D01*
X116739381Y-125817978D01*
X116739381Y-125817978D01*
G37*
G36*
X117092934Y-125464425D02*
X117269711Y-125287648D01*
X117976818Y-125994755D01*
X117800041Y-126171532D01*
X117092934Y-125464425D01*
X117092934Y-125464425D01*
G37*
G36*
X117446487Y-125110871D02*
X117623264Y-124934094D01*
X118330371Y-125641201D01*
X118153594Y-125817978D01*
X117446487Y-125110871D01*
X117446487Y-125110871D01*
G37*
G36*
X117800041Y-124757318D02*
X117976818Y-124580541D01*
X118683925Y-125287648D01*
X118507148Y-125464425D01*
X117800041Y-124757318D01*
X117800041Y-124757318D01*
G37*
G36*
X118153594Y-124403764D02*
X118330371Y-124226987D01*
X119037478Y-124934094D01*
X118860701Y-125110871D01*
X118153594Y-124403764D01*
X118153594Y-124403764D01*
G37*
G36*
X118507148Y-124050211D02*
X118683925Y-123873434D01*
X119391032Y-124580541D01*
X119214255Y-124757318D01*
X118507148Y-124050211D01*
X118507148Y-124050211D01*
G37*
G36*
X118860701Y-123696658D02*
X119037478Y-123519881D01*
X119744585Y-124226988D01*
X119567808Y-124403765D01*
X118860701Y-123696658D01*
X118860701Y-123696658D01*
G37*
G36*
X119214254Y-123343104D02*
X119391031Y-123166327D01*
X120098138Y-123873434D01*
X119921361Y-124050211D01*
X119214254Y-123343104D01*
X119214254Y-123343104D01*
G37*
G36*
X119567808Y-122989551D02*
X119744585Y-122812774D01*
X120451692Y-123519881D01*
X120274915Y-123696658D01*
X119567808Y-122989551D01*
X119567808Y-122989551D01*
G37*
G36*
X122502301Y-123696658D02*
X122325524Y-123519881D01*
X123032631Y-122812774D01*
X123209408Y-122989551D01*
X122502301Y-123696658D01*
X122502301Y-123696658D01*
G37*
G36*
X122855855Y-124050211D02*
X122679078Y-123873434D01*
X123386185Y-123166327D01*
X123562962Y-123343104D01*
X122855855Y-124050211D01*
X122855855Y-124050211D01*
G37*
G36*
X123209408Y-124403765D02*
X123032631Y-124226988D01*
X123739738Y-123519881D01*
X123916515Y-123696658D01*
X123209408Y-124403765D01*
X123209408Y-124403765D01*
G37*
G36*
X123562961Y-124757318D02*
X123386184Y-124580541D01*
X124093291Y-123873434D01*
X124270068Y-124050211D01*
X123562961Y-124757318D01*
X123562961Y-124757318D01*
G37*
G36*
X123916515Y-125110871D02*
X123739738Y-124934094D01*
X124446845Y-124226987D01*
X124623622Y-124403764D01*
X123916515Y-125110871D01*
X123916515Y-125110871D01*
G37*
G36*
X124270068Y-125464425D02*
X124093291Y-125287648D01*
X124800398Y-124580541D01*
X124977175Y-124757318D01*
X124270068Y-125464425D01*
X124270068Y-125464425D01*
G37*
G36*
X124623622Y-125817978D02*
X124446845Y-125641201D01*
X125153952Y-124934094D01*
X125330729Y-125110871D01*
X124623622Y-125817978D01*
X124623622Y-125817978D01*
G37*
G36*
X124977175Y-126171532D02*
X124800398Y-125994755D01*
X125507505Y-125287648D01*
X125684282Y-125464425D01*
X124977175Y-126171532D01*
X124977175Y-126171532D01*
G37*
G36*
X125330728Y-126525085D02*
X125153951Y-126348308D01*
X125861058Y-125641201D01*
X126037835Y-125817978D01*
X125330728Y-126525085D01*
X125330728Y-126525085D01*
G37*
G36*
X125684282Y-126878638D02*
X125507505Y-126701861D01*
X126214612Y-125994754D01*
X126391389Y-126171531D01*
X125684282Y-126878638D01*
X125684282Y-126878638D01*
G37*
G36*
X126037835Y-127232192D02*
X125861058Y-127055415D01*
X126568165Y-126348308D01*
X126744942Y-126525085D01*
X126037835Y-127232192D01*
X126037835Y-127232192D01*
G37*
G36*
X126391389Y-127585745D02*
X126214612Y-127408968D01*
X126921719Y-126701861D01*
X127098496Y-126878638D01*
X126391389Y-127585745D01*
X126391389Y-127585745D01*
G37*
G36*
X126744942Y-127939299D02*
X126568165Y-127762522D01*
X127275272Y-127055415D01*
X127452049Y-127232192D01*
X126744942Y-127939299D01*
X126744942Y-127939299D01*
G37*
G36*
X127098495Y-128292852D02*
X126921718Y-128116075D01*
X127628825Y-127408968D01*
X127805602Y-127585745D01*
X127098495Y-128292852D01*
X127098495Y-128292852D01*
G37*
G36*
X127452049Y-128646405D02*
X127275272Y-128469628D01*
X127982379Y-127762521D01*
X128159156Y-127939298D01*
X127452049Y-128646405D01*
X127452049Y-128646405D01*
G37*
G36*
X127805602Y-128999959D02*
X127628825Y-128823182D01*
X128335932Y-128116075D01*
X128512709Y-128292852D01*
X127805602Y-128999959D01*
X127805602Y-128999959D01*
G37*
G36*
X127628825Y-131050568D02*
X127805602Y-130873791D01*
X128512709Y-131580898D01*
X128335932Y-131757675D01*
X127628825Y-131050568D01*
X127628825Y-131050568D01*
G37*
G36*
X127275272Y-131404122D02*
X127452049Y-131227345D01*
X128159156Y-131934452D01*
X127982379Y-132111229D01*
X127275272Y-131404122D01*
X127275272Y-131404122D01*
G37*
G36*
X126921718Y-131757675D02*
X127098495Y-131580898D01*
X127805602Y-132288005D01*
X127628825Y-132464782D01*
X126921718Y-131757675D01*
X126921718Y-131757675D01*
G37*
G36*
X126568165Y-132111228D02*
X126744942Y-131934451D01*
X127452049Y-132641558D01*
X127275272Y-132818335D01*
X126568165Y-132111228D01*
X126568165Y-132111228D01*
G37*
G36*
X126214612Y-132464782D02*
X126391389Y-132288005D01*
X127098496Y-132995112D01*
X126921719Y-133171889D01*
X126214612Y-132464782D01*
X126214612Y-132464782D01*
G37*
G36*
X125861058Y-132818335D02*
X126037835Y-132641558D01*
X126744942Y-133348665D01*
X126568165Y-133525442D01*
X125861058Y-132818335D01*
X125861058Y-132818335D01*
G37*
G36*
X125507505Y-133171889D02*
X125684282Y-132995112D01*
X126391389Y-133702219D01*
X126214612Y-133878996D01*
X125507505Y-133171889D01*
X125507505Y-133171889D01*
G37*
G36*
X125153951Y-133525442D02*
X125330728Y-133348665D01*
X126037835Y-134055772D01*
X125861058Y-134232549D01*
X125153951Y-133525442D01*
X125153951Y-133525442D01*
G37*
G36*
X124800398Y-133878995D02*
X124977175Y-133702218D01*
X125684282Y-134409325D01*
X125507505Y-134586102D01*
X124800398Y-133878995D01*
X124800398Y-133878995D01*
G37*
G36*
X124446845Y-134232549D02*
X124623622Y-134055772D01*
X125330729Y-134762879D01*
X125153952Y-134939656D01*
X124446845Y-134232549D01*
X124446845Y-134232549D01*
G37*
G36*
X124093291Y-134586102D02*
X124270068Y-134409325D01*
X124977175Y-135116432D01*
X124800398Y-135293209D01*
X124093291Y-134586102D01*
X124093291Y-134586102D01*
G37*
G36*
X123739738Y-134939656D02*
X123916515Y-134762879D01*
X124623622Y-135469986D01*
X124446845Y-135646763D01*
X123739738Y-134939656D01*
X123739738Y-134939656D01*
G37*
G36*
X123386184Y-135293209D02*
X123562961Y-135116432D01*
X124270068Y-135823539D01*
X124093291Y-136000316D01*
X123386184Y-135293209D01*
X123386184Y-135293209D01*
G37*
G36*
X123032631Y-135646762D02*
X123209408Y-135469985D01*
X123916515Y-136177092D01*
X123739738Y-136353869D01*
X123032631Y-135646762D01*
X123032631Y-135646762D01*
G37*
G36*
X122679078Y-136000316D02*
X122855855Y-135823539D01*
X123562962Y-136530646D01*
X123386185Y-136707423D01*
X122679078Y-136000316D01*
X122679078Y-136000316D01*
G37*
G36*
X122325524Y-136353869D02*
X122502301Y-136177092D01*
X123209408Y-136884199D01*
X123032631Y-137060976D01*
X122325524Y-136353869D01*
X122325524Y-136353869D01*
G37*
D21*
X111654000Y-121624000D03*
X111654000Y-120974000D03*
X111654000Y-120324000D03*
X111654000Y-119674000D03*
X111654000Y-119024000D03*
X111654000Y-118374000D03*
X111654000Y-117724000D03*
X111654000Y-117074000D03*
X111654000Y-116424000D03*
X111654000Y-115774000D03*
X111654000Y-115124000D03*
X111654000Y-114474000D03*
X111654000Y-113824000D03*
X111654000Y-113174000D03*
X118854000Y-113174000D03*
X118854000Y-113824000D03*
X118854000Y-114474000D03*
X118854000Y-115124000D03*
X118854000Y-115774000D03*
X118854000Y-116424000D03*
X118854000Y-117074000D03*
X118854000Y-117724000D03*
X118854000Y-118374000D03*
X118854000Y-119024000D03*
X118854000Y-119674000D03*
X118854000Y-120324000D03*
X118854000Y-120974000D03*
X118854000Y-121624000D03*
D22*
X120016500Y-146672500D03*
D23*
X120016500Y-144132500D03*
X120016500Y-141592500D03*
X120016500Y-139052500D03*
X117476500Y-146672500D03*
X117476500Y-144132500D03*
X117476500Y-141592500D03*
X117476500Y-139052500D03*
D24*
X118810000Y-158293000D03*
D25*
X111190000Y-168453000D03*
X118810000Y-160833000D03*
X111190000Y-165913000D03*
X118810000Y-163373000D03*
X111190000Y-163373000D03*
X118810000Y-165913000D03*
X111190000Y-160833000D03*
X118810000Y-168453000D03*
X111190000Y-158293000D03*
D26*
X111373000Y-153891999D03*
D27*
X123556001Y-157311500D03*
X122606001Y-157311500D03*
X121656001Y-157311500D03*
X121656001Y-155111500D03*
X123556001Y-155111500D03*
D28*
X118873500Y-111219500D03*
D29*
X118873500Y-109319500D03*
D12*
X127500000Y-102500000D03*
D10*
G36*
X114213008Y-126429662D02*
X114743338Y-126959992D01*
X114177652Y-127525678D01*
X113647322Y-126995348D01*
X114213008Y-126429662D01*
X114213008Y-126429662D01*
G37*
G36*
X113152348Y-127490322D02*
X113682678Y-128020652D01*
X113116992Y-128586338D01*
X112586662Y-128056008D01*
X113152348Y-127490322D01*
X113152348Y-127490322D01*
G37*
G36*
X129032338Y-126900508D02*
X128502008Y-127430838D01*
X127936322Y-126865152D01*
X128466652Y-126334822D01*
X129032338Y-126900508D01*
X129032338Y-126900508D01*
G37*
G36*
X127971678Y-125839848D02*
X127441348Y-126370178D01*
X126875662Y-125804492D01*
X127405992Y-125274162D01*
X127971678Y-125839848D01*
X127971678Y-125839848D01*
G37*
G36*
X122516492Y-139495838D02*
X121986162Y-138965508D01*
X122551848Y-138399822D01*
X123082178Y-138930152D01*
X122516492Y-139495838D01*
X122516492Y-139495838D01*
G37*
G36*
X123577152Y-138435178D02*
X123046822Y-137904848D01*
X123612508Y-137339162D01*
X124142838Y-137869492D01*
X123577152Y-138435178D01*
X123577152Y-138435178D01*
G37*
G36*
X114047162Y-133246492D02*
X114577492Y-132716162D01*
X115143178Y-133281848D01*
X114612848Y-133812178D01*
X114047162Y-133246492D01*
X114047162Y-133246492D01*
G37*
G36*
X115107822Y-134307152D02*
X115638152Y-133776822D01*
X116203838Y-134342508D01*
X115673508Y-134872838D01*
X115107822Y-134307152D01*
X115107822Y-134307152D01*
G37*
D30*
X122553000Y-115025000D03*
X103353000Y-111725000D03*
D31*
X124080500Y-160579000D03*
D32*
X122080500Y-160579000D03*
D31*
X119953000Y-104064000D03*
D32*
X121953000Y-104064000D03*
D31*
X117953000Y-104064000D03*
X115953000Y-104064000D03*
X113953000Y-104064000D03*
D33*
X128271500Y-162357000D03*
D34*
X128271500Y-159817000D03*
X128271500Y-157277000D03*
X128271500Y-154737000D03*
D35*
G36*
X126303000Y-157213500D02*
X125223500Y-157213500D01*
X125223500Y-155181500D01*
X126303000Y-155181500D01*
X126303000Y-157213500D01*
X126303000Y-157213500D01*
G37*
X126303000Y-157213500D02*
X125223500Y-157213500D01*
X125223500Y-155181500D01*
X126303000Y-155181500D01*
X126303000Y-157213500D01*
M02*
