  0
SECTION
  2
HEADER
  9
$ANGBASE
  50
0.0
  9
$ANGDIR
  70
  1
  9
$MEASUREMENT
  70
0
  0
ENDSEC
  0
SECTION
  2
TABLES
  0
TABLE
  2
LTYPE
  70
1
  0
LTYPE
  2
CONTINUOUS
  70
0
  3
Solid line
  72
65
  73
0
  40
0.0
  0
ENDTAB
  0
TABLE
  2
STYLE
  70
4
  0
STYLE
  2
KICAD
  70
0
  40
0
  41
1
  42
1
  50
0
  71
0
  3
isocp.shx
  0
STYLE
  2
KICADB
  70
0
  40
0
  41
1
  42
1
  50
0
  71
0
  3
isocp.shx
  0
STYLE
  2
KICADI
  70
0
  40
0
  41
1
  42
1
  50
15
  71
0
  3
isocp.shx
  0
STYLE
  2
KICADBI
  70
0
  40
0
  41
1
  42
1
  50
15
  71
0
  3
isocp.shx
  0
ENDTAB
  0
TABLE
  2
LAYER
  70
30
  0
LAYER
  2
BLACK
  70
0
  62
7
  6
CONTINUOUS
  0
LAYER
  2
GRAY1
  70
0
  62
251
  6
CONTINUOUS
  0
LAYER
  2
GRAY2
  70
0
  62
8
  6
CONTINUOUS
  0
LAYER
  2
GRAY3
  70
0
  62
9
  6
CONTINUOUS
  0
LAYER
  2
WHITE
  70
0
  62
7
  6
CONTINUOUS
  0
LAYER
  2
LYELLOW
  70
0
  62
51
  6
CONTINUOUS
  0
LAYER
  2
BLUE1
  70
0
  62
178
  6
CONTINUOUS
  0
LAYER
  2
GREEN1
  70
0
  62
98
  6
CONTINUOUS
  0
LAYER
  2
CYAN1
  70
0
  62
138
  6
CONTINUOUS
  0
LAYER
  2
RED1
  70
0
  62
18
  6
CONTINUOUS
  0
LAYER
  2
MAGENTA1
  70
0
  62
228
  6
CONTINUOUS
  0
LAYER
  2
BROWN1
  70
0
  62
58
  6
CONTINUOUS
  0
LAYER
  2
BLUE2
  70
0
  62
5
  6
CONTINUOUS
  0
LAYER
  2
GREEN2
  70
0
  62
3
  6
CONTINUOUS
  0
LAYER
  2
CYAN2
  70
0
  62
4
  6
CONTINUOUS
  0
LAYER
  2
RED2
  70
0
  62
1
  6
CONTINUOUS
  0
LAYER
  2
MAGENTA2
  70
0
  62
6
  6
CONTINUOUS
  0
LAYER
  2
BROWN2
  70
0
  62
54
  6
CONTINUOUS
  0
LAYER
  2
BLUE3
  70
0
  62
171
  6
CONTINUOUS
  0
LAYER
  2
GREEN3
  70
0
  62
91
  6
CONTINUOUS
  0
LAYER
  2
CYAN3
  70
0
  62
131
  6
CONTINUOUS
  0
LAYER
  2
RED3
  70
0
  62
11
  6
CONTINUOUS
  0
LAYER
  2
MAGENTA3
  70
0
  62
221
  6
CONTINUOUS
  0
LAYER
  2
YELLOW3
  70
0
  62
2
  6
CONTINUOUS
  0
LAYER
  2
BLUE4
  70
0
  62
5
  6
CONTINUOUS
  0
LAYER
  2
GREEN4
  70
0
  62
3
  6
CONTINUOUS
  0
LAYER
  2
CYAN4
  70
0
  62
4
  6
CONTINUOUS
  0
LAYER
  2
RED4
  70
0
  62
1
  6
CONTINUOUS
  0
LAYER
  2
MAGENTA4
  70
0
  62
6
  6
CONTINUOUS
  0
LAYER
  2
YELLOW4
  70
0
  62
2
  6
CONTINUOUS
  0
ENDTAB
  0
ENDSEC
  0
SECTION
  2
ENTITIES
0
LINE
8
Black
10
119.087
20
-167.701
11
119.327
21
-167.84
0
LINE
8
Black
10
119.327
20
-167.84
11
119.506
21
-168.053
0
LINE
8
Black
10
119.506
20
-168.053
11
119.601
21
-168.314
0
LINE
8
Black
10
119.601
20
-168.314
11
119.601
21
-168.592
0
LINE
8
Black
10
119.601
20
-168.592
11
119.506
21
-168.853
0
LINE
8
Black
10
119.506
20
-168.853
11
119.327
21
-169.066
0
LINE
8
Black
10
119.327
20
-169.066
11
119.087
21
-169.205
0
LINE
8
Black
10
119.087
20
-169.205
11
118.813
21
-169.253
0
LINE
8
Black
10
118.813
20
-169.253
11
118.807
21
-169.253
0
LINE
8
Black
10
118.807
20
-169.253
11
118.533
21
-169.205
0
LINE
8
Black
10
118.533
20
-169.205
11
118.293
21
-169.066
0
LINE
8
Black
10
118.293
20
-169.066
11
118.114
21
-168.853
0
LINE
8
Black
10
118.114
20
-168.853
11
118.019
21
-168.592
0
LINE
8
Black
10
118.019
20
-168.592
11
118.019
21
-168.314
0
LINE
8
Black
10
118.019
20
-168.314
11
118.114
21
-168.053
0
LINE
8
Black
10
118.114
20
-168.053
11
118.293
21
-167.84
0
LINE
8
Black
10
118.293
20
-167.84
11
118.533
21
-167.701
0
LINE
8
Black
10
118.533
20
-167.701
11
118.807
21
-167.653
0
LINE
8
Black
10
118.807
20
-167.653
11
118.813
21
-167.653
0
LINE
8
Black
10
118.813
20
-167.653
11
119.087
21
-167.701
0
LINE
8
Black
10
111.467
20
-167.701
11
111.707
21
-167.84
0
LINE
8
Black
10
111.707
20
-167.84
11
111.886
21
-168.053
0
LINE
8
Black
10
111.886
20
-168.053
11
111.981
21
-168.314
0
LINE
8
Black
10
111.981
20
-168.314
11
111.981
21
-168.592
0
LINE
8
Black
10
111.981
20
-168.592
11
111.886
21
-168.853
0
LINE
8
Black
10
111.886
20
-168.853
11
111.707
21
-169.066
0
LINE
8
Black
10
111.707
20
-169.066
11
111.467
21
-169.205
0
LINE
8
Black
10
111.467
20
-169.205
11
111.193
21
-169.253
0
LINE
8
Black
10
111.193
20
-169.253
11
111.187
21
-169.253
0
LINE
8
Black
10
111.187
20
-169.253
11
110.913
21
-169.205
0
LINE
8
Black
10
110.913
20
-169.205
11
110.673
21
-169.066
0
LINE
8
Black
10
110.673
20
-169.066
11
110.494
21
-168.853
0
LINE
8
Black
10
110.494
20
-168.853
11
110.399
21
-168.592
0
LINE
8
Black
10
110.399
20
-168.592
11
110.399
21
-168.314
0
LINE
8
Black
10
110.399
20
-168.314
11
110.494
21
-168.053
0
LINE
8
Black
10
110.494
20
-168.053
11
110.673
21
-167.84
0
LINE
8
Black
10
110.673
20
-167.84
11
110.913
21
-167.701
0
LINE
8
Black
10
110.913
20
-167.701
11
111.187
21
-167.653
0
LINE
8
Black
10
111.187
20
-167.653
11
111.193
21
-167.653
0
LINE
8
Black
10
111.193
20
-167.653
11
111.467
21
-167.701
0
LINE
8
Black
10
103.015
20
-166.085
11
103.468
21
-166.347
0
LINE
8
Black
10
103.468
20
-166.347
11
103.804
21
-166.747
0
LINE
8
Black
10
103.804
20
-166.747
11
103.983
21
-167.239
0
LINE
8
Black
10
103.983
20
-167.239
11
103.983
21
-167.761
0
LINE
8
Black
10
103.983
20
-167.761
11
103.804
21
-168.253
0
LINE
8
Black
10
103.804
20
-168.253
11
103.468
21
-168.653
0
LINE
8
Black
10
103.468
20
-168.653
11
103.015
21
-168.915
0
LINE
8
Black
10
103.015
20
-168.915
11
102.5
21
-169.006
0
LINE
8
Black
10
102.5
20
-169.006
11
101.985
21
-168.915
0
LINE
8
Black
10
101.985
20
-168.915
11
101.532
21
-168.653
0
LINE
8
Black
10
101.532
20
-168.653
11
101.196
21
-168.253
0
LINE
8
Black
10
101.196
20
-168.253
11
101.017
21
-167.761
0
LINE
8
Black
10
101.017
20
-167.761
11
101.017
21
-167.239
0
LINE
8
Black
10
101.017
20
-167.239
11
101.196
21
-166.747
0
LINE
8
Black
10
101.196
20
-166.747
11
101.532
21
-166.347
0
LINE
8
Black
10
101.532
20
-166.347
11
101.985
21
-166.085
0
LINE
8
Black
10
101.985
20
-166.085
11
102.5
21
-165.994
0
LINE
8
Black
10
102.5
20
-165.994
11
103.015
21
-166.085
0
LINE
8
Black
10
128.015
20
-166.085
11
128.468
21
-166.347
0
LINE
8
Black
10
128.468
20
-166.347
11
128.804
21
-166.747
0
LINE
8
Black
10
128.804
20
-166.747
11
128.983
21
-167.239
0
LINE
8
Black
10
128.983
20
-167.239
11
128.983
21
-167.761
0
LINE
8
Black
10
128.983
20
-167.761
11
128.804
21
-168.253
0
LINE
8
Black
10
128.804
20
-168.253
11
128.468
21
-168.653
0
LINE
8
Black
10
128.468
20
-168.653
11
128.015
21
-168.915
0
LINE
8
Black
10
128.015
20
-168.915
11
127.5
21
-169.006
0
LINE
8
Black
10
127.5
20
-169.006
11
126.985
21
-168.915
0
LINE
8
Black
10
126.985
20
-168.915
11
126.532
21
-168.653
0
LINE
8
Black
10
126.532
20
-168.653
11
126.196
21
-168.253
0
LINE
8
Black
10
126.196
20
-168.253
11
126.017
21
-167.761
0
LINE
8
Black
10
126.017
20
-167.761
11
126.017
21
-167.239
0
LINE
8
Black
10
126.017
20
-167.239
11
126.196
21
-166.747
0
LINE
8
Black
10
126.196
20
-166.747
11
126.532
21
-166.347
0
LINE
8
Black
10
126.532
20
-166.347
11
126.985
21
-166.085
0
LINE
8
Black
10
126.985
20
-166.085
11
127.5
21
-165.994
0
LINE
8
Black
10
127.5
20
-165.994
11
128.015
21
-166.085
0
LINE
8
Black
10
119.087
20
-165.161
11
119.327
21
-165.3
0
LINE
8
Black
10
119.327
20
-165.3
11
119.506
21
-165.513
0
LINE
8
Black
10
119.506
20
-165.513
11
119.601
21
-165.774
0
LINE
8
Black
10
119.601
20
-165.774
11
119.601
21
-166.052
0
LINE
8
Black
10
119.601
20
-166.052
11
119.506
21
-166.313
0
LINE
8
Black
10
119.506
20
-166.313
11
119.327
21
-166.526
0
LINE
8
Black
10
119.327
20
-166.526
11
119.087
21
-166.665
0
LINE
8
Black
10
119.087
20
-166.665
11
118.813
21
-166.713
0
LINE
8
Black
10
118.813
20
-166.713
11
118.807
21
-166.713
0
LINE
8
Black
10
118.807
20
-166.713
11
118.533
21
-166.665
0
LINE
8
Black
10
118.533
20
-166.665
11
118.293
21
-166.526
0
LINE
8
Black
10
118.293
20
-166.526
11
118.114
21
-166.313
0
LINE
8
Black
10
118.114
20
-166.313
11
118.019
21
-166.052
0
LINE
8
Black
10
118.019
20
-166.052
11
118.019
21
-165.774
0
LINE
8
Black
10
118.019
20
-165.774
11
118.114
21
-165.513
0
LINE
8
Black
10
118.114
20
-165.513
11
118.293
21
-165.3
0
LINE
8
Black
10
118.293
20
-165.3
11
118.533
21
-165.161
0
LINE
8
Black
10
118.533
20
-165.161
11
118.807
21
-165.113
0
LINE
8
Black
10
118.807
20
-165.113
11
118.813
21
-165.113
0
LINE
8
Black
10
118.813
20
-165.113
11
119.087
21
-165.161
0
LINE
8
Black
10
111.467
20
-165.161
11
111.707
21
-165.3
0
LINE
8
Black
10
111.707
20
-165.3
11
111.886
21
-165.513
0
LINE
8
Black
10
111.886
20
-165.513
11
111.981
21
-165.774
0
LINE
8
Black
10
111.981
20
-165.774
11
111.981
21
-166.052
0
LINE
8
Black
10
111.981
20
-166.052
11
111.886
21
-166.313
0
LINE
8
Black
10
111.886
20
-166.313
11
111.707
21
-166.526
0
LINE
8
Black
10
111.707
20
-166.526
11
111.467
21
-166.665
0
LINE
8
Black
10
111.467
20
-166.665
11
111.193
21
-166.713
0
LINE
8
Black
10
111.193
20
-166.713
11
111.187
21
-166.713
0
LINE
8
Black
10
111.187
20
-166.713
11
110.913
21
-166.665
0
LINE
8
Black
10
110.913
20
-166.665
11
110.673
21
-166.526
0
LINE
8
Black
10
110.673
20
-166.526
11
110.494
21
-166.313
0
LINE
8
Black
10
110.494
20
-166.313
11
110.399
21
-166.052
0
LINE
8
Black
10
110.399
20
-166.052
11
110.399
21
-165.774
0
LINE
8
Black
10
110.399
20
-165.774
11
110.494
21
-165.513
0
LINE
8
Black
10
110.494
20
-165.513
11
110.673
21
-165.3
0
LINE
8
Black
10
110.673
20
-165.3
11
110.913
21
-165.161
0
LINE
8
Black
10
110.913
20
-165.161
11
111.187
21
-165.113
0
LINE
8
Black
10
111.187
20
-165.113
11
111.193
21
-165.113
0
LINE
8
Black
10
111.193
20
-165.113
11
111.467
21
-165.161
0
LINE
8
Black
10
115.4
20
-166.605
11
114.6
21
-166.605
0
LINE
8
Black
10
114.6
20
-166.605
11
114.6
21
-165.805
0
LINE
8
Black
10
114.6
20
-165.805
11
115.4
21
-165.805
0
LINE
8
Black
10
115.4
20
-165.805
11
115.4
21
-166.605
0
LINE
8
Black
10
115.4
20
-165.005
11
114.6
21
-165.005
0
LINE
8
Black
10
114.6
20
-165.005
11
114.6
21
-164.205
0
LINE
8
Black
10
114.6
20
-164.205
11
115.4
21
-164.205
0
LINE
8
Black
10
115.4
20
-164.205
11
115.4
21
-165.005
0
LINE
8
Black
10
111.467
20
-162.621
11
111.707
21
-162.76
0
LINE
8
Black
10
111.707
20
-162.76
11
111.886
21
-162.973
0
LINE
8
Black
10
111.886
20
-162.973
11
111.981
21
-163.234
0
LINE
8
Black
10
111.981
20
-163.234
11
111.981
21
-163.512
0
LINE
8
Black
10
111.981
20
-163.512
11
111.886
21
-163.773
0
LINE
8
Black
10
111.886
20
-163.773
11
111.707
21
-163.986
0
LINE
8
Black
10
111.707
20
-163.986
11
111.467
21
-164.125
0
LINE
8
Black
10
111.467
20
-164.125
11
111.193
21
-164.173
0
LINE
8
Black
10
111.193
20
-164.173
11
111.187
21
-164.173
0
LINE
8
Black
10
111.187
20
-164.173
11
110.913
21
-164.125
0
LINE
8
Black
10
110.913
20
-164.125
11
110.673
21
-163.986
0
LINE
8
Black
10
110.673
20
-163.986
11
110.494
21
-163.773
0
LINE
8
Black
10
110.494
20
-163.773
11
110.399
21
-163.512
0
LINE
8
Black
10
110.399
20
-163.512
11
110.399
21
-163.234
0
LINE
8
Black
10
110.399
20
-163.234
11
110.494
21
-162.973
0
LINE
8
Black
10
110.494
20
-162.973
11
110.673
21
-162.76
0
LINE
8
Black
10
110.673
20
-162.76
11
110.913
21
-162.621
0
LINE
8
Black
10
110.913
20
-162.621
11
111.187
21
-162.573
0
LINE
8
Black
10
111.187
20
-162.573
11
111.193
21
-162.573
0
LINE
8
Black
10
111.193
20
-162.573
11
111.467
21
-162.621
0
LINE
8
Black
10
119.087
20
-162.621
11
119.327
21
-162.76
0
LINE
8
Black
10
119.327
20
-162.76
11
119.506
21
-162.973
0
LINE
8
Black
10
119.506
20
-162.973
11
119.601
21
-163.234
0
LINE
8
Black
10
119.601
20
-163.234
11
119.601
21
-163.512
0
LINE
8
Black
10
119.601
20
-163.512
11
119.506
21
-163.773
0
LINE
8
Black
10
119.506
20
-163.773
11
119.327
21
-163.986
0
LINE
8
Black
10
119.327
20
-163.986
11
119.087
21
-164.125
0
LINE
8
Black
10
119.087
20
-164.125
11
118.813
21
-164.173
0
LINE
8
Black
10
118.813
20
-164.173
11
118.807
21
-164.173
0
LINE
8
Black
10
118.807
20
-164.173
11
118.533
21
-164.125
0
LINE
8
Black
10
118.533
20
-164.125
11
118.293
21
-163.986
0
LINE
8
Black
10
118.293
20
-163.986
11
118.114
21
-163.773
0
LINE
8
Black
10
118.114
20
-163.773
11
118.019
21
-163.512
0
LINE
8
Black
10
118.019
20
-163.512
11
118.019
21
-163.234
0
LINE
8
Black
10
118.019
20
-163.234
11
118.114
21
-162.973
0
LINE
8
Black
10
118.114
20
-162.973
11
118.293
21
-162.76
0
LINE
8
Black
10
118.293
20
-162.76
11
118.533
21
-162.621
0
LINE
8
Black
10
118.533
20
-162.621
11
118.807
21
-162.573
0
LINE
8
Black
10
118.807
20
-162.573
11
118.813
21
-162.573
0
LINE
8
Black
10
118.813
20
-162.573
11
119.087
21
-162.621
0
LINE
8
Black
10
115.45
20
-163.357
11
114.55
21
-163.357
0
LINE
8
Black
10
114.55
20
-163.357
11
114.55
21
-162.857
0
LINE
8
Black
10
114.55
20
-162.857
11
115.45
21
-162.857
0
LINE
8
Black
10
115.45
20
-162.857
11
115.45
21
-163.357
0
LINE
8
Black
10
129.121
20
-163.207
11
127.421
21
-163.207
0
LINE
8
Black
10
127.421
20
-163.207
11
127.421
21
-161.507
0
LINE
8
Black
10
127.421
20
-161.507
11
129.121
21
-161.507
0
LINE
8
Black
10
129.121
20
-161.507
11
129.121
21
-163.207
0
LINE
8
Black
10
115.45
20
-161.857
11
114.55
21
-161.857
0
LINE
8
Black
10
114.55
20
-161.857
11
114.55
21
-161.357
0
LINE
8
Black
10
114.55
20
-161.357
11
115.45
21
-161.357
0
LINE
8
Black
10
115.45
20
-161.357
11
115.45
21
-161.857
0
LINE
8
Black
10
111.467
20
-160.081
11
111.707
21
-160.22
0
LINE
8
Black
10
111.707
20
-160.22
11
111.886
21
-160.433
0
LINE
8
Black
10
111.886
20
-160.433
11
111.981
21
-160.694
0
LINE
8
Black
10
111.981
20
-160.694
11
111.981
21
-160.972
0
LINE
8
Black
10
111.981
20
-160.972
11
111.886
21
-161.233
0
LINE
8
Black
10
111.886
20
-161.233
11
111.707
21
-161.446
0
LINE
8
Black
10
111.707
20
-161.446
11
111.467
21
-161.585
0
LINE
8
Black
10
111.467
20
-161.585
11
111.193
21
-161.633
0
LINE
8
Black
10
111.193
20
-161.633
11
111.187
21
-161.633
0
LINE
8
Black
10
111.187
20
-161.633
11
110.913
21
-161.585
0
LINE
8
Black
10
110.913
20
-161.585
11
110.673
21
-161.446
0
LINE
8
Black
10
110.673
20
-161.446
11
110.494
21
-161.233
0
LINE
8
Black
10
110.494
20
-161.233
11
110.399
21
-160.972
0
LINE
8
Black
10
110.399
20
-160.972
11
110.399
21
-160.694
0
LINE
8
Black
10
110.399
20
-160.694
11
110.494
21
-160.433
0
LINE
8
Black
10
110.494
20
-160.433
11
110.673
21
-160.22
0
LINE
8
Black
10
110.673
20
-160.22
11
110.913
21
-160.081
0
LINE
8
Black
10
110.913
20
-160.081
11
111.187
21
-160.033
0
LINE
8
Black
10
111.187
20
-160.033
11
111.193
21
-160.033
0
LINE
8
Black
10
111.193
20
-160.033
11
111.467
21
-160.081
0
LINE
8
Black
10
119.087
20
-160.081
11
119.327
21
-160.22
0
LINE
8
Black
10
119.327
20
-160.22
11
119.506
21
-160.433
0
LINE
8
Black
10
119.506
20
-160.433
11
119.601
21
-160.694
0
LINE
8
Black
10
119.601
20
-160.694
11
119.601
21
-160.972
0
LINE
8
Black
10
119.601
20
-160.972
11
119.506
21
-161.233
0
LINE
8
Black
10
119.506
20
-161.233
11
119.327
21
-161.446
0
LINE
8
Black
10
119.327
20
-161.446
11
119.087
21
-161.585
0
LINE
8
Black
10
119.087
20
-161.585
11
118.813
21
-161.633
0
LINE
8
Black
10
118.813
20
-161.633
11
118.807
21
-161.633
0
LINE
8
Black
10
118.807
20
-161.633
11
118.533
21
-161.585
0
LINE
8
Black
10
118.533
20
-161.585
11
118.293
21
-161.446
0
LINE
8
Black
10
118.293
20
-161.446
11
118.114
21
-161.233
0
LINE
8
Black
10
118.114
20
-161.233
11
118.019
21
-160.972
0
LINE
8
Black
10
118.019
20
-160.972
11
118.019
21
-160.694
0
LINE
8
Black
10
118.019
20
-160.694
11
118.114
21
-160.433
0
LINE
8
Black
10
118.114
20
-160.433
11
118.293
21
-160.22
0
LINE
8
Black
10
118.293
20
-160.22
11
118.533
21
-160.081
0
LINE
8
Black
10
118.533
20
-160.081
11
118.807
21
-160.033
0
LINE
8
Black
10
118.807
20
-160.033
11
118.813
21
-160.033
0
LINE
8
Black
10
118.813
20
-160.033
11
119.087
21
-160.081
0
LINE
8
Black
10
124.321
20
-159.919
11
124.532
21
-160.041
0
LINE
8
Black
10
124.532
20
-160.041
11
124.689
21
-160.228
0
LINE
8
Black
10
124.689
20
-160.228
11
124.772
21
-160.457
0
LINE
8
Black
10
124.772
20
-160.457
11
124.772
21
-160.701
0
LINE
8
Black
10
124.772
20
-160.701
11
124.689
21
-160.93
0
LINE
8
Black
10
124.689
20
-160.93
11
124.532
21
-161.117
0
LINE
8
Black
10
124.532
20
-161.117
11
124.321
21
-161.239
0
LINE
8
Black
10
124.321
20
-161.239
11
124.081
21
-161.282
0
LINE
8
Black
10
124.081
20
-161.282
11
123.84
21
-161.239
0
LINE
8
Black
10
123.84
20
-161.239
11
123.629
21
-161.117
0
LINE
8
Black
10
123.629
20
-161.117
11
123.472
21
-160.93
0
LINE
8
Black
10
123.472
20
-160.93
11
123.389
21
-160.701
0
LINE
8
Black
10
123.389
20
-160.701
11
123.389
21
-160.457
0
LINE
8
Black
10
123.389
20
-160.457
11
123.472
21
-160.228
0
LINE
8
Black
10
123.472
20
-160.228
11
123.629
21
-160.041
0
LINE
8
Black
10
123.629
20
-160.041
11
123.84
21
-159.919
0
LINE
8
Black
10
123.84
20
-159.919
11
124.081
21
-159.876
0
LINE
8
Black
10
124.081
20
-159.876
11
124.321
21
-159.919
0
LINE
8
Black
10
122.78
20
-161.279
11
121.38
21
-161.279
0
LINE
8
Black
10
121.38
20
-161.279
11
121.38
21
-159.879
0
LINE
8
Black
10
121.38
20
-159.879
11
122.78
21
-159.879
0
LINE
8
Black
10
122.78
20
-159.879
11
122.78
21
-161.279
0
LINE
8
Black
10
128.565
20
-159.018
11
128.821
21
-159.166
0
LINE
8
Black
10
128.821
20
-159.166
11
129.011
21
-159.392
0
LINE
8
Black
10
129.011
20
-159.392
11
129.112
21
-159.669
0
LINE
8
Black
10
129.112
20
-159.669
11
129.112
21
-159.965
0
LINE
8
Black
10
129.112
20
-159.965
11
129.011
21
-160.242
0
LINE
8
Black
10
129.011
20
-160.242
11
128.821
21
-160.468
0
LINE
8
Black
10
128.821
20
-160.468
11
128.565
21
-160.616
0
LINE
8
Black
10
128.565
20
-160.616
11
128.275
21
-160.667
0
LINE
8
Black
10
128.275
20
-160.667
11
128.268
21
-160.667
0
LINE
8
Black
10
128.268
20
-160.667
11
127.978
21
-160.616
0
LINE
8
Black
10
127.978
20
-160.616
11
127.722
21
-160.468
0
LINE
8
Black
10
127.722
20
-160.468
11
127.532
21
-160.242
0
LINE
8
Black
10
127.532
20
-160.242
11
127.431
21
-159.965
0
LINE
8
Black
10
127.431
20
-159.965
11
127.431
21
-159.669
0
LINE
8
Black
10
127.431
20
-159.669
11
127.532
21
-159.392
0
LINE
8
Black
10
127.532
20
-159.392
11
127.722
21
-159.166
0
LINE
8
Black
10
127.722
20
-159.166
11
127.978
21
-159.018
0
LINE
8
Black
10
127.978
20
-159.018
11
128.268
21
-158.967
0
LINE
8
Black
10
128.268
20
-158.967
11
128.275
21
-158.967
0
LINE
8
Black
10
128.275
20
-158.967
11
128.565
21
-159.018
0
LINE
8
Black
10
111.467
20
-157.541
11
111.707
21
-157.68
0
LINE
8
Black
10
111.707
20
-157.68
11
111.886
21
-157.893
0
LINE
8
Black
10
111.886
20
-157.893
11
111.981
21
-158.154
0
LINE
8
Black
10
111.981
20
-158.154
11
111.981
21
-158.432
0
LINE
8
Black
10
111.981
20
-158.432
11
111.886
21
-158.693
0
LINE
8
Black
10
111.886
20
-158.693
11
111.707
21
-158.906
0
LINE
8
Black
10
111.707
20
-158.906
11
111.467
21
-159.045
0
LINE
8
Black
10
111.467
20
-159.045
11
111.193
21
-159.093
0
LINE
8
Black
10
111.193
20
-159.093
11
111.187
21
-159.093
0
LINE
8
Black
10
111.187
20
-159.093
11
110.913
21
-159.045
0
LINE
8
Black
10
110.913
20
-159.045
11
110.673
21
-158.906
0
LINE
8
Black
10
110.673
20
-158.906
11
110.494
21
-158.693
0
LINE
8
Black
10
110.494
20
-158.693
11
110.399
21
-158.432
0
LINE
8
Black
10
110.399
20
-158.432
11
110.399
21
-158.154
0
LINE
8
Black
10
110.399
20
-158.154
11
110.494
21
-157.893
0
LINE
8
Black
10
110.494
20
-157.893
11
110.673
21
-157.68
0
LINE
8
Black
10
110.673
20
-157.68
11
110.913
21
-157.541
0
LINE
8
Black
10
110.913
20
-157.541
11
111.187
21
-157.493
0
LINE
8
Black
10
111.187
20
-157.493
11
111.193
21
-157.493
0
LINE
8
Black
10
111.193
20
-157.493
11
111.467
21
-157.541
0
LINE
8
Black
10
119.61
20
-159.093
11
118.01
21
-159.093
0
LINE
8
Black
10
118.01
20
-159.093
11
118.01
21
-157.493
0
LINE
8
Black
10
118.01
20
-157.493
11
119.61
21
-157.493
0
LINE
8
Black
10
119.61
20
-157.493
11
119.61
21
-159.093
0
LINE
8
Black
10
128.565
20
-156.478
11
128.821
21
-156.626
0
LINE
8
Black
10
128.821
20
-156.626
11
129.011
21
-156.852
0
LINE
8
Black
10
129.011
20
-156.852
11
129.112
21
-157.129
0
LINE
8
Black
10
129.112
20
-157.129
11
129.112
21
-157.425
0
LINE
8
Black
10
129.112
20
-157.425
11
129.011
21
-157.702
0
LINE
8
Black
10
129.011
20
-157.702
11
128.821
21
-157.928
0
LINE
8
Black
10
128.821
20
-157.928
11
128.565
21
-158.076
0
LINE
8
Black
10
128.565
20
-158.076
11
128.275
21
-158.127
0
LINE
8
Black
10
128.275
20
-158.127
11
128.268
21
-158.127
0
LINE
8
Black
10
128.268
20
-158.127
11
127.978
21
-158.076
0
LINE
8
Black
10
127.978
20
-158.076
11
127.722
21
-157.928
0
LINE
8
Black
10
127.722
20
-157.928
11
127.532
21
-157.702
0
LINE
8
Black
10
127.532
20
-157.702
11
127.431
21
-157.425
0
LINE
8
Black
10
127.431
20
-157.425
11
127.431
21
-157.129
0
LINE
8
Black
10
127.431
20
-157.129
11
127.532
21
-156.852
0
LINE
8
Black
10
127.532
20
-156.852
11
127.722
21
-156.626
0
LINE
8
Black
10
127.722
20
-156.626
11
127.978
21
-156.478
0
LINE
8
Black
10
127.978
20
-156.478
11
128.268
21
-156.427
0
LINE
8
Black
10
128.268
20
-156.427
11
128.275
21
-156.427
0
LINE
8
Black
10
128.275
20
-156.427
11
128.565
21
-156.478
0
LINE
8
Black
10
112.808
20
-155.75
11
112.928
21
-155.85
0
LINE
8
Black
10
112.928
20
-155.85
11
113.006
21
-155.985
0
LINE
8
Black
10
113.006
20
-155.985
11
113.033
21
-156.139
0
LINE
8
Black
10
113.033
20
-156.139
11
113.033
21
-156.645
0
LINE
8
Black
10
113.033
20
-156.645
11
113.006
21
-156.799
0
LINE
8
Black
10
113.006
20
-156.799
11
112.928
21
-156.934
0
LINE
8
Black
10
112.928
20
-156.934
11
112.808
21
-157.034
0
LINE
8
Black
10
112.808
20
-157.034
11
112.661
21
-157.088
0
LINE
8
Black
10
112.661
20
-157.088
11
112.505
21
-157.088
0
LINE
8
Black
10
112.505
20
-157.088
11
112.358
21
-157.034
0
LINE
8
Black
10
112.358
20
-157.034
11
112.238
21
-156.934
0
LINE
8
Black
10
112.238
20
-156.934
11
112.16
21
-156.799
0
LINE
8
Black
10
112.16
20
-156.799
11
112.133
21
-156.645
0
LINE
8
Black
10
112.133
20
-156.645
11
112.133
21
-156.139
0
LINE
8
Black
10
112.133
20
-156.139
11
112.16
21
-155.985
0
LINE
8
Black
10
112.16
20
-155.985
11
112.238
21
-155.85
0
LINE
8
Black
10
112.238
20
-155.85
11
112.358
21
-155.75
0
LINE
8
Black
10
112.358
20
-155.75
11
112.505
21
-155.696
0
LINE
8
Black
10
112.505
20
-155.696
11
112.661
21
-155.696
0
LINE
8
Black
10
112.661
20
-155.696
11
112.808
21
-155.75
0
LINE
8
Black
10
111.538
20
-155.75
11
111.658
21
-155.85
0
LINE
8
Black
10
111.658
20
-155.85
11
111.736
21
-155.985
0
LINE
8
Black
10
111.736
20
-155.985
11
111.763
21
-156.139
0
LINE
8
Black
10
111.763
20
-156.139
11
111.763
21
-156.645
0
LINE
8
Black
10
111.763
20
-156.645
11
111.736
21
-156.799
0
LINE
8
Black
10
111.736
20
-156.799
11
111.658
21
-156.934
0
LINE
8
Black
10
111.658
20
-156.934
11
111.538
21
-157.034
0
LINE
8
Black
10
111.538
20
-157.034
11
111.391
21
-157.088
0
LINE
8
Black
10
111.391
20
-157.088
11
111.235
21
-157.088
0
LINE
8
Black
10
111.235
20
-157.088
11
111.088
21
-157.034
0
LINE
8
Black
10
111.088
20
-157.034
11
110.968
21
-156.934
0
LINE
8
Black
10
110.968
20
-156.934
11
110.89
21
-156.799
0
LINE
8
Black
10
110.89
20
-156.799
11
110.863
21
-156.645
0
LINE
8
Black
10
110.863
20
-156.645
11
110.863
21
-156.139
0
LINE
8
Black
10
110.863
20
-156.139
11
110.89
21
-155.985
0
LINE
8
Black
10
110.89
20
-155.985
11
110.968
21
-155.85
0
LINE
8
Black
10
110.968
20
-155.85
11
111.088
21
-155.75
0
LINE
8
Black
10
111.088
20
-155.75
11
111.235
21
-155.696
0
LINE
8
Black
10
111.235
20
-155.696
11
111.391
21
-155.696
0
LINE
8
Black
10
111.391
20
-155.696
11
111.538
21
-155.75
0
LINE
8
Black
10
110.268
20
-155.75
11
110.388
21
-155.85
0
LINE
8
Black
10
110.388
20
-155.85
11
110.466
21
-155.985
0
LINE
8
Black
10
110.466
20
-155.985
11
110.493
21
-156.139
0
LINE
8
Black
10
110.493
20
-156.139
11
110.493
21
-156.645
0
LINE
8
Black
10
110.493
20
-156.645
11
110.466
21
-156.799
0
LINE
8
Black
10
110.466
20
-156.799
11
110.388
21
-156.934
0
LINE
8
Black
10
110.388
20
-156.934
11
110.268
21
-157.034
0
LINE
8
Black
10
110.268
20
-157.034
11
110.121
21
-157.088
0
LINE
8
Black
10
110.121
20
-157.088
11
109.965
21
-157.088
0
LINE
8
Black
10
109.965
20
-157.088
11
109.818
21
-157.034
0
LINE
8
Black
10
109.818
20
-157.034
11
109.698
21
-156.934
0
LINE
8
Black
10
109.698
20
-156.934
11
109.62
21
-156.799
0
LINE
8
Black
10
109.62
20
-156.799
11
109.593
21
-156.645
0
LINE
8
Black
10
109.593
20
-156.645
11
109.593
21
-156.139
0
LINE
8
Black
10
109.593
20
-156.139
11
109.62
21
-155.985
0
LINE
8
Black
10
109.62
20
-155.985
11
109.698
21
-155.85
0
LINE
8
Black
10
109.698
20
-155.85
11
109.818
21
-155.75
0
LINE
8
Black
10
109.818
20
-155.75
11
109.965
21
-155.696
0
LINE
8
Black
10
109.965
20
-155.696
11
110.121
21
-155.696
0
LINE
8
Black
10
110.121
20
-155.696
11
110.268
21
-155.75
0
LINE
8
Black
10
108.998
20
-155.75
11
109.118
21
-155.85
0
LINE
8
Black
10
109.118
20
-155.85
11
109.196
21
-155.985
0
LINE
8
Black
10
109.196
20
-155.985
11
109.223
21
-156.139
0
LINE
8
Black
10
109.223
20
-156.139
11
109.223
21
-156.645
0
LINE
8
Black
10
109.223
20
-156.645
11
109.196
21
-156.799
0
LINE
8
Black
10
109.196
20
-156.799
11
109.118
21
-156.934
0
LINE
8
Black
10
109.118
20
-156.934
11
108.998
21
-157.034
0
LINE
8
Black
10
108.998
20
-157.034
11
108.851
21
-157.088
0
LINE
8
Black
10
108.851
20
-157.088
11
108.695
21
-157.088
0
LINE
8
Black
10
108.695
20
-157.088
11
108.548
21
-157.034
0
LINE
8
Black
10
108.548
20
-157.034
11
108.428
21
-156.934
0
LINE
8
Black
10
108.428
20
-156.934
11
108.35
21
-156.799
0
LINE
8
Black
10
108.35
20
-156.799
11
108.323
21
-156.645
0
LINE
8
Black
10
108.323
20
-156.645
11
108.323
21
-156.139
0
LINE
8
Black
10
108.323
20
-156.139
11
108.35
21
-155.985
0
LINE
8
Black
10
108.35
20
-155.985
11
108.428
21
-155.85
0
LINE
8
Black
10
108.428
20
-155.85
11
108.548
21
-155.75
0
LINE
8
Black
10
108.548
20
-155.75
11
108.695
21
-155.696
0
LINE
8
Black
10
108.695
20
-155.696
11
108.851
21
-155.696
0
LINE
8
Black
10
108.851
20
-155.696
11
108.998
21
-155.75
0
LINE
8
Black
10
107.728
20
-155.75
11
107.848
21
-155.85
0
LINE
8
Black
10
107.848
20
-155.85
11
107.926
21
-155.985
0
LINE
8
Black
10
107.926
20
-155.985
11
107.953
21
-156.139
0
LINE
8
Black
10
107.953
20
-156.139
11
107.953
21
-156.645
0
LINE
8
Black
10
107.953
20
-156.645
11
107.926
21
-156.799
0
LINE
8
Black
10
107.926
20
-156.799
11
107.848
21
-156.934
0
LINE
8
Black
10
107.848
20
-156.934
11
107.728
21
-157.034
0
LINE
8
Black
10
107.728
20
-157.034
11
107.581
21
-157.088
0
LINE
8
Black
10
107.581
20
-157.088
11
107.425
21
-157.088
0
LINE
8
Black
10
107.425
20
-157.088
11
107.278
21
-157.034
0
LINE
8
Black
10
107.278
20
-157.034
11
107.158
21
-156.934
0
LINE
8
Black
10
107.158
20
-156.934
11
107.08
21
-156.799
0
LINE
8
Black
10
107.08
20
-156.799
11
107.053
21
-156.645
0
LINE
8
Black
10
107.053
20
-156.645
11
107.053
21
-156.139
0
LINE
8
Black
10
107.053
20
-156.139
11
107.08
21
-155.985
0
LINE
8
Black
10
107.08
20
-155.985
11
107.158
21
-155.85
0
LINE
8
Black
10
107.158
20
-155.85
11
107.278
21
-155.75
0
LINE
8
Black
10
107.278
20
-155.75
11
107.425
21
-155.696
0
LINE
8
Black
10
107.425
20
-155.696
11
107.581
21
-155.696
0
LINE
8
Black
10
107.581
20
-155.696
11
107.728
21
-155.75
0
LINE
8
Black
10
106.458
20
-155.75
11
106.578
21
-155.85
0
LINE
8
Black
10
106.578
20
-155.85
11
106.656
21
-155.985
0
LINE
8
Black
10
106.656
20
-155.985
11
106.683
21
-156.139
0
LINE
8
Black
10
106.683
20
-156.139
11
106.683
21
-156.645
0
LINE
8
Black
10
106.683
20
-156.645
11
106.656
21
-156.799
0
LINE
8
Black
10
106.656
20
-156.799
11
106.578
21
-156.934
0
LINE
8
Black
10
106.578
20
-156.934
11
106.458
21
-157.034
0
LINE
8
Black
10
106.458
20
-157.034
11
106.311
21
-157.088
0
LINE
8
Black
10
106.311
20
-157.088
11
106.155
21
-157.088
0
LINE
8
Black
10
106.155
20
-157.088
11
106.008
21
-157.034
0
LINE
8
Black
10
106.008
20
-157.034
11
105.888
21
-156.934
0
LINE
8
Black
10
105.888
20
-156.934
11
105.81
21
-156.799
0
LINE
8
Black
10
105.81
20
-156.799
11
105.783
21
-156.645
0
LINE
8
Black
10
105.783
20
-156.645
11
105.783
21
-156.139
0
LINE
8
Black
10
105.783
20
-156.139
11
105.81
21
-155.985
0
LINE
8
Black
10
105.81
20
-155.985
11
105.888
21
-155.85
0
LINE
8
Black
10
105.888
20
-155.85
11
106.008
21
-155.75
0
LINE
8
Black
10
106.008
20
-155.75
11
106.155
21
-155.696
0
LINE
8
Black
10
106.155
20
-155.696
11
106.311
21
-155.696
0
LINE
8
Black
10
106.311
20
-155.696
11
106.458
21
-155.75
0
LINE
8
Black
10
105.188
20
-155.75
11
105.308
21
-155.85
0
LINE
8
Black
10
105.308
20
-155.85
11
105.386
21
-155.985
0
LINE
8
Black
10
105.386
20
-155.985
11
105.413
21
-156.139
0
LINE
8
Black
10
105.413
20
-156.139
11
105.413
21
-156.645
0
LINE
8
Black
10
105.413
20
-156.645
11
105.386
21
-156.799
0
LINE
8
Black
10
105.386
20
-156.799
11
105.308
21
-156.934
0
LINE
8
Black
10
105.308
20
-156.934
11
105.188
21
-157.034
0
LINE
8
Black
10
105.188
20
-157.034
11
105.041
21
-157.088
0
LINE
8
Black
10
105.041
20
-157.088
11
104.885
21
-157.088
0
LINE
8
Black
10
104.885
20
-157.088
11
104.738
21
-157.034
0
LINE
8
Black
10
104.738
20
-157.034
11
104.618
21
-156.934
0
LINE
8
Black
10
104.618
20
-156.934
11
104.54
21
-156.799
0
LINE
8
Black
10
104.54
20
-156.799
11
104.513
21
-156.645
0
LINE
8
Black
10
104.513
20
-156.645
11
104.513
21
-156.139
0
LINE
8
Black
10
104.513
20
-156.139
11
104.54
21
-155.985
0
LINE
8
Black
10
104.54
20
-155.985
11
104.618
21
-155.85
0
LINE
8
Black
10
104.618
20
-155.85
11
104.738
21
-155.75
0
LINE
8
Black
10
104.738
20
-155.75
11
104.885
21
-155.696
0
LINE
8
Black
10
104.885
20
-155.696
11
105.041
21
-155.696
0
LINE
8
Black
10
105.041
20
-155.696
11
105.188
21
-155.75
0
LINE
8
Black
10
103.918
20
-155.75
11
104.038
21
-155.85
0
LINE
8
Black
10
104.038
20
-155.85
11
104.116
21
-155.985
0
LINE
8
Black
10
104.116
20
-155.985
11
104.143
21
-156.139
0
LINE
8
Black
10
104.143
20
-156.139
11
104.143
21
-156.645
0
LINE
8
Black
10
104.143
20
-156.645
11
104.116
21
-156.799
0
LINE
8
Black
10
104.116
20
-156.799
11
104.038
21
-156.934
0
LINE
8
Black
10
104.038
20
-156.934
11
103.918
21
-157.034
0
LINE
8
Black
10
103.918
20
-157.034
11
103.771
21
-157.088
0
LINE
8
Black
10
103.771
20
-157.088
11
103.615
21
-157.088
0
LINE
8
Black
10
103.615
20
-157.088
11
103.468
21
-157.034
0
LINE
8
Black
10
103.468
20
-157.034
11
103.348
21
-156.934
0
LINE
8
Black
10
103.348
20
-156.934
11
103.27
21
-156.799
0
LINE
8
Black
10
103.27
20
-156.799
11
103.243
21
-156.645
0
LINE
8
Black
10
103.243
20
-156.645
11
103.243
21
-156.139
0
LINE
8
Black
10
103.243
20
-156.139
11
103.27
21
-155.985
0
LINE
8
Black
10
103.27
20
-155.985
11
103.348
21
-155.85
0
LINE
8
Black
10
103.348
20
-155.85
11
103.468
21
-155.75
0
LINE
8
Black
10
103.468
20
-155.75
11
103.615
21
-155.696
0
LINE
8
Black
10
103.615
20
-155.696
11
103.771
21
-155.696
0
LINE
8
Black
10
103.771
20
-155.696
11
103.918
21
-155.75
0
LINE
8
Black
10
125.476
20
-156.671
11
122.176
21
-156.671
0
LINE
8
Black
10
122.176
20
-156.671
11
122.176
21
-154.371
0
LINE
8
Black
10
122.176
20
-154.371
11
125.476
21
-154.371
0
LINE
8
Black
10
125.476
20
-154.371
11
125.476
21
-156.671
0
LINE
8
Black
10
128.565
20
-153.938
11
128.821
21
-154.086
0
LINE
8
Black
10
128.821
20
-154.086
11
129.011
21
-154.312
0
LINE
8
Black
10
129.011
20
-154.312
11
129.112
21
-154.589
0
LINE
8
Black
10
129.112
20
-154.589
11
129.112
21
-154.885
0
LINE
8
Black
10
129.112
20
-154.885
11
129.011
21
-155.162
0
LINE
8
Black
10
129.011
20
-155.162
11
128.821
21
-155.388
0
LINE
8
Black
10
128.821
20
-155.388
11
128.565
21
-155.536
0
LINE
8
Black
10
128.565
20
-155.536
11
128.275
21
-155.587
0
LINE
8
Black
10
128.275
20
-155.587
11
128.268
21
-155.587
0
LINE
8
Black
10
128.268
20
-155.587
11
127.978
21
-155.536
0
LINE
8
Black
10
127.978
20
-155.536
11
127.722
21
-155.388
0
LINE
8
Black
10
127.722
20
-155.388
11
127.532
21
-155.162
0
LINE
8
Black
10
127.532
20
-155.162
11
127.431
21
-154.885
0
LINE
8
Black
10
127.431
20
-154.885
11
127.431
21
-154.589
0
LINE
8
Black
10
127.431
20
-154.589
11
127.532
21
-154.312
0
LINE
8
Black
10
127.532
20
-154.312
11
127.722
21
-154.086
0
LINE
8
Black
10
127.722
20
-154.086
11
127.978
21
-153.938
0
LINE
8
Black
10
127.978
20
-153.938
11
128.268
21
-153.887
0
LINE
8
Black
10
128.268
20
-153.887
11
128.275
21
-153.887
0
LINE
8
Black
10
128.275
20
-153.887
11
128.565
21
-153.938
0
LINE
8
Black
10
112.83
20
-152.388
11
113.311
21
-152.666
0
LINE
8
Black
10
113.311
20
-152.666
11
113.668
21
-153.092
0
LINE
8
Black
10
113.668
20
-153.092
11
113.858
21
-153.614
0
LINE
8
Black
10
113.858
20
-153.614
11
113.858
21
-154.17
0
LINE
8
Black
10
113.858
20
-154.17
11
113.668
21
-154.692
0
LINE
8
Black
10
113.668
20
-154.692
11
113.311
21
-155.118
0
LINE
8
Black
10
113.311
20
-155.118
11
112.83
21
-155.396
0
LINE
8
Black
10
112.83
20
-155.396
11
112.283
21
-155.492
0
LINE
8
Black
10
112.283
20
-155.492
11
110.463
21
-155.492
0
LINE
8
Black
10
110.463
20
-155.492
11
109.916
21
-155.396
0
LINE
8
Black
10
109.916
20
-155.396
11
109.435
21
-155.118
0
LINE
8
Black
10
109.435
20
-155.118
11
109.078
21
-154.692
0
LINE
8
Black
10
109.078
20
-154.692
11
108.888
21
-154.17
0
LINE
8
Black
10
108.888
20
-154.17
11
108.888
21
-153.614
0
LINE
8
Black
10
108.888
20
-153.614
11
109.078
21
-153.092
0
LINE
8
Black
10
109.078
20
-153.092
11
109.435
21
-152.666
0
LINE
8
Black
10
109.435
20
-152.666
11
109.916
21
-152.388
0
LINE
8
Black
10
109.916
20
-152.388
11
110.463
21
-152.292
0
LINE
8
Black
10
110.463
20
-152.292
11
112.283
21
-152.292
0
LINE
8
Black
10
112.283
20
-152.292
11
112.83
21
-152.388
0
LINE
8
Black
10
101.81
20
-153.679
11
101.945
21
-153.757
0
LINE
8
Black
10
101.945
20
-153.757
11
102.045
21
-153.877
0
LINE
8
Black
10
102.045
20
-153.877
11
102.099
21
-154.024
0
LINE
8
Black
10
102.099
20
-154.024
11
102.099
21
-154.18
0
LINE
8
Black
10
102.099
20
-154.18
11
102.045
21
-154.327
0
LINE
8
Black
10
102.045
20
-154.327
11
101.945
21
-154.447
0
LINE
8
Black
10
101.945
20
-154.447
11
101.81
21
-154.525
0
LINE
8
Black
10
101.81
20
-154.525
11
101.656
21
-154.552
0
LINE
8
Black
10
101.656
20
-154.552
11
101.15
21
-154.552
0
LINE
8
Black
10
101.15
20
-154.552
11
100.996
21
-154.525
0
LINE
8
Black
10
100.996
20
-154.525
11
100.861
21
-154.447
0
LINE
8
Black
10
100.861
20
-154.447
11
100.761
21
-154.327
0
LINE
8
Black
10
100.761
20
-154.327
11
100.707
21
-154.18
0
LINE
8
Black
10
100.707
20
-154.18
11
100.707
21
-154.024
0
LINE
8
Black
10
100.707
20
-154.024
11
100.761
21
-153.877
0
LINE
8
Black
10
100.761
20
-153.877
11
100.861
21
-153.757
0
LINE
8
Black
10
100.861
20
-153.757
11
100.996
21
-153.679
0
LINE
8
Black
10
100.996
20
-153.679
11
101.15
21
-153.652
0
LINE
8
Black
10
101.15
20
-153.652
11
101.656
21
-153.652
0
LINE
8
Black
10
101.656
20
-153.652
11
101.81
21
-153.679
0
LINE
8
Black
10
115.28
20
-153.679
11
115.415
21
-153.757
0
LINE
8
Black
10
115.415
20
-153.757
11
115.515
21
-153.877
0
LINE
8
Black
10
115.515
20
-153.877
11
115.569
21
-154.024
0
LINE
8
Black
10
115.569
20
-154.024
11
115.569
21
-154.18
0
LINE
8
Black
10
115.569
20
-154.18
11
115.515
21
-154.327
0
LINE
8
Black
10
115.515
20
-154.327
11
115.415
21
-154.447
0
LINE
8
Black
10
115.415
20
-154.447
11
115.28
21
-154.525
0
LINE
8
Black
10
115.28
20
-154.525
11
115.126
21
-154.552
0
LINE
8
Black
10
115.126
20
-154.552
11
114.62
21
-154.552
0
LINE
8
Black
10
114.62
20
-154.552
11
114.466
21
-154.525
0
LINE
8
Black
10
114.466
20
-154.525
11
114.331
21
-154.447
0
LINE
8
Black
10
114.331
20
-154.447
11
114.231
21
-154.327
0
LINE
8
Black
10
114.231
20
-154.327
11
114.177
21
-154.18
0
LINE
8
Black
10
114.177
20
-154.18
11
114.177
21
-154.024
0
LINE
8
Black
10
114.177
20
-154.024
11
114.231
21
-153.877
0
LINE
8
Black
10
114.231
20
-153.877
11
114.331
21
-153.757
0
LINE
8
Black
10
114.331
20
-153.757
11
114.466
21
-153.679
0
LINE
8
Black
10
114.466
20
-153.679
11
114.62
21
-153.652
0
LINE
8
Black
10
114.62
20
-153.652
11
115.126
21
-153.652
0
LINE
8
Black
10
115.126
20
-153.652
11
115.28
21
-153.679
0
LINE
8
Black
10
101.81
20
-152.409
11
101.945
21
-152.487
0
LINE
8
Black
10
101.945
20
-152.487
11
102.045
21
-152.607
0
LINE
8
Black
10
102.045
20
-152.607
11
102.099
21
-152.754
0
LINE
8
Black
10
102.099
20
-152.754
11
102.099
21
-152.91
0
LINE
8
Black
10
102.099
20
-152.91
11
102.045
21
-153.057
0
LINE
8
Black
10
102.045
20
-153.057
11
101.945
21
-153.177
0
LINE
8
Black
10
101.945
20
-153.177
11
101.81
21
-153.255
0
LINE
8
Black
10
101.81
20
-153.255
11
101.656
21
-153.282
0
LINE
8
Black
10
101.656
20
-153.282
11
101.15
21
-153.282
0
LINE
8
Black
10
101.15
20
-153.282
11
100.996
21
-153.255
0
LINE
8
Black
10
100.996
20
-153.255
11
100.861
21
-153.177
0
LINE
8
Black
10
100.861
20
-153.177
11
100.761
21
-153.057
0
LINE
8
Black
10
100.761
20
-153.057
11
100.707
21
-152.91
0
LINE
8
Black
10
100.707
20
-152.91
11
100.707
21
-152.754
0
LINE
8
Black
10
100.707
20
-152.754
11
100.761
21
-152.607
0
LINE
8
Black
10
100.761
20
-152.607
11
100.861
21
-152.487
0
LINE
8
Black
10
100.861
20
-152.487
11
100.996
21
-152.409
0
LINE
8
Black
10
100.996
20
-152.409
11
101.15
21
-152.382
0
LINE
8
Black
10
101.15
20
-152.382
11
101.656
21
-152.382
0
LINE
8
Black
10
101.656
20
-152.382
11
101.81
21
-152.409
0
LINE
8
Black
10
115.28
20
-152.409
11
115.415
21
-152.487
0
LINE
8
Black
10
115.415
20
-152.487
11
115.515
21
-152.607
0
LINE
8
Black
10
115.515
20
-152.607
11
115.569
21
-152.754
0
LINE
8
Black
10
115.569
20
-152.754
11
115.569
21
-152.91
0
LINE
8
Black
10
115.569
20
-152.91
11
115.515
21
-153.057
0
LINE
8
Black
10
115.515
20
-153.057
11
115.415
21
-153.177
0
LINE
8
Black
10
115.415
20
-153.177
11
115.28
21
-153.255
0
LINE
8
Black
10
115.28
20
-153.255
11
115.126
21
-153.282
0
LINE
8
Black
10
115.126
20
-153.282
11
114.62
21
-153.282
0
LINE
8
Black
10
114.62
20
-153.282
11
114.466
21
-153.255
0
LINE
8
Black
10
114.466
20
-153.255
11
114.331
21
-153.177
0
LINE
8
Black
10
114.331
20
-153.177
11
114.231
21
-153.057
0
LINE
8
Black
10
114.231
20
-153.057
11
114.177
21
-152.91
0
LINE
8
Black
10
114.177
20
-152.91
11
114.177
21
-152.754
0
LINE
8
Black
10
114.177
20
-152.754
11
114.231
21
-152.607
0
LINE
8
Black
10
114.231
20
-152.607
11
114.331
21
-152.487
0
LINE
8
Black
10
114.331
20
-152.487
11
114.466
21
-152.409
0
LINE
8
Black
10
114.466
20
-152.409
11
114.62
21
-152.382
0
LINE
8
Black
10
114.62
20
-152.382
11
115.126
21
-152.382
0
LINE
8
Black
10
115.126
20
-152.382
11
115.28
21
-152.409
0
LINE
8
Black
10
101.81
20
-151.139
11
101.945
21
-151.217
0
LINE
8
Black
10
101.945
20
-151.217
11
102.045
21
-151.337
0
LINE
8
Black
10
102.045
20
-151.337
11
102.099
21
-151.484
0
LINE
8
Black
10
102.099
20
-151.484
11
102.099
21
-151.64
0
LINE
8
Black
10
102.099
20
-151.64
11
102.045
21
-151.787
0
LINE
8
Black
10
102.045
20
-151.787
11
101.945
21
-151.907
0
LINE
8
Black
10
101.945
20
-151.907
11
101.81
21
-151.985
0
LINE
8
Black
10
101.81
20
-151.985
11
101.656
21
-152.012
0
LINE
8
Black
10
101.656
20
-152.012
11
101.15
21
-152.012
0
LINE
8
Black
10
101.15
20
-152.012
11
100.996
21
-151.985
0
LINE
8
Black
10
100.996
20
-151.985
11
100.861
21
-151.907
0
LINE
8
Black
10
100.861
20
-151.907
11
100.761
21
-151.787
0
LINE
8
Black
10
100.761
20
-151.787
11
100.707
21
-151.64
0
LINE
8
Black
10
100.707
20
-151.64
11
100.707
21
-151.484
0
LINE
8
Black
10
100.707
20
-151.484
11
100.761
21
-151.337
0
LINE
8
Black
10
100.761
20
-151.337
11
100.861
21
-151.217
0
LINE
8
Black
10
100.861
20
-151.217
11
100.996
21
-151.139
0
LINE
8
Black
10
100.996
20
-151.139
11
101.15
21
-151.112
0
LINE
8
Black
10
101.15
20
-151.112
11
101.656
21
-151.112
0
LINE
8
Black
10
101.656
20
-151.112
11
101.81
21
-151.139
0
LINE
8
Black
10
115.28
20
-151.139
11
115.415
21
-151.217
0
LINE
8
Black
10
115.415
20
-151.217
11
115.515
21
-151.337
0
LINE
8
Black
10
115.515
20
-151.337
11
115.569
21
-151.484
0
LINE
8
Black
10
115.569
20
-151.484
11
115.569
21
-151.64
0
LINE
8
Black
10
115.569
20
-151.64
11
115.515
21
-151.787
0
LINE
8
Black
10
115.515
20
-151.787
11
115.415
21
-151.907
0
LINE
8
Black
10
115.415
20
-151.907
11
115.28
21
-151.985
0
LINE
8
Black
10
115.28
20
-151.985
11
115.126
21
-152.012
0
LINE
8
Black
10
115.126
20
-152.012
11
114.62
21
-152.012
0
LINE
8
Black
10
114.62
20
-152.012
11
114.466
21
-151.985
0
LINE
8
Black
10
114.466
20
-151.985
11
114.331
21
-151.907
0
LINE
8
Black
10
114.331
20
-151.907
11
114.231
21
-151.787
0
LINE
8
Black
10
114.231
20
-151.787
11
114.177
21
-151.64
0
LINE
8
Black
10
114.177
20
-151.64
11
114.177
21
-151.484
0
LINE
8
Black
10
114.177
20
-151.484
11
114.231
21
-151.337
0
LINE
8
Black
10
114.231
20
-151.337
11
114.331
21
-151.217
0
LINE
8
Black
10
114.331
20
-151.217
11
114.466
21
-151.139
0
LINE
8
Black
10
114.466
20
-151.139
11
114.62
21
-151.112
0
LINE
8
Black
10
114.62
20
-151.112
11
115.126
21
-151.112
0
LINE
8
Black
10
115.126
20
-151.112
11
115.28
21
-151.139
0
LINE
8
Black
10
117.167
20
-151.758
11
116.667
21
-151.758
0
LINE
8
Black
10
116.667
20
-151.758
11
116.667
21
-150.858
0
LINE
8
Black
10
116.667
20
-150.858
11
117.167
21
-150.858
0
LINE
8
Black
10
117.167
20
-150.858
11
117.167
21
-151.758
0
LINE
8
Black
10
118.667
20
-151.758
11
118.167
21
-151.758
0
LINE
8
Black
10
118.167
20
-151.758
11
118.167
21
-150.858
0
LINE
8
Black
10
118.167
20
-150.858
11
118.667
21
-150.858
0
LINE
8
Black
10
118.667
20
-150.858
11
118.667
21
-151.758
0
LINE
8
Black
10
129.576
20
-151.601
11
126.976
21
-151.601
0
LINE
8
Black
10
126.976
20
-151.601
11
126.976
21
-150.401
0
LINE
8
Black
10
126.976
20
-150.401
11
129.576
21
-150.401
0
LINE
8
Black
10
129.576
20
-150.401
11
129.576
21
-151.601
0
LINE
8
Black
10
115.28
20
-149.869
11
115.415
21
-149.947
0
LINE
8
Black
10
115.415
20
-149.947
11
115.515
21
-150.067
0
LINE
8
Black
10
115.515
20
-150.067
11
115.569
21
-150.214
0
LINE
8
Black
10
115.569
20
-150.214
11
115.569
21
-150.37
0
LINE
8
Black
10
115.569
20
-150.37
11
115.515
21
-150.517
0
LINE
8
Black
10
115.515
20
-150.517
11
115.415
21
-150.637
0
LINE
8
Black
10
115.415
20
-150.637
11
115.28
21
-150.715
0
LINE
8
Black
10
115.28
20
-150.715
11
115.126
21
-150.742
0
LINE
8
Black
10
115.126
20
-150.742
11
114.62
21
-150.742
0
LINE
8
Black
10
114.62
20
-150.742
11
114.466
21
-150.715
0
LINE
8
Black
10
114.466
20
-150.715
11
114.331
21
-150.637
0
LINE
8
Black
10
114.331
20
-150.637
11
114.231
21
-150.517
0
LINE
8
Black
10
114.231
20
-150.517
11
114.177
21
-150.37
0
LINE
8
Black
10
114.177
20
-150.37
11
114.177
21
-150.214
0
LINE
8
Black
10
114.177
20
-150.214
11
114.231
21
-150.067
0
LINE
8
Black
10
114.231
20
-150.067
11
114.331
21
-149.947
0
LINE
8
Black
10
114.331
20
-149.947
11
114.466
21
-149.869
0
LINE
8
Black
10
114.466
20
-149.869
11
114.62
21
-149.842
0
LINE
8
Black
10
114.62
20
-149.842
11
115.126
21
-149.842
0
LINE
8
Black
10
115.126
20
-149.842
11
115.28
21
-149.869
0
LINE
8
Black
10
101.81
20
-149.869
11
101.945
21
-149.947
0
LINE
8
Black
10
101.945
20
-149.947
11
102.045
21
-150.067
0
LINE
8
Black
10
102.045
20
-150.067
11
102.099
21
-150.214
0
LINE
8
Black
10
102.099
20
-150.214
11
102.099
21
-150.37
0
LINE
8
Black
10
102.099
20
-150.37
11
102.045
21
-150.517
0
LINE
8
Black
10
102.045
20
-150.517
11
101.945
21
-150.637
0
LINE
8
Black
10
101.945
20
-150.637
11
101.81
21
-150.715
0
LINE
8
Black
10
101.81
20
-150.715
11
101.656
21
-150.742
0
LINE
8
Black
10
101.656
20
-150.742
11
101.15
21
-150.742
0
LINE
8
Black
10
101.15
20
-150.742
11
100.996
21
-150.715
0
LINE
8
Black
10
100.996
20
-150.715
11
100.861
21
-150.637
0
LINE
8
Black
10
100.861
20
-150.637
11
100.761
21
-150.517
0
LINE
8
Black
10
100.761
20
-150.517
11
100.707
21
-150.37
0
LINE
8
Black
10
100.707
20
-150.37
11
100.707
21
-150.214
0
LINE
8
Black
10
100.707
20
-150.214
11
100.761
21
-150.067
0
LINE
8
Black
10
100.761
20
-150.067
11
100.861
21
-149.947
0
LINE
8
Black
10
100.861
20
-149.947
11
100.996
21
-149.869
0
LINE
8
Black
10
100.996
20
-149.869
11
101.15
21
-149.842
0
LINE
8
Black
10
101.15
20
-149.842
11
101.656
21
-149.842
0
LINE
8
Black
10
101.656
20
-149.842
11
101.81
21
-149.869
0
LINE
8
Black
10
118.667
20
-150.361
11
118.167
21
-150.361
0
LINE
8
Black
10
118.167
20
-150.361
11
118.167
21
-149.461
0
LINE
8
Black
10
118.167
20
-149.461
11
118.667
21
-149.461
0
LINE
8
Black
10
118.667
20
-149.461
11
118.667
21
-150.361
0
LINE
8
Black
10
117.167
20
-150.361
11
116.667
21
-150.361
0
LINE
8
Black
10
116.667
20
-150.361
11
116.667
21
-149.461
0
LINE
8
Black
10
116.667
20
-149.461
11
117.167
21
-149.461
0
LINE
8
Black
10
117.167
20
-149.461
11
117.167
21
-150.361
0
LINE
8
Black
10
129.576
20
-149.601
11
126.976
21
-149.601
0
LINE
8
Black
10
126.976
20
-149.601
11
126.976
21
-148.401
0
LINE
8
Black
10
126.976
20
-148.401
11
129.576
21
-148.401
0
LINE
8
Black
10
129.576
20
-148.401
11
129.576
21
-149.601
0
LINE
8
Black
10
115.28
20
-148.599
11
115.415
21
-148.677
0
LINE
8
Black
10
115.415
20
-148.677
11
115.515
21
-148.797
0
LINE
8
Black
10
115.515
20
-148.797
11
115.569
21
-148.944
0
LINE
8
Black
10
115.569
20
-148.944
11
115.569
21
-149.1
0
LINE
8
Black
10
115.569
20
-149.1
11
115.515
21
-149.247
0
LINE
8
Black
10
115.515
20
-149.247
11
115.415
21
-149.367
0
LINE
8
Black
10
115.415
20
-149.367
11
115.28
21
-149.445
0
LINE
8
Black
10
115.28
20
-149.445
11
115.126
21
-149.472
0
LINE
8
Black
10
115.126
20
-149.472
11
114.62
21
-149.472
0
LINE
8
Black
10
114.62
20
-149.472
11
114.466
21
-149.445
0
LINE
8
Black
10
114.466
20
-149.445
11
114.331
21
-149.367
0
LINE
8
Black
10
114.331
20
-149.367
11
114.231
21
-149.247
0
LINE
8
Black
10
114.231
20
-149.247
11
114.177
21
-149.1
0
LINE
8
Black
10
114.177
20
-149.1
11
114.177
21
-148.944
0
LINE
8
Black
10
114.177
20
-148.944
11
114.231
21
-148.797
0
LINE
8
Black
10
114.231
20
-148.797
11
114.331
21
-148.677
0
LINE
8
Black
10
114.331
20
-148.677
11
114.466
21
-148.599
0
LINE
8
Black
10
114.466
20
-148.599
11
114.62
21
-148.572
0
LINE
8
Black
10
114.62
20
-148.572
11
115.126
21
-148.572
0
LINE
8
Black
10
115.126
20
-148.572
11
115.28
21
-148.599
0
LINE
8
Black
10
101.81
20
-148.599
11
101.945
21
-148.677
0
LINE
8
Black
10
101.945
20
-148.677
11
102.045
21
-148.797
0
LINE
8
Black
10
102.045
20
-148.797
11
102.099
21
-148.944
0
LINE
8
Black
10
102.099
20
-148.944
11
102.099
21
-149.1
0
LINE
8
Black
10
102.099
20
-149.1
11
102.045
21
-149.247
0
LINE
8
Black
10
102.045
20
-149.247
11
101.945
21
-149.367
0
LINE
8
Black
10
101.945
20
-149.367
11
101.81
21
-149.445
0
LINE
8
Black
10
101.81
20
-149.445
11
101.656
21
-149.472
0
LINE
8
Black
10
101.656
20
-149.472
11
101.15
21
-149.472
0
LINE
8
Black
10
101.15
20
-149.472
11
100.996
21
-149.445
0
LINE
8
Black
10
100.996
20
-149.445
11
100.861
21
-149.367
0
LINE
8
Black
10
100.861
20
-149.367
11
100.761
21
-149.247
0
LINE
8
Black
10
100.761
20
-149.247
11
100.707
21
-149.1
0
LINE
8
Black
10
100.707
20
-149.1
11
100.707
21
-148.944
0
LINE
8
Black
10
100.707
20
-148.944
11
100.761
21
-148.797
0
LINE
8
Black
10
100.761
20
-148.797
11
100.861
21
-148.677
0
LINE
8
Black
10
100.861
20
-148.677
11
100.996
21
-148.599
0
LINE
8
Black
10
100.996
20
-148.599
11
101.15
21
-148.572
0
LINE
8
Black
10
101.15
20
-148.572
11
101.656
21
-148.572
0
LINE
8
Black
10
101.656
20
-148.572
11
101.81
21
-148.599
0
LINE
8
Black
10
101.81
20
-147.329
11
101.945
21
-147.407
0
LINE
8
Black
10
101.945
20
-147.407
11
102.045
21
-147.527
0
LINE
8
Black
10
102.045
20
-147.527
11
102.099
21
-147.674
0
LINE
8
Black
10
102.099
20
-147.674
11
102.099
21
-147.83
0
LINE
8
Black
10
102.099
20
-147.83
11
102.045
21
-147.977
0
LINE
8
Black
10
102.045
20
-147.977
11
101.945
21
-148.097
0
LINE
8
Black
10
101.945
20
-148.097
11
101.81
21
-148.175
0
LINE
8
Black
10
101.81
20
-148.175
11
101.656
21
-148.202
0
LINE
8
Black
10
101.656
20
-148.202
11
101.15
21
-148.202
0
LINE
8
Black
10
101.15
20
-148.202
11
100.996
21
-148.175
0
LINE
8
Black
10
100.996
20
-148.175
11
100.861
21
-148.097
0
LINE
8
Black
10
100.861
20
-148.097
11
100.761
21
-147.977
0
LINE
8
Black
10
100.761
20
-147.977
11
100.707
21
-147.83
0
LINE
8
Black
10
100.707
20
-147.83
11
100.707
21
-147.674
0
LINE
8
Black
10
100.707
20
-147.674
11
100.761
21
-147.527
0
LINE
8
Black
10
100.761
20
-147.527
11
100.861
21
-147.407
0
LINE
8
Black
10
100.861
20
-147.407
11
100.996
21
-147.329
0
LINE
8
Black
10
100.996
20
-147.329
11
101.15
21
-147.302
0
LINE
8
Black
10
101.15
20
-147.302
11
101.656
21
-147.302
0
LINE
8
Black
10
101.656
20
-147.302
11
101.81
21
-147.329
0
LINE
8
Black
10
115.28
20
-147.329
11
115.415
21
-147.407
0
LINE
8
Black
10
115.415
20
-147.407
11
115.515
21
-147.527
0
LINE
8
Black
10
115.515
20
-147.527
11
115.569
21
-147.674
0
LINE
8
Black
10
115.569
20
-147.674
11
115.569
21
-147.83
0
LINE
8
Black
10
115.569
20
-147.83
11
115.515
21
-147.977
0
LINE
8
Black
10
115.515
20
-147.977
11
115.415
21
-148.097
0
LINE
8
Black
10
115.415
20
-148.097
11
115.28
21
-148.175
0
LINE
8
Black
10
115.28
20
-148.175
11
115.126
21
-148.202
0
LINE
8
Black
10
115.126
20
-148.202
11
114.62
21
-148.202
0
LINE
8
Black
10
114.62
20
-148.202
11
114.466
21
-148.175
0
LINE
8
Black
10
114.466
20
-148.175
11
114.331
21
-148.097
0
LINE
8
Black
10
114.331
20
-148.097
11
114.231
21
-147.977
0
LINE
8
Black
10
114.231
20
-147.977
11
114.177
21
-147.83
0
LINE
8
Black
10
114.177
20
-147.83
11
114.177
21
-147.674
0
LINE
8
Black
10
114.177
20
-147.674
11
114.231
21
-147.527
0
LINE
8
Black
10
114.231
20
-147.527
11
114.331
21
-147.407
0
LINE
8
Black
10
114.331
20
-147.407
11
114.466
21
-147.329
0
LINE
8
Black
10
114.466
20
-147.329
11
114.62
21
-147.302
0
LINE
8
Black
10
114.62
20
-147.302
11
115.126
21
-147.302
0
LINE
8
Black
10
115.126
20
-147.302
11
115.28
21
-147.329
0
LINE
8
Black
10
129.576
20
-147.601
11
126.976
21
-147.601
0
LINE
8
Black
10
126.976
20
-147.601
11
126.976
21
-146.401
0
LINE
8
Black
10
126.976
20
-146.401
11
129.576
21
-146.401
0
LINE
8
Black
10
129.576
20
-146.401
11
129.576
21
-147.601
0
LINE
8
Black
10
117.738
20
-145.954
11
117.968
21
-146.087
0
LINE
8
Black
10
117.968
20
-146.087
11
118.139
21
-146.29
0
LINE
8
Black
10
118.139
20
-146.29
11
118.23
21
-146.54
0
LINE
8
Black
10
118.23
20
-146.54
11
118.23
21
-146.805
0
LINE
8
Black
10
118.23
20
-146.805
11
118.139
21
-147.055
0
LINE
8
Black
10
118.139
20
-147.055
11
117.968
21
-147.258
0
LINE
8
Black
10
117.968
20
-147.258
11
117.738
21
-147.391
0
LINE
8
Black
10
117.738
20
-147.391
11
117.477
21
-147.437
0
LINE
8
Black
10
117.477
20
-147.437
11
117.215
21
-147.391
0
LINE
8
Black
10
117.215
20
-147.391
11
116.985
21
-147.258
0
LINE
8
Black
10
116.985
20
-147.258
11
116.814
21
-147.055
0
LINE
8
Black
10
116.814
20
-147.055
11
116.723
21
-146.805
0
LINE
8
Black
10
116.723
20
-146.805
11
116.723
21
-146.54
0
LINE
8
Black
10
116.723
20
-146.54
11
116.814
21
-146.29
0
LINE
8
Black
10
116.814
20
-146.29
11
116.985
21
-146.087
0
LINE
8
Black
10
116.985
20
-146.087
11
117.215
21
-145.954
0
LINE
8
Black
10
117.215
20
-145.954
11
117.477
21
-145.908
0
LINE
8
Black
10
117.477
20
-145.908
11
117.738
21
-145.954
0
LINE
8
Black
10
120.778
20
-147.434
11
119.254
21
-147.434
0
LINE
8
Black
10
119.254
20
-147.434
11
119.254
21
-145.91
0
LINE
8
Black
10
119.254
20
-145.91
11
120.778
21
-145.91
0
LINE
8
Black
10
120.778
20
-145.91
11
120.778
21
-147.434
0
LINE
8
Black
10
101.81
20
-146.059
11
101.945
21
-146.137
0
LINE
8
Black
10
101.945
20
-146.137
11
102.045
21
-146.257
0
LINE
8
Black
10
102.045
20
-146.257
11
102.099
21
-146.404
0
LINE
8
Black
10
102.099
20
-146.404
11
102.099
21
-146.56
0
LINE
8
Black
10
102.099
20
-146.56
11
102.045
21
-146.707
0
LINE
8
Black
10
102.045
20
-146.707
11
101.945
21
-146.827
0
LINE
8
Black
10
101.945
20
-146.827
11
101.81
21
-146.905
0
LINE
8
Black
10
101.81
20
-146.905
11
101.656
21
-146.932
0
LINE
8
Black
10
101.656
20
-146.932
11
101.15
21
-146.932
0
LINE
8
Black
10
101.15
20
-146.932
11
100.996
21
-146.905
0
LINE
8
Black
10
100.996
20
-146.905
11
100.861
21
-146.827
0
LINE
8
Black
10
100.861
20
-146.827
11
100.761
21
-146.707
0
LINE
8
Black
10
100.761
20
-146.707
11
100.707
21
-146.56
0
LINE
8
Black
10
100.707
20
-146.56
11
100.707
21
-146.404
0
LINE
8
Black
10
100.707
20
-146.404
11
100.761
21
-146.257
0
LINE
8
Black
10
100.761
20
-146.257
11
100.861
21
-146.137
0
LINE
8
Black
10
100.861
20
-146.137
11
100.996
21
-146.059
0
LINE
8
Black
10
100.996
20
-146.059
11
101.15
21
-146.032
0
LINE
8
Black
10
101.15
20
-146.032
11
101.656
21
-146.032
0
LINE
8
Black
10
101.656
20
-146.032
11
101.81
21
-146.059
0
LINE
8
Black
10
115.28
20
-146.059
11
115.415
21
-146.137
0
LINE
8
Black
10
115.415
20
-146.137
11
115.515
21
-146.257
0
LINE
8
Black
10
115.515
20
-146.257
11
115.569
21
-146.404
0
LINE
8
Black
10
115.569
20
-146.404
11
115.569
21
-146.56
0
LINE
8
Black
10
115.569
20
-146.56
11
115.515
21
-146.707
0
LINE
8
Black
10
115.515
20
-146.707
11
115.415
21
-146.827
0
LINE
8
Black
10
115.415
20
-146.827
11
115.28
21
-146.905
0
LINE
8
Black
10
115.28
20
-146.905
11
115.126
21
-146.932
0
LINE
8
Black
10
115.126
20
-146.932
11
114.62
21
-146.932
0
LINE
8
Black
10
114.62
20
-146.932
11
114.466
21
-146.905
0
LINE
8
Black
10
114.466
20
-146.905
11
114.331
21
-146.827
0
LINE
8
Black
10
114.331
20
-146.827
11
114.231
21
-146.707
0
LINE
8
Black
10
114.231
20
-146.707
11
114.177
21
-146.56
0
LINE
8
Black
10
114.177
20
-146.56
11
114.177
21
-146.404
0
LINE
8
Black
10
114.177
20
-146.404
11
114.231
21
-146.257
0
LINE
8
Black
10
114.231
20
-146.257
11
114.331
21
-146.137
0
LINE
8
Black
10
114.331
20
-146.137
11
114.466
21
-146.059
0
LINE
8
Black
10
114.466
20
-146.059
11
114.62
21
-146.032
0
LINE
8
Black
10
114.62
20
-146.032
11
115.126
21
-146.032
0
LINE
8
Black
10
115.126
20
-146.032
11
115.28
21
-146.059
0
LINE
8
Black
10
115.28
20
-144.789
11
115.415
21
-144.867
0
LINE
8
Black
10
115.415
20
-144.867
11
115.515
21
-144.987
0
LINE
8
Black
10
115.515
20
-144.987
11
115.569
21
-145.134
0
LINE
8
Black
10
115.569
20
-145.134
11
115.569
21
-145.29
0
LINE
8
Black
10
115.569
20
-145.29
11
115.515
21
-145.437
0
LINE
8
Black
10
115.515
20
-145.437
11
115.415
21
-145.557
0
LINE
8
Black
10
115.415
20
-145.557
11
115.28
21
-145.635
0
LINE
8
Black
10
115.28
20
-145.635
11
115.126
21
-145.662
0
LINE
8
Black
10
115.126
20
-145.662
11
114.62
21
-145.662
0
LINE
8
Black
10
114.62
20
-145.662
11
114.466
21
-145.635
0
LINE
8
Black
10
114.466
20
-145.635
11
114.331
21
-145.557
0
LINE
8
Black
10
114.331
20
-145.557
11
114.231
21
-145.437
0
LINE
8
Black
10
114.231
20
-145.437
11
114.177
21
-145.29
0
LINE
8
Black
10
114.177
20
-145.29
11
114.177
21
-145.134
0
LINE
8
Black
10
114.177
20
-145.134
11
114.231
21
-144.987
0
LINE
8
Black
10
114.231
20
-144.987
11
114.331
21
-144.867
0
LINE
8
Black
10
114.331
20
-144.867
11
114.466
21
-144.789
0
LINE
8
Black
10
114.466
20
-144.789
11
114.62
21
-144.762
0
LINE
8
Black
10
114.62
20
-144.762
11
115.126
21
-144.762
0
LINE
8
Black
10
115.126
20
-144.762
11
115.28
21
-144.789
0
LINE
8
Black
10
101.81
20
-144.789
11
101.945
21
-144.867
0
LINE
8
Black
10
101.945
20
-144.867
11
102.045
21
-144.987
0
LINE
8
Black
10
102.045
20
-144.987
11
102.099
21
-145.134
0
LINE
8
Black
10
102.099
20
-145.134
11
102.099
21
-145.29
0
LINE
8
Black
10
102.099
20
-145.29
11
102.045
21
-145.437
0
LINE
8
Black
10
102.045
20
-145.437
11
101.945
21
-145.557
0
LINE
8
Black
10
101.945
20
-145.557
11
101.81
21
-145.635
0
LINE
8
Black
10
101.81
20
-145.635
11
101.656
21
-145.662
0
LINE
8
Black
10
101.656
20
-145.662
11
101.15
21
-145.662
0
LINE
8
Black
10
101.15
20
-145.662
11
100.996
21
-145.635
0
LINE
8
Black
10
100.996
20
-145.635
11
100.861
21
-145.557
0
LINE
8
Black
10
100.861
20
-145.557
11
100.761
21
-145.437
0
LINE
8
Black
10
100.761
20
-145.437
11
100.707
21
-145.29
0
LINE
8
Black
10
100.707
20
-145.29
11
100.707
21
-145.134
0
LINE
8
Black
10
100.707
20
-145.134
11
100.761
21
-144.987
0
LINE
8
Black
10
100.761
20
-144.987
11
100.861
21
-144.867
0
LINE
8
Black
10
100.861
20
-144.867
11
100.996
21
-144.789
0
LINE
8
Black
10
100.996
20
-144.789
11
101.15
21
-144.762
0
LINE
8
Black
10
101.15
20
-144.762
11
101.656
21
-144.762
0
LINE
8
Black
10
101.656
20
-144.762
11
101.81
21
-144.789
0
LINE
8
Black
10
129.576
20
-145.601
11
126.976
21
-145.601
0
LINE
8
Black
10
126.976
20
-145.601
11
126.976
21
-144.401
0
LINE
8
Black
10
126.976
20
-144.401
11
129.576
21
-144.401
0
LINE
8
Black
10
129.576
20
-144.401
11
129.576
21
-145.601
0
LINE
8
Black
10
120.278
20
-143.414
11
120.508
21
-143.547
0
LINE
8
Black
10
120.508
20
-143.547
11
120.679
21
-143.75
0
LINE
8
Black
10
120.679
20
-143.75
11
120.77
21
-144
0
LINE
8
Black
10
120.77
20
-144
11
120.77
21
-144.265
0
LINE
8
Black
10
120.77
20
-144.265
11
120.679
21
-144.515
0
LINE
8
Black
10
120.679
20
-144.515
11
120.508
21
-144.718
0
LINE
8
Black
10
120.508
20
-144.718
11
120.278
21
-144.851
0
LINE
8
Black
10
120.278
20
-144.851
11
120.016
21
-144.897
0
LINE
8
Black
10
120.016
20
-144.897
11
119.755
21
-144.851
0
LINE
8
Black
10
119.755
20
-144.851
11
119.525
21
-144.718
0
LINE
8
Black
10
119.525
20
-144.718
11
119.354
21
-144.515
0
LINE
8
Black
10
119.354
20
-144.515
11
119.263
21
-144.265
0
LINE
8
Black
10
119.263
20
-144.265
11
119.263
21
-144
0
LINE
8
Black
10
119.263
20
-144
11
119.354
21
-143.75
0
LINE
8
Black
10
119.354
20
-143.75
11
119.525
21
-143.547
0
LINE
8
Black
10
119.525
20
-143.547
11
119.755
21
-143.414
0
LINE
8
Black
10
119.755
20
-143.414
11
120.016
21
-143.368
0
LINE
8
Black
10
120.016
20
-143.368
11
120.278
21
-143.414
0
LINE
8
Black
10
117.738
20
-143.414
11
117.968
21
-143.547
0
LINE
8
Black
10
117.968
20
-143.547
11
118.139
21
-143.75
0
LINE
8
Black
10
118.139
20
-143.75
11
118.23
21
-144
0
LINE
8
Black
10
118.23
20
-144
11
118.23
21
-144.265
0
LINE
8
Black
10
118.23
20
-144.265
11
118.139
21
-144.515
0
LINE
8
Black
10
118.139
20
-144.515
11
117.968
21
-144.718
0
LINE
8
Black
10
117.968
20
-144.718
11
117.738
21
-144.851
0
LINE
8
Black
10
117.738
20
-144.851
11
117.477
21
-144.897
0
LINE
8
Black
10
117.477
20
-144.897
11
117.215
21
-144.851
0
LINE
8
Black
10
117.215
20
-144.851
11
116.985
21
-144.718
0
LINE
8
Black
10
116.985
20
-144.718
11
116.814
21
-144.515
0
LINE
8
Black
10
116.814
20
-144.515
11
116.723
21
-144.265
0
LINE
8
Black
10
116.723
20
-144.265
11
116.723
21
-144
0
LINE
8
Black
10
116.723
20
-144
11
116.814
21
-143.75
0
LINE
8
Black
10
116.814
20
-143.75
11
116.985
21
-143.547
0
LINE
8
Black
10
116.985
20
-143.547
11
117.215
21
-143.414
0
LINE
8
Black
10
117.215
20
-143.414
11
117.477
21
-143.368
0
LINE
8
Black
10
117.477
20
-143.368
11
117.738
21
-143.414
0
LINE
8
Black
10
107.728
20
-142.28
11
107.848
21
-142.38
0
LINE
8
Black
10
107.848
20
-142.38
11
107.926
21
-142.515
0
LINE
8
Black
10
107.926
20
-142.515
11
107.953
21
-142.669
0
LINE
8
Black
10
107.953
20
-142.669
11
107.953
21
-143.175
0
LINE
8
Black
10
107.953
20
-143.175
11
107.926
21
-143.329
0
LINE
8
Black
10
107.926
20
-143.329
11
107.848
21
-143.464
0
LINE
8
Black
10
107.848
20
-143.464
11
107.728
21
-143.564
0
LINE
8
Black
10
107.728
20
-143.564
11
107.581
21
-143.618
0
LINE
8
Black
10
107.581
20
-143.618
11
107.425
21
-143.618
0
LINE
8
Black
10
107.425
20
-143.618
11
107.278
21
-143.564
0
LINE
8
Black
10
107.278
20
-143.564
11
107.158
21
-143.464
0
LINE
8
Black
10
107.158
20
-143.464
11
107.08
21
-143.329
0
LINE
8
Black
10
107.08
20
-143.329
11
107.053
21
-143.175
0
LINE
8
Black
10
107.053
20
-143.175
11
107.053
21
-142.669
0
LINE
8
Black
10
107.053
20
-142.669
11
107.08
21
-142.515
0
LINE
8
Black
10
107.08
20
-142.515
11
107.158
21
-142.38
0
LINE
8
Black
10
107.158
20
-142.38
11
107.278
21
-142.28
0
LINE
8
Black
10
107.278
20
-142.28
11
107.425
21
-142.226
0
LINE
8
Black
10
107.425
20
-142.226
11
107.581
21
-142.226
0
LINE
8
Black
10
107.581
20
-142.226
11
107.728
21
-142.28
0
LINE
8
Black
10
112.808
20
-142.28
11
112.928
21
-142.38
0
LINE
8
Black
10
112.928
20
-142.38
11
113.006
21
-142.515
0
LINE
8
Black
10
113.006
20
-142.515
11
113.033
21
-142.669
0
LINE
8
Black
10
113.033
20
-142.669
11
113.033
21
-143.175
0
LINE
8
Black
10
113.033
20
-143.175
11
113.006
21
-143.329
0
LINE
8
Black
10
113.006
20
-143.329
11
112.928
21
-143.464
0
LINE
8
Black
10
112.928
20
-143.464
11
112.808
21
-143.564
0
LINE
8
Black
10
112.808
20
-143.564
11
112.661
21
-143.618
0
LINE
8
Black
10
112.661
20
-143.618
11
112.505
21
-143.618
0
LINE
8
Black
10
112.505
20
-143.618
11
112.358
21
-143.564
0
LINE
8
Black
10
112.358
20
-143.564
11
112.238
21
-143.464
0
LINE
8
Black
10
112.238
20
-143.464
11
112.16
21
-143.329
0
LINE
8
Black
10
112.16
20
-143.329
11
112.133
21
-143.175
0
LINE
8
Black
10
112.133
20
-143.175
11
112.133
21
-142.669
0
LINE
8
Black
10
112.133
20
-142.669
11
112.16
21
-142.515
0
LINE
8
Black
10
112.16
20
-142.515
11
112.238
21
-142.38
0
LINE
8
Black
10
112.238
20
-142.38
11
112.358
21
-142.28
0
LINE
8
Black
10
112.358
20
-142.28
11
112.505
21
-142.226
0
LINE
8
Black
10
112.505
20
-142.226
11
112.661
21
-142.226
0
LINE
8
Black
10
112.661
20
-142.226
11
112.808
21
-142.28
0
LINE
8
Black
10
111.538
20
-142.28
11
111.658
21
-142.38
0
LINE
8
Black
10
111.658
20
-142.38
11
111.736
21
-142.515
0
LINE
8
Black
10
111.736
20
-142.515
11
111.763
21
-142.669
0
LINE
8
Black
10
111.763
20
-142.669
11
111.763
21
-143.175
0
LINE
8
Black
10
111.763
20
-143.175
11
111.736
21
-143.329
0
LINE
8
Black
10
111.736
20
-143.329
11
111.658
21
-143.464
0
LINE
8
Black
10
111.658
20
-143.464
11
111.538
21
-143.564
0
LINE
8
Black
10
111.538
20
-143.564
11
111.391
21
-143.618
0
LINE
8
Black
10
111.391
20
-143.618
11
111.235
21
-143.618
0
LINE
8
Black
10
111.235
20
-143.618
11
111.088
21
-143.564
0
LINE
8
Black
10
111.088
20
-143.564
11
110.968
21
-143.464
0
LINE
8
Black
10
110.968
20
-143.464
11
110.89
21
-143.329
0
LINE
8
Black
10
110.89
20
-143.329
11
110.863
21
-143.175
0
LINE
8
Black
10
110.863
20
-143.175
11
110.863
21
-142.669
0
LINE
8
Black
10
110.863
20
-142.669
11
110.89
21
-142.515
0
LINE
8
Black
10
110.89
20
-142.515
11
110.968
21
-142.38
0
LINE
8
Black
10
110.968
20
-142.38
11
111.088
21
-142.28
0
LINE
8
Black
10
111.088
20
-142.28
11
111.235
21
-142.226
0
LINE
8
Black
10
111.235
20
-142.226
11
111.391
21
-142.226
0
LINE
8
Black
10
111.391
20
-142.226
11
111.538
21
-142.28
0
LINE
8
Black
10
110.268
20
-142.28
11
110.388
21
-142.38
0
LINE
8
Black
10
110.388
20
-142.38
11
110.466
21
-142.515
0
LINE
8
Black
10
110.466
20
-142.515
11
110.493
21
-142.669
0
LINE
8
Black
10
110.493
20
-142.669
11
110.493
21
-143.175
0
LINE
8
Black
10
110.493
20
-143.175
11
110.466
21
-143.329
0
LINE
8
Black
10
110.466
20
-143.329
11
110.388
21
-143.464
0
LINE
8
Black
10
110.388
20
-143.464
11
110.268
21
-143.564
0
LINE
8
Black
10
110.268
20
-143.564
11
110.121
21
-143.618
0
LINE
8
Black
10
110.121
20
-143.618
11
109.965
21
-143.618
0
LINE
8
Black
10
109.965
20
-143.618
11
109.818
21
-143.564
0
LINE
8
Black
10
109.818
20
-143.564
11
109.698
21
-143.464
0
LINE
8
Black
10
109.698
20
-143.464
11
109.62
21
-143.329
0
LINE
8
Black
10
109.62
20
-143.329
11
109.593
21
-143.175
0
LINE
8
Black
10
109.593
20
-143.175
11
109.593
21
-142.669
0
LINE
8
Black
10
109.593
20
-142.669
11
109.62
21
-142.515
0
LINE
8
Black
10
109.62
20
-142.515
11
109.698
21
-142.38
0
LINE
8
Black
10
109.698
20
-142.38
11
109.818
21
-142.28
0
LINE
8
Black
10
109.818
20
-142.28
11
109.965
21
-142.226
0
LINE
8
Black
10
109.965
20
-142.226
11
110.121
21
-142.226
0
LINE
8
Black
10
110.121
20
-142.226
11
110.268
21
-142.28
0
LINE
8
Black
10
108.998
20
-142.28
11
109.118
21
-142.38
0
LINE
8
Black
10
109.118
20
-142.38
11
109.196
21
-142.515
0
LINE
8
Black
10
109.196
20
-142.515
11
109.223
21
-142.669
0
LINE
8
Black
10
109.223
20
-142.669
11
109.223
21
-143.175
0
LINE
8
Black
10
109.223
20
-143.175
11
109.196
21
-143.329
0
LINE
8
Black
10
109.196
20
-143.329
11
109.118
21
-143.464
0
LINE
8
Black
10
109.118
20
-143.464
11
108.998
21
-143.564
0
LINE
8
Black
10
108.998
20
-143.564
11
108.851
21
-143.618
0
LINE
8
Black
10
108.851
20
-143.618
11
108.695
21
-143.618
0
LINE
8
Black
10
108.695
20
-143.618
11
108.548
21
-143.564
0
LINE
8
Black
10
108.548
20
-143.564
11
108.428
21
-143.464
0
LINE
8
Black
10
108.428
20
-143.464
11
108.35
21
-143.329
0
LINE
8
Black
10
108.35
20
-143.329
11
108.323
21
-143.175
0
LINE
8
Black
10
108.323
20
-143.175
11
108.323
21
-142.669
0
LINE
8
Black
10
108.323
20
-142.669
11
108.35
21
-142.515
0
LINE
8
Black
10
108.35
20
-142.515
11
108.428
21
-142.38
0
LINE
8
Black
10
108.428
20
-142.38
11
108.548
21
-142.28
0
LINE
8
Black
10
108.548
20
-142.28
11
108.695
21
-142.226
0
LINE
8
Black
10
108.695
20
-142.226
11
108.851
21
-142.226
0
LINE
8
Black
10
108.851
20
-142.226
11
108.998
21
-142.28
0
LINE
8
Black
10
103.918
20
-142.28
11
104.038
21
-142.38
0
LINE
8
Black
10
104.038
20
-142.38
11
104.116
21
-142.515
0
LINE
8
Black
10
104.116
20
-142.515
11
104.143
21
-142.669
0
LINE
8
Black
10
104.143
20
-142.669
11
104.143
21
-143.175
0
LINE
8
Black
10
104.143
20
-143.175
11
104.116
21
-143.329
0
LINE
8
Black
10
104.116
20
-143.329
11
104.038
21
-143.464
0
LINE
8
Black
10
104.038
20
-143.464
11
103.918
21
-143.564
0
LINE
8
Black
10
103.918
20
-143.564
11
103.771
21
-143.618
0
LINE
8
Black
10
103.771
20
-143.618
11
103.615
21
-143.618
0
LINE
8
Black
10
103.615
20
-143.618
11
103.468
21
-143.564
0
LINE
8
Black
10
103.468
20
-143.564
11
103.348
21
-143.464
0
LINE
8
Black
10
103.348
20
-143.464
11
103.27
21
-143.329
0
LINE
8
Black
10
103.27
20
-143.329
11
103.243
21
-143.175
0
LINE
8
Black
10
103.243
20
-143.175
11
103.243
21
-142.669
0
LINE
8
Black
10
103.243
20
-142.669
11
103.27
21
-142.515
0
LINE
8
Black
10
103.27
20
-142.515
11
103.348
21
-142.38
0
LINE
8
Black
10
103.348
20
-142.38
11
103.468
21
-142.28
0
LINE
8
Black
10
103.468
20
-142.28
11
103.615
21
-142.226
0
LINE
8
Black
10
103.615
20
-142.226
11
103.771
21
-142.226
0
LINE
8
Black
10
103.771
20
-142.226
11
103.918
21
-142.28
0
LINE
8
Black
10
106.458
20
-142.28
11
106.578
21
-142.38
0
LINE
8
Black
10
106.578
20
-142.38
11
106.656
21
-142.515
0
LINE
8
Black
10
106.656
20
-142.515
11
106.683
21
-142.669
0
LINE
8
Black
10
106.683
20
-142.669
11
106.683
21
-143.175
0
LINE
8
Black
10
106.683
20
-143.175
11
106.656
21
-143.329
0
LINE
8
Black
10
106.656
20
-143.329
11
106.578
21
-143.464
0
LINE
8
Black
10
106.578
20
-143.464
11
106.458
21
-143.564
0
LINE
8
Black
10
106.458
20
-143.564
11
106.311
21
-143.618
0
LINE
8
Black
10
106.311
20
-143.618
11
106.155
21
-143.618
0
LINE
8
Black
10
106.155
20
-143.618
11
106.008
21
-143.564
0
LINE
8
Black
10
106.008
20
-143.564
11
105.888
21
-143.464
0
LINE
8
Black
10
105.888
20
-143.464
11
105.81
21
-143.329
0
LINE
8
Black
10
105.81
20
-143.329
11
105.783
21
-143.175
0
LINE
8
Black
10
105.783
20
-143.175
11
105.783
21
-142.669
0
LINE
8
Black
10
105.783
20
-142.669
11
105.81
21
-142.515
0
LINE
8
Black
10
105.81
20
-142.515
11
105.888
21
-142.38
0
LINE
8
Black
10
105.888
20
-142.38
11
106.008
21
-142.28
0
LINE
8
Black
10
106.008
20
-142.28
11
106.155
21
-142.226
0
LINE
8
Black
10
106.155
20
-142.226
11
106.311
21
-142.226
0
LINE
8
Black
10
106.311
20
-142.226
11
106.458
21
-142.28
0
LINE
8
Black
10
105.188
20
-142.28
11
105.308
21
-142.38
0
LINE
8
Black
10
105.308
20
-142.38
11
105.386
21
-142.515
0
LINE
8
Black
10
105.386
20
-142.515
11
105.413
21
-142.669
0
LINE
8
Black
10
105.413
20
-142.669
11
105.413
21
-143.175
0
LINE
8
Black
10
105.413
20
-143.175
11
105.386
21
-143.329
0
LINE
8
Black
10
105.386
20
-143.329
11
105.308
21
-143.464
0
LINE
8
Black
10
105.308
20
-143.464
11
105.188
21
-143.564
0
LINE
8
Black
10
105.188
20
-143.564
11
105.041
21
-143.618
0
LINE
8
Black
10
105.041
20
-143.618
11
104.885
21
-143.618
0
LINE
8
Black
10
104.885
20
-143.618
11
104.738
21
-143.564
0
LINE
8
Black
10
104.738
20
-143.564
11
104.618
21
-143.464
0
LINE
8
Black
10
104.618
20
-143.464
11
104.54
21
-143.329
0
LINE
8
Black
10
104.54
20
-143.329
11
104.513
21
-143.175
0
LINE
8
Black
10
104.513
20
-143.175
11
104.513
21
-142.669
0
LINE
8
Black
10
104.513
20
-142.669
11
104.54
21
-142.515
0
LINE
8
Black
10
104.54
20
-142.515
11
104.618
21
-142.38
0
LINE
8
Black
10
104.618
20
-142.38
11
104.738
21
-142.28
0
LINE
8
Black
10
104.738
20
-142.28
11
104.885
21
-142.226
0
LINE
8
Black
10
104.885
20
-142.226
11
105.041
21
-142.226
0
LINE
8
Black
10
105.041
20
-142.226
11
105.188
21
-142.28
0
LINE
8
Black
10
129.576
20
-143.601
11
126.976
21
-143.601
0
LINE
8
Black
10
126.976
20
-143.601
11
126.976
21
-142.401
0
LINE
8
Black
10
126.976
20
-142.401
11
129.576
21
-142.401
0
LINE
8
Black
10
129.576
20
-142.401
11
129.576
21
-143.601
0
LINE
8
Black
10
117.738
20
-140.874
11
117.968
21
-141.007
0
LINE
8
Black
10
117.968
20
-141.007
11
118.139
21
-141.21
0
LINE
8
Black
10
118.139
20
-141.21
11
118.23
21
-141.46
0
LINE
8
Black
10
118.23
20
-141.46
11
118.23
21
-141.725
0
LINE
8
Black
10
118.23
20
-141.725
11
118.139
21
-141.975
0
LINE
8
Black
10
118.139
20
-141.975
11
117.968
21
-142.178
0
LINE
8
Black
10
117.968
20
-142.178
11
117.738
21
-142.311
0
LINE
8
Black
10
117.738
20
-142.311
11
117.477
21
-142.357
0
LINE
8
Black
10
117.477
20
-142.357
11
117.215
21
-142.311
0
LINE
8
Black
10
117.215
20
-142.311
11
116.985
21
-142.178
0
LINE
8
Black
10
116.985
20
-142.178
11
116.814
21
-141.975
0
LINE
8
Black
10
116.814
20
-141.975
11
116.723
21
-141.725
0
LINE
8
Black
10
116.723
20
-141.725
11
116.723
21
-141.46
0
LINE
8
Black
10
116.723
20
-141.46
11
116.814
21
-141.21
0
LINE
8
Black
10
116.814
20
-141.21
11
116.985
21
-141.007
0
LINE
8
Black
10
116.985
20
-141.007
11
117.215
21
-140.874
0
LINE
8
Black
10
117.215
20
-140.874
11
117.477
21
-140.828
0
LINE
8
Black
10
117.477
20
-140.828
11
117.738
21
-140.874
0
LINE
8
Black
10
120.278
20
-140.874
11
120.508
21
-141.007
0
LINE
8
Black
10
120.508
20
-141.007
11
120.679
21
-141.21
0
LINE
8
Black
10
120.679
20
-141.21
11
120.77
21
-141.46
0
LINE
8
Black
10
120.77
20
-141.46
11
120.77
21
-141.725
0
LINE
8
Black
10
120.77
20
-141.725
11
120.679
21
-141.975
0
LINE
8
Black
10
120.679
20
-141.975
11
120.508
21
-142.178
0
LINE
8
Black
10
120.508
20
-142.178
11
120.278
21
-142.311
0
LINE
8
Black
10
120.278
20
-142.311
11
120.016
21
-142.357
0
LINE
8
Black
10
120.016
20
-142.357
11
119.755
21
-142.311
0
LINE
8
Black
10
119.755
20
-142.311
11
119.525
21
-142.178
0
LINE
8
Black
10
119.525
20
-142.178
11
119.354
21
-141.975
0
LINE
8
Black
10
119.354
20
-141.975
11
119.263
21
-141.725
0
LINE
8
Black
10
119.263
20
-141.725
11
119.263
21
-141.46
0
LINE
8
Black
10
119.263
20
-141.46
11
119.354
21
-141.21
0
LINE
8
Black
10
119.354
20
-141.21
11
119.525
21
-141.007
0
LINE
8
Black
10
119.525
20
-141.007
11
119.755
21
-140.874
0
LINE
8
Black
10
119.755
20
-140.874
11
120.016
21
-140.828
0
LINE
8
Black
10
120.016
20
-140.828
11
120.278
21
-140.874
0
LINE
8
Black
10
107.887
20
-141.547
11
104.587
21
-141.547
0
LINE
8
Black
10
104.587
20
-141.547
11
104.587
21
-139.247
0
LINE
8
Black
10
104.587
20
-139.247
11
107.887
21
-139.247
0
LINE
8
Black
10
107.887
20
-139.247
11
107.887
21
-141.547
0
LINE
8
Black
10
117.738
20
-138.334
11
117.968
21
-138.467
0
LINE
8
Black
10
117.968
20
-138.467
11
118.139
21
-138.67
0
LINE
8
Black
10
118.139
20
-138.67
11
118.23
21
-138.92
0
LINE
8
Black
10
118.23
20
-138.92
11
118.23
21
-139.185
0
LINE
8
Black
10
118.23
20
-139.185
11
118.139
21
-139.435
0
LINE
8
Black
10
118.139
20
-139.435
11
117.968
21
-139.638
0
LINE
8
Black
10
117.968
20
-139.638
11
117.738
21
-139.771
0
LINE
8
Black
10
117.738
20
-139.771
11
117.477
21
-139.817
0
LINE
8
Black
10
117.477
20
-139.817
11
117.215
21
-139.771
0
LINE
8
Black
10
117.215
20
-139.771
11
116.985
21
-139.638
0
LINE
8
Black
10
116.985
20
-139.638
11
116.814
21
-139.435
0
LINE
8
Black
10
116.814
20
-139.435
11
116.723
21
-139.185
0
LINE
8
Black
10
116.723
20
-139.185
11
116.723
21
-138.92
0
LINE
8
Black
10
116.723
20
-138.92
11
116.814
21
-138.67
0
LINE
8
Black
10
116.814
20
-138.67
11
116.985
21
-138.467
0
LINE
8
Black
10
116.985
20
-138.467
11
117.215
21
-138.334
0
LINE
8
Black
10
117.215
20
-138.334
11
117.477
21
-138.288
0
LINE
8
Black
10
117.477
20
-138.288
11
117.738
21
-138.334
0
LINE
8
Black
10
120.278
20
-138.334
11
120.508
21
-138.467
0
LINE
8
Black
10
120.508
20
-138.467
11
120.679
21
-138.67
0
LINE
8
Black
10
120.679
20
-138.67
11
120.77
21
-138.92
0
LINE
8
Black
10
120.77
20
-138.92
11
120.77
21
-139.185
0
LINE
8
Black
10
120.77
20
-139.185
11
120.679
21
-139.435
0
LINE
8
Black
10
120.679
20
-139.435
11
120.508
21
-139.638
0
LINE
8
Black
10
120.508
20
-139.638
11
120.278
21
-139.771
0
LINE
8
Black
10
120.278
20
-139.771
11
120.016
21
-139.817
0
LINE
8
Black
10
120.016
20
-139.817
11
119.755
21
-139.771
0
LINE
8
Black
10
119.755
20
-139.771
11
119.525
21
-139.638
0
LINE
8
Black
10
119.525
20
-139.638
11
119.354
21
-139.435
0
LINE
8
Black
10
119.354
20
-139.435
11
119.263
21
-139.185
0
LINE
8
Black
10
119.263
20
-139.185
11
119.263
21
-138.92
0
LINE
8
Black
10
119.263
20
-138.92
11
119.354
21
-138.67
0
LINE
8
Black
10
119.354
20
-138.67
11
119.525
21
-138.467
0
LINE
8
Black
10
119.525
20
-138.467
11
119.755
21
-138.334
0
LINE
8
Black
10
119.755
20
-138.334
11
120.016
21
-138.288
0
LINE
8
Black
10
120.016
20
-138.288
11
120.278
21
-138.334
0
LINE
8
Black
10
125.476
20
-139.631
11
122.176
21
-139.631
0
LINE
8
Black
10
122.176
20
-139.631
11
122.176
21
-137.331
0
LINE
8
Black
10
122.176
20
-137.331
11
125.476
21
-137.331
0
LINE
8
Black
10
125.476
20
-137.331
11
125.476
21
-139.631
0
LINE
8
Black
10
103.087
20
-136.477
11
100.487
21
-136.477
0
LINE
8
Black
10
100.487
20
-136.477
11
100.487
21
-135.277
0
LINE
8
Black
10
100.487
20
-135.277
11
103.087
21
-135.277
0
LINE
8
Black
10
103.087
20
-135.277
11
103.087
21
-136.477
0
LINE
8
Black
10
122.893
20
-136.441
11
122.093
21
-136.441
0
LINE
8
Black
10
122.093
20
-136.441
11
122.093
21
-135.441
0
LINE
8
Black
10
122.093
20
-135.441
11
122.893
21
-135.441
0
LINE
8
Black
10
122.893
20
-135.441
11
122.893
21
-136.441
0
LINE
8
Black
10
128.043
20
-136.441
11
125.243
21
-136.441
0
LINE
8
Black
10
125.243
20
-136.441
11
125.243
21
-135.441
0
LINE
8
Black
10
125.243
20
-135.441
11
128.043
21
-135.441
0
LINE
8
Black
10
128.043
20
-135.441
11
128.043
21
-136.441
0
LINE
8
Black
10
116.893
20
-136.441
11
115.693
21
-136.441
0
LINE
8
Black
10
115.693
20
-136.441
11
115.693
21
-135.441
0
LINE
8
Black
10
115.693
20
-135.441
11
116.893
21
-135.441
0
LINE
8
Black
10
116.893
20
-135.441
11
116.893
21
-136.441
0
LINE
8
Black
10
112.593
20
-135.341
11
111.393
21
-135.341
0
LINE
8
Black
10
111.393
20
-135.341
11
111.393
21
-134.641
0
LINE
8
Black
10
111.393
20
-134.641
11
112.593
21
-134.641
0
LINE
8
Black
10
112.593
20
-134.641
11
112.593
21
-135.341
0
LINE
8
Black
10
110.814
20
-134.782
11
109.914
21
-134.782
0
LINE
8
Black
10
109.914
20
-134.782
11
109.914
21
-134.282
0
LINE
8
Black
10
109.914
20
-134.282
11
110.814
21
-134.282
0
LINE
8
Black
10
110.814
20
-134.282
11
110.814
21
-134.782
0
LINE
8
Black
10
103.087
20
-134.477
11
100.487
21
-134.477
0
LINE
8
Black
10
100.487
20
-134.477
11
100.487
21
-133.277
0
LINE
8
Black
10
100.487
20
-133.277
11
103.087
21
-133.277
0
LINE
8
Black
10
103.087
20
-133.277
11
103.087
21
-134.477
0
LINE
8
Black
10
112.593
20
-134.391
11
111.393
21
-134.391
0
LINE
8
Black
10
111.393
20
-134.391
11
111.393
21
-133.691
0
LINE
8
Black
10
111.393
20
-133.691
11
112.593
21
-133.691
0
LINE
8
Black
10
112.593
20
-133.691
11
112.593
21
-134.391
0
LINE
8
Black
10
112.593
20
-133.291
11
111.393
21
-133.291
0
LINE
8
Black
10
111.393
20
-133.291
11
111.393
21
-132.591
0
LINE
8
Black
10
111.393
20
-132.591
11
112.593
21
-132.591
0
LINE
8
Black
10
112.593
20
-132.591
11
112.593
21
-133.291
0
LINE
8
Black
10
110.814
20
-133.282
11
109.914
21
-133.282
0
LINE
8
Black
10
109.914
20
-133.282
11
109.914
21
-132.782
0
LINE
8
Black
10
109.914
20
-132.782
11
110.814
21
-132.782
0
LINE
8
Black
10
110.814
20
-132.782
11
110.814
21
-133.282
0
LINE
8
Black
10
103.087
20
-132.477
11
100.487
21
-132.477
0
LINE
8
Black
10
100.487
20
-132.477
11
100.487
21
-131.277
0
LINE
8
Black
10
100.487
20
-131.277
11
103.087
21
-131.277
0
LINE
8
Black
10
103.087
20
-131.277
11
103.087
21
-132.477
0
LINE
8
Black
10
112.593
20
-132.191
11
111.393
21
-132.191
0
LINE
8
Black
10
111.393
20
-132.191
11
111.393
21
-131.491
0
LINE
8
Black
10
111.393
20
-131.491
11
112.593
21
-131.491
0
LINE
8
Black
10
112.593
20
-131.491
11
112.593
21
-132.191
0
LINE
8
Black
10
110.739
20
-131.503
11
109.989
21
-131.503
0
LINE
8
Black
10
109.989
20
-131.503
11
109.989
21
-130.703
0
LINE
8
Black
10
109.989
20
-130.703
11
110.739
21
-130.703
0
LINE
8
Black
10
110.739
20
-130.703
11
110.739
21
-131.503
0
LINE
8
Black
10
112.593
20
-131.091
11
111.393
21
-131.091
0
LINE
8
Black
10
111.393
20
-131.091
11
111.393
21
-130.391
0
LINE
8
Black
10
111.393
20
-130.391
11
112.593
21
-130.391
0
LINE
8
Black
10
112.593
20
-130.391
11
112.593
21
-131.091
0
LINE
8
Black
10
103.087
20
-130.477
11
100.487
21
-130.477
0
LINE
8
Black
10
100.487
20
-130.477
11
100.487
21
-129.277
0
LINE
8
Black
10
100.487
20
-129.277
11
103.087
21
-129.277
0
LINE
8
Black
10
103.087
20
-129.277
11
103.087
21
-130.477
0
LINE
8
Black
10
110.739
20
-130.003
11
109.989
21
-130.003
0
LINE
8
Black
10
109.989
20
-130.003
11
109.989
21
-129.203
0
LINE
8
Black
10
109.989
20
-129.203
11
110.739
21
-129.203
0
LINE
8
Black
10
110.739
20
-129.203
11
110.739
21
-130.003
0
LINE
8
Black
10
112.593
20
-129.991
11
111.393
21
-129.991
0
LINE
8
Black
10
111.393
20
-129.991
11
111.393
21
-129.291
0
LINE
8
Black
10
111.393
20
-129.291
11
112.593
21
-129.291
0
LINE
8
Black
10
112.593
20
-129.291
11
112.593
21
-129.991
0
LINE
8
Black
10
112.593
20
-128.891
11
111.393
21
-128.891
0
LINE
8
Black
10
111.393
20
-128.891
11
111.393
21
-128.191
0
LINE
8
Black
10
111.393
20
-128.191
11
112.593
21
-128.191
0
LINE
8
Black
10
112.593
20
-128.191
11
112.593
21
-128.891
0
LINE
8
Black
10
103.087
20
-128.477
11
100.487
21
-128.477
0
LINE
8
Black
10
100.487
20
-128.477
11
100.487
21
-127.277
0
LINE
8
Black
10
100.487
20
-127.277
11
103.087
21
-127.277
0
LINE
8
Black
10
103.087
20
-127.277
11
103.087
21
-128.477
0
LINE
8
Black
10
110.814
20
-128.051
11
109.914
21
-128.051
0
LINE
8
Black
10
109.914
20
-128.051
11
109.914
21
-127.551
0
LINE
8
Black
10
109.914
20
-127.551
11
110.814
21
-127.551
0
LINE
8
Black
10
110.814
20
-127.551
11
110.814
21
-128.051
0
LINE
8
Black
10
112.593
20
-127.791
11
111.393
21
-127.791
0
LINE
8
Black
10
111.393
20
-127.791
11
111.393
21
-127.091
0
LINE
8
Black
10
111.393
20
-127.091
11
112.593
21
-127.091
0
LINE
8
Black
10
112.593
20
-127.091
11
112.593
21
-127.791
0
LINE
8
Black
10
112.593
20
-126.691
11
111.393
21
-126.691
0
LINE
8
Black
10
111.393
20
-126.691
11
111.393
21
-125.991
0
LINE
8
Black
10
111.393
20
-125.991
11
112.593
21
-125.991
0
LINE
8
Black
10
112.593
20
-125.991
11
112.593
21
-126.691
0
LINE
8
Black
10
110.814
20
-126.551
11
109.914
21
-126.551
0
LINE
8
Black
10
109.914
20
-126.551
11
109.914
21
-126.051
0
LINE
8
Black
10
109.914
20
-126.051
11
110.814
21
-126.051
0
LINE
8
Black
10
110.814
20
-126.051
11
110.814
21
-126.551
0
LINE
8
Black
10
112.593
20
-125.291
11
111.393
21
-125.291
0
LINE
8
Black
10
111.393
20
-125.291
11
111.393
21
-124.291
0
LINE
8
Black
10
111.393
20
-124.291
11
112.593
21
-124.291
0
LINE
8
Black
10
112.593
20
-124.291
11
112.593
21
-125.291
0
LINE
8
Black
10
107.887
20
-124.507
11
104.587
21
-124.507
0
LINE
8
Black
10
104.587
20
-124.507
11
104.587
21
-122.207
0
LINE
8
Black
10
104.587
20
-122.207
11
107.887
21
-122.207
0
LINE
8
Black
10
107.887
20
-122.207
11
107.887
21
-124.507
0
LINE
8
Black
10
128.043
20
-123.091
11
126.143
21
-123.091
0
LINE
8
Black
10
126.143
20
-123.091
11
126.143
21
-121.791
0
LINE
8
Black
10
126.143
20
-121.791
11
128.043
21
-121.791
0
LINE
8
Black
10
128.043
20
-121.791
11
128.043
21
-123.091
0
LINE
8
Black
10
125.014
20
-121.291
11
124.214
21
-121.291
0
LINE
8
Black
10
124.214
20
-121.291
11
124.214
21
-120.491
0
LINE
8
Black
10
124.214
20
-120.491
11
125.014
21
-120.491
0
LINE
8
Black
10
125.014
20
-120.491
11
125.014
21
-121.291
0
LINE
8
Black
10
126.614
20
-121.291
11
125.814
21
-121.291
0
LINE
8
Black
10
125.814
20
-121.291
11
125.814
21
-120.491
0
LINE
8
Black
10
125.814
20
-120.491
11
126.614
21
-120.491
0
LINE
8
Black
10
126.614
20
-120.491
11
126.614
21
-121.291
0
LINE
8
Black
10
121.839
20
-121.291
11
121.039
21
-121.291
0
LINE
8
Black
10
121.039
20
-121.291
11
121.039
21
-120.491
0
LINE
8
Black
10
121.039
20
-120.491
11
121.839
21
-120.491
0
LINE
8
Black
10
121.839
20
-120.491
11
121.839
21
-121.291
0
LINE
8
Black
10
123.439
20
-121.291
11
122.639
21
-121.291
0
LINE
8
Black
10
122.639
20
-121.291
11
122.639
21
-120.491
0
LINE
8
Black
10
122.639
20
-120.491
11
123.439
21
-120.491
0
LINE
8
Black
10
123.439
20
-120.491
11
123.439
21
-121.291
0
LINE
8
Black
10
121.839
20
-118.688
11
121.039
21
-118.688
0
LINE
8
Black
10
121.039
20
-118.688
11
121.039
21
-117.888
0
LINE
8
Black
10
121.039
20
-117.888
11
121.839
21
-117.888
0
LINE
8
Black
10
121.839
20
-117.888
11
121.839
21
-118.688
0
LINE
8
Black
10
125.014
20
-118.688
11
124.214
21
-118.688
0
LINE
8
Black
10
124.214
20
-118.688
11
124.214
21
-117.888
0
LINE
8
Black
10
124.214
20
-117.888
11
125.014
21
-117.888
0
LINE
8
Black
10
125.014
20
-117.888
11
125.014
21
-118.688
0
LINE
8
Black
10
126.614
20
-118.688
11
125.814
21
-118.688
0
LINE
8
Black
10
125.814
20
-118.688
11
125.814
21
-117.888
0
LINE
8
Black
10
125.814
20
-117.888
11
126.614
21
-117.888
0
LINE
8
Black
10
126.614
20
-117.888
11
126.614
21
-118.688
0
LINE
8
Black
10
123.439
20
-118.688
11
122.639
21
-118.688
0
LINE
8
Black
10
122.639
20
-118.688
11
122.639
21
-117.888
0
LINE
8
Black
10
122.639
20
-117.888
11
123.439
21
-117.888
0
LINE
8
Black
10
123.439
20
-117.888
11
123.439
21
-118.688
0
LINE
8
Black
10
122.896
20
-114.082
11
123.198
21
-114.256
0
LINE
8
Black
10
123.198
20
-114.256
11
123.422
21
-114.523
0
LINE
8
Black
10
123.422
20
-114.523
11
123.542
21
-114.851
0
LINE
8
Black
10
123.542
20
-114.851
11
123.542
21
-115.199
0
LINE
8
Black
10
123.542
20
-115.199
11
123.422
21
-115.527
0
LINE
8
Black
10
123.422
20
-115.527
11
123.198
21
-115.794
0
LINE
8
Black
10
123.198
20
-115.794
11
122.896
21
-115.968
0
LINE
8
Black
10
122.896
20
-115.968
11
122.553
21
-116.029
0
LINE
8
Black
10
122.553
20
-116.029
11
122.21
21
-115.968
0
LINE
8
Black
10
122.21
20
-115.968
11
121.908
21
-115.794
0
LINE
8
Black
10
121.908
20
-115.794
11
121.684
21
-115.527
0
LINE
8
Black
10
121.684
20
-115.527
11
121.564
21
-115.199
0
LINE
8
Black
10
121.564
20
-115.199
11
121.564
21
-114.851
0
LINE
8
Black
10
121.564
20
-114.851
11
121.684
21
-114.523
0
LINE
8
Black
10
121.684
20
-114.523
11
121.908
21
-114.256
0
LINE
8
Black
10
121.908
20
-114.256
11
122.21
21
-114.082
0
LINE
8
Black
10
122.21
20
-114.082
11
122.553
21
-114.021
0
LINE
8
Black
10
122.553
20
-114.021
11
122.896
21
-114.082
0
LINE
8
Black
10
103.696
20
-110.782
11
103.998
21
-110.956
0
LINE
8
Black
10
103.998
20
-110.956
11
104.222
21
-111.223
0
LINE
8
Black
10
104.222
20
-111.223
11
104.342
21
-111.551
0
LINE
8
Black
10
104.342
20
-111.551
11
104.342
21
-111.899
0
LINE
8
Black
10
104.342
20
-111.899
11
104.222
21
-112.227
0
LINE
8
Black
10
104.222
20
-112.227
11
103.998
21
-112.494
0
LINE
8
Black
10
103.998
20
-112.494
11
103.696
21
-112.668
0
LINE
8
Black
10
103.696
20
-112.668
11
103.353
21
-112.729
0
LINE
8
Black
10
103.353
20
-112.729
11
103.01
21
-112.668
0
LINE
8
Black
10
103.01
20
-112.668
11
102.708
21
-112.494
0
LINE
8
Black
10
102.708
20
-112.494
11
102.484
21
-112.227
0
LINE
8
Black
10
102.484
20
-112.227
11
102.364
21
-111.899
0
LINE
8
Black
10
102.364
20
-111.899
11
102.364
21
-111.551
0
LINE
8
Black
10
102.364
20
-111.551
11
102.484
21
-111.223
0
LINE
8
Black
10
102.484
20
-111.223
11
102.708
21
-110.956
0
LINE
8
Black
10
102.708
20
-110.956
11
103.01
21
-110.782
0
LINE
8
Black
10
103.01
20
-110.782
11
103.353
21
-110.721
0
LINE
8
Black
10
103.353
20
-110.721
11
103.696
21
-110.782
0
LINE
8
Black
10
114.303
20
-111.415
11
114.103
21
-111.415
0
LINE
8
Black
10
114.103
20
-111.415
11
114.103
21
-110.715
0
LINE
8
Black
10
114.103
20
-110.715
11
114.303
21
-110.715
0
LINE
8
Black
10
114.303
20
-110.715
11
114.303
21
-111.415
0
LINE
8
Black
10
115.503
20
-111.415
11
115.303
21
-111.415
0
LINE
8
Black
10
115.303
20
-111.415
11
115.303
21
-110.715
0
LINE
8
Black
10
115.303
20
-110.715
11
115.503
21
-110.715
0
LINE
8
Black
10
115.503
20
-110.715
11
115.503
21
-111.415
0
LINE
8
Black
10
115.103
20
-111.415
11
114.903
21
-111.415
0
LINE
8
Black
10
114.903
20
-111.415
11
114.903
21
-110.715
0
LINE
8
Black
10
114.903
20
-110.715
11
115.103
21
-110.715
0
LINE
8
Black
10
115.103
20
-110.715
11
115.103
21
-111.415
0
LINE
8
Black
10
114.703
20
-111.415
11
114.503
21
-111.415
0
LINE
8
Black
10
114.503
20
-111.415
11
114.503
21
-110.715
0
LINE
8
Black
10
114.503
20
-110.715
11
114.703
21
-110.715
0
LINE
8
Black
10
114.703
20
-110.715
11
114.703
21
-111.415
0
LINE
8
Black
10
113.903
20
-111.415
11
113.703
21
-111.415
0
LINE
8
Black
10
113.703
20
-111.415
11
113.703
21
-110.715
0
LINE
8
Black
10
113.703
20
-110.715
11
113.903
21
-110.715
0
LINE
8
Black
10
113.903
20
-110.715
11
113.903
21
-111.415
0
LINE
8
Black
10
113.503
20
-111.415
11
113.303
21
-111.415
0
LINE
8
Black
10
113.303
20
-111.415
11
113.303
21
-110.715
0
LINE
8
Black
10
113.303
20
-110.715
11
113.503
21
-110.715
0
LINE
8
Black
10
113.503
20
-110.715
11
113.503
21
-111.415
0
LINE
8
Black
10
112.703
20
-111.415
11
112.503
21
-111.415
0
LINE
8
Black
10
112.503
20
-111.415
11
112.503
21
-110.715
0
LINE
8
Black
10
112.503
20
-110.715
11
112.703
21
-110.715
0
LINE
8
Black
10
112.703
20
-110.715
11
112.703
21
-111.415
0
LINE
8
Black
10
113.103
20
-111.415
11
112.903
21
-111.415
0
LINE
8
Black
10
112.903
20
-111.415
11
112.903
21
-110.715
0
LINE
8
Black
10
112.903
20
-110.715
11
113.103
21
-110.715
0
LINE
8
Black
10
113.103
20
-110.715
11
113.103
21
-111.415
0
LINE
8
Black
10
111.903
20
-111.415
11
111.703
21
-111.415
0
LINE
8
Black
10
111.703
20
-111.415
11
111.703
21
-110.715
0
LINE
8
Black
10
111.703
20
-110.715
11
111.903
21
-110.715
0
LINE
8
Black
10
111.903
20
-110.715
11
111.903
21
-111.415
0
LINE
8
Black
10
112.303
20
-111.415
11
112.103
21
-111.415
0
LINE
8
Black
10
112.103
20
-111.415
11
112.103
21
-110.715
0
LINE
8
Black
10
112.103
20
-110.715
11
112.303
21
-110.715
0
LINE
8
Black
10
112.303
20
-110.715
11
112.303
21
-111.415
0
LINE
8
Black
10
107.592
20
-110.848
11
106.792
21
-110.848
0
LINE
8
Black
10
106.792
20
-110.848
11
106.792
21
-109.948
0
LINE
8
Black
10
106.792
20
-109.948
11
107.592
21
-109.948
0
LINE
8
Black
10
107.592
20
-109.948
11
107.592
21
-110.848
0
LINE
8
Black
10
109.492
20
-110.848
11
108.692
21
-110.848
0
LINE
8
Black
10
108.692
20
-110.848
11
108.692
21
-109.948
0
LINE
8
Black
10
108.692
20
-109.948
11
109.492
21
-109.948
0
LINE
8
Black
10
109.492
20
-109.948
11
109.492
21
-110.848
0
LINE
8
Black
10
108.542
20
-108.848
11
107.742
21
-108.848
0
LINE
8
Black
10
107.742
20
-108.848
11
107.742
21
-107.948
0
LINE
8
Black
10
107.742
20
-107.948
11
108.542
21
-107.948
0
LINE
8
Black
10
108.542
20
-107.948
11
108.542
21
-108.848
0
LINE
8
Black
10
111.903
20
-108.335
11
111.703
21
-108.335
0
LINE
8
Black
10
111.703
20
-108.335
11
111.703
21
-107.635
0
LINE
8
Black
10
111.703
20
-107.635
11
111.903
21
-107.635
0
LINE
8
Black
10
111.903
20
-107.635
11
111.903
21
-108.335
0
LINE
8
Black
10
115.503
20
-108.335
11
115.303
21
-108.335
0
LINE
8
Black
10
115.303
20
-108.335
11
115.303
21
-107.635
0
LINE
8
Black
10
115.303
20
-107.635
11
115.503
21
-107.635
0
LINE
8
Black
10
115.503
20
-107.635
11
115.503
21
-108.335
0
LINE
8
Black
10
112.303
20
-108.335
11
112.103
21
-108.335
0
LINE
8
Black
10
112.103
20
-108.335
11
112.103
21
-107.635
0
LINE
8
Black
10
112.103
20
-107.635
11
112.303
21
-107.635
0
LINE
8
Black
10
112.303
20
-107.635
11
112.303
21
-108.335
0
LINE
8
Black
10
115.103
20
-108.335
11
114.903
21
-108.335
0
LINE
8
Black
10
114.903
20
-108.335
11
114.903
21
-107.635
0
LINE
8
Black
10
114.903
20
-107.635
11
115.103
21
-107.635
0
LINE
8
Black
10
115.103
20
-107.635
11
115.103
21
-108.335
0
LINE
8
Black
10
114.703
20
-108.335
11
114.503
21
-108.335
0
LINE
8
Black
10
114.503
20
-108.335
11
114.503
21
-107.635
0
LINE
8
Black
10
114.503
20
-107.635
11
114.703
21
-107.635
0
LINE
8
Black
10
114.703
20
-107.635
11
114.703
21
-108.335
0
LINE
8
Black
10
112.703
20
-108.335
11
112.503
21
-108.335
0
LINE
8
Black
10
112.503
20
-108.335
11
112.503
21
-107.635
0
LINE
8
Black
10
112.503
20
-107.635
11
112.703
21
-107.635
0
LINE
8
Black
10
112.703
20
-107.635
11
112.703
21
-108.335
0
LINE
8
Black
10
114.303
20
-108.335
11
114.103
21
-108.335
0
LINE
8
Black
10
114.103
20
-108.335
11
114.103
21
-107.635
0
LINE
8
Black
10
114.103
20
-107.635
11
114.303
21
-107.635
0
LINE
8
Black
10
114.303
20
-107.635
11
114.303
21
-108.335
0
LINE
8
Black
10
113.903
20
-108.335
11
113.703
21
-108.335
0
LINE
8
Black
10
113.703
20
-108.335
11
113.703
21
-107.635
0
LINE
8
Black
10
113.703
20
-107.635
11
113.903
21
-107.635
0
LINE
8
Black
10
113.903
20
-107.635
11
113.903
21
-108.335
0
LINE
8
Black
10
113.103
20
-108.335
11
112.903
21
-108.335
0
LINE
8
Black
10
112.903
20
-108.335
11
112.903
21
-107.635
0
LINE
8
Black
10
112.903
20
-107.635
11
113.103
21
-107.635
0
LINE
8
Black
10
113.103
20
-107.635
11
113.103
21
-108.335
0
LINE
8
Black
10
113.503
20
-108.335
11
113.303
21
-108.335
0
LINE
8
Black
10
113.303
20
-108.335
11
113.303
21
-107.635
0
LINE
8
Black
10
113.303
20
-107.635
11
113.503
21
-107.635
0
LINE
8
Black
10
113.503
20
-107.635
11
113.503
21
-108.335
0
LINE
8
Black
10
109.027
20
-107.181
11
108.527
21
-107.181
0
LINE
8
Black
10
108.527
20
-107.181
11
108.527
21
-106.281
0
LINE
8
Black
10
108.527
20
-106.281
11
109.027
21
-106.281
0
LINE
8
Black
10
109.027
20
-106.281
11
109.027
21
-107.181
0
LINE
8
Black
10
110.527
20
-107.181
11
110.027
21
-107.181
0
LINE
8
Black
10
110.027
20
-107.181
11
110.027
21
-106.281
0
LINE
8
Black
10
110.027
20
-106.281
11
110.527
21
-106.281
0
LINE
8
Black
10
110.527
20
-106.281
11
110.527
21
-107.181
0
LINE
8
Black
10
120.193
20
-103.404
11
120.405
21
-103.526
0
LINE
8
Black
10
120.405
20
-103.526
11
120.562
21
-103.713
0
LINE
8
Black
10
120.562
20
-103.713
11
120.645
21
-103.942
0
LINE
8
Black
10
120.645
20
-103.942
11
120.645
21
-104.186
0
LINE
8
Black
10
120.645
20
-104.186
11
120.562
21
-104.415
0
LINE
8
Black
10
120.562
20
-104.415
11
120.405
21
-104.602
0
LINE
8
Black
10
120.405
20
-104.602
11
120.193
21
-104.724
0
LINE
8
Black
10
120.193
20
-104.724
11
119.953
21
-104.767
0
LINE
8
Black
10
119.953
20
-104.767
11
119.713
21
-104.724
0
LINE
8
Black
10
119.713
20
-104.724
11
119.501
21
-104.602
0
LINE
8
Black
10
119.501
20
-104.602
11
119.344
21
-104.415
0
LINE
8
Black
10
119.344
20
-104.415
11
119.261
21
-104.186
0
LINE
8
Black
10
119.261
20
-104.186
11
119.261
21
-103.942
0
LINE
8
Black
10
119.261
20
-103.942
11
119.344
21
-103.713
0
LINE
8
Black
10
119.344
20
-103.713
11
119.501
21
-103.526
0
LINE
8
Black
10
119.501
20
-103.526
11
119.713
21
-103.404
0
LINE
8
Black
10
119.713
20
-103.404
11
119.953
21
-103.361
0
LINE
8
Black
10
119.953
20
-103.361
11
120.193
21
-103.404
0
LINE
8
Black
10
118.193
20
-103.404
11
118.405
21
-103.526
0
LINE
8
Black
10
118.405
20
-103.526
11
118.562
21
-103.713
0
LINE
8
Black
10
118.562
20
-103.713
11
118.645
21
-103.942
0
LINE
8
Black
10
118.645
20
-103.942
11
118.645
21
-104.186
0
LINE
8
Black
10
118.645
20
-104.186
11
118.562
21
-104.415
0
LINE
8
Black
10
118.562
20
-104.415
11
118.405
21
-104.602
0
LINE
8
Black
10
118.405
20
-104.602
11
118.193
21
-104.724
0
LINE
8
Black
10
118.193
20
-104.724
11
117.953
21
-104.767
0
LINE
8
Black
10
117.953
20
-104.767
11
117.713
21
-104.724
0
LINE
8
Black
10
117.713
20
-104.724
11
117.501
21
-104.602
0
LINE
8
Black
10
117.501
20
-104.602
11
117.344
21
-104.415
0
LINE
8
Black
10
117.344
20
-104.415
11
117.261
21
-104.186
0
LINE
8
Black
10
117.261
20
-104.186
11
117.261
21
-103.942
0
LINE
8
Black
10
117.261
20
-103.942
11
117.344
21
-103.713
0
LINE
8
Black
10
117.344
20
-103.713
11
117.501
21
-103.526
0
LINE
8
Black
10
117.501
20
-103.526
11
117.713
21
-103.404
0
LINE
8
Black
10
117.713
20
-103.404
11
117.953
21
-103.361
0
LINE
8
Black
10
117.953
20
-103.361
11
118.193
21
-103.404
0
LINE
8
Black
10
116.193
20
-103.404
11
116.405
21
-103.526
0
LINE
8
Black
10
116.405
20
-103.526
11
116.562
21
-103.713
0
LINE
8
Black
10
116.562
20
-103.713
11
116.645
21
-103.942
0
LINE
8
Black
10
116.645
20
-103.942
11
116.645
21
-104.186
0
LINE
8
Black
10
116.645
20
-104.186
11
116.562
21
-104.415
0
LINE
8
Black
10
116.562
20
-104.415
11
116.405
21
-104.602
0
LINE
8
Black
10
116.405
20
-104.602
11
116.193
21
-104.724
0
LINE
8
Black
10
116.193
20
-104.724
11
115.953
21
-104.767
0
LINE
8
Black
10
115.953
20
-104.767
11
115.713
21
-104.724
0
LINE
8
Black
10
115.713
20
-104.724
11
115.501
21
-104.602
0
LINE
8
Black
10
115.501
20
-104.602
11
115.344
21
-104.415
0
LINE
8
Black
10
115.344
20
-104.415
11
115.261
21
-104.186
0
LINE
8
Black
10
115.261
20
-104.186
11
115.261
21
-103.942
0
LINE
8
Black
10
115.261
20
-103.942
11
115.344
21
-103.713
0
LINE
8
Black
10
115.344
20
-103.713
11
115.501
21
-103.526
0
LINE
8
Black
10
115.501
20
-103.526
11
115.713
21
-103.404
0
LINE
8
Black
10
115.713
20
-103.404
11
115.953
21
-103.361
0
LINE
8
Black
10
115.953
20
-103.361
11
116.193
21
-103.404
0
LINE
8
Black
10
114.193
20
-103.404
11
114.405
21
-103.526
0
LINE
8
Black
10
114.405
20
-103.526
11
114.562
21
-103.713
0
LINE
8
Black
10
114.562
20
-103.713
11
114.645
21
-103.942
0
LINE
8
Black
10
114.645
20
-103.942
11
114.645
21
-104.186
0
LINE
8
Black
10
114.645
20
-104.186
11
114.562
21
-104.415
0
LINE
8
Black
10
114.562
20
-104.415
11
114.405
21
-104.602
0
LINE
8
Black
10
114.405
20
-104.602
11
114.193
21
-104.724
0
LINE
8
Black
10
114.193
20
-104.724
11
113.953
21
-104.767
0
LINE
8
Black
10
113.953
20
-104.767
11
113.713
21
-104.724
0
LINE
8
Black
10
113.713
20
-104.724
11
113.501
21
-104.602
0
LINE
8
Black
10
113.501
20
-104.602
11
113.344
21
-104.415
0
LINE
8
Black
10
113.344
20
-104.415
11
113.261
21
-104.186
0
LINE
8
Black
10
113.261
20
-104.186
11
113.261
21
-103.942
0
LINE
8
Black
10
113.261
20
-103.942
11
113.344
21
-103.713
0
LINE
8
Black
10
113.344
20
-103.713
11
113.501
21
-103.526
0
LINE
8
Black
10
113.501
20
-103.526
11
113.713
21
-103.404
0
LINE
8
Black
10
113.713
20
-103.404
11
113.953
21
-103.361
0
LINE
8
Black
10
113.953
20
-103.361
11
114.193
21
-103.404
0
LINE
8
Black
10
122.653
20
-104.764
11
121.253
21
-104.764
0
LINE
8
Black
10
121.253
20
-104.764
11
121.253
21
-103.364
0
LINE
8
Black
10
121.253
20
-103.364
11
122.653
21
-103.364
0
LINE
8
Black
10
122.653
20
-103.364
11
122.653
21
-104.764
0
LINE
8
Black
10
128.015
20
-101.085
11
128.468
21
-101.347
0
LINE
8
Black
10
128.468
20
-101.347
11
128.804
21
-101.747
0
LINE
8
Black
10
128.804
20
-101.747
11
128.983
21
-102.239
0
LINE
8
Black
10
128.983
20
-102.239
11
128.983
21
-102.761
0
LINE
8
Black
10
128.983
20
-102.761
11
128.804
21
-103.253
0
LINE
8
Black
10
128.804
20
-103.253
11
128.468
21
-103.653
0
LINE
8
Black
10
128.468
20
-103.653
11
128.015
21
-103.915
0
LINE
8
Black
10
128.015
20
-103.915
11
127.5
21
-104.006
0
LINE
8
Black
10
127.5
20
-104.006
11
126.985
21
-103.915
0
LINE
8
Black
10
126.985
20
-103.915
11
126.532
21
-103.653
0
LINE
8
Black
10
126.532
20
-103.653
11
126.196
21
-103.253
0
LINE
8
Black
10
126.196
20
-103.253
11
126.017
21
-102.761
0
LINE
8
Black
10
126.017
20
-102.761
11
126.017
21
-102.239
0
LINE
8
Black
10
126.017
20
-102.239
11
126.196
21
-101.747
0
LINE
8
Black
10
126.196
20
-101.747
11
126.532
21
-101.347
0
LINE
8
Black
10
126.532
20
-101.347
11
126.985
21
-101.085
0
LINE
8
Black
10
126.985
20
-101.085
11
127.5
21
-100.994
0
LINE
8
Black
10
127.5
20
-100.994
11
128.015
21
-101.085
0
LINE
8
Black
10
103.015
20
-101.085
11
103.468
21
-101.347
0
LINE
8
Black
10
103.468
20
-101.347
11
103.804
21
-101.747
0
LINE
8
Black
10
103.804
20
-101.747
11
103.983
21
-102.239
0
LINE
8
Black
10
103.983
20
-102.239
11
103.983
21
-102.761
0
LINE
8
Black
10
103.983
20
-102.761
11
103.804
21
-103.253
0
LINE
8
Black
10
103.804
20
-103.253
11
103.468
21
-103.653
0
LINE
8
Black
10
103.468
20
-103.653
11
103.015
21
-103.915
0
LINE
8
Black
10
103.015
20
-103.915
11
102.5
21
-104.006
0
LINE
8
Black
10
102.5
20
-104.006
11
101.985
21
-103.915
0
LINE
8
Black
10
101.985
20
-103.915
11
101.532
21
-103.653
0
LINE
8
Black
10
101.532
20
-103.653
11
101.196
21
-103.253
0
LINE
8
Black
10
101.196
20
-103.253
11
101.017
21
-102.761
0
LINE
8
Black
10
101.017
20
-102.761
11
101.017
21
-102.239
0
LINE
8
Black
10
101.017
20
-102.239
11
101.196
21
-101.747
0
LINE
8
Black
10
101.196
20
-101.747
11
101.532
21
-101.347
0
LINE
8
Black
10
101.532
20
-101.347
11
101.985
21
-101.085
0
LINE
8
Black
10
101.985
20
-101.085
11
102.5
21
-100.994
0
LINE
8
Black
10
102.5
20
-100.994
11
103.015
21
-101.085
  0
ENDSEC
  0
EOF
