M48
;DRILL file {KiCad 4.0.6} date 08/19/17 00:11:47
;FORMAT={2:4/ absolute / inch / suppress trailing zeros}
FMAT,2
INCH,LZ
T1C0.016
T2C0.030
T3C0.031
T4C0.039
%
G90
G05
M72
T1
X039651Y-055195
X039764Y-041339
X039764Y-043307
X039764Y-045276
X039764Y-062992
X039764Y-064961
X040426Y-05917
X040826Y-053495
X040851Y-04762
X040851Y-049995
X040851Y-05117
X040901Y-05057
X040926Y-055195
X040945Y-048018
X041226Y-04592
X041339Y-039764
X041339Y-066535
X041826Y-047745
X042926Y-04457
X043026Y-042745
X043276Y-045145
X043307Y-039764
X043307Y-066535
X043426Y-055195
X043451Y-05202
X043726Y-04827
X043801Y-055245
X043826Y-04197
X044017Y-042961
X044326Y-05502
X044326Y-05577
X044551Y-050845
X044701Y-04482
X044701Y-04852
X044951Y-04877
X044976Y-04422
X044976Y-05312
X045126Y-041595
X045198Y-044476
X045226Y-05337
X045226Y-05602
X045276Y-039764
X045289Y-04982
X045326Y-046795
X045526Y-04957
X045551Y-055195
X045551Y-06287
X045651Y-05162
X045676Y-04187
X045676Y-047745
X045751Y-04817
X045893Y-050438
X045926Y-04212
X045951Y-06597
X046126Y-050195
X046176Y-053195
X046201Y-050945
X046276Y-04712
X046351Y-042645
X046601Y-04852
X046726Y-054345
X047176Y-06022
X047244Y-039764
X047244Y-066535
X0473Y-048155
X047401Y-04507
X047726Y-05317
X047776Y-04277
X047896Y-062345
X048126Y-04797
X048626Y-04722
X04894Y-049715
X049051Y-05667
X049101Y-052445
X049126Y-04722
X049151Y-049995
X0492Y-050515
X049213Y-039764
X049213Y-066535
X049251Y-055945
X049376Y-05217
X049401Y-050245
X049501Y-06217
X049626Y-04722
X049651Y-050495
X049701Y-06082
X049801Y-05787
X050176Y-04417
X050176Y-04692
X050251Y-053045
X050251Y-053995
X050426Y-05582
X0507Y-051975
X050787Y-041339
X050787Y-043307
X050787Y-049213
X050787Y-064961
T2
X046251Y-054745
X046251Y-055745
X046251Y-056745
X046251Y-057745
X047251Y-054745
X047251Y-055745
X047251Y-056745
X047251Y-057745
T3
X043776Y-06232
X043776Y-06332
X043776Y-06432
X043776Y-06532
X043776Y-06632
X044863Y-04097
X045651Y-04097
X046438Y-04097
X046776Y-06232
X046776Y-06332
X046776Y-06432
X046776Y-06532
X046776Y-06632
X047226Y-04097
X048013Y-04097
X048063Y-06322
X048851Y-06322
T4
X050501Y-06092
X050501Y-06192
X050501Y-06292
X050501Y-06392
T0
M30
