  0
SECTION
  2
HEADER
  9
$ANGBASE
  50
0.0
  9
$ANGDIR
  70
  1
  9
$MEASUREMENT
  70
0
  0
ENDSEC
  0
SECTION
  2
TABLES
  0
TABLE
  2
LTYPE
  70
1
  0
LTYPE
  2
CONTINUOUS
  70
0
  3
Solid line
  72
65
  73
0
  40
0.0
  0
ENDTAB
  0
TABLE
  2
STYLE
  70
4
  0
STYLE
  2
KICAD
  70
0
  40
0
  41
1
  42
1
  50
0
  71
0
  3
isocp.shx
  0
STYLE
  2
KICADB
  70
0
  40
0
  41
1
  42
1
  50
0
  71
0
  3
isocp.shx
  0
STYLE
  2
KICADI
  70
0
  40
0
  41
1
  42
1
  50
15
  71
0
  3
isocp.shx
  0
STYLE
  2
KICADBI
  70
0
  40
0
  41
1
  42
1
  50
15
  71
0
  3
isocp.shx
  0
ENDTAB
  0
TABLE
  2
LAYER
  70
30
  0
LAYER
  2
BLACK
  70
0
  62
7
  6
CONTINUOUS
  0
LAYER
  2
GRAY1
  70
0
  62
251
  6
CONTINUOUS
  0
LAYER
  2
GRAY2
  70
0
  62
8
  6
CONTINUOUS
  0
LAYER
  2
GRAY3
  70
0
  62
9
  6
CONTINUOUS
  0
LAYER
  2
WHITE
  70
0
  62
7
  6
CONTINUOUS
  0
LAYER
  2
LYELLOW
  70
0
  62
51
  6
CONTINUOUS
  0
LAYER
  2
BLUE1
  70
0
  62
178
  6
CONTINUOUS
  0
LAYER
  2
GREEN1
  70
0
  62
98
  6
CONTINUOUS
  0
LAYER
  2
CYAN1
  70
0
  62
138
  6
CONTINUOUS
  0
LAYER
  2
RED1
  70
0
  62
18
  6
CONTINUOUS
  0
LAYER
  2
MAGENTA1
  70
0
  62
228
  6
CONTINUOUS
  0
LAYER
  2
BROWN1
  70
0
  62
58
  6
CONTINUOUS
  0
LAYER
  2
BLUE2
  70
0
  62
5
  6
CONTINUOUS
  0
LAYER
  2
GREEN2
  70
0
  62
3
  6
CONTINUOUS
  0
LAYER
  2
CYAN2
  70
0
  62
4
  6
CONTINUOUS
  0
LAYER
  2
RED2
  70
0
  62
1
  6
CONTINUOUS
  0
LAYER
  2
MAGENTA2
  70
0
  62
6
  6
CONTINUOUS
  0
LAYER
  2
BROWN2
  70
0
  62
54
  6
CONTINUOUS
  0
LAYER
  2
BLUE3
  70
0
  62
171
  6
CONTINUOUS
  0
LAYER
  2
GREEN3
  70
0
  62
91
  6
CONTINUOUS
  0
LAYER
  2
CYAN3
  70
0
  62
131
  6
CONTINUOUS
  0
LAYER
  2
RED3
  70
0
  62
11
  6
CONTINUOUS
  0
LAYER
  2
MAGENTA3
  70
0
  62
221
  6
CONTINUOUS
  0
LAYER
  2
YELLOW3
  70
0
  62
2
  6
CONTINUOUS
  0
LAYER
  2
BLUE4
  70
0
  62
5
  6
CONTINUOUS
  0
LAYER
  2
GREEN4
  70
0
  62
3
  6
CONTINUOUS
  0
LAYER
  2
CYAN4
  70
0
  62
4
  6
CONTINUOUS
  0
LAYER
  2
RED4
  70
0
  62
1
  6
CONTINUOUS
  0
LAYER
  2
MAGENTA4
  70
0
  62
6
  6
CONTINUOUS
  0
LAYER
  2
YELLOW4
  70
0
  62
2
  6
CONTINUOUS
  0
ENDTAB
  0
ENDSEC
  0
SECTION
  2
ENTITIES
0
LINE
8
Black
10
130.006
20
-99.9261
11
130.013
21
-99.9261
0
LINE
8
Black
10
130.013
20
-99.9261
11
130.019
21
-99.9284
0
LINE
8
Black
10
130.019
20
-99.9284
11
130.026
21
-99.9295
0
LINE
8
Black
10
130.026
20
-99.9295
11
130.031
21
-99.9328
0
LINE
8
Black
10
130.031
20
-99.9328
11
130.037
21
-99.935
0
LINE
8
Black
10
130.037
20
-99.935
11
130.043
21
-99.9393
0
LINE
8
Black
10
130.043
20
-99.9393
11
130.048
21
-99.9425
0
LINE
8
Black
10
130.048
20
-99.9425
11
130.052
21
-99.9476
0
LINE
8
Black
10
130.052
20
-99.9476
11
130.057
21
-99.9518
0
LINE
8
Black
10
130.057
20
-99.9518
11
130.061
21
-99.9575
0
LINE
8
Black
10
130.061
20
-99.9575
11
130.065
21
-99.9625
0
LINE
8
Black
10
130.065
20
-99.9625
11
130.067
21
-99.9687
0
LINE
8
Black
10
130.067
20
-99.9687
11
130.07
21
-99.9743
0
LINE
8
Black
10
130.07
20
-99.9743
11
130.072
21
-99.9808
0
LINE
8
Black
10
130.072
20
-99.9808
11
130.074
21
-99.987
0
LINE
8
Black
10
130.074
20
-99.987
11
130.074
21
-99.9935
0
LINE
8
Black
10
130.074
20
-99.9935
11
130.075
21
-100
0
LINE
8
Black
10
130.075
20
-100
11
130.075
21
-170
0
LINE
8
Black
10
130.075
20
-170
11
130.074
21
-170.006
0
LINE
8
Black
10
130.074
20
-170.006
11
130.074
21
-170.013
0
LINE
8
Black
10
130.074
20
-170.013
11
130.072
21
-170.019
0
LINE
8
Black
10
130.072
20
-170.019
11
130.07
21
-170.026
0
LINE
8
Black
10
130.07
20
-170.026
11
130.067
21
-170.031
0
LINE
8
Black
10
130.067
20
-170.031
11
130.065
21
-170.037
0
LINE
8
Black
10
130.065
20
-170.037
11
130.061
21
-170.043
0
LINE
8
Black
10
130.061
20
-170.043
11
130.057
21
-170.048
0
LINE
8
Black
10
130.057
20
-170.048
11
130.052
21
-170.052
0
LINE
8
Black
10
130.052
20
-170.052
11
130.048
21
-170.057
0
LINE
8
Black
10
130.048
20
-170.057
11
130.043
21
-170.061
0
LINE
8
Black
10
130.043
20
-170.061
11
130.037
21
-170.065
0
LINE
8
Black
10
130.037
20
-170.065
11
130.031
21
-170.067
0
LINE
8
Black
10
130.031
20
-170.067
11
130.026
21
-170.07
0
LINE
8
Black
10
130.026
20
-170.07
11
130.019
21
-170.072
0
LINE
8
Black
10
130.019
20
-170.072
11
130.013
21
-170.074
0
LINE
8
Black
10
130.013
20
-170.074
11
130.006
21
-170.074
0
LINE
8
Black
10
130.006
20
-170.074
11
130
21
-170.075
0
LINE
8
Black
10
130
20
-170.075
11
100
21
-170.075
0
LINE
8
Black
10
100
20
-170.075
11
99.9935
21
-170.074
0
LINE
8
Black
10
99.9935
20
-170.074
11
99.987
21
-170.074
0
LINE
8
Black
10
99.987
20
-170.074
11
99.9808
21
-170.072
0
LINE
8
Black
10
99.9808
20
-170.072
11
99.9743
21
-170.07
0
LINE
8
Black
10
99.9743
20
-170.07
11
99.9687
21
-170.067
0
LINE
8
Black
10
99.9687
20
-170.067
11
99.9625
21
-170.065
0
LINE
8
Black
10
99.9625
20
-170.065
11
99.9575
21
-170.061
0
LINE
8
Black
10
99.9575
20
-170.061
11
99.9518
21
-170.057
0
LINE
8
Black
10
99.9518
20
-170.057
11
99.9476
21
-170.052
0
LINE
8
Black
10
99.9476
20
-170.052
11
99.9425
21
-170.048
0
LINE
8
Black
10
99.9425
20
-170.048
11
99.9393
21
-170.043
0
LINE
8
Black
10
99.9393
20
-170.043
11
99.935
21
-170.037
0
LINE
8
Black
10
99.935
20
-170.037
11
99.9328
21
-170.031
0
LINE
8
Black
10
99.9328
20
-170.031
11
99.9295
21
-170.026
0
LINE
8
Black
10
99.9295
20
-170.026
11
99.9284
21
-170.019
0
LINE
8
Black
10
99.9284
20
-170.019
11
99.9261
21
-170.013
0
LINE
8
Black
10
99.9261
20
-170.013
11
99.9261
21
-170.006
0
LINE
8
Black
10
99.9261
20
-170.006
11
99.925
21
-170
0
LINE
8
Black
10
99.925
20
-170
11
99.925
21
-100
0
LINE
8
Black
10
99.925
20
-100
11
99.9261
21
-99.9935
0
LINE
8
Black
10
99.9261
20
-99.9935
11
99.9261
21
-99.987
0
LINE
8
Black
10
99.9261
20
-99.987
11
99.9284
21
-99.9808
0
LINE
8
Black
10
99.9284
20
-99.9808
11
99.9295
21
-99.9743
0
LINE
8
Black
10
99.9295
20
-99.9743
11
99.9328
21
-99.9687
0
LINE
8
Black
10
99.9328
20
-99.9687
11
99.935
21
-99.9625
0
LINE
8
Black
10
99.935
20
-99.9625
11
99.9393
21
-99.9575
0
LINE
8
Black
10
99.9393
20
-99.9575
11
99.9425
21
-99.9518
0
LINE
8
Black
10
99.9425
20
-99.9518
11
99.9476
21
-99.9476
0
LINE
8
Black
10
99.9476
20
-99.9476
11
99.9518
21
-99.9425
0
LINE
8
Black
10
99.9518
20
-99.9425
11
99.9575
21
-99.9393
0
LINE
8
Black
10
99.9575
20
-99.9393
11
99.9625
21
-99.935
0
LINE
8
Black
10
99.9625
20
-99.935
11
99.9687
21
-99.9328
0
LINE
8
Black
10
99.9687
20
-99.9328
11
99.9743
21
-99.9295
0
LINE
8
Black
10
99.9743
20
-99.9295
11
99.9808
21
-99.9284
0
LINE
8
Black
10
99.9808
20
-99.9284
11
99.987
21
-99.9261
0
LINE
8
Black
10
99.987
20
-99.9261
11
99.9935
21
-99.9261
0
LINE
8
Black
10
99.9935
20
-99.9261
11
100
21
-99.925
0
LINE
8
Black
10
100
20
-99.925
11
130
21
-99.925
0
LINE
8
Black
10
130
20
-99.925
11
130.006
21
-99.9261
0
LINE
8
Black
10
100.075
20
-100.075
11
100.075
21
-169.925
0
LINE
8
Black
10
100.075
20
-169.925
11
129.925
21
-169.925
0
LINE
8
Black
10
129.925
20
-169.925
11
129.925
21
-100.075
0
LINE
8
Black
10
129.925
20
-100.075
11
100.075
21
-100.075
  0
ENDSEC
  0
EOF
