  0
SECTION
  2
HEADER
  9
$ANGBASE
  50
0.0
  9
$ANGDIR
  70
  1
  9
$MEASUREMENT
  70
0
  0
ENDSEC
  0
SECTION
  2
TABLES
  0
TABLE
  2
LTYPE
  70
1
  0
LTYPE
  2
CONTINUOUS
  70
0
  3
Solid line
  72
65
  73
0
  40
0.0
  0
ENDTAB
  0
TABLE
  2
STYLE
  70
4
  0
STYLE
  2
KICAD
  70
0
  40
0
  41
1
  42
1
  50
0
  71
0
  3
isocp.shx
  0
STYLE
  2
KICADB
  70
0
  40
0
  41
1
  42
1
  50
0
  71
0
  3
isocp.shx
  0
STYLE
  2
KICADI
  70
0
  40
0
  41
1
  42
1
  50
15
  71
0
  3
isocp.shx
  0
STYLE
  2
KICADBI
  70
0
  40
0
  41
1
  42
1
  50
15
  71
0
  3
isocp.shx
  0
ENDTAB
  0
TABLE
  2
LAYER
  70
30
  0
LAYER
  2
BLACK
  70
0
  62
7
  6
CONTINUOUS
  0
LAYER
  2
GRAY1
  70
0
  62
251
  6
CONTINUOUS
  0
LAYER
  2
GRAY2
  70
0
  62
8
  6
CONTINUOUS
  0
LAYER
  2
GRAY3
  70
0
  62
9
  6
CONTINUOUS
  0
LAYER
  2
WHITE
  70
0
  62
7
  6
CONTINUOUS
  0
LAYER
  2
LYELLOW
  70
0
  62
51
  6
CONTINUOUS
  0
LAYER
  2
BLUE1
  70
0
  62
178
  6
CONTINUOUS
  0
LAYER
  2
GREEN1
  70
0
  62
98
  6
CONTINUOUS
  0
LAYER
  2
CYAN1
  70
0
  62
138
  6
CONTINUOUS
  0
LAYER
  2
RED1
  70
0
  62
18
  6
CONTINUOUS
  0
LAYER
  2
MAGENTA1
  70
0
  62
228
  6
CONTINUOUS
  0
LAYER
  2
BROWN1
  70
0
  62
58
  6
CONTINUOUS
  0
LAYER
  2
BLUE2
  70
0
  62
5
  6
CONTINUOUS
  0
LAYER
  2
GREEN2
  70
0
  62
3
  6
CONTINUOUS
  0
LAYER
  2
CYAN2
  70
0
  62
4
  6
CONTINUOUS
  0
LAYER
  2
RED2
  70
0
  62
1
  6
CONTINUOUS
  0
LAYER
  2
MAGENTA2
  70
0
  62
6
  6
CONTINUOUS
  0
LAYER
  2
BROWN2
  70
0
  62
54
  6
CONTINUOUS
  0
LAYER
  2
BLUE3
  70
0
  62
171
  6
CONTINUOUS
  0
LAYER
  2
GREEN3
  70
0
  62
91
  6
CONTINUOUS
  0
LAYER
  2
CYAN3
  70
0
  62
131
  6
CONTINUOUS
  0
LAYER
  2
RED3
  70
0
  62
11
  6
CONTINUOUS
  0
LAYER
  2
MAGENTA3
  70
0
  62
221
  6
CONTINUOUS
  0
LAYER
  2
YELLOW3
  70
0
  62
2
  6
CONTINUOUS
  0
LAYER
  2
BLUE4
  70
0
  62
5
  6
CONTINUOUS
  0
LAYER
  2
GREEN4
  70
0
  62
3
  6
CONTINUOUS
  0
LAYER
  2
CYAN4
  70
0
  62
4
  6
CONTINUOUS
  0
LAYER
  2
RED4
  70
0
  62
1
  6
CONTINUOUS
  0
LAYER
  2
MAGENTA4
  70
0
  62
6
  6
CONTINUOUS
  0
LAYER
  2
YELLOW4
  70
0
  62
2
  6
CONTINUOUS
  0
ENDTAB
  0
ENDSEC
  0
SECTION
  2
ENTITIES
0
LINE
8
Black
10
111.467
20
-167.701
11
111.707
21
-167.84
0
LINE
8
Black
10
111.707
20
-167.84
11
111.886
21
-168.053
0
LINE
8
Black
10
111.886
20
-168.053
11
111.981
21
-168.314
0
LINE
8
Black
10
111.981
20
-168.314
11
111.981
21
-168.592
0
LINE
8
Black
10
111.981
20
-168.592
11
111.886
21
-168.853
0
LINE
8
Black
10
111.886
20
-168.853
11
111.707
21
-169.066
0
LINE
8
Black
10
111.707
20
-169.066
11
111.467
21
-169.205
0
LINE
8
Black
10
111.467
20
-169.205
11
111.193
21
-169.253
0
LINE
8
Black
10
111.193
20
-169.253
11
111.187
21
-169.253
0
LINE
8
Black
10
111.187
20
-169.253
11
110.913
21
-169.205
0
LINE
8
Black
10
110.913
20
-169.205
11
110.673
21
-169.066
0
LINE
8
Black
10
110.673
20
-169.066
11
110.494
21
-168.853
0
LINE
8
Black
10
110.494
20
-168.853
11
110.399
21
-168.592
0
LINE
8
Black
10
110.399
20
-168.592
11
110.399
21
-168.314
0
LINE
8
Black
10
110.399
20
-168.314
11
110.494
21
-168.053
0
LINE
8
Black
10
110.494
20
-168.053
11
110.673
21
-167.84
0
LINE
8
Black
10
110.673
20
-167.84
11
110.913
21
-167.701
0
LINE
8
Black
10
110.913
20
-167.701
11
111.187
21
-167.653
0
LINE
8
Black
10
111.187
20
-167.653
11
111.193
21
-167.653
0
LINE
8
Black
10
111.193
20
-167.653
11
111.467
21
-167.701
0
LINE
8
Black
10
119.087
20
-167.701
11
119.327
21
-167.84
0
LINE
8
Black
10
119.327
20
-167.84
11
119.506
21
-168.053
0
LINE
8
Black
10
119.506
20
-168.053
11
119.601
21
-168.314
0
LINE
8
Black
10
119.601
20
-168.314
11
119.601
21
-168.592
0
LINE
8
Black
10
119.601
20
-168.592
11
119.506
21
-168.853
0
LINE
8
Black
10
119.506
20
-168.853
11
119.327
21
-169.066
0
LINE
8
Black
10
119.327
20
-169.066
11
119.087
21
-169.205
0
LINE
8
Black
10
119.087
20
-169.205
11
118.813
21
-169.253
0
LINE
8
Black
10
118.813
20
-169.253
11
118.807
21
-169.253
0
LINE
8
Black
10
118.807
20
-169.253
11
118.533
21
-169.205
0
LINE
8
Black
10
118.533
20
-169.205
11
118.293
21
-169.066
0
LINE
8
Black
10
118.293
20
-169.066
11
118.114
21
-168.853
0
LINE
8
Black
10
118.114
20
-168.853
11
118.019
21
-168.592
0
LINE
8
Black
10
118.019
20
-168.592
11
118.019
21
-168.314
0
LINE
8
Black
10
118.019
20
-168.314
11
118.114
21
-168.053
0
LINE
8
Black
10
118.114
20
-168.053
11
118.293
21
-167.84
0
LINE
8
Black
10
118.293
20
-167.84
11
118.533
21
-167.701
0
LINE
8
Black
10
118.533
20
-167.701
11
118.807
21
-167.653
0
LINE
8
Black
10
118.807
20
-167.653
11
118.813
21
-167.653
0
LINE
8
Black
10
118.813
20
-167.653
11
119.087
21
-167.701
0
LINE
8
Black
10
128.015
20
-166.085
11
128.468
21
-166.347
0
LINE
8
Black
10
128.468
20
-166.347
11
128.804
21
-166.747
0
LINE
8
Black
10
128.804
20
-166.747
11
128.983
21
-167.239
0
LINE
8
Black
10
128.983
20
-167.239
11
128.983
21
-167.761
0
LINE
8
Black
10
128.983
20
-167.761
11
128.804
21
-168.253
0
LINE
8
Black
10
128.804
20
-168.253
11
128.468
21
-168.653
0
LINE
8
Black
10
128.468
20
-168.653
11
128.015
21
-168.915
0
LINE
8
Black
10
128.015
20
-168.915
11
127.5
21
-169.006
0
LINE
8
Black
10
127.5
20
-169.006
11
126.985
21
-168.915
0
LINE
8
Black
10
126.985
20
-168.915
11
126.532
21
-168.653
0
LINE
8
Black
10
126.532
20
-168.653
11
126.196
21
-168.253
0
LINE
8
Black
10
126.196
20
-168.253
11
126.017
21
-167.761
0
LINE
8
Black
10
126.017
20
-167.761
11
126.017
21
-167.239
0
LINE
8
Black
10
126.017
20
-167.239
11
126.196
21
-166.747
0
LINE
8
Black
10
126.196
20
-166.747
11
126.532
21
-166.347
0
LINE
8
Black
10
126.532
20
-166.347
11
126.985
21
-166.085
0
LINE
8
Black
10
126.985
20
-166.085
11
127.5
21
-165.994
0
LINE
8
Black
10
127.5
20
-165.994
11
128.015
21
-166.085
0
LINE
8
Black
10
103.015
20
-166.085
11
103.468
21
-166.347
0
LINE
8
Black
10
103.468
20
-166.347
11
103.804
21
-166.747
0
LINE
8
Black
10
103.804
20
-166.747
11
103.983
21
-167.239
0
LINE
8
Black
10
103.983
20
-167.239
11
103.983
21
-167.761
0
LINE
8
Black
10
103.983
20
-167.761
11
103.804
21
-168.253
0
LINE
8
Black
10
103.804
20
-168.253
11
103.468
21
-168.653
0
LINE
8
Black
10
103.468
20
-168.653
11
103.015
21
-168.915
0
LINE
8
Black
10
103.015
20
-168.915
11
102.5
21
-169.006
0
LINE
8
Black
10
102.5
20
-169.006
11
101.985
21
-168.915
0
LINE
8
Black
10
101.985
20
-168.915
11
101.532
21
-168.653
0
LINE
8
Black
10
101.532
20
-168.653
11
101.196
21
-168.253
0
LINE
8
Black
10
101.196
20
-168.253
11
101.017
21
-167.761
0
LINE
8
Black
10
101.017
20
-167.761
11
101.017
21
-167.239
0
LINE
8
Black
10
101.017
20
-167.239
11
101.196
21
-166.747
0
LINE
8
Black
10
101.196
20
-166.747
11
101.532
21
-166.347
0
LINE
8
Black
10
101.532
20
-166.347
11
101.985
21
-166.085
0
LINE
8
Black
10
101.985
20
-166.085
11
102.5
21
-165.994
0
LINE
8
Black
10
102.5
20
-165.994
11
103.015
21
-166.085
0
LINE
8
Black
10
119.087
20
-165.161
11
119.327
21
-165.3
0
LINE
8
Black
10
119.327
20
-165.3
11
119.506
21
-165.513
0
LINE
8
Black
10
119.506
20
-165.513
11
119.601
21
-165.774
0
LINE
8
Black
10
119.601
20
-165.774
11
119.601
21
-166.052
0
LINE
8
Black
10
119.601
20
-166.052
11
119.506
21
-166.313
0
LINE
8
Black
10
119.506
20
-166.313
11
119.327
21
-166.526
0
LINE
8
Black
10
119.327
20
-166.526
11
119.087
21
-166.665
0
LINE
8
Black
10
119.087
20
-166.665
11
118.813
21
-166.713
0
LINE
8
Black
10
118.813
20
-166.713
11
118.807
21
-166.713
0
LINE
8
Black
10
118.807
20
-166.713
11
118.533
21
-166.665
0
LINE
8
Black
10
118.533
20
-166.665
11
118.293
21
-166.526
0
LINE
8
Black
10
118.293
20
-166.526
11
118.114
21
-166.313
0
LINE
8
Black
10
118.114
20
-166.313
11
118.019
21
-166.052
0
LINE
8
Black
10
118.019
20
-166.052
11
118.019
21
-165.774
0
LINE
8
Black
10
118.019
20
-165.774
11
118.114
21
-165.513
0
LINE
8
Black
10
118.114
20
-165.513
11
118.293
21
-165.3
0
LINE
8
Black
10
118.293
20
-165.3
11
118.533
21
-165.161
0
LINE
8
Black
10
118.533
20
-165.161
11
118.807
21
-165.113
0
LINE
8
Black
10
118.807
20
-165.113
11
118.813
21
-165.113
0
LINE
8
Black
10
118.813
20
-165.113
11
119.087
21
-165.161
0
LINE
8
Black
10
111.467
20
-165.161
11
111.707
21
-165.3
0
LINE
8
Black
10
111.707
20
-165.3
11
111.886
21
-165.513
0
LINE
8
Black
10
111.886
20
-165.513
11
111.981
21
-165.774
0
LINE
8
Black
10
111.981
20
-165.774
11
111.981
21
-166.052
0
LINE
8
Black
10
111.981
20
-166.052
11
111.886
21
-166.313
0
LINE
8
Black
10
111.886
20
-166.313
11
111.707
21
-166.526
0
LINE
8
Black
10
111.707
20
-166.526
11
111.467
21
-166.665
0
LINE
8
Black
10
111.467
20
-166.665
11
111.193
21
-166.713
0
LINE
8
Black
10
111.193
20
-166.713
11
111.187
21
-166.713
0
LINE
8
Black
10
111.187
20
-166.713
11
110.913
21
-166.665
0
LINE
8
Black
10
110.913
20
-166.665
11
110.673
21
-166.526
0
LINE
8
Black
10
110.673
20
-166.526
11
110.494
21
-166.313
0
LINE
8
Black
10
110.494
20
-166.313
11
110.399
21
-166.052
0
LINE
8
Black
10
110.399
20
-166.052
11
110.399
21
-165.774
0
LINE
8
Black
10
110.399
20
-165.774
11
110.494
21
-165.513
0
LINE
8
Black
10
110.494
20
-165.513
11
110.673
21
-165.3
0
LINE
8
Black
10
110.673
20
-165.3
11
110.913
21
-165.161
0
LINE
8
Black
10
110.913
20
-165.161
11
111.187
21
-165.113
0
LINE
8
Black
10
111.187
20
-165.113
11
111.193
21
-165.113
0
LINE
8
Black
10
111.193
20
-165.113
11
111.467
21
-165.161
0
LINE
8
Black
10
119.087
20
-162.621
11
119.327
21
-162.76
0
LINE
8
Black
10
119.327
20
-162.76
11
119.506
21
-162.973
0
LINE
8
Black
10
119.506
20
-162.973
11
119.601
21
-163.234
0
LINE
8
Black
10
119.601
20
-163.234
11
119.601
21
-163.512
0
LINE
8
Black
10
119.601
20
-163.512
11
119.506
21
-163.773
0
LINE
8
Black
10
119.506
20
-163.773
11
119.327
21
-163.986
0
LINE
8
Black
10
119.327
20
-163.986
11
119.087
21
-164.125
0
LINE
8
Black
10
119.087
20
-164.125
11
118.813
21
-164.173
0
LINE
8
Black
10
118.813
20
-164.173
11
118.807
21
-164.173
0
LINE
8
Black
10
118.807
20
-164.173
11
118.533
21
-164.125
0
LINE
8
Black
10
118.533
20
-164.125
11
118.293
21
-163.986
0
LINE
8
Black
10
118.293
20
-163.986
11
118.114
21
-163.773
0
LINE
8
Black
10
118.114
20
-163.773
11
118.019
21
-163.512
0
LINE
8
Black
10
118.019
20
-163.512
11
118.019
21
-163.234
0
LINE
8
Black
10
118.019
20
-163.234
11
118.114
21
-162.973
0
LINE
8
Black
10
118.114
20
-162.973
11
118.293
21
-162.76
0
LINE
8
Black
10
118.293
20
-162.76
11
118.533
21
-162.621
0
LINE
8
Black
10
118.533
20
-162.621
11
118.807
21
-162.573
0
LINE
8
Black
10
118.807
20
-162.573
11
118.813
21
-162.573
0
LINE
8
Black
10
118.813
20
-162.573
11
119.087
21
-162.621
0
LINE
8
Black
10
111.467
20
-162.621
11
111.707
21
-162.76
0
LINE
8
Black
10
111.707
20
-162.76
11
111.886
21
-162.973
0
LINE
8
Black
10
111.886
20
-162.973
11
111.981
21
-163.234
0
LINE
8
Black
10
111.981
20
-163.234
11
111.981
21
-163.512
0
LINE
8
Black
10
111.981
20
-163.512
11
111.886
21
-163.773
0
LINE
8
Black
10
111.886
20
-163.773
11
111.707
21
-163.986
0
LINE
8
Black
10
111.707
20
-163.986
11
111.467
21
-164.125
0
LINE
8
Black
10
111.467
20
-164.125
11
111.193
21
-164.173
0
LINE
8
Black
10
111.193
20
-164.173
11
111.187
21
-164.173
0
LINE
8
Black
10
111.187
20
-164.173
11
110.913
21
-164.125
0
LINE
8
Black
10
110.913
20
-164.125
11
110.673
21
-163.986
0
LINE
8
Black
10
110.673
20
-163.986
11
110.494
21
-163.773
0
LINE
8
Black
10
110.494
20
-163.773
11
110.399
21
-163.512
0
LINE
8
Black
10
110.399
20
-163.512
11
110.399
21
-163.234
0
LINE
8
Black
10
110.399
20
-163.234
11
110.494
21
-162.973
0
LINE
8
Black
10
110.494
20
-162.973
11
110.673
21
-162.76
0
LINE
8
Black
10
110.673
20
-162.76
11
110.913
21
-162.621
0
LINE
8
Black
10
110.913
20
-162.621
11
111.187
21
-162.573
0
LINE
8
Black
10
111.187
20
-162.573
11
111.193
21
-162.573
0
LINE
8
Black
10
111.193
20
-162.573
11
111.467
21
-162.621
0
LINE
8
Black
10
129.121
20
-163.207
11
127.421
21
-163.207
0
LINE
8
Black
10
127.421
20
-163.207
11
127.421
21
-161.507
0
LINE
8
Black
10
127.421
20
-161.507
11
129.121
21
-161.507
0
LINE
8
Black
10
129.121
20
-161.507
11
129.121
21
-163.207
0
LINE
8
Black
10
119.087
20
-160.081
11
119.327
21
-160.22
0
LINE
8
Black
10
119.327
20
-160.22
11
119.506
21
-160.433
0
LINE
8
Black
10
119.506
20
-160.433
11
119.601
21
-160.694
0
LINE
8
Black
10
119.601
20
-160.694
11
119.601
21
-160.972
0
LINE
8
Black
10
119.601
20
-160.972
11
119.506
21
-161.233
0
LINE
8
Black
10
119.506
20
-161.233
11
119.327
21
-161.446
0
LINE
8
Black
10
119.327
20
-161.446
11
119.087
21
-161.585
0
LINE
8
Black
10
119.087
20
-161.585
11
118.813
21
-161.633
0
LINE
8
Black
10
118.813
20
-161.633
11
118.807
21
-161.633
0
LINE
8
Black
10
118.807
20
-161.633
11
118.533
21
-161.585
0
LINE
8
Black
10
118.533
20
-161.585
11
118.293
21
-161.446
0
LINE
8
Black
10
118.293
20
-161.446
11
118.114
21
-161.233
0
LINE
8
Black
10
118.114
20
-161.233
11
118.019
21
-160.972
0
LINE
8
Black
10
118.019
20
-160.972
11
118.019
21
-160.694
0
LINE
8
Black
10
118.019
20
-160.694
11
118.114
21
-160.433
0
LINE
8
Black
10
118.114
20
-160.433
11
118.293
21
-160.22
0
LINE
8
Black
10
118.293
20
-160.22
11
118.533
21
-160.081
0
LINE
8
Black
10
118.533
20
-160.081
11
118.807
21
-160.033
0
LINE
8
Black
10
118.807
20
-160.033
11
118.813
21
-160.033
0
LINE
8
Black
10
118.813
20
-160.033
11
119.087
21
-160.081
0
LINE
8
Black
10
111.467
20
-160.081
11
111.707
21
-160.22
0
LINE
8
Black
10
111.707
20
-160.22
11
111.886
21
-160.433
0
LINE
8
Black
10
111.886
20
-160.433
11
111.981
21
-160.694
0
LINE
8
Black
10
111.981
20
-160.694
11
111.981
21
-160.972
0
LINE
8
Black
10
111.981
20
-160.972
11
111.886
21
-161.233
0
LINE
8
Black
10
111.886
20
-161.233
11
111.707
21
-161.446
0
LINE
8
Black
10
111.707
20
-161.446
11
111.467
21
-161.585
0
LINE
8
Black
10
111.467
20
-161.585
11
111.193
21
-161.633
0
LINE
8
Black
10
111.193
20
-161.633
11
111.187
21
-161.633
0
LINE
8
Black
10
111.187
20
-161.633
11
110.913
21
-161.585
0
LINE
8
Black
10
110.913
20
-161.585
11
110.673
21
-161.446
0
LINE
8
Black
10
110.673
20
-161.446
11
110.494
21
-161.233
0
LINE
8
Black
10
110.494
20
-161.233
11
110.399
21
-160.972
0
LINE
8
Black
10
110.399
20
-160.972
11
110.399
21
-160.694
0
LINE
8
Black
10
110.399
20
-160.694
11
110.494
21
-160.433
0
LINE
8
Black
10
110.494
20
-160.433
11
110.673
21
-160.22
0
LINE
8
Black
10
110.673
20
-160.22
11
110.913
21
-160.081
0
LINE
8
Black
10
110.913
20
-160.081
11
111.187
21
-160.033
0
LINE
8
Black
10
111.187
20
-160.033
11
111.193
21
-160.033
0
LINE
8
Black
10
111.193
20
-160.033
11
111.467
21
-160.081
0
LINE
8
Black
10
124.321
20
-159.919
11
124.532
21
-160.041
0
LINE
8
Black
10
124.532
20
-160.041
11
124.689
21
-160.228
0
LINE
8
Black
10
124.689
20
-160.228
11
124.772
21
-160.457
0
LINE
8
Black
10
124.772
20
-160.457
11
124.772
21
-160.701
0
LINE
8
Black
10
124.772
20
-160.701
11
124.689
21
-160.93
0
LINE
8
Black
10
124.689
20
-160.93
11
124.532
21
-161.117
0
LINE
8
Black
10
124.532
20
-161.117
11
124.321
21
-161.239
0
LINE
8
Black
10
124.321
20
-161.239
11
124.081
21
-161.282
0
LINE
8
Black
10
124.081
20
-161.282
11
123.84
21
-161.239
0
LINE
8
Black
10
123.84
20
-161.239
11
123.629
21
-161.117
0
LINE
8
Black
10
123.629
20
-161.117
11
123.472
21
-160.93
0
LINE
8
Black
10
123.472
20
-160.93
11
123.389
21
-160.701
0
LINE
8
Black
10
123.389
20
-160.701
11
123.389
21
-160.457
0
LINE
8
Black
10
123.389
20
-160.457
11
123.472
21
-160.228
0
LINE
8
Black
10
123.472
20
-160.228
11
123.629
21
-160.041
0
LINE
8
Black
10
123.629
20
-160.041
11
123.84
21
-159.919
0
LINE
8
Black
10
123.84
20
-159.919
11
124.081
21
-159.876
0
LINE
8
Black
10
124.081
20
-159.876
11
124.321
21
-159.919
0
LINE
8
Black
10
122.78
20
-161.279
11
121.38
21
-161.279
0
LINE
8
Black
10
121.38
20
-161.279
11
121.38
21
-159.879
0
LINE
8
Black
10
121.38
20
-159.879
11
122.78
21
-159.879
0
LINE
8
Black
10
122.78
20
-159.879
11
122.78
21
-161.279
0
LINE
8
Black
10
128.565
20
-159.018
11
128.821
21
-159.166
0
LINE
8
Black
10
128.821
20
-159.166
11
129.011
21
-159.392
0
LINE
8
Black
10
129.011
20
-159.392
11
129.112
21
-159.669
0
LINE
8
Black
10
129.112
20
-159.669
11
129.112
21
-159.965
0
LINE
8
Black
10
129.112
20
-159.965
11
129.011
21
-160.242
0
LINE
8
Black
10
129.011
20
-160.242
11
128.821
21
-160.468
0
LINE
8
Black
10
128.821
20
-160.468
11
128.565
21
-160.616
0
LINE
8
Black
10
128.565
20
-160.616
11
128.275
21
-160.667
0
LINE
8
Black
10
128.275
20
-160.667
11
128.268
21
-160.667
0
LINE
8
Black
10
128.268
20
-160.667
11
127.978
21
-160.616
0
LINE
8
Black
10
127.978
20
-160.616
11
127.722
21
-160.468
0
LINE
8
Black
10
127.722
20
-160.468
11
127.532
21
-160.242
0
LINE
8
Black
10
127.532
20
-160.242
11
127.431
21
-159.965
0
LINE
8
Black
10
127.431
20
-159.965
11
127.431
21
-159.669
0
LINE
8
Black
10
127.431
20
-159.669
11
127.532
21
-159.392
0
LINE
8
Black
10
127.532
20
-159.392
11
127.722
21
-159.166
0
LINE
8
Black
10
127.722
20
-159.166
11
127.978
21
-159.018
0
LINE
8
Black
10
127.978
20
-159.018
11
128.268
21
-158.967
0
LINE
8
Black
10
128.268
20
-158.967
11
128.275
21
-158.967
0
LINE
8
Black
10
128.275
20
-158.967
11
128.565
21
-159.018
0
LINE
8
Black
10
123.006
20
-159.254
11
122.206
21
-159.254
0
LINE
8
Black
10
122.206
20
-159.254
11
122.206
21
-158.504
0
LINE
8
Black
10
122.206
20
-158.504
11
123.006
21
-158.504
0
LINE
8
Black
10
123.006
20
-158.504
11
123.006
21
-159.254
0
LINE
8
Black
10
124.506
20
-159.254
11
123.706
21
-159.254
0
LINE
8
Black
10
123.706
20
-159.254
11
123.706
21
-158.504
0
LINE
8
Black
10
123.706
20
-158.504
11
124.506
21
-158.504
0
LINE
8
Black
10
124.506
20
-158.504
11
124.506
21
-159.254
0
LINE
8
Black
10
111.467
20
-157.541
11
111.707
21
-157.68
0
LINE
8
Black
10
111.707
20
-157.68
11
111.886
21
-157.893
0
LINE
8
Black
10
111.886
20
-157.893
11
111.981
21
-158.154
0
LINE
8
Black
10
111.981
20
-158.154
11
111.981
21
-158.432
0
LINE
8
Black
10
111.981
20
-158.432
11
111.886
21
-158.693
0
LINE
8
Black
10
111.886
20
-158.693
11
111.707
21
-158.906
0
LINE
8
Black
10
111.707
20
-158.906
11
111.467
21
-159.045
0
LINE
8
Black
10
111.467
20
-159.045
11
111.193
21
-159.093
0
LINE
8
Black
10
111.193
20
-159.093
11
111.187
21
-159.093
0
LINE
8
Black
10
111.187
20
-159.093
11
110.913
21
-159.045
0
LINE
8
Black
10
110.913
20
-159.045
11
110.673
21
-158.906
0
LINE
8
Black
10
110.673
20
-158.906
11
110.494
21
-158.693
0
LINE
8
Black
10
110.494
20
-158.693
11
110.399
21
-158.432
0
LINE
8
Black
10
110.399
20
-158.432
11
110.399
21
-158.154
0
LINE
8
Black
10
110.399
20
-158.154
11
110.494
21
-157.893
0
LINE
8
Black
10
110.494
20
-157.893
11
110.673
21
-157.68
0
LINE
8
Black
10
110.673
20
-157.68
11
110.913
21
-157.541
0
LINE
8
Black
10
110.913
20
-157.541
11
111.187
21
-157.493
0
LINE
8
Black
10
111.187
20
-157.493
11
111.193
21
-157.493
0
LINE
8
Black
10
111.193
20
-157.493
11
111.467
21
-157.541
0
LINE
8
Black
10
119.61
20
-159.093
11
118.01
21
-159.093
0
LINE
8
Black
10
118.01
20
-159.093
11
118.01
21
-157.493
0
LINE
8
Black
10
118.01
20
-157.493
11
119.61
21
-157.493
0
LINE
8
Black
10
119.61
20
-157.493
11
119.61
21
-159.093
0
LINE
8
Black
10
128.565
20
-156.478
11
128.821
21
-156.626
0
LINE
8
Black
10
128.821
20
-156.626
11
129.011
21
-156.852
0
LINE
8
Black
10
129.011
20
-156.852
11
129.112
21
-157.129
0
LINE
8
Black
10
129.112
20
-157.129
11
129.112
21
-157.425
0
LINE
8
Black
10
129.112
20
-157.425
11
129.011
21
-157.702
0
LINE
8
Black
10
129.011
20
-157.702
11
128.821
21
-157.928
0
LINE
8
Black
10
128.821
20
-157.928
11
128.565
21
-158.076
0
LINE
8
Black
10
128.565
20
-158.076
11
128.275
21
-158.127
0
LINE
8
Black
10
128.275
20
-158.127
11
128.268
21
-158.127
0
LINE
8
Black
10
128.268
20
-158.127
11
127.978
21
-158.076
0
LINE
8
Black
10
127.978
20
-158.076
11
127.722
21
-157.928
0
LINE
8
Black
10
127.722
20
-157.928
11
127.532
21
-157.702
0
LINE
8
Black
10
127.532
20
-157.702
11
127.431
21
-157.425
0
LINE
8
Black
10
127.431
20
-157.425
11
127.431
21
-157.129
0
LINE
8
Black
10
127.431
20
-157.129
11
127.532
21
-156.852
0
LINE
8
Black
10
127.532
20
-156.852
11
127.722
21
-156.626
0
LINE
8
Black
10
127.722
20
-156.626
11
127.978
21
-156.478
0
LINE
8
Black
10
127.978
20
-156.478
11
128.268
21
-156.427
0
LINE
8
Black
10
128.268
20
-156.427
11
128.275
21
-156.427
0
LINE
8
Black
10
128.275
20
-156.427
11
128.565
21
-156.478
0
LINE
8
Black
10
123.881
20
-157.841
11
123.231
21
-157.841
0
LINE
8
Black
10
123.231
20
-157.841
11
123.231
21
-156.781
0
LINE
8
Black
10
123.231
20
-156.781
11
123.881
21
-156.781
0
LINE
8
Black
10
123.881
20
-156.781
11
123.881
21
-157.841
0
LINE
8
Black
10
122.931
20
-157.841
11
122.281
21
-157.841
0
LINE
8
Black
10
122.281
20
-157.841
11
122.281
21
-156.781
0
LINE
8
Black
10
122.281
20
-156.781
11
122.931
21
-156.781
0
LINE
8
Black
10
122.931
20
-156.781
11
122.931
21
-157.841
0
LINE
8
Black
10
121.981
20
-157.841
11
121.331
21
-157.841
0
LINE
8
Black
10
121.331
20
-157.841
11
121.331
21
-156.781
0
LINE
8
Black
10
121.331
20
-156.781
11
121.981
21
-156.781
0
LINE
8
Black
10
121.981
20
-156.781
11
121.981
21
-157.841
0
LINE
8
Black
10
126.314
20
-155.056
11
126.325
21
-155.056
0
LINE
8
Black
10
126.325
20
-155.056
11
126.335
21
-155.06
0
LINE
8
Black
10
126.335
20
-155.06
11
126.346
21
-155.062
0
LINE
8
Black
10
126.346
20
-155.062
11
126.356
21
-155.068
0
LINE
8
Black
10
126.356
20
-155.068
11
126.366
21
-155.072
0
LINE
8
Black
10
126.366
20
-155.072
11
126.375
21
-155.079
0
LINE
8
Black
10
126.375
20
-155.079
11
126.385
21
-155.084
0
LINE
8
Black
10
126.385
20
-155.084
11
126.387
21
-155.087
0
LINE
8
Black
10
126.387
20
-155.087
11
126.416
21
-155.087
0
LINE
8
Black
10
126.416
20
-155.087
11
126.416
21
-155.126
0
LINE
8
Black
10
126.416
20
-155.126
11
126.417
21
-155.128
0
LINE
8
Black
10
126.417
20
-155.128
11
126.422
21
-155.138
0
LINE
8
Black
10
126.422
20
-155.138
11
126.424
21
-155.149
0
LINE
8
Black
10
126.424
20
-155.149
11
126.428
21
-155.159
0
LINE
8
Black
10
126.428
20
-155.159
11
126.428
21
-155.171
0
LINE
8
Black
10
126.428
20
-155.171
11
126.43
21
-155.181
0
LINE
8
Black
10
126.43
20
-155.181
11
126.43
21
-157.213
0
LINE
8
Black
10
126.43
20
-157.213
11
126.428
21
-157.224
0
LINE
8
Black
10
126.428
20
-157.224
11
126.428
21
-157.236
0
LINE
8
Black
10
126.428
20
-157.236
11
126.424
21
-157.246
0
LINE
8
Black
10
126.424
20
-157.246
11
126.422
21
-157.257
0
LINE
8
Black
10
126.422
20
-157.257
11
126.417
21
-157.267
0
LINE
8
Black
10
126.417
20
-157.267
11
126.416
21
-157.269
0
LINE
8
Black
10
126.416
20
-157.269
11
126.416
21
-157.337
0
LINE
8
Black
10
126.416
20
-157.337
11
126.331
21
-157.337
0
LINE
8
Black
10
126.331
20
-157.337
11
126.325
21
-157.339
0
LINE
8
Black
10
126.325
20
-157.339
11
126.314
21
-157.339
0
LINE
8
Black
10
126.314
20
-157.339
11
126.303
21
-157.34
0
LINE
8
Black
10
126.303
20
-157.34
11
125.224
21
-157.34
0
LINE
8
Black
10
125.224
20
-157.34
11
125.213
21
-157.339
0
LINE
8
Black
10
125.213
20
-157.339
11
125.201
21
-157.339
0
LINE
8
Black
10
125.201
20
-157.339
11
125.196
21
-157.337
0
LINE
8
Black
10
125.196
20
-157.337
11
125.146
21
-157.337
0
LINE
8
Black
10
125.146
20
-157.337
11
125.146
21
-157.313
0
LINE
8
Black
10
125.146
20
-157.313
11
125.142
21
-157.311
0
LINE
8
Black
10
125.142
20
-157.311
11
125.135
21
-157.302
0
LINE
8
Black
10
125.135
20
-157.302
11
125.126
21
-157.295
0
LINE
8
Black
10
125.126
20
-157.295
11
125.121
21
-157.286
0
LINE
8
Black
10
125.121
20
-157.286
11
125.114
21
-157.277
0
LINE
8
Black
10
125.114
20
-157.277
11
125.11
21
-157.267
0
LINE
8
Black
10
125.11
20
-157.267
11
125.104
21
-157.257
0
LINE
8
Black
10
125.104
20
-157.257
11
125.102
21
-157.246
0
LINE
8
Black
10
125.102
20
-157.246
11
125.098
21
-157.236
0
LINE
8
Black
10
125.098
20
-157.236
11
125.098
21
-157.224
0
LINE
8
Black
10
125.098
20
-157.224
11
125.096
21
-157.213
0
LINE
8
Black
10
125.096
20
-157.213
11
125.096
21
-155.181
0
LINE
8
Black
10
125.096
20
-155.181
11
125.098
21
-155.171
0
LINE
8
Black
10
125.098
20
-155.171
11
125.098
21
-155.159
0
LINE
8
Black
10
125.098
20
-155.159
11
125.102
21
-155.149
0
LINE
8
Black
10
125.102
20
-155.149
11
125.104
21
-155.138
0
LINE
8
Black
10
125.104
20
-155.138
11
125.11
21
-155.128
0
LINE
8
Black
10
125.11
20
-155.128
11
125.114
21
-155.118
0
LINE
8
Black
10
125.114
20
-155.118
11
125.121
21
-155.109
0
LINE
8
Black
10
125.121
20
-155.109
11
125.126
21
-155.1
0
LINE
8
Black
10
125.126
20
-155.1
11
125.135
21
-155.093
0
LINE
8
Black
10
125.135
20
-155.093
11
125.142
21
-155.084
0
LINE
8
Black
10
125.142
20
-155.084
11
125.151
21
-155.079
0
LINE
8
Black
10
125.151
20
-155.079
11
125.16
21
-155.072
0
LINE
8
Black
10
125.16
20
-155.072
11
125.17
21
-155.068
0
LINE
8
Black
10
125.17
20
-155.068
11
125.18
21
-155.062
0
LINE
8
Black
10
125.18
20
-155.062
11
125.191
21
-155.06
0
LINE
8
Black
10
125.191
20
-155.06
11
125.201
21
-155.056
0
LINE
8
Black
10
125.201
20
-155.056
11
125.213
21
-155.056
0
LINE
8
Black
10
125.213
20
-155.056
11
125.224
21
-155.054
0
LINE
8
Black
10
125.224
20
-155.054
11
126.303
21
-155.054
0
LINE
8
Black
10
126.303
20
-155.054
11
126.314
21
-155.056
0
LINE
8
Black
10
121.981
20
-155.641
11
121.331
21
-155.641
0
LINE
8
Black
10
121.331
20
-155.641
11
121.331
21
-154.582
0
LINE
8
Black
10
121.331
20
-154.582
11
121.981
21
-154.582
0
LINE
8
Black
10
121.981
20
-154.582
11
121.981
21
-155.641
0
LINE
8
Black
10
123.881
20
-155.641
11
123.231
21
-155.641
0
LINE
8
Black
10
123.231
20
-155.641
11
123.231
21
-154.582
0
LINE
8
Black
10
123.231
20
-154.582
11
123.881
21
-154.582
0
LINE
8
Black
10
123.881
20
-154.582
11
123.881
21
-155.641
0
LINE
8
Black
10
128.565
20
-153.938
11
128.821
21
-154.086
0
LINE
8
Black
10
128.821
20
-154.086
11
129.011
21
-154.312
0
LINE
8
Black
10
129.011
20
-154.312
11
129.112
21
-154.589
0
LINE
8
Black
10
129.112
20
-154.589
11
129.112
21
-154.885
0
LINE
8
Black
10
129.112
20
-154.885
11
129.011
21
-155.162
0
LINE
8
Black
10
129.011
20
-155.162
11
128.821
21
-155.388
0
LINE
8
Black
10
128.821
20
-155.388
11
128.565
21
-155.536
0
LINE
8
Black
10
128.565
20
-155.536
11
128.275
21
-155.587
0
LINE
8
Black
10
128.275
20
-155.587
11
128.268
21
-155.587
0
LINE
8
Black
10
128.268
20
-155.587
11
127.978
21
-155.536
0
LINE
8
Black
10
127.978
20
-155.536
11
127.722
21
-155.388
0
LINE
8
Black
10
127.722
20
-155.388
11
127.532
21
-155.162
0
LINE
8
Black
10
127.532
20
-155.162
11
127.431
21
-154.885
0
LINE
8
Black
10
127.431
20
-154.885
11
127.431
21
-154.589
0
LINE
8
Black
10
127.431
20
-154.589
11
127.532
21
-154.312
0
LINE
8
Black
10
127.532
20
-154.312
11
127.722
21
-154.086
0
LINE
8
Black
10
127.722
20
-154.086
11
127.978
21
-153.938
0
LINE
8
Black
10
127.978
20
-153.938
11
128.268
21
-153.887
0
LINE
8
Black
10
128.268
20
-153.887
11
128.275
21
-153.887
0
LINE
8
Black
10
128.275
20
-153.887
11
128.565
21
-153.938
0
LINE
8
Black
10
112.83
20
-152.388
11
113.311
21
-152.666
0
LINE
8
Black
10
113.311
20
-152.666
11
113.668
21
-153.092
0
LINE
8
Black
10
113.668
20
-153.092
11
113.858
21
-153.614
0
LINE
8
Black
10
113.858
20
-153.614
11
113.858
21
-154.17
0
LINE
8
Black
10
113.858
20
-154.17
11
113.668
21
-154.692
0
LINE
8
Black
10
113.668
20
-154.692
11
113.311
21
-155.118
0
LINE
8
Black
10
113.311
20
-155.118
11
112.83
21
-155.396
0
LINE
8
Black
10
112.83
20
-155.396
11
112.283
21
-155.492
0
LINE
8
Black
10
112.283
20
-155.492
11
110.463
21
-155.492
0
LINE
8
Black
10
110.463
20
-155.492
11
109.916
21
-155.396
0
LINE
8
Black
10
109.916
20
-155.396
11
109.435
21
-155.118
0
LINE
8
Black
10
109.435
20
-155.118
11
109.078
21
-154.692
0
LINE
8
Black
10
109.078
20
-154.692
11
108.888
21
-154.17
0
LINE
8
Black
10
108.888
20
-154.17
11
108.888
21
-153.614
0
LINE
8
Black
10
108.888
20
-153.614
11
109.078
21
-153.092
0
LINE
8
Black
10
109.078
20
-153.092
11
109.435
21
-152.666
0
LINE
8
Black
10
109.435
20
-152.666
11
109.916
21
-152.388
0
LINE
8
Black
10
109.916
20
-152.388
11
110.463
21
-152.292
0
LINE
8
Black
10
110.463
20
-152.292
11
112.283
21
-152.292
0
LINE
8
Black
10
112.283
20
-152.292
11
112.83
21
-152.388
0
LINE
8
Black
10
123.018
20
-153.92
11
122.218
21
-153.92
0
LINE
8
Black
10
122.218
20
-153.92
11
122.218
21
-153.17
0
LINE
8
Black
10
122.218
20
-153.17
11
123.018
21
-153.17
0
LINE
8
Black
10
123.018
20
-153.17
11
123.018
21
-153.92
0
LINE
8
Black
10
124.518
20
-153.92
11
123.718
21
-153.92
0
LINE
8
Black
10
123.718
20
-153.92
11
123.718
21
-153.17
0
LINE
8
Black
10
123.718
20
-153.17
11
124.518
21
-153.17
0
LINE
8
Black
10
124.518
20
-153.17
11
124.518
21
-153.92
0
LINE
8
Black
10
117.738
20
-145.954
11
117.968
21
-146.087
0
LINE
8
Black
10
117.968
20
-146.087
11
118.139
21
-146.29
0
LINE
8
Black
10
118.139
20
-146.29
11
118.23
21
-146.54
0
LINE
8
Black
10
118.23
20
-146.54
11
118.23
21
-146.805
0
LINE
8
Black
10
118.23
20
-146.805
11
118.139
21
-147.055
0
LINE
8
Black
10
118.139
20
-147.055
11
117.968
21
-147.258
0
LINE
8
Black
10
117.968
20
-147.258
11
117.738
21
-147.391
0
LINE
8
Black
10
117.738
20
-147.391
11
117.477
21
-147.437
0
LINE
8
Black
10
117.477
20
-147.437
11
117.215
21
-147.391
0
LINE
8
Black
10
117.215
20
-147.391
11
116.985
21
-147.258
0
LINE
8
Black
10
116.985
20
-147.258
11
116.814
21
-147.055
0
LINE
8
Black
10
116.814
20
-147.055
11
116.723
21
-146.805
0
LINE
8
Black
10
116.723
20
-146.805
11
116.723
21
-146.54
0
LINE
8
Black
10
116.723
20
-146.54
11
116.814
21
-146.29
0
LINE
8
Black
10
116.814
20
-146.29
11
116.985
21
-146.087
0
LINE
8
Black
10
116.985
20
-146.087
11
117.215
21
-145.954
0
LINE
8
Black
10
117.215
20
-145.954
11
117.477
21
-145.908
0
LINE
8
Black
10
117.477
20
-145.908
11
117.738
21
-145.954
0
LINE
8
Black
10
120.778
20
-147.434
11
119.254
21
-147.434
0
LINE
8
Black
10
119.254
20
-147.434
11
119.254
21
-145.91
0
LINE
8
Black
10
119.254
20
-145.91
11
120.778
21
-145.91
0
LINE
8
Black
10
120.778
20
-145.91
11
120.778
21
-147.434
0
LINE
8
Black
10
120.278
20
-143.414
11
120.508
21
-143.547
0
LINE
8
Black
10
120.508
20
-143.547
11
120.679
21
-143.75
0
LINE
8
Black
10
120.679
20
-143.75
11
120.77
21
-144
0
LINE
8
Black
10
120.77
20
-144
11
120.77
21
-144.265
0
LINE
8
Black
10
120.77
20
-144.265
11
120.679
21
-144.515
0
LINE
8
Black
10
120.679
20
-144.515
11
120.508
21
-144.718
0
LINE
8
Black
10
120.508
20
-144.718
11
120.278
21
-144.851
0
LINE
8
Black
10
120.278
20
-144.851
11
120.016
21
-144.897
0
LINE
8
Black
10
120.016
20
-144.897
11
119.755
21
-144.851
0
LINE
8
Black
10
119.755
20
-144.851
11
119.525
21
-144.718
0
LINE
8
Black
10
119.525
20
-144.718
11
119.354
21
-144.515
0
LINE
8
Black
10
119.354
20
-144.515
11
119.263
21
-144.265
0
LINE
8
Black
10
119.263
20
-144.265
11
119.263
21
-144
0
LINE
8
Black
10
119.263
20
-144
11
119.354
21
-143.75
0
LINE
8
Black
10
119.354
20
-143.75
11
119.525
21
-143.547
0
LINE
8
Black
10
119.525
20
-143.547
11
119.755
21
-143.414
0
LINE
8
Black
10
119.755
20
-143.414
11
120.016
21
-143.368
0
LINE
8
Black
10
120.016
20
-143.368
11
120.278
21
-143.414
0
LINE
8
Black
10
117.738
20
-143.414
11
117.968
21
-143.547
0
LINE
8
Black
10
117.968
20
-143.547
11
118.139
21
-143.75
0
LINE
8
Black
10
118.139
20
-143.75
11
118.23
21
-144
0
LINE
8
Black
10
118.23
20
-144
11
118.23
21
-144.265
0
LINE
8
Black
10
118.23
20
-144.265
11
118.139
21
-144.515
0
LINE
8
Black
10
118.139
20
-144.515
11
117.968
21
-144.718
0
LINE
8
Black
10
117.968
20
-144.718
11
117.738
21
-144.851
0
LINE
8
Black
10
117.738
20
-144.851
11
117.477
21
-144.897
0
LINE
8
Black
10
117.477
20
-144.897
11
117.215
21
-144.851
0
LINE
8
Black
10
117.215
20
-144.851
11
116.985
21
-144.718
0
LINE
8
Black
10
116.985
20
-144.718
11
116.814
21
-144.515
0
LINE
8
Black
10
116.814
20
-144.515
11
116.723
21
-144.265
0
LINE
8
Black
10
116.723
20
-144.265
11
116.723
21
-144
0
LINE
8
Black
10
116.723
20
-144
11
116.814
21
-143.75
0
LINE
8
Black
10
116.814
20
-143.75
11
116.985
21
-143.547
0
LINE
8
Black
10
116.985
20
-143.547
11
117.215
21
-143.414
0
LINE
8
Black
10
117.215
20
-143.414
11
117.477
21
-143.368
0
LINE
8
Black
10
117.477
20
-143.368
11
117.738
21
-143.414
0
LINE
8
Black
10
117.738
20
-140.874
11
117.968
21
-141.007
0
LINE
8
Black
10
117.968
20
-141.007
11
118.139
21
-141.21
0
LINE
8
Black
10
118.139
20
-141.21
11
118.23
21
-141.46
0
LINE
8
Black
10
118.23
20
-141.46
11
118.23
21
-141.725
0
LINE
8
Black
10
118.23
20
-141.725
11
118.139
21
-141.975
0
LINE
8
Black
10
118.139
20
-141.975
11
117.968
21
-142.178
0
LINE
8
Black
10
117.968
20
-142.178
11
117.738
21
-142.311
0
LINE
8
Black
10
117.738
20
-142.311
11
117.477
21
-142.357
0
LINE
8
Black
10
117.477
20
-142.357
11
117.215
21
-142.311
0
LINE
8
Black
10
117.215
20
-142.311
11
116.985
21
-142.178
0
LINE
8
Black
10
116.985
20
-142.178
11
116.814
21
-141.975
0
LINE
8
Black
10
116.814
20
-141.975
11
116.723
21
-141.725
0
LINE
8
Black
10
116.723
20
-141.725
11
116.723
21
-141.46
0
LINE
8
Black
10
116.723
20
-141.46
11
116.814
21
-141.21
0
LINE
8
Black
10
116.814
20
-141.21
11
116.985
21
-141.007
0
LINE
8
Black
10
116.985
20
-141.007
11
117.215
21
-140.874
0
LINE
8
Black
10
117.215
20
-140.874
11
117.477
21
-140.828
0
LINE
8
Black
10
117.477
20
-140.828
11
117.738
21
-140.874
0
LINE
8
Black
10
120.278
20
-140.874
11
120.508
21
-141.007
0
LINE
8
Black
10
120.508
20
-141.007
11
120.679
21
-141.21
0
LINE
8
Black
10
120.679
20
-141.21
11
120.77
21
-141.46
0
LINE
8
Black
10
120.77
20
-141.46
11
120.77
21
-141.725
0
LINE
8
Black
10
120.77
20
-141.725
11
120.679
21
-141.975
0
LINE
8
Black
10
120.679
20
-141.975
11
120.508
21
-142.178
0
LINE
8
Black
10
120.508
20
-142.178
11
120.278
21
-142.311
0
LINE
8
Black
10
120.278
20
-142.311
11
120.016
21
-142.357
0
LINE
8
Black
10
120.016
20
-142.357
11
119.755
21
-142.311
0
LINE
8
Black
10
119.755
20
-142.311
11
119.525
21
-142.178
0
LINE
8
Black
10
119.525
20
-142.178
11
119.354
21
-141.975
0
LINE
8
Black
10
119.354
20
-141.975
11
119.263
21
-141.725
0
LINE
8
Black
10
119.263
20
-141.725
11
119.263
21
-141.46
0
LINE
8
Black
10
119.263
20
-141.46
11
119.354
21
-141.21
0
LINE
8
Black
10
119.354
20
-141.21
11
119.525
21
-141.007
0
LINE
8
Black
10
119.525
20
-141.007
11
119.755
21
-140.874
0
LINE
8
Black
10
119.755
20
-140.874
11
120.016
21
-140.828
0
LINE
8
Black
10
120.016
20
-140.828
11
120.278
21
-140.874
0
LINE
8
Black
10
117.738
20
-138.334
11
117.968
21
-138.467
0
LINE
8
Black
10
117.968
20
-138.467
11
118.139
21
-138.67
0
LINE
8
Black
10
118.139
20
-138.67
11
118.23
21
-138.92
0
LINE
8
Black
10
118.23
20
-138.92
11
118.23
21
-139.185
0
LINE
8
Black
10
118.23
20
-139.185
11
118.139
21
-139.435
0
LINE
8
Black
10
118.139
20
-139.435
11
117.968
21
-139.638
0
LINE
8
Black
10
117.968
20
-139.638
11
117.738
21
-139.771
0
LINE
8
Black
10
117.738
20
-139.771
11
117.477
21
-139.817
0
LINE
8
Black
10
117.477
20
-139.817
11
117.215
21
-139.771
0
LINE
8
Black
10
117.215
20
-139.771
11
116.985
21
-139.638
0
LINE
8
Black
10
116.985
20
-139.638
11
116.814
21
-139.435
0
LINE
8
Black
10
116.814
20
-139.435
11
116.723
21
-139.185
0
LINE
8
Black
10
116.723
20
-139.185
11
116.723
21
-138.92
0
LINE
8
Black
10
116.723
20
-138.92
11
116.814
21
-138.67
0
LINE
8
Black
10
116.814
20
-138.67
11
116.985
21
-138.467
0
LINE
8
Black
10
116.985
20
-138.467
11
117.215
21
-138.334
0
LINE
8
Black
10
117.215
20
-138.334
11
117.477
21
-138.288
0
LINE
8
Black
10
117.477
20
-138.288
11
117.738
21
-138.334
0
LINE
8
Black
10
120.278
20
-138.334
11
120.508
21
-138.467
0
LINE
8
Black
10
120.508
20
-138.467
11
120.679
21
-138.67
0
LINE
8
Black
10
120.679
20
-138.67
11
120.77
21
-138.92
0
LINE
8
Black
10
120.77
20
-138.92
11
120.77
21
-139.185
0
LINE
8
Black
10
120.77
20
-139.185
11
120.679
21
-139.435
0
LINE
8
Black
10
120.679
20
-139.435
11
120.508
21
-139.638
0
LINE
8
Black
10
120.508
20
-139.638
11
120.278
21
-139.771
0
LINE
8
Black
10
120.278
20
-139.771
11
120.016
21
-139.817
0
LINE
8
Black
10
120.016
20
-139.817
11
119.755
21
-139.771
0
LINE
8
Black
10
119.755
20
-139.771
11
119.525
21
-139.638
0
LINE
8
Black
10
119.525
20
-139.638
11
119.354
21
-139.435
0
LINE
8
Black
10
119.354
20
-139.435
11
119.263
21
-139.185
0
LINE
8
Black
10
119.263
20
-139.185
11
119.263
21
-138.92
0
LINE
8
Black
10
119.263
20
-138.92
11
119.354
21
-138.67
0
LINE
8
Black
10
119.354
20
-138.67
11
119.525
21
-138.467
0
LINE
8
Black
10
119.525
20
-138.467
11
119.755
21
-138.334
0
LINE
8
Black
10
119.755
20
-138.334
11
120.016
21
-138.288
0
LINE
8
Black
10
120.016
20
-138.288
11
120.278
21
-138.334
0
LINE
8
Black
10
123.082
20
-138.93
11
122.516
21
-139.496
0
LINE
8
Black
10
122.516
20
-139.496
11
121.986
21
-138.966
0
LINE
8
Black
10
121.986
20
-138.966
11
122.552
21
-138.4
0
LINE
8
Black
10
122.552
20
-138.4
11
123.082
21
-138.93
0
LINE
8
Black
10
124.143
20
-137.869
11
123.577
21
-138.435
0
LINE
8
Black
10
123.577
20
-138.435
11
123.047
21
-137.905
0
LINE
8
Black
10
123.047
20
-137.905
11
123.613
21
-137.339
0
LINE
8
Black
10
123.613
20
-137.339
11
124.143
21
-137.869
0
LINE
8
Black
10
120.452
20
-136.354
11
119.745
21
-137.061
0
LINE
8
Black
10
119.745
20
-137.061
11
119.568
21
-136.884
0
LINE
8
Black
10
119.568
20
-136.884
11
120.275
21
-136.177
0
LINE
8
Black
10
120.275
20
-136.177
11
120.452
21
-136.354
0
LINE
8
Black
10
123.209
20
-136.884
11
123.033
21
-137.061
0
LINE
8
Black
10
123.033
20
-137.061
11
122.326
21
-136.354
0
LINE
8
Black
10
122.326
20
-136.354
11
122.502
21
-136.177
0
LINE
8
Black
10
122.502
20
-136.177
11
123.209
21
-136.884
0
LINE
8
Black
10
120.098
20
-136
11
119.391
21
-136.707
0
LINE
8
Black
10
119.391
20
-136.707
11
119.214
21
-136.531
0
LINE
8
Black
10
119.214
20
-136.531
11
119.921
21
-135.824
0
LINE
8
Black
10
119.921
20
-135.824
11
120.098
21
-136
0
LINE
8
Black
10
123.563
20
-136.531
11
123.386
21
-136.707
0
LINE
8
Black
10
123.386
20
-136.707
11
122.679
21
-136
0
LINE
8
Black
10
122.679
20
-136
11
122.856
21
-135.824
0
LINE
8
Black
10
122.856
20
-135.824
11
123.563
21
-136.531
0
LINE
8
Black
10
119.745
20
-135.647
11
119.037
21
-136.354
0
LINE
8
Black
10
119.037
20
-136.354
11
118.861
21
-136.177
0
LINE
8
Black
10
118.861
20
-136.177
11
119.568
21
-135.47
0
LINE
8
Black
10
119.568
20
-135.47
11
119.745
21
-135.647
0
LINE
8
Black
10
123.917
20
-136.177
11
123.74
21
-136.354
0
LINE
8
Black
10
123.74
20
-136.354
11
123.033
21
-135.647
0
LINE
8
Black
10
123.033
20
-135.647
11
123.209
21
-135.47
0
LINE
8
Black
10
123.209
20
-135.47
11
123.917
21
-136.177
0
LINE
8
Black
10
124.27
20
-135.824
11
124.093
21
-136
0
LINE
8
Black
10
124.093
20
-136
11
123.386
21
-135.293
0
LINE
8
Black
10
123.386
20
-135.293
11
123.563
21
-135.116
0
LINE
8
Black
10
123.563
20
-135.116
11
124.27
21
-135.824
0
LINE
8
Black
10
119.391
20
-135.293
11
118.684
21
-136
0
LINE
8
Black
10
118.684
20
-136
11
118.507
21
-135.824
0
LINE
8
Black
10
118.507
20
-135.824
11
119.214
21
-135.116
0
LINE
8
Black
10
119.214
20
-135.116
11
119.391
21
-135.293
0
LINE
8
Black
10
124.624
20
-135.47
11
124.447
21
-135.647
0
LINE
8
Black
10
124.447
20
-135.647
11
123.74
21
-134.94
0
LINE
8
Black
10
123.74
20
-134.94
11
123.917
21
-134.763
0
LINE
8
Black
10
123.917
20
-134.763
11
124.624
21
-135.47
0
LINE
8
Black
10
119.037
20
-134.94
11
118.33
21
-135.647
0
LINE
8
Black
10
118.33
20
-135.647
11
118.154
21
-135.47
0
LINE
8
Black
10
118.154
20
-135.47
11
118.861
21
-134.763
0
LINE
8
Black
10
118.861
20
-134.763
11
119.037
21
-134.94
0
LINE
8
Black
10
124.977
20
-135.116
11
124.8
21
-135.293
0
LINE
8
Black
10
124.8
20
-135.293
11
124.093
21
-134.586
0
LINE
8
Black
10
124.093
20
-134.586
11
124.27
21
-134.409
0
LINE
8
Black
10
124.27
20
-134.409
11
124.977
21
-135.116
0
LINE
8
Black
10
118.684
20
-134.586
11
117.977
21
-135.293
0
LINE
8
Black
10
117.977
20
-135.293
11
117.8
21
-135.116
0
LINE
8
Black
10
117.8
20
-135.116
11
118.507
21
-134.409
0
LINE
8
Black
10
118.507
20
-134.409
11
118.684
21
-134.586
0
LINE
8
Black
10
125.331
20
-134.763
11
125.154
21
-134.94
0
LINE
8
Black
10
125.154
20
-134.94
11
124.447
21
-134.233
0
LINE
8
Black
10
124.447
20
-134.233
11
124.624
21
-134.056
0
LINE
8
Black
10
124.624
20
-134.056
11
125.331
21
-134.763
0
LINE
8
Black
10
118.33
20
-134.233
11
117.623
21
-134.94
0
LINE
8
Black
10
117.623
20
-134.94
11
117.446
21
-134.763
0
LINE
8
Black
10
117.446
20
-134.763
11
118.154
21
-134.056
0
LINE
8
Black
10
118.154
20
-134.056
11
118.33
21
-134.233
0
LINE
8
Black
10
116.204
20
-134.343
11
115.674
21
-134.873
0
LINE
8
Black
10
115.674
20
-134.873
11
115.108
21
-134.307
0
LINE
8
Black
10
115.108
20
-134.307
11
115.638
21
-133.777
0
LINE
8
Black
10
115.638
20
-133.777
11
116.204
21
-134.343
0
LINE
8
Black
10
117.977
20
-133.879
11
117.27
21
-134.586
0
LINE
8
Black
10
117.27
20
-134.586
11
117.093
21
-134.409
0
LINE
8
Black
10
117.093
20
-134.409
11
117.8
21
-133.702
0
LINE
8
Black
10
117.8
20
-133.702
11
117.977
21
-133.879
0
LINE
8
Black
10
125.684
20
-134.409
11
125.508
21
-134.586
0
LINE
8
Black
10
125.508
20
-134.586
11
124.8
21
-133.879
0
LINE
8
Black
10
124.8
20
-133.879
11
124.977
21
-133.702
0
LINE
8
Black
10
124.977
20
-133.702
11
125.684
21
-134.409
0
LINE
8
Black
10
117.623
20
-133.525
11
116.916
21
-134.233
0
LINE
8
Black
10
116.916
20
-134.233
11
116.739
21
-134.056
0
LINE
8
Black
10
116.739
20
-134.056
11
117.446
21
-133.349
0
LINE
8
Black
10
117.446
20
-133.349
11
117.623
21
-133.525
0
LINE
8
Black
10
126.038
20
-134.056
11
125.861
21
-134.233
0
LINE
8
Black
10
125.861
20
-134.233
11
125.154
21
-133.525
0
LINE
8
Black
10
125.154
20
-133.525
11
125.331
21
-133.349
0
LINE
8
Black
10
125.331
20
-133.349
11
126.038
21
-134.056
0
LINE
8
Black
10
117.27
20
-133.172
11
116.563
21
-133.879
0
LINE
8
Black
10
116.563
20
-133.879
11
116.386
21
-133.702
0
LINE
8
Black
10
116.386
20
-133.702
11
117.093
21
-132.995
0
LINE
8
Black
10
117.093
20
-132.995
11
117.27
21
-133.172
0
LINE
8
Black
10
126.391
20
-133.702
11
126.215
21
-133.879
0
LINE
8
Black
10
126.215
20
-133.879
11
125.508
21
-133.172
0
LINE
8
Black
10
125.508
20
-133.172
11
125.684
21
-132.995
0
LINE
8
Black
10
125.684
20
-132.995
11
126.391
21
-133.702
0
LINE
8
Black
10
115.143
20
-133.282
11
114.613
21
-133.812
0
LINE
8
Black
10
114.613
20
-133.812
11
114.047
21
-133.246
0
LINE
8
Black
10
114.047
20
-133.246
11
114.577
21
-132.716
0
LINE
8
Black
10
114.577
20
-132.716
11
115.143
21
-133.282
0
LINE
8
Black
10
116.916
20
-132.818
11
116.209
21
-133.525
0
LINE
8
Black
10
116.209
20
-133.525
11
116.032
21
-133.349
0
LINE
8
Black
10
116.032
20
-133.349
11
116.739
21
-132.642
0
LINE
8
Black
10
116.739
20
-132.642
11
116.916
21
-132.818
0
LINE
8
Black
10
126.745
20
-133.349
11
126.568
21
-133.525
0
LINE
8
Black
10
126.568
20
-133.525
11
125.861
21
-132.818
0
LINE
8
Black
10
125.861
20
-132.818
11
126.038
21
-132.642
0
LINE
8
Black
10
126.038
20
-132.642
11
126.745
21
-133.349
0
LINE
8
Black
10
116.563
20
-132.465
11
115.855
21
-133.172
0
LINE
8
Black
10
115.855
20
-133.172
11
115.679
21
-132.995
0
LINE
8
Black
10
115.679
20
-132.995
11
116.386
21
-132.288
0
LINE
8
Black
10
116.386
20
-132.288
11
116.563
21
-132.465
0
LINE
8
Black
10
127.098
20
-132.995
11
126.922
21
-133.172
0
LINE
8
Black
10
126.922
20
-133.172
11
126.215
21
-132.465
0
LINE
8
Black
10
126.215
20
-132.465
11
126.391
21
-132.288
0
LINE
8
Black
10
126.391
20
-132.288
11
127.098
21
-132.995
0
LINE
8
Black
10
127.452
20
-132.642
11
127.275
21
-132.818
0
LINE
8
Black
10
127.275
20
-132.818
11
126.568
21
-132.111
0
LINE
8
Black
10
126.568
20
-132.111
11
126.745
21
-131.934
0
LINE
8
Black
10
126.745
20
-131.934
11
127.452
21
-132.642
0
LINE
8
Black
10
116.209
20
-132.111
11
115.502
21
-132.818
0
LINE
8
Black
10
115.502
20
-132.818
11
115.325
21
-132.642
0
LINE
8
Black
10
115.325
20
-132.642
11
116.032
21
-131.934
0
LINE
8
Black
10
116.032
20
-131.934
11
116.209
21
-132.111
0
LINE
8
Black
10
107.887
20
-132.657
11
104.587
21
-132.657
0
LINE
8
Black
10
104.587
20
-132.657
11
104.587
21
-130.357
0
LINE
8
Black
10
104.587
20
-130.357
11
107.887
21
-130.357
0
LINE
8
Black
10
107.887
20
-130.357
11
107.887
21
-132.657
0
LINE
8
Black
10
127.806
20
-132.288
11
127.629
21
-132.465
0
LINE
8
Black
10
127.629
20
-132.465
11
126.922
21
-131.758
0
LINE
8
Black
10
126.922
20
-131.758
11
127.098
21
-131.581
0
LINE
8
Black
10
127.098
20
-131.581
11
127.806
21
-132.288
0
LINE
8
Black
10
115.855
20
-131.758
11
115.148
21
-132.465
0
LINE
8
Black
10
115.148
20
-132.465
11
114.972
21
-132.288
0
LINE
8
Black
10
114.972
20
-132.288
11
115.679
21
-131.581
0
LINE
8
Black
10
115.679
20
-131.581
11
115.855
21
-131.758
0
LINE
8
Black
10
115.502
20
-131.404
11
114.795
21
-132.111
0
LINE
8
Black
10
114.795
20
-132.111
11
114.618
21
-131.934
0
LINE
8
Black
10
114.618
20
-131.934
11
115.325
21
-131.227
0
LINE
8
Black
10
115.325
20
-131.227
11
115.502
21
-131.404
0
LINE
8
Black
10
128.159
20
-131.934
11
127.982
21
-132.111
0
LINE
8
Black
10
127.982
20
-132.111
11
127.275
21
-131.404
0
LINE
8
Black
10
127.275
20
-131.404
11
127.452
21
-131.227
0
LINE
8
Black
10
127.452
20
-131.227
11
128.159
21
-131.934
0
LINE
8
Black
10
115.148
20
-131.051
11
114.441
21
-131.758
0
LINE
8
Black
10
114.441
20
-131.758
11
114.265
21
-131.581
0
LINE
8
Black
10
114.265
20
-131.581
11
114.972
21
-130.874
0
LINE
8
Black
10
114.972
20
-130.874
11
115.148
21
-131.051
0
LINE
8
Black
10
128.513
20
-131.581
11
128.336
21
-131.758
0
LINE
8
Black
10
128.336
20
-131.758
11
127.629
21
-131.051
0
LINE
8
Black
10
127.629
20
-131.051
11
127.806
21
-130.874
0
LINE
8
Black
10
127.806
20
-130.874
11
128.513
21
-131.581
0
LINE
8
Black
10
128.513
20
-128.293
11
127.806
21
-129
0
LINE
8
Black
10
127.806
20
-129
11
127.629
21
-128.823
0
LINE
8
Black
10
127.629
20
-128.823
11
128.336
21
-128.116
0
LINE
8
Black
10
128.336
20
-128.116
11
128.513
21
-128.293
0
LINE
8
Black
10
115.148
20
-128.823
11
114.972
21
-129
0
LINE
8
Black
10
114.972
20
-129
11
114.265
21
-128.293
0
LINE
8
Black
10
114.265
20
-128.293
11
114.441
21
-128.116
0
LINE
8
Black
10
114.441
20
-128.116
11
115.148
21
-128.823
0
LINE
8
Black
10
115.502
20
-128.47
11
115.325
21
-128.646
0
LINE
8
Black
10
115.325
20
-128.646
11
114.618
21
-127.939
0
LINE
8
Black
10
114.618
20
-127.939
11
114.795
21
-127.763
0
LINE
8
Black
10
114.795
20
-127.763
11
115.502
21
-128.47
0
LINE
8
Black
10
128.159
20
-127.939
11
127.452
21
-128.646
0
LINE
8
Black
10
127.452
20
-128.646
11
127.275
21
-128.47
0
LINE
8
Black
10
127.275
20
-128.47
11
127.982
21
-127.763
0
LINE
8
Black
10
127.982
20
-127.763
11
128.159
21
-127.939
0
LINE
8
Black
10
113.683
20
-128.021
11
113.117
21
-128.586
0
LINE
8
Black
10
113.117
20
-128.586
11
112.587
21
-128.056
0
LINE
8
Black
10
112.587
20
-128.056
11
113.152
21
-127.49
0
LINE
8
Black
10
113.152
20
-127.49
11
113.683
21
-128.021
0
LINE
8
Black
10
115.855
20
-128.116
11
115.679
21
-128.293
0
LINE
8
Black
10
115.679
20
-128.293
11
114.972
21
-127.586
0
LINE
8
Black
10
114.972
20
-127.586
11
115.148
21
-127.409
0
LINE
8
Black
10
115.148
20
-127.409
11
115.855
21
-128.116
0
LINE
8
Black
10
127.806
20
-127.586
11
127.098
21
-128.293
0
LINE
8
Black
10
127.098
20
-128.293
11
126.922
21
-128.116
0
LINE
8
Black
10
126.922
20
-128.116
11
127.629
21
-127.409
0
LINE
8
Black
10
127.629
20
-127.409
11
127.806
21
-127.586
0
LINE
8
Black
10
116.209
20
-127.763
11
116.032
21
-127.939
0
LINE
8
Black
10
116.032
20
-127.939
11
115.325
21
-127.232
0
LINE
8
Black
10
115.325
20
-127.232
11
115.502
21
-127.055
0
LINE
8
Black
10
115.502
20
-127.055
11
116.209
21
-127.763
0
LINE
8
Black
10
127.452
20
-127.232
11
126.745
21
-127.939
0
LINE
8
Black
10
126.745
20
-127.939
11
126.568
21
-127.763
0
LINE
8
Black
10
126.568
20
-127.763
11
127.275
21
-127.055
0
LINE
8
Black
10
127.275
20
-127.055
11
127.452
21
-127.232
0
LINE
8
Black
10
103.087
20
-127.587
11
100.487
21
-127.587
0
LINE
8
Black
10
100.487
20
-127.587
11
100.487
21
-126.387
0
LINE
8
Black
10
100.487
20
-126.387
11
103.087
21
-126.387
0
LINE
8
Black
10
103.087
20
-126.387
11
103.087
21
-127.587
0
LINE
8
Black
10
127.098
20
-126.879
11
126.391
21
-127.586
0
LINE
8
Black
10
126.391
20
-127.586
11
126.215
21
-127.409
0
LINE
8
Black
10
126.215
20
-127.409
11
126.922
21
-126.702
0
LINE
8
Black
10
126.922
20
-126.702
11
127.098
21
-126.879
0
LINE
8
Black
10
116.563
20
-127.409
11
116.386
21
-127.586
0
LINE
8
Black
10
116.386
20
-127.586
11
115.679
21
-126.879
0
LINE
8
Black
10
115.679
20
-126.879
11
115.855
21
-126.702
0
LINE
8
Black
10
115.855
20
-126.702
11
116.563
21
-127.409
0
LINE
8
Black
10
114.743
20
-126.96
11
114.178
21
-127.526
0
LINE
8
Black
10
114.178
20
-127.526
11
113.647
21
-126.995
0
LINE
8
Black
10
113.647
20
-126.995
11
114.213
21
-126.43
0
LINE
8
Black
10
114.213
20
-126.43
11
114.743
21
-126.96
0
LINE
8
Black
10
129.032
20
-126.901
11
128.502
21
-127.431
0
LINE
8
Black
10
128.502
20
-127.431
11
127.936
21
-126.865
0
LINE
8
Black
10
127.936
20
-126.865
11
128.467
21
-126.335
0
LINE
8
Black
10
128.467
20
-126.335
11
129.032
21
-126.901
0
LINE
8
Black
10
116.916
20
-127.055
11
116.739
21
-127.232
0
LINE
8
Black
10
116.739
20
-127.232
11
116.032
21
-126.525
0
LINE
8
Black
10
116.032
20
-126.525
11
116.209
21
-126.348
0
LINE
8
Black
10
116.209
20
-126.348
11
116.916
21
-127.055
0
LINE
8
Black
10
126.745
20
-126.525
11
126.038
21
-127.232
0
LINE
8
Black
10
126.038
20
-127.232
11
125.861
21
-127.055
0
LINE
8
Black
10
125.861
20
-127.055
11
126.568
21
-126.348
0
LINE
8
Black
10
126.568
20
-126.348
11
126.745
21
-126.525
0
LINE
8
Black
10
117.27
20
-126.702
11
117.093
21
-126.879
0
LINE
8
Black
10
117.093
20
-126.879
11
116.386
21
-126.172
0
LINE
8
Black
10
116.386
20
-126.172
11
116.563
21
-125.995
0
LINE
8
Black
10
116.563
20
-125.995
11
117.27
21
-126.702
0
LINE
8
Black
10
126.391
20
-126.172
11
125.684
21
-126.879
0
LINE
8
Black
10
125.684
20
-126.879
11
125.508
21
-126.702
0
LINE
8
Black
10
125.508
20
-126.702
11
126.215
21
-125.995
0
LINE
8
Black
10
126.215
20
-125.995
11
126.391
21
-126.172
0
LINE
8
Black
10
117.623
20
-126.348
11
117.446
21
-126.525
0
LINE
8
Black
10
117.446
20
-126.525
11
116.739
21
-125.818
0
LINE
8
Black
10
116.739
20
-125.818
11
116.916
21
-125.641
0
LINE
8
Black
10
116.916
20
-125.641
11
117.623
21
-126.348
0
LINE
8
Black
10
126.038
20
-125.818
11
125.331
21
-126.525
0
LINE
8
Black
10
125.331
20
-126.525
11
125.154
21
-126.348
0
LINE
8
Black
10
125.154
20
-126.348
11
125.861
21
-125.641
0
LINE
8
Black
10
125.861
20
-125.641
11
126.038
21
-125.818
0
LINE
8
Black
10
127.972
20
-125.84
11
127.441
21
-126.37
0
LINE
8
Black
10
127.441
20
-126.37
11
126.876
21
-125.804
0
LINE
8
Black
10
126.876
20
-125.804
11
127.406
21
-125.274
0
LINE
8
Black
10
127.406
20
-125.274
11
127.972
21
-125.84
0
LINE
8
Black
10
125.684
20
-125.464
11
124.977
21
-126.172
0
LINE
8
Black
10
124.977
20
-126.172
11
124.8
21
-125.995
0
LINE
8
Black
10
124.8
20
-125.995
11
125.508
21
-125.288
0
LINE
8
Black
10
125.508
20
-125.288
11
125.684
21
-125.464
0
LINE
8
Black
10
117.977
20
-125.995
11
117.8
21
-126.172
0
LINE
8
Black
10
117.8
20
-126.172
11
117.093
21
-125.464
0
LINE
8
Black
10
117.093
20
-125.464
11
117.27
21
-125.288
0
LINE
8
Black
10
117.27
20
-125.288
11
117.977
21
-125.995
0
LINE
8
Black
10
125.331
20
-125.111
11
124.624
21
-125.818
0
LINE
8
Black
10
124.624
20
-125.818
11
124.447
21
-125.641
0
LINE
8
Black
10
124.447
20
-125.641
11
125.154
21
-124.934
0
LINE
8
Black
10
125.154
20
-124.934
11
125.331
21
-125.111
0
LINE
8
Black
10
118.33
20
-125.641
11
118.154
21
-125.818
0
LINE
8
Black
10
118.154
20
-125.818
11
117.446
21
-125.111
0
LINE
8
Black
10
117.446
20
-125.111
11
117.623
21
-124.934
0
LINE
8
Black
10
117.623
20
-124.934
11
118.33
21
-125.641
0
LINE
8
Black
10
103.087
20
-125.587
11
100.487
21
-125.587
0
LINE
8
Black
10
100.487
20
-125.587
11
100.487
21
-124.387
0
LINE
8
Black
10
100.487
20
-124.387
11
103.087
21
-124.387
0
LINE
8
Black
10
103.087
20
-124.387
11
103.087
21
-125.587
0
LINE
8
Black
10
118.684
20
-125.288
11
118.507
21
-125.464
0
LINE
8
Black
10
118.507
20
-125.464
11
117.8
21
-124.757
0
LINE
8
Black
10
117.8
20
-124.757
11
117.977
21
-124.581
0
LINE
8
Black
10
117.977
20
-124.581
11
118.684
21
-125.288
0
LINE
8
Black
10
124.977
20
-124.757
11
124.27
21
-125.464
0
LINE
8
Black
10
124.27
20
-125.464
11
124.093
21
-125.288
0
LINE
8
Black
10
124.093
20
-125.288
11
124.8
21
-124.581
0
LINE
8
Black
10
124.8
20
-124.581
11
124.977
21
-124.757
0
LINE
8
Black
10
111.325
20
-125.405
11
110.825
21
-125.405
0
LINE
8
Black
10
110.825
20
-125.405
11
110.825
21
-124.505
0
LINE
8
Black
10
110.825
20
-124.505
11
111.325
21
-124.505
0
LINE
8
Black
10
111.325
20
-124.505
11
111.325
21
-125.405
0
LINE
8
Black
10
112.825
20
-125.405
11
112.325
21
-125.405
0
LINE
8
Black
10
112.325
20
-125.405
11
112.325
21
-124.505
0
LINE
8
Black
10
112.325
20
-124.505
11
112.825
21
-124.505
0
LINE
8
Black
10
112.825
20
-124.505
11
112.825
21
-125.405
0
LINE
8
Black
10
119.037
20
-124.934
11
118.861
21
-125.111
0
LINE
8
Black
10
118.861
20
-125.111
11
118.154
21
-124.404
0
LINE
8
Black
10
118.154
20
-124.404
11
118.33
21
-124.227
0
LINE
8
Black
10
118.33
20
-124.227
11
119.037
21
-124.934
0
LINE
8
Black
10
124.624
20
-124.404
11
123.917
21
-125.111
0
LINE
8
Black
10
123.917
20
-125.111
11
123.74
21
-124.934
0
LINE
8
Black
10
123.74
20
-124.934
11
124.447
21
-124.227
0
LINE
8
Black
10
124.447
20
-124.227
11
124.624
21
-124.404
0
LINE
8
Black
10
119.391
20
-124.581
11
119.214
21
-124.757
0
LINE
8
Black
10
119.214
20
-124.757
11
118.507
21
-124.05
0
LINE
8
Black
10
118.507
20
-124.05
11
118.684
21
-123.873
0
LINE
8
Black
10
118.684
20
-123.873
11
119.391
21
-124.581
0
LINE
8
Black
10
124.27
20
-124.05
11
123.563
21
-124.757
0
LINE
8
Black
10
123.563
20
-124.757
11
123.386
21
-124.581
0
LINE
8
Black
10
123.386
20
-124.581
11
124.093
21
-123.873
0
LINE
8
Black
10
124.093
20
-123.873
11
124.27
21
-124.05
0
LINE
8
Black
10
119.745
20
-124.227
11
119.568
21
-124.404
0
LINE
8
Black
10
119.568
20
-124.404
11
118.861
21
-123.697
0
LINE
8
Black
10
118.861
20
-123.697
11
119.037
21
-123.52
0
LINE
8
Black
10
119.037
20
-123.52
11
119.745
21
-124.227
0
LINE
8
Black
10
123.917
20
-123.697
11
123.209
21
-124.404
0
LINE
8
Black
10
123.209
20
-124.404
11
123.033
21
-124.227
0
LINE
8
Black
10
123.033
20
-124.227
11
123.74
21
-123.52
0
LINE
8
Black
10
123.74
20
-123.52
11
123.917
21
-123.697
0
LINE
8
Black
10
111.325
20
-124.135
11
110.825
21
-124.135
0
LINE
8
Black
10
110.825
20
-124.135
11
110.825
21
-123.235
0
LINE
8
Black
10
110.825
20
-123.235
11
111.325
21
-123.235
0
LINE
8
Black
10
111.325
20
-123.235
11
111.325
21
-124.135
0
LINE
8
Black
10
112.825
20
-124.135
11
112.325
21
-124.135
0
LINE
8
Black
10
112.325
20
-124.135
11
112.325
21
-123.235
0
LINE
8
Black
10
112.325
20
-123.235
11
112.825
21
-123.235
0
LINE
8
Black
10
112.825
20
-123.235
11
112.825
21
-124.135
0
LINE
8
Black
10
123.563
20
-123.343
11
122.856
21
-124.05
0
LINE
8
Black
10
122.856
20
-124.05
11
122.679
21
-123.873
0
LINE
8
Black
10
122.679
20
-123.873
11
123.386
21
-123.166
0
LINE
8
Black
10
123.386
20
-123.166
11
123.563
21
-123.343
0
LINE
8
Black
10
120.098
20
-123.873
11
119.921
21
-124.05
0
LINE
8
Black
10
119.921
20
-124.05
11
119.214
21
-123.343
0
LINE
8
Black
10
119.214
20
-123.343
11
119.391
21
-123.166
0
LINE
8
Black
10
119.391
20
-123.166
11
120.098
21
-123.873
0
LINE
8
Black
10
117.522
20
-123.972
11
116.722
21
-123.972
0
LINE
8
Black
10
116.722
20
-123.972
11
116.722
21
-123.222
0
LINE
8
Black
10
116.722
20
-123.222
11
117.522
21
-123.222
0
LINE
8
Black
10
117.522
20
-123.222
11
117.522
21
-123.972
0
LINE
8
Black
10
116.022
20
-123.972
11
115.222
21
-123.972
0
LINE
8
Black
10
115.222
20
-123.972
11
115.222
21
-123.222
0
LINE
8
Black
10
115.222
20
-123.222
11
116.022
21
-123.222
0
LINE
8
Black
10
116.022
20
-123.222
11
116.022
21
-123.972
0
LINE
8
Black
10
120.452
20
-123.52
11
120.275
21
-123.697
0
LINE
8
Black
10
120.275
20
-123.697
11
119.568
21
-122.99
0
LINE
8
Black
10
119.568
20
-122.99
11
119.745
21
-122.813
0
LINE
8
Black
10
119.745
20
-122.813
11
120.452
21
-123.52
0
LINE
8
Black
10
123.209
20
-122.99
11
122.502
21
-123.697
0
LINE
8
Black
10
122.502
20
-123.697
11
122.326
21
-123.52
0
LINE
8
Black
10
122.326
20
-123.52
11
123.033
21
-122.813
0
LINE
8
Black
10
123.033
20
-122.813
11
123.209
21
-122.99
0
LINE
8
Black
10
103.087
20
-123.587
11
100.487
21
-123.587
0
LINE
8
Black
10
100.487
20
-123.587
11
100.487
21
-122.387
0
LINE
8
Black
10
100.487
20
-122.387
11
103.087
21
-122.387
0
LINE
8
Black
10
103.087
20
-122.387
11
103.087
21
-123.587
0
LINE
8
Black
10
127.769
20
-122.59
11
126.869
21
-122.59
0
LINE
8
Black
10
126.869
20
-122.59
11
126.869
21
-122.09
0
LINE
8
Black
10
126.869
20
-122.09
11
127.769
21
-122.09
0
LINE
8
Black
10
127.769
20
-122.09
11
127.769
21
-122.59
0
LINE
8
Black
10
126.499
20
-122.59
11
125.599
21
-122.59
0
LINE
8
Black
10
125.599
20
-122.59
11
125.599
21
-122.09
0
LINE
8
Black
10
125.599
20
-122.09
11
126.499
21
-122.09
0
LINE
8
Black
10
126.499
20
-122.09
11
126.499
21
-122.59
0
LINE
8
Black
10
125.229
20
-122.59
11
124.329
21
-122.59
0
LINE
8
Black
10
124.329
20
-122.59
11
124.329
21
-122.09
0
LINE
8
Black
10
124.329
20
-122.09
11
125.229
21
-122.09
0
LINE
8
Black
10
125.229
20
-122.09
11
125.229
21
-122.59
0
LINE
8
Black
10
123.959
20
-122.59
11
123.059
21
-122.59
0
LINE
8
Black
10
123.059
20
-122.59
11
123.059
21
-122.09
0
LINE
8
Black
10
123.059
20
-122.09
11
123.959
21
-122.09
0
LINE
8
Black
10
123.959
20
-122.09
11
123.959
21
-122.59
0
LINE
8
Black
10
119.729
20
-121.849
11
117.979
21
-121.849
0
LINE
8
Black
10
117.979
20
-121.849
11
117.979
21
-121.399
0
LINE
8
Black
10
117.979
20
-121.399
11
119.729
21
-121.399
0
LINE
8
Black
10
119.729
20
-121.399
11
119.729
21
-121.849
0
LINE
8
Black
10
112.529
20
-121.849
11
110.779
21
-121.849
0
LINE
8
Black
10
110.779
20
-121.849
11
110.779
21
-121.399
0
LINE
8
Black
10
110.779
20
-121.399
11
112.529
21
-121.399
0
LINE
8
Black
10
112.529
20
-121.399
11
112.529
21
-121.849
0
LINE
8
Black
10
103.087
20
-121.587
11
100.487
21
-121.587
0
LINE
8
Black
10
100.487
20
-121.587
11
100.487
21
-120.387
0
LINE
8
Black
10
100.487
20
-120.387
11
103.087
21
-120.387
0
LINE
8
Black
10
103.087
20
-120.387
11
103.087
21
-121.587
0
LINE
8
Black
10
119.729
20
-121.199
11
117.979
21
-121.199
0
LINE
8
Black
10
117.979
20
-121.199
11
117.979
21
-120.749
0
LINE
8
Black
10
117.979
20
-120.749
11
119.729
21
-120.749
0
LINE
8
Black
10
119.729
20
-120.749
11
119.729
21
-121.199
0
LINE
8
Black
10
112.529
20
-121.199
11
110.779
21
-121.199
0
LINE
8
Black
10
110.779
20
-121.199
11
110.779
21
-120.749
0
LINE
8
Black
10
110.779
20
-120.749
11
112.529
21
-120.749
0
LINE
8
Black
10
112.529
20
-120.749
11
112.529
21
-121.199
0
LINE
8
Black
10
126.499
20
-121.09
11
125.599
21
-121.09
0
LINE
8
Black
10
125.599
20
-121.09
11
125.599
21
-120.59
0
LINE
8
Black
10
125.599
20
-120.59
11
126.499
21
-120.59
0
LINE
8
Black
10
126.499
20
-120.59
11
126.499
21
-121.09
0
LINE
8
Black
10
125.229
20
-121.09
11
124.329
21
-121.09
0
LINE
8
Black
10
124.329
20
-121.09
11
124.329
21
-120.59
0
LINE
8
Black
10
124.329
20
-120.59
11
125.229
21
-120.59
0
LINE
8
Black
10
125.229
20
-120.59
11
125.229
21
-121.09
0
LINE
8
Black
10
127.769
20
-121.09
11
126.869
21
-121.09
0
LINE
8
Black
10
126.869
20
-121.09
11
126.869
21
-120.59
0
LINE
8
Black
10
126.869
20
-120.59
11
127.769
21
-120.59
0
LINE
8
Black
10
127.769
20
-120.59
11
127.769
21
-121.09
0
LINE
8
Black
10
123.959
20
-121.09
11
123.059
21
-121.09
0
LINE
8
Black
10
123.059
20
-121.09
11
123.059
21
-120.59
0
LINE
8
Black
10
123.059
20
-120.59
11
123.959
21
-120.59
0
LINE
8
Black
10
123.959
20
-120.59
11
123.959
21
-121.09
0
LINE
8
Black
10
119.729
20
-120.549
11
117.979
21
-120.549
0
LINE
8
Black
10
117.979
20
-120.549
11
117.979
21
-120.099
0
LINE
8
Black
10
117.979
20
-120.099
11
119.729
21
-120.099
0
LINE
8
Black
10
119.729
20
-120.099
11
119.729
21
-120.549
0
LINE
8
Black
10
112.529
20
-120.549
11
110.779
21
-120.549
0
LINE
8
Black
10
110.779
20
-120.549
11
110.779
21
-120.099
0
LINE
8
Black
10
110.779
20
-120.099
11
112.529
21
-120.099
0
LINE
8
Black
10
112.529
20
-120.099
11
112.529
21
-120.549
0
LINE
8
Black
10
112.529
20
-119.899
11
110.779
21
-119.899
0
LINE
8
Black
10
110.779
20
-119.899
11
110.779
21
-119.449
0
LINE
8
Black
10
110.779
20
-119.449
11
112.529
21
-119.449
0
LINE
8
Black
10
112.529
20
-119.449
11
112.529
21
-119.899
0
LINE
8
Black
10
119.729
20
-119.899
11
117.979
21
-119.899
0
LINE
8
Black
10
117.979
20
-119.899
11
117.979
21
-119.449
0
LINE
8
Black
10
117.979
20
-119.449
11
119.729
21
-119.449
0
LINE
8
Black
10
119.729
20
-119.449
11
119.729
21
-119.899
0
LINE
8
Black
10
121.09
20
-119.692
11
120.34
21
-119.692
0
LINE
8
Black
10
120.34
20
-119.692
11
120.34
21
-118.892
0
LINE
8
Black
10
120.34
20
-118.892
11
121.09
21
-118.892
0
LINE
8
Black
10
121.09
20
-118.892
11
121.09
21
-119.692
0
LINE
8
Black
10
122.296
20
-119.692
11
121.546
21
-119.692
0
LINE
8
Black
10
121.546
20
-119.692
11
121.546
21
-118.892
0
LINE
8
Black
10
121.546
20
-118.892
11
122.296
21
-118.892
0
LINE
8
Black
10
122.296
20
-118.892
11
122.296
21
-119.692
0
LINE
8
Black
10
103.087
20
-119.587
11
100.487
21
-119.587
0
LINE
8
Black
10
100.487
20
-119.587
11
100.487
21
-118.387
0
LINE
8
Black
10
100.487
20
-118.387
11
103.087
21
-118.387
0
LINE
8
Black
10
103.087
20
-118.387
11
103.087
21
-119.587
0
LINE
8
Black
10
112.529
20
-119.249
11
110.779
21
-119.249
0
LINE
8
Black
10
110.779
20
-119.249
11
110.779
21
-118.799
0
LINE
8
Black
10
110.779
20
-118.799
11
112.529
21
-118.799
0
LINE
8
Black
10
112.529
20
-118.799
11
112.529
21
-119.249
0
LINE
8
Black
10
119.729
20
-119.249
11
117.979
21
-119.249
0
LINE
8
Black
10
117.979
20
-119.249
11
117.979
21
-118.799
0
LINE
8
Black
10
117.979
20
-118.799
11
119.729
21
-118.799
0
LINE
8
Black
10
119.729
20
-118.799
11
119.729
21
-119.249
0
LINE
8
Black
10
112.529
20
-118.599
11
110.779
21
-118.599
0
LINE
8
Black
10
110.779
20
-118.599
11
110.779
21
-118.149
0
LINE
8
Black
10
110.779
20
-118.149
11
112.529
21
-118.149
0
LINE
8
Black
10
112.529
20
-118.149
11
112.529
21
-118.599
0
LINE
8
Black
10
119.729
20
-118.599
11
117.979
21
-118.599
0
LINE
8
Black
10
117.979
20
-118.599
11
117.979
21
-118.149
0
LINE
8
Black
10
117.979
20
-118.149
11
119.729
21
-118.149
0
LINE
8
Black
10
119.729
20
-118.149
11
119.729
21
-118.599
0
LINE
8
Black
10
123.54
20
-118.282
11
122.74
21
-118.282
0
LINE
8
Black
10
122.74
20
-118.282
11
122.74
21
-117.532
0
LINE
8
Black
10
122.74
20
-117.532
11
123.54
21
-117.532
0
LINE
8
Black
10
123.54
20
-117.532
11
123.54
21
-118.282
0
LINE
8
Black
10
125.04
20
-118.282
11
124.24
21
-118.282
0
LINE
8
Black
10
124.24
20
-118.282
11
124.24
21
-117.532
0
LINE
8
Black
10
124.24
20
-117.532
11
125.04
21
-117.532
0
LINE
8
Black
10
125.04
20
-117.532
11
125.04
21
-118.282
0
LINE
8
Black
10
122.296
20
-118.192
11
121.546
21
-118.192
0
LINE
8
Black
10
121.546
20
-118.192
11
121.546
21
-117.392
0
LINE
8
Black
10
121.546
20
-117.392
11
122.296
21
-117.392
0
LINE
8
Black
10
122.296
20
-117.392
11
122.296
21
-118.192
0
LINE
8
Black
10
121.09
20
-118.192
11
120.34
21
-118.192
0
LINE
8
Black
10
120.34
20
-118.192
11
120.34
21
-117.392
0
LINE
8
Black
10
120.34
20
-117.392
11
121.09
21
-117.392
0
LINE
8
Black
10
121.09
20
-117.392
11
121.09
21
-118.192
0
LINE
8
Black
10
112.529
20
-117.949
11
110.779
21
-117.949
0
LINE
8
Black
10
110.779
20
-117.949
11
110.779
21
-117.499
0
LINE
8
Black
10
110.779
20
-117.499
11
112.529
21
-117.499
0
LINE
8
Black
10
112.529
20
-117.499
11
112.529
21
-117.949
0
LINE
8
Black
10
119.729
20
-117.949
11
117.979
21
-117.949
0
LINE
8
Black
10
117.979
20
-117.949
11
117.979
21
-117.499
0
LINE
8
Black
10
117.979
20
-117.499
11
119.729
21
-117.499
0
LINE
8
Black
10
119.729
20
-117.499
11
119.729
21
-117.949
0
LINE
8
Black
10
112.529
20
-117.299
11
110.779
21
-117.299
0
LINE
8
Black
10
110.779
20
-117.299
11
110.779
21
-116.849
0
LINE
8
Black
10
110.779
20
-116.849
11
112.529
21
-116.849
0
LINE
8
Black
10
112.529
20
-116.849
11
112.529
21
-117.299
0
LINE
8
Black
10
119.729
20
-117.299
11
117.979
21
-117.299
0
LINE
8
Black
10
117.979
20
-117.299
11
117.979
21
-116.849
0
LINE
8
Black
10
117.979
20
-116.849
11
119.729
21
-116.849
0
LINE
8
Black
10
119.729
20
-116.849
11
119.729
21
-117.299
0
LINE
8
Black
10
112.529
20
-116.649
11
110.779
21
-116.649
0
LINE
8
Black
10
110.779
20
-116.649
11
110.779
21
-116.199
0
LINE
8
Black
10
110.779
20
-116.199
11
112.529
21
-116.199
0
LINE
8
Black
10
112.529
20
-116.199
11
112.529
21
-116.649
0
LINE
8
Black
10
119.729
20
-116.649
11
117.979
21
-116.649
0
LINE
8
Black
10
117.979
20
-116.649
11
117.979
21
-116.199
0
LINE
8
Black
10
117.979
20
-116.199
11
119.729
21
-116.199
0
LINE
8
Black
10
119.729
20
-116.199
11
119.729
21
-116.649
0
LINE
8
Black
10
122.896
20
-114.082
11
123.198
21
-114.256
0
LINE
8
Black
10
123.198
20
-114.256
11
123.422
21
-114.523
0
LINE
8
Black
10
123.422
20
-114.523
11
123.542
21
-114.851
0
LINE
8
Black
10
123.542
20
-114.851
11
123.542
21
-115.199
0
LINE
8
Black
10
123.542
20
-115.199
11
123.422
21
-115.527
0
LINE
8
Black
10
123.422
20
-115.527
11
123.198
21
-115.794
0
LINE
8
Black
10
123.198
20
-115.794
11
122.896
21
-115.968
0
LINE
8
Black
10
122.896
20
-115.968
11
122.553
21
-116.029
0
LINE
8
Black
10
122.553
20
-116.029
11
122.21
21
-115.968
0
LINE
8
Black
10
122.21
20
-115.968
11
121.908
21
-115.794
0
LINE
8
Black
10
121.908
20
-115.794
11
121.684
21
-115.527
0
LINE
8
Black
10
121.684
20
-115.527
11
121.564
21
-115.199
0
LINE
8
Black
10
121.564
20
-115.199
11
121.564
21
-114.851
0
LINE
8
Black
10
121.564
20
-114.851
11
121.684
21
-114.523
0
LINE
8
Black
10
121.684
20
-114.523
11
121.908
21
-114.256
0
LINE
8
Black
10
121.908
20
-114.256
11
122.21
21
-114.082
0
LINE
8
Black
10
122.21
20
-114.082
11
122.553
21
-114.021
0
LINE
8
Black
10
122.553
20
-114.021
11
122.896
21
-114.082
0
LINE
8
Black
10
119.729
20
-115.999
11
117.979
21
-115.999
0
LINE
8
Black
10
117.979
20
-115.999
11
117.979
21
-115.549
0
LINE
8
Black
10
117.979
20
-115.549
11
119.729
21
-115.549
0
LINE
8
Black
10
119.729
20
-115.549
11
119.729
21
-115.999
0
LINE
8
Black
10
112.529
20
-115.999
11
110.779
21
-115.999
0
LINE
8
Black
10
110.779
20
-115.999
11
110.779
21
-115.549
0
LINE
8
Black
10
110.779
20
-115.549
11
112.529
21
-115.549
0
LINE
8
Black
10
112.529
20
-115.549
11
112.529
21
-115.999
0
LINE
8
Black
10
107.887
20
-115.617
11
104.587
21
-115.617
0
LINE
8
Black
10
104.587
20
-115.617
11
104.587
21
-113.317
0
LINE
8
Black
10
104.587
20
-113.317
11
107.887
21
-113.317
0
LINE
8
Black
10
107.887
20
-113.317
11
107.887
21
-115.617
0
LINE
8
Black
10
119.729
20
-115.349
11
117.979
21
-115.349
0
LINE
8
Black
10
117.979
20
-115.349
11
117.979
21
-114.899
0
LINE
8
Black
10
117.979
20
-114.899
11
119.729
21
-114.899
0
LINE
8
Black
10
119.729
20
-114.899
11
119.729
21
-115.349
0
LINE
8
Black
10
112.529
20
-115.349
11
110.779
21
-115.349
0
LINE
8
Black
10
110.779
20
-115.349
11
110.779
21
-114.899
0
LINE
8
Black
10
110.779
20
-114.899
11
112.529
21
-114.899
0
LINE
8
Black
10
112.529
20
-114.899
11
112.529
21
-115.349
0
LINE
8
Black
10
119.729
20
-114.699
11
117.979
21
-114.699
0
LINE
8
Black
10
117.979
20
-114.699
11
117.979
21
-114.249
0
LINE
8
Black
10
117.979
20
-114.249
11
119.729
21
-114.249
0
LINE
8
Black
10
119.729
20
-114.249
11
119.729
21
-114.699
0
LINE
8
Black
10
112.529
20
-114.699
11
110.779
21
-114.699
0
LINE
8
Black
10
110.779
20
-114.699
11
110.779
21
-114.249
0
LINE
8
Black
10
110.779
20
-114.249
11
112.529
21
-114.249
0
LINE
8
Black
10
112.529
20
-114.249
11
112.529
21
-114.699
0
LINE
8
Black
10
112.529
20
-114.049
11
110.779
21
-114.049
0
LINE
8
Black
10
110.779
20
-114.049
11
110.779
21
-113.599
0
LINE
8
Black
10
110.779
20
-113.599
11
112.529
21
-113.599
0
LINE
8
Black
10
112.529
20
-113.599
11
112.529
21
-114.049
0
LINE
8
Black
10
119.729
20
-114.049
11
117.979
21
-114.049
0
LINE
8
Black
10
117.979
20
-114.049
11
117.979
21
-113.599
0
LINE
8
Black
10
117.979
20
-113.599
11
119.729
21
-113.599
0
LINE
8
Black
10
119.729
20
-113.599
11
119.729
21
-114.049
0
LINE
8
Black
10
112.529
20
-113.399
11
110.779
21
-113.399
0
LINE
8
Black
10
110.779
20
-113.399
11
110.779
21
-112.949
0
LINE
8
Black
10
110.779
20
-112.949
11
112.529
21
-112.949
0
LINE
8
Black
10
112.529
20
-112.949
11
112.529
21
-113.399
0
LINE
8
Black
10
119.729
20
-113.399
11
117.979
21
-113.399
0
LINE
8
Black
10
117.979
20
-113.399
11
117.979
21
-112.949
0
LINE
8
Black
10
117.979
20
-112.949
11
119.729
21
-112.949
0
LINE
8
Black
10
119.729
20
-112.949
11
119.729
21
-113.399
0
LINE
8
Black
10
103.696
20
-110.782
11
103.998
21
-110.956
0
LINE
8
Black
10
103.998
20
-110.956
11
104.222
21
-111.223
0
LINE
8
Black
10
104.222
20
-111.223
11
104.342
21
-111.551
0
LINE
8
Black
10
104.342
20
-111.551
11
104.342
21
-111.899
0
LINE
8
Black
10
104.342
20
-111.899
11
104.222
21
-112.227
0
LINE
8
Black
10
104.222
20
-112.227
11
103.998
21
-112.494
0
LINE
8
Black
10
103.998
20
-112.494
11
103.696
21
-112.668
0
LINE
8
Black
10
103.696
20
-112.668
11
103.353
21
-112.729
0
LINE
8
Black
10
103.353
20
-112.729
11
103.01
21
-112.668
0
LINE
8
Black
10
103.01
20
-112.668
11
102.708
21
-112.494
0
LINE
8
Black
10
102.708
20
-112.494
11
102.484
21
-112.227
0
LINE
8
Black
10
102.484
20
-112.227
11
102.364
21
-111.899
0
LINE
8
Black
10
102.364
20
-111.899
11
102.364
21
-111.551
0
LINE
8
Black
10
102.364
20
-111.551
11
102.484
21
-111.223
0
LINE
8
Black
10
102.484
20
-111.223
11
102.708
21
-110.956
0
LINE
8
Black
10
102.708
20
-110.956
11
103.01
21
-110.782
0
LINE
8
Black
10
103.01
20
-110.782
11
103.353
21
-110.721
0
LINE
8
Black
10
103.353
20
-110.721
11
103.696
21
-110.782
0
LINE
8
Black
10
119.423
20
-111.619
11
118.323
21
-111.619
0
LINE
8
Black
10
118.323
20
-111.619
11
118.323
21
-110.819
0
LINE
8
Black
10
118.323
20
-110.819
11
119.423
21
-110.819
0
LINE
8
Black
10
119.423
20
-110.819
11
119.423
21
-111.619
0
LINE
8
Black
10
116.024
20
-110.737
11
115.524
21
-110.737
0
LINE
8
Black
10
115.524
20
-110.737
11
115.524
21
-109.837
0
LINE
8
Black
10
115.524
20
-109.837
11
116.024
21
-109.837
0
LINE
8
Black
10
116.024
20
-109.837
11
116.024
21
-110.737
0
LINE
8
Black
10
117.524
20
-110.737
11
117.024
21
-110.737
0
LINE
8
Black
10
117.024
20
-110.737
11
117.024
21
-109.837
0
LINE
8
Black
10
117.024
20
-109.837
11
117.524
21
-109.837
0
LINE
8
Black
10
117.524
20
-109.837
11
117.524
21
-110.737
0
LINE
8
Black
10
114.84
20
-110.561
11
112.84
21
-110.561
0
LINE
8
Black
10
112.84
20
-110.561
11
112.84
21
-109.861
0
LINE
8
Black
10
112.84
20
-109.861
11
114.84
21
-109.861
0
LINE
8
Black
10
114.84
20
-109.861
11
114.84
21
-110.561
0
LINE
8
Black
10
119.423
20
-110.319
11
118.323
21
-110.319
0
LINE
8
Black
10
118.323
20
-110.319
11
118.323
21
-108.319
0
LINE
8
Black
10
118.323
20
-108.319
11
119.423
21
-108.319
0
LINE
8
Black
10
119.423
20
-108.319
11
119.423
21
-110.319
0
LINE
8
Black
10
114.84
20
-109.061
11
112.84
21
-109.061
0
LINE
8
Black
10
112.84
20
-109.061
11
112.84
21
-108.361
0
LINE
8
Black
10
112.84
20
-108.361
11
114.84
21
-108.361
0
LINE
8
Black
10
114.84
20
-108.361
11
114.84
21
-109.061
0
LINE
8
Black
10
114.422
20
-107.004
11
113.622
21
-107.004
0
LINE
8
Black
10
113.622
20
-107.004
11
113.622
21
-106.204
0
LINE
8
Black
10
113.622
20
-106.204
11
114.422
21
-106.204
0
LINE
8
Black
10
114.422
20
-106.204
11
114.422
21
-107.004
0
LINE
8
Black
10
112.822
20
-107.004
11
112.022
21
-107.004
0
LINE
8
Black
10
112.022
20
-107.004
11
112.022
21
-106.204
0
LINE
8
Black
10
112.022
20
-106.204
11
112.822
21
-106.204
0
LINE
8
Black
10
112.822
20
-106.204
11
112.822
21
-107.004
0
LINE
8
Black
10
120.193
20
-103.404
11
120.405
21
-103.526
0
LINE
8
Black
10
120.405
20
-103.526
11
120.562
21
-103.713
0
LINE
8
Black
10
120.562
20
-103.713
11
120.645
21
-103.942
0
LINE
8
Black
10
120.645
20
-103.942
11
120.645
21
-104.186
0
LINE
8
Black
10
120.645
20
-104.186
11
120.562
21
-104.415
0
LINE
8
Black
10
120.562
20
-104.415
11
120.405
21
-104.602
0
LINE
8
Black
10
120.405
20
-104.602
11
120.193
21
-104.724
0
LINE
8
Black
10
120.193
20
-104.724
11
119.953
21
-104.767
0
LINE
8
Black
10
119.953
20
-104.767
11
119.713
21
-104.724
0
LINE
8
Black
10
119.713
20
-104.724
11
119.501
21
-104.602
0
LINE
8
Black
10
119.501
20
-104.602
11
119.344
21
-104.415
0
LINE
8
Black
10
119.344
20
-104.415
11
119.261
21
-104.186
0
LINE
8
Black
10
119.261
20
-104.186
11
119.261
21
-103.942
0
LINE
8
Black
10
119.261
20
-103.942
11
119.344
21
-103.713
0
LINE
8
Black
10
119.344
20
-103.713
11
119.501
21
-103.526
0
LINE
8
Black
10
119.501
20
-103.526
11
119.713
21
-103.404
0
LINE
8
Black
10
119.713
20
-103.404
11
119.953
21
-103.361
0
LINE
8
Black
10
119.953
20
-103.361
11
120.193
21
-103.404
0
LINE
8
Black
10
114.193
20
-103.404
11
114.405
21
-103.526
0
LINE
8
Black
10
114.405
20
-103.526
11
114.562
21
-103.713
0
LINE
8
Black
10
114.562
20
-103.713
11
114.645
21
-103.942
0
LINE
8
Black
10
114.645
20
-103.942
11
114.645
21
-104.186
0
LINE
8
Black
10
114.645
20
-104.186
11
114.562
21
-104.415
0
LINE
8
Black
10
114.562
20
-104.415
11
114.405
21
-104.602
0
LINE
8
Black
10
114.405
20
-104.602
11
114.193
21
-104.724
0
LINE
8
Black
10
114.193
20
-104.724
11
113.953
21
-104.767
0
LINE
8
Black
10
113.953
20
-104.767
11
113.713
21
-104.724
0
LINE
8
Black
10
113.713
20
-104.724
11
113.501
21
-104.602
0
LINE
8
Black
10
113.501
20
-104.602
11
113.344
21
-104.415
0
LINE
8
Black
10
113.344
20
-104.415
11
113.261
21
-104.186
0
LINE
8
Black
10
113.261
20
-104.186
11
113.261
21
-103.942
0
LINE
8
Black
10
113.261
20
-103.942
11
113.344
21
-103.713
0
LINE
8
Black
10
113.344
20
-103.713
11
113.501
21
-103.526
0
LINE
8
Black
10
113.501
20
-103.526
11
113.713
21
-103.404
0
LINE
8
Black
10
113.713
20
-103.404
11
113.953
21
-103.361
0
LINE
8
Black
10
113.953
20
-103.361
11
114.193
21
-103.404
0
LINE
8
Black
10
116.193
20
-103.404
11
116.405
21
-103.526
0
LINE
8
Black
10
116.405
20
-103.526
11
116.562
21
-103.713
0
LINE
8
Black
10
116.562
20
-103.713
11
116.645
21
-103.942
0
LINE
8
Black
10
116.645
20
-103.942
11
116.645
21
-104.186
0
LINE
8
Black
10
116.645
20
-104.186
11
116.562
21
-104.415
0
LINE
8
Black
10
116.562
20
-104.415
11
116.405
21
-104.602
0
LINE
8
Black
10
116.405
20
-104.602
11
116.193
21
-104.724
0
LINE
8
Black
10
116.193
20
-104.724
11
115.953
21
-104.767
0
LINE
8
Black
10
115.953
20
-104.767
11
115.713
21
-104.724
0
LINE
8
Black
10
115.713
20
-104.724
11
115.501
21
-104.602
0
LINE
8
Black
10
115.501
20
-104.602
11
115.344
21
-104.415
0
LINE
8
Black
10
115.344
20
-104.415
11
115.261
21
-104.186
0
LINE
8
Black
10
115.261
20
-104.186
11
115.261
21
-103.942
0
LINE
8
Black
10
115.261
20
-103.942
11
115.344
21
-103.713
0
LINE
8
Black
10
115.344
20
-103.713
11
115.501
21
-103.526
0
LINE
8
Black
10
115.501
20
-103.526
11
115.713
21
-103.404
0
LINE
8
Black
10
115.713
20
-103.404
11
115.953
21
-103.361
0
LINE
8
Black
10
115.953
20
-103.361
11
116.193
21
-103.404
0
LINE
8
Black
10
118.193
20
-103.404
11
118.405
21
-103.526
0
LINE
8
Black
10
118.405
20
-103.526
11
118.562
21
-103.713
0
LINE
8
Black
10
118.562
20
-103.713
11
118.645
21
-103.942
0
LINE
8
Black
10
118.645
20
-103.942
11
118.645
21
-104.186
0
LINE
8
Black
10
118.645
20
-104.186
11
118.562
21
-104.415
0
LINE
8
Black
10
118.562
20
-104.415
11
118.405
21
-104.602
0
LINE
8
Black
10
118.405
20
-104.602
11
118.193
21
-104.724
0
LINE
8
Black
10
118.193
20
-104.724
11
117.953
21
-104.767
0
LINE
8
Black
10
117.953
20
-104.767
11
117.713
21
-104.724
0
LINE
8
Black
10
117.713
20
-104.724
11
117.501
21
-104.602
0
LINE
8
Black
10
117.501
20
-104.602
11
117.344
21
-104.415
0
LINE
8
Black
10
117.344
20
-104.415
11
117.261
21
-104.186
0
LINE
8
Black
10
117.261
20
-104.186
11
117.261
21
-103.942
0
LINE
8
Black
10
117.261
20
-103.942
11
117.344
21
-103.713
0
LINE
8
Black
10
117.344
20
-103.713
11
117.501
21
-103.526
0
LINE
8
Black
10
117.501
20
-103.526
11
117.713
21
-103.404
0
LINE
8
Black
10
117.713
20
-103.404
11
117.953
21
-103.361
0
LINE
8
Black
10
117.953
20
-103.361
11
118.193
21
-103.404
0
LINE
8
Black
10
122.653
20
-104.764
11
121.253
21
-104.764
0
LINE
8
Black
10
121.253
20
-104.764
11
121.253
21
-103.364
0
LINE
8
Black
10
121.253
20
-103.364
11
122.653
21
-103.364
0
LINE
8
Black
10
122.653
20
-103.364
11
122.653
21
-104.764
0
LINE
8
Black
10
103.015
20
-101.085
11
103.468
21
-101.347
0
LINE
8
Black
10
103.468
20
-101.347
11
103.804
21
-101.747
0
LINE
8
Black
10
103.804
20
-101.747
11
103.983
21
-102.239
0
LINE
8
Black
10
103.983
20
-102.239
11
103.983
21
-102.761
0
LINE
8
Black
10
103.983
20
-102.761
11
103.804
21
-103.253
0
LINE
8
Black
10
103.804
20
-103.253
11
103.468
21
-103.653
0
LINE
8
Black
10
103.468
20
-103.653
11
103.015
21
-103.915
0
LINE
8
Black
10
103.015
20
-103.915
11
102.5
21
-104.006
0
LINE
8
Black
10
102.5
20
-104.006
11
101.985
21
-103.915
0
LINE
8
Black
10
101.985
20
-103.915
11
101.532
21
-103.653
0
LINE
8
Black
10
101.532
20
-103.653
11
101.196
21
-103.253
0
LINE
8
Black
10
101.196
20
-103.253
11
101.017
21
-102.761
0
LINE
8
Black
10
101.017
20
-102.761
11
101.017
21
-102.239
0
LINE
8
Black
10
101.017
20
-102.239
11
101.196
21
-101.747
0
LINE
8
Black
10
101.196
20
-101.747
11
101.532
21
-101.347
0
LINE
8
Black
10
101.532
20
-101.347
11
101.985
21
-101.085
0
LINE
8
Black
10
101.985
20
-101.085
11
102.5
21
-100.994
0
LINE
8
Black
10
102.5
20
-100.994
11
103.015
21
-101.085
0
LINE
8
Black
10
128.015
20
-101.085
11
128.468
21
-101.347
0
LINE
8
Black
10
128.468
20
-101.347
11
128.804
21
-101.747
0
LINE
8
Black
10
128.804
20
-101.747
11
128.983
21
-102.239
0
LINE
8
Black
10
128.983
20
-102.239
11
128.983
21
-102.761
0
LINE
8
Black
10
128.983
20
-102.761
11
128.804
21
-103.253
0
LINE
8
Black
10
128.804
20
-103.253
11
128.468
21
-103.653
0
LINE
8
Black
10
128.468
20
-103.653
11
128.015
21
-103.915
0
LINE
8
Black
10
128.015
20
-103.915
11
127.5
21
-104.006
0
LINE
8
Black
10
127.5
20
-104.006
11
126.985
21
-103.915
0
LINE
8
Black
10
126.985
20
-103.915
11
126.532
21
-103.653
0
LINE
8
Black
10
126.532
20
-103.653
11
126.196
21
-103.253
0
LINE
8
Black
10
126.196
20
-103.253
11
126.017
21
-102.761
0
LINE
8
Black
10
126.017
20
-102.761
11
126.017
21
-102.239
0
LINE
8
Black
10
126.017
20
-102.239
11
126.196
21
-101.747
0
LINE
8
Black
10
126.196
20
-101.747
11
126.532
21
-101.347
0
LINE
8
Black
10
126.532
20
-101.347
11
126.985
21
-101.085
0
LINE
8
Black
10
126.985
20
-101.085
11
127.5
21
-100.994
0
LINE
8
Black
10
127.5
20
-100.994
11
128.015
21
-101.085
  0
ENDSEC
  0
EOF
