G04 #@! TF.FileFunction,Soldermask,Top*
%FSLAX46Y46*%
G04 Gerber Fmt 4.6, Leading zero omitted, Abs format (unit mm)*
G04 Created by KiCad (PCBNEW 4.0.6) date 08/19/17 00:13:46*
%MOMM*%
%LPD*%
G01*
G04 APERTURE LIST*
%ADD10C,0.100000*%
%ADD11C,3.000000*%
%ADD12R,0.750000X0.800000*%
%ADD13R,0.800000X0.800000*%
%ADD14R,1.900000X1.300000*%
%ADD15R,1.200000X0.700000*%
%ADD16R,1.200000X1.000000*%
%ADD17R,0.800000X1.000000*%
%ADD18R,2.800000X1.000000*%
%ADD19R,3.300000X2.300000*%
%ADD20R,2.600000X1.200000*%
%ADD21R,0.800000X0.900000*%
%ADD22R,0.900000X0.500000*%
%ADD23R,0.500000X0.900000*%
%ADD24R,1.524000X1.524000*%
%ADD25C,1.524000*%
%ADD26R,1.600000X1.600000*%
%ADD27O,1.600000X1.600000*%
%ADD28O,1.400000X0.900000*%
%ADD29O,0.900000X1.400000*%
%ADD30O,5.000000X3.200000*%
%ADD31R,0.200000X0.700000*%
%ADD32C,2.000000*%
%ADD33C,1.400000*%
%ADD34R,1.400000X1.400000*%
%ADD35R,1.700000X1.700000*%
%ADD36O,1.700000X1.700000*%
G04 APERTURE END LIST*
D10*
D11*
X127500000Y-167500000D03*
X102500000Y-167500000D03*
X102500000Y-102500000D03*
D12*
X110364500Y-129603000D03*
X110364500Y-131103000D03*
D13*
X115000000Y-166205000D03*
X115000000Y-164605000D03*
X123039000Y-118288000D03*
X121439000Y-118288000D03*
X123039000Y-120891500D03*
X121439000Y-120891500D03*
X124614000Y-118288000D03*
X126214000Y-118288000D03*
X124614000Y-120891500D03*
X126214000Y-120891500D03*
D14*
X127093000Y-122441000D03*
D15*
X111993000Y-126341000D03*
X111993000Y-127441000D03*
X111993000Y-128541000D03*
X111993000Y-129641000D03*
X111993000Y-130741000D03*
X111993000Y-131841000D03*
X111993000Y-132941000D03*
X111993000Y-134041000D03*
X111993000Y-134991000D03*
D16*
X111993000Y-124791000D03*
X116293000Y-135941000D03*
D17*
X122493000Y-135941000D03*
D18*
X126643000Y-135941000D03*
D19*
X106237000Y-123357000D03*
D20*
X101787000Y-135877000D03*
X101787000Y-133877000D03*
D19*
X106237000Y-140397000D03*
D20*
X101787000Y-131877000D03*
X101787000Y-129877000D03*
X101787000Y-127877000D03*
D19*
X123826500Y-155521000D03*
D20*
X128276500Y-143001000D03*
X128276500Y-145001000D03*
D19*
X123826500Y-138481000D03*
D20*
X128276500Y-147001000D03*
X128276500Y-149001000D03*
X128276500Y-151001000D03*
D21*
X107192000Y-110398000D03*
X109092000Y-110398000D03*
X108142000Y-108398000D03*
D22*
X115000000Y-163107000D03*
X115000000Y-161607000D03*
D23*
X116917000Y-151308000D03*
X118417000Y-151308000D03*
X116917000Y-149911000D03*
X118417000Y-149911000D03*
X110277000Y-106731000D03*
X108777000Y-106731000D03*
D22*
X110364500Y-127801000D03*
X110364500Y-126301000D03*
D24*
X120016500Y-146672500D03*
D25*
X120016500Y-144132500D03*
X120016500Y-141592500D03*
X120016500Y-139052500D03*
X117476500Y-146672500D03*
X117476500Y-144132500D03*
X117476500Y-141592500D03*
X117476500Y-139052500D03*
D26*
X118810000Y-158293000D03*
D27*
X111190000Y-168453000D03*
X118810000Y-160833000D03*
X111190000Y-165913000D03*
X118810000Y-163373000D03*
X111190000Y-163373000D03*
X118810000Y-165913000D03*
X111190000Y-160833000D03*
X118810000Y-168453000D03*
X111190000Y-158293000D03*
D28*
X114873000Y-154101999D03*
X114873000Y-152831999D03*
X114873000Y-151561999D03*
X114873000Y-150291999D03*
X114873000Y-149021999D03*
X114873000Y-147751999D03*
X114873000Y-146481999D03*
X114873000Y-145211999D03*
D29*
X112583000Y-142921999D03*
X111313000Y-142921999D03*
X110043000Y-142921999D03*
X108773000Y-142921999D03*
X107503000Y-142921999D03*
X106233000Y-142921999D03*
X104963000Y-142921999D03*
X103693000Y-142921999D03*
D28*
X101403000Y-145211999D03*
X101403000Y-146481999D03*
X101403000Y-147751999D03*
X101403000Y-149021999D03*
X101403000Y-150291999D03*
X101403000Y-151561999D03*
X101403000Y-152831999D03*
X101403000Y-154101999D03*
D29*
X103693000Y-156391999D03*
X104963000Y-156391999D03*
X106233000Y-156391999D03*
X107503000Y-156391999D03*
X108773000Y-156391999D03*
X110043000Y-156391999D03*
X111313000Y-156391999D03*
X112583000Y-156391999D03*
D30*
X111373000Y-153891999D03*
D22*
X110364500Y-133032000D03*
X110364500Y-134532000D03*
D11*
X127500000Y-102500000D03*
D31*
X111803000Y-107985000D03*
X111803000Y-111065000D03*
X112203000Y-107985000D03*
X112203000Y-111065000D03*
X112603000Y-107985000D03*
X112603000Y-111065000D03*
X113003000Y-107985000D03*
X113003000Y-111065000D03*
X113403000Y-107985000D03*
X113403000Y-111065000D03*
X113803000Y-107985000D03*
X113803000Y-111065000D03*
X114203000Y-107985000D03*
X114203000Y-111065000D03*
X114603000Y-107985000D03*
X114603000Y-111065000D03*
X115003000Y-107985000D03*
X115003000Y-111065000D03*
X115403000Y-107985000D03*
X115403000Y-111065000D03*
D32*
X122553000Y-115025000D03*
X103353000Y-111725000D03*
D33*
X124080500Y-160579000D03*
D34*
X122080500Y-160579000D03*
D33*
X119953000Y-104064000D03*
D34*
X121953000Y-104064000D03*
D33*
X117953000Y-104064000D03*
X115953000Y-104064000D03*
X113953000Y-104064000D03*
D35*
X128271500Y-162357000D03*
D36*
X128271500Y-159817000D03*
X128271500Y-157277000D03*
X128271500Y-154737000D03*
M02*
