G04 #@! TF.FileFunction,Legend,Top*
%FSLAX46Y46*%
G04 Gerber Fmt 4.6, Leading zero omitted, Abs format (unit mm)*
G04 Created by KiCad (PCBNEW 4.0.6) date 08/19/17 00:13:46*
%MOMM*%
%LPD*%
G01*
G04 APERTURE LIST*
%ADD10C,0.100000*%
%ADD11C,0.120000*%
%ADD12C,0.050000*%
%ADD13C,0.150000*%
%ADD14C,0.010000*%
%ADD15C,3.000000*%
%ADD16R,0.750000X0.800000*%
%ADD17R,0.800000X0.800000*%
%ADD18R,1.900000X1.300000*%
%ADD19R,1.200000X0.700000*%
%ADD20R,1.200000X1.000000*%
%ADD21R,0.800000X1.000000*%
%ADD22R,2.800000X1.000000*%
%ADD23R,3.300000X2.300000*%
%ADD24R,2.600000X1.200000*%
%ADD25R,0.800000X0.900000*%
%ADD26R,0.900000X0.500000*%
%ADD27R,0.500000X0.900000*%
%ADD28R,1.524000X1.524000*%
%ADD29C,1.524000*%
%ADD30R,1.600000X1.600000*%
%ADD31O,1.600000X1.600000*%
%ADD32O,1.400000X0.900000*%
%ADD33O,0.900000X1.400000*%
%ADD34O,5.000000X3.200000*%
%ADD35R,0.200000X0.700000*%
%ADD36C,2.000000*%
%ADD37C,1.400000*%
%ADD38R,1.400000X1.400000*%
%ADD39R,1.700000X1.700000*%
%ADD40O,1.700000X1.700000*%
G04 APERTURE END LIST*
D10*
D11*
X110964500Y-130003000D02*
X110964500Y-130703000D01*
X109764500Y-130703000D02*
X109764500Y-130003000D01*
X115500000Y-164105000D02*
X114500000Y-164105000D01*
X114500000Y-164105000D02*
X114500000Y-166205000D01*
X115500000Y-164105000D02*
X115500000Y-166205000D01*
X120939000Y-117788000D02*
X120939000Y-118788000D01*
X120939000Y-118788000D02*
X123039000Y-118788000D01*
X120939000Y-117788000D02*
X123039000Y-117788000D01*
X120939000Y-120391500D02*
X120939000Y-121391500D01*
X120939000Y-121391500D02*
X123039000Y-121391500D01*
X120939000Y-120391500D02*
X123039000Y-120391500D01*
X126714000Y-118788000D02*
X126714000Y-117788000D01*
X126714000Y-117788000D02*
X124614000Y-117788000D01*
X126714000Y-118788000D02*
X124614000Y-118788000D01*
X126714000Y-121391500D02*
X126714000Y-120391500D01*
X126714000Y-120391500D02*
X124614000Y-120391500D01*
X126714000Y-121391500D02*
X124614000Y-121391500D01*
D12*
X129443000Y-130041000D02*
X129443000Y-131041000D01*
X129443000Y-128041000D02*
X129443000Y-129041000D01*
X129443000Y-133041000D02*
X129443000Y-132041000D01*
X129443000Y-134041000D02*
X129443000Y-135041000D01*
X129443000Y-126041000D02*
X129443000Y-127041000D01*
X128043000Y-135041000D02*
X129443000Y-135041000D01*
X129443000Y-124041000D02*
X129443000Y-125041000D01*
X129443000Y-124041000D02*
X128043000Y-124041000D01*
X126693000Y-125841000D02*
X127043000Y-126191000D01*
X126693000Y-125991000D02*
X126893000Y-126191000D01*
X126693000Y-125341000D02*
X127543000Y-126191000D01*
X126693000Y-125491000D02*
X127393000Y-126191000D01*
X126693000Y-123841000D02*
X128043000Y-125191000D01*
X126693000Y-123991000D02*
X128043000Y-125341000D01*
X127843000Y-123491000D02*
X128043000Y-123691000D01*
X127693000Y-123491000D02*
X128043000Y-123841000D01*
X127343000Y-123491000D02*
X128043000Y-124191000D01*
X127193000Y-123491000D02*
X128043000Y-124341000D01*
X126843000Y-123491000D02*
X128043000Y-124691000D01*
X126693000Y-123491000D02*
X128043000Y-124841000D01*
X116993000Y-134191000D02*
X117343000Y-134541000D01*
X116993000Y-134341000D02*
X117193000Y-134541000D01*
X116993000Y-133691000D02*
X117843000Y-134541000D01*
X116993000Y-133841000D02*
X117693000Y-134541000D01*
X116993000Y-133191000D02*
X118343000Y-134541000D01*
X116993000Y-133341000D02*
X118193000Y-134541000D01*
X116993000Y-126191000D02*
X118593000Y-127791000D01*
X116993000Y-126341000D02*
X118593000Y-127941000D01*
X118493000Y-125841000D02*
X118593000Y-125941000D01*
X118593000Y-126291000D02*
X118143000Y-125841000D01*
X117993000Y-125841000D02*
X118593000Y-126441000D01*
X118593000Y-126791000D02*
X117643000Y-125841000D01*
X117493000Y-125841000D02*
X118593000Y-126941000D01*
X117143000Y-125841000D02*
X118593000Y-127291000D01*
X116993000Y-125841000D02*
X118593000Y-127441000D01*
X125793000Y-134541000D02*
X125893000Y-134641000D01*
X120443000Y-135591000D02*
X120493000Y-135641000D01*
X115593000Y-135591000D02*
X115643000Y-135641000D01*
X115093000Y-135591000D02*
X115643000Y-136141000D01*
X114593000Y-135591000D02*
X115343000Y-136341000D01*
X114093000Y-135591000D02*
X114843000Y-136341000D01*
X113593000Y-135591000D02*
X114343000Y-136341000D01*
X113093000Y-135591000D02*
X113843000Y-136341000D01*
X112593000Y-135591000D02*
X113343000Y-136341000D01*
X112443000Y-135941000D02*
X112843000Y-136341000D01*
X112693000Y-136341000D02*
X112443000Y-136091000D01*
X115443000Y-135591000D02*
X115643000Y-135791000D01*
X114943000Y-135591000D02*
X115643000Y-136291000D01*
X114443000Y-135591000D02*
X115193000Y-136341000D01*
X113943000Y-135591000D02*
X114693000Y-136341000D01*
X113443000Y-135591000D02*
X114193000Y-136341000D01*
X112943000Y-135591000D02*
X113693000Y-136341000D01*
X112443000Y-135591000D02*
X113193000Y-136341000D01*
X128043000Y-136041000D02*
X128043000Y-122191000D01*
X111893000Y-136041000D02*
X128043000Y-136041000D01*
X111893000Y-122191000D02*
X128043000Y-122191000D01*
X111893000Y-136041000D02*
X111893000Y-122191000D01*
X128043000Y-126191000D02*
X126693000Y-126191000D01*
X126693000Y-123491000D02*
X128043000Y-123491000D01*
X126693000Y-126191000D02*
X126693000Y-123491000D01*
X118593000Y-125841000D02*
X118593000Y-134541000D01*
X116993000Y-125841000D02*
X118593000Y-125841000D01*
X116993000Y-134541000D02*
X116993000Y-125841000D01*
X118593000Y-134541000D02*
X116993000Y-134541000D01*
X125893000Y-135241000D02*
X118293000Y-135241000D01*
X125893000Y-134541000D02*
X125893000Y-135241000D01*
X118293000Y-134541000D02*
X125893000Y-134541000D01*
X118293000Y-135241000D02*
X118293000Y-134541000D01*
X116943000Y-136341000D02*
X116943000Y-135591000D01*
X120493000Y-136341000D02*
X116943000Y-136341000D01*
X120493000Y-135591000D02*
X120493000Y-136341000D01*
X116943000Y-135591000D02*
X120493000Y-135591000D01*
X115643000Y-136341000D02*
X112443000Y-136341000D01*
X115643000Y-135591000D02*
X115643000Y-136341000D01*
X112443000Y-135591000D02*
X115643000Y-135591000D01*
X112443000Y-135591000D02*
X112443000Y-136341000D01*
X119093000Y-135591000D02*
X119843000Y-136341000D01*
X118943000Y-135591000D02*
X119693000Y-136341000D01*
X118593000Y-135591000D02*
X119343000Y-136341000D01*
X118443000Y-135591000D02*
X119193000Y-136341000D01*
X117943000Y-135591000D02*
X118693000Y-136341000D01*
X118093000Y-135591000D02*
X118843000Y-136341000D01*
X117593000Y-135591000D02*
X118343000Y-136341000D01*
X117443000Y-135591000D02*
X118193000Y-136341000D01*
X117093000Y-135591000D02*
X117843000Y-136341000D01*
X116943000Y-135591000D02*
X117693000Y-136341000D01*
X117193000Y-136341000D02*
X116943000Y-136091000D01*
X116943000Y-135941000D02*
X117343000Y-136341000D01*
X119443000Y-135591000D02*
X120193000Y-136341000D01*
X119593000Y-135591000D02*
X120343000Y-136341000D01*
X119943000Y-135591000D02*
X120493000Y-136141000D01*
X120093000Y-135591000D02*
X120493000Y-135991000D01*
X120443000Y-134541000D02*
X121143000Y-135241000D01*
X120293000Y-134541000D02*
X120993000Y-135241000D01*
X119943000Y-134541000D02*
X120643000Y-135241000D01*
X119793000Y-134541000D02*
X120493000Y-135241000D01*
X119293000Y-134541000D02*
X119993000Y-135241000D01*
X119443000Y-134541000D02*
X120143000Y-135241000D01*
X118943000Y-134541000D02*
X119643000Y-135241000D01*
X118793000Y-134541000D02*
X119493000Y-135241000D01*
X118443000Y-134541000D02*
X119143000Y-135241000D01*
X118293000Y-134541000D02*
X118993000Y-135241000D01*
X118493000Y-135241000D02*
X118293000Y-135041000D01*
X118293000Y-134891000D02*
X118643000Y-135241000D01*
X120793000Y-134541000D02*
X121493000Y-135241000D01*
X120943000Y-134541000D02*
X121643000Y-135241000D01*
X121293000Y-134541000D02*
X121993000Y-135241000D01*
X121443000Y-134541000D02*
X122143000Y-135241000D01*
X121943000Y-134541000D02*
X122643000Y-135241000D01*
X121793000Y-134541000D02*
X122493000Y-135241000D01*
X122293000Y-134541000D02*
X122993000Y-135241000D01*
X122443000Y-134541000D02*
X123143000Y-135241000D01*
X122793000Y-134541000D02*
X123493000Y-135241000D01*
X122943000Y-134541000D02*
X123643000Y-135241000D01*
X123293000Y-134541000D02*
X123993000Y-135241000D01*
X123443000Y-134541000D02*
X124143000Y-135241000D01*
X123793000Y-134541000D02*
X124493000Y-135241000D01*
X123943000Y-134541000D02*
X124643000Y-135241000D01*
X124293000Y-134541000D02*
X124993000Y-135241000D01*
X124443000Y-134541000D02*
X125143000Y-135241000D01*
X124793000Y-134541000D02*
X125493000Y-135241000D01*
X124943000Y-134541000D02*
X125643000Y-135241000D01*
X125293000Y-134541000D02*
X125893000Y-135141000D01*
X125443000Y-134541000D02*
X125893000Y-134991000D01*
X116993000Y-126691000D02*
X118593000Y-128291000D01*
X116993000Y-126841000D02*
X118593000Y-128441000D01*
X116993000Y-127191000D02*
X118593000Y-128791000D01*
X116993000Y-127341000D02*
X118593000Y-128941000D01*
X116993000Y-127691000D02*
X118593000Y-129291000D01*
X116993000Y-127841000D02*
X118593000Y-129441000D01*
X116993000Y-128191000D02*
X118593000Y-129791000D01*
X116993000Y-128341000D02*
X118593000Y-129941000D01*
X116993000Y-128691000D02*
X118593000Y-130291000D01*
X116993000Y-128841000D02*
X118593000Y-130441000D01*
X116993000Y-129191000D02*
X118593000Y-130791000D01*
X116993000Y-129341000D02*
X118593000Y-130941000D01*
X116993000Y-129691000D02*
X118593000Y-131291000D01*
X116993000Y-129841000D02*
X118593000Y-131441000D01*
X116993000Y-130191000D02*
X118593000Y-131791000D01*
X116993000Y-130341000D02*
X118593000Y-131941000D01*
X116993000Y-130691000D02*
X118593000Y-132291000D01*
X116993000Y-130841000D02*
X118593000Y-132441000D01*
X116993000Y-131191000D02*
X118593000Y-132791000D01*
X116993000Y-131341000D02*
X118593000Y-132941000D01*
X116993000Y-131691000D02*
X118593000Y-133291000D01*
X116993000Y-131841000D02*
X118593000Y-133441000D01*
X116993000Y-132191000D02*
X118593000Y-133791000D01*
X116993000Y-132341000D02*
X118593000Y-133941000D01*
X116993000Y-132691000D02*
X118593000Y-134291000D01*
X116993000Y-132841000D02*
X118593000Y-134441000D01*
X126693000Y-124491000D02*
X128043000Y-125841000D01*
X126693000Y-124341000D02*
X128043000Y-125691000D01*
X126693000Y-124991000D02*
X127893000Y-126191000D01*
X126693000Y-124841000D02*
X128043000Y-126191000D01*
X133443000Y-128041000D02*
X133443000Y-129041000D01*
X133443000Y-126041000D02*
X133443000Y-127041000D01*
X133443000Y-130041000D02*
X133443000Y-131041000D01*
X133443000Y-133041000D02*
X133443000Y-132041000D01*
X133443000Y-134041000D02*
X133443000Y-135041000D01*
X132443000Y-135041000D02*
X133443000Y-135041000D01*
X133443000Y-124041000D02*
X133443000Y-125041000D01*
X133443000Y-124041000D02*
X132443000Y-124041000D01*
X128643000Y-126041000D02*
X128643000Y-127041000D01*
X128643000Y-128041000D02*
X128643000Y-129041000D01*
X128643000Y-130041000D02*
X128643000Y-131041000D01*
X128643000Y-133041000D02*
X128643000Y-132041000D01*
X128643000Y-134041000D02*
X128643000Y-135041000D01*
X128643000Y-124041000D02*
X128643000Y-125041000D01*
D13*
X104287000Y-124627000D02*
X104287000Y-125827000D01*
D10*
X105487000Y-136477000D02*
X105037000Y-136027000D01*
X103087000Y-134077000D02*
X104637000Y-135627000D01*
X103087000Y-132477000D02*
X104537000Y-133927000D01*
X105887000Y-135277000D02*
X104737000Y-134127000D01*
D13*
X105107000Y-137927000D02*
X105107000Y-139127000D01*
X107107000Y-137927000D02*
X107107000Y-139127000D01*
X105107000Y-124627000D02*
X105107000Y-125827000D01*
X107107000Y-124627000D02*
X107107000Y-125827000D01*
X107987000Y-135527000D02*
X107737000Y-135727000D01*
X107737000Y-135727000D02*
X107737000Y-136027000D01*
X107737000Y-136027000D02*
X107987000Y-136227000D01*
X107987000Y-133527000D02*
X107737000Y-133727000D01*
X107737000Y-133727000D02*
X107737000Y-134027000D01*
X107737000Y-134027000D02*
X107987000Y-134227000D01*
X107987000Y-137227000D02*
X107987000Y-136227000D01*
X107987000Y-135527000D02*
X107987000Y-134227000D01*
X107987000Y-133527000D02*
X107987000Y-132227000D01*
X103787000Y-126527000D02*
X103787000Y-137227000D01*
X103787000Y-137227000D02*
X107987000Y-137227000D01*
X107987000Y-126527000D02*
X103787000Y-126527000D01*
X104537000Y-135627000D02*
X104537000Y-136127000D01*
X104537000Y-136127000D02*
X105037000Y-136127000D01*
X105037000Y-136127000D02*
X105037000Y-135627000D01*
X105037000Y-135627000D02*
X104537000Y-135627000D01*
X104537000Y-133627000D02*
X104537000Y-134127000D01*
X104537000Y-134127000D02*
X105037000Y-134127000D01*
X105037000Y-134127000D02*
X105037000Y-133627000D01*
X105037000Y-133627000D02*
X104537000Y-133627000D01*
X103087000Y-137927000D02*
X107687000Y-137927000D01*
X107687000Y-137927000D02*
X107687000Y-139127000D01*
X108687000Y-139127000D02*
X104287000Y-139127000D01*
X103087000Y-124627000D02*
X103087000Y-137927000D01*
X103087000Y-137927000D02*
X104287000Y-139127000D01*
X103087000Y-125827000D02*
X107687000Y-125827000D01*
X107687000Y-125827000D02*
X107687000Y-124627000D01*
X108687000Y-124627000D02*
X103087000Y-124627000D01*
X108687000Y-124627000D02*
X108687000Y-139127000D01*
D10*
X103887000Y-136477000D02*
X103087000Y-135677000D01*
X104687000Y-136477000D02*
X103087000Y-134877000D01*
X105887000Y-136077000D02*
X103087000Y-133277000D01*
X105887000Y-132877000D02*
X105037000Y-132027000D01*
X105887000Y-133677000D02*
X103087000Y-130877000D01*
D13*
X103087000Y-133277000D02*
X103087000Y-136477000D01*
X103087000Y-136477000D02*
X105887000Y-136477000D01*
X105887000Y-136477000D02*
X105887000Y-127277000D01*
X105887000Y-127277000D02*
X103087000Y-127277000D01*
X107987000Y-131527000D02*
X107737000Y-131727000D01*
X107737000Y-131727000D02*
X107737000Y-132027000D01*
X107737000Y-132027000D02*
X107987000Y-132227000D01*
X107987000Y-131527000D02*
X107987000Y-130227000D01*
X104537000Y-131627000D02*
X104537000Y-132127000D01*
X105037000Y-131627000D02*
X104537000Y-131627000D01*
X105037000Y-132127000D02*
X105037000Y-131627000D01*
X104537000Y-132127000D02*
X105037000Y-132127000D01*
D10*
X105887000Y-134477000D02*
X103087000Y-131677000D01*
X104637000Y-131627000D02*
X103087000Y-130077000D01*
X104537000Y-129927000D02*
X103087000Y-128477000D01*
D13*
X107987000Y-129527000D02*
X107737000Y-129727000D01*
X107737000Y-130027000D02*
X107987000Y-130227000D01*
X107737000Y-129727000D02*
X107737000Y-130027000D01*
X107987000Y-129527000D02*
X107987000Y-128227000D01*
D10*
X105887000Y-132077000D02*
X103087000Y-129277000D01*
X105887000Y-130477000D02*
X103087000Y-127677000D01*
X104637000Y-127627000D02*
X104287000Y-127277000D01*
D13*
X104537000Y-129627000D02*
X104537000Y-130127000D01*
X105037000Y-130127000D02*
X105037000Y-129627000D01*
X104537000Y-130127000D02*
X105037000Y-130127000D01*
X105037000Y-129627000D02*
X104537000Y-129627000D01*
X107987000Y-127527000D02*
X107987000Y-126527000D01*
X107737000Y-127727000D02*
X107737000Y-128027000D01*
X107987000Y-127527000D02*
X107737000Y-127727000D01*
X107737000Y-128027000D02*
X107987000Y-128227000D01*
D10*
X105887000Y-131277000D02*
X104737000Y-130127000D01*
D13*
X104537000Y-127627000D02*
X104537000Y-128127000D01*
X104537000Y-128127000D02*
X105037000Y-128127000D01*
X105037000Y-128127000D02*
X105037000Y-127627000D01*
X105037000Y-127627000D02*
X104537000Y-127627000D01*
D10*
X105887000Y-129677000D02*
X103487000Y-127277000D01*
X105887000Y-128877000D02*
X105037000Y-128027000D01*
X105887000Y-128077000D02*
X105087000Y-127277000D01*
D13*
X125776500Y-154251000D02*
X125776500Y-153051000D01*
D10*
X124576500Y-142401000D02*
X125026500Y-142851000D01*
X126976500Y-144801000D02*
X125426500Y-143251000D01*
X126976500Y-146401000D02*
X125526500Y-144951000D01*
X124176500Y-143601000D02*
X125326500Y-144751000D01*
D13*
X124956500Y-140951000D02*
X124956500Y-139751000D01*
X122956500Y-140951000D02*
X122956500Y-139751000D01*
X124956500Y-154251000D02*
X124956500Y-153051000D01*
X122956500Y-154251000D02*
X122956500Y-153051000D01*
X122076500Y-143351000D02*
X122326500Y-143151000D01*
X122326500Y-143151000D02*
X122326500Y-142851000D01*
X122326500Y-142851000D02*
X122076500Y-142651000D01*
X122076500Y-145351000D02*
X122326500Y-145151000D01*
X122326500Y-145151000D02*
X122326500Y-144851000D01*
X122326500Y-144851000D02*
X122076500Y-144651000D01*
X122076500Y-141651000D02*
X122076500Y-142651000D01*
X122076500Y-143351000D02*
X122076500Y-144651000D01*
X122076500Y-145351000D02*
X122076500Y-146651000D01*
X126276500Y-152351000D02*
X126276500Y-141651000D01*
X126276500Y-141651000D02*
X122076500Y-141651000D01*
X122076500Y-152351000D02*
X126276500Y-152351000D01*
X125526500Y-143251000D02*
X125526500Y-142751000D01*
X125526500Y-142751000D02*
X125026500Y-142751000D01*
X125026500Y-142751000D02*
X125026500Y-143251000D01*
X125026500Y-143251000D02*
X125526500Y-143251000D01*
X125526500Y-145251000D02*
X125526500Y-144751000D01*
X125526500Y-144751000D02*
X125026500Y-144751000D01*
X125026500Y-144751000D02*
X125026500Y-145251000D01*
X125026500Y-145251000D02*
X125526500Y-145251000D01*
X126976500Y-140951000D02*
X122376500Y-140951000D01*
X122376500Y-140951000D02*
X122376500Y-139751000D01*
X121376500Y-139751000D02*
X125776500Y-139751000D01*
X126976500Y-154251000D02*
X126976500Y-140951000D01*
X126976500Y-140951000D02*
X125776500Y-139751000D01*
X126976500Y-153051000D02*
X122376500Y-153051000D01*
X122376500Y-153051000D02*
X122376500Y-154251000D01*
X121376500Y-154251000D02*
X126976500Y-154251000D01*
X121376500Y-154251000D02*
X121376500Y-139751000D01*
D10*
X126176500Y-142401000D02*
X126976500Y-143201000D01*
X125376500Y-142401000D02*
X126976500Y-144001000D01*
X124176500Y-142801000D02*
X126976500Y-145601000D01*
X124176500Y-146001000D02*
X125026500Y-146851000D01*
X124176500Y-145201000D02*
X126976500Y-148001000D01*
D13*
X126976500Y-145601000D02*
X126976500Y-142401000D01*
X126976500Y-142401000D02*
X124176500Y-142401000D01*
X124176500Y-142401000D02*
X124176500Y-151601000D01*
X124176500Y-151601000D02*
X126976500Y-151601000D01*
X122076500Y-147351000D02*
X122326500Y-147151000D01*
X122326500Y-147151000D02*
X122326500Y-146851000D01*
X122326500Y-146851000D02*
X122076500Y-146651000D01*
X122076500Y-147351000D02*
X122076500Y-148651000D01*
X125526500Y-147251000D02*
X125526500Y-146751000D01*
X125026500Y-147251000D02*
X125526500Y-147251000D01*
X125026500Y-146751000D02*
X125026500Y-147251000D01*
X125526500Y-146751000D02*
X125026500Y-146751000D01*
D10*
X124176500Y-144401000D02*
X126976500Y-147201000D01*
X125426500Y-147251000D02*
X126976500Y-148801000D01*
X125526500Y-148951000D02*
X126976500Y-150401000D01*
D13*
X122076500Y-149351000D02*
X122326500Y-149151000D01*
X122326500Y-148851000D02*
X122076500Y-148651000D01*
X122326500Y-149151000D02*
X122326500Y-148851000D01*
X122076500Y-149351000D02*
X122076500Y-150651000D01*
D10*
X124176500Y-146801000D02*
X126976500Y-149601000D01*
X124176500Y-148401000D02*
X126976500Y-151201000D01*
X125426500Y-151251000D02*
X125776500Y-151601000D01*
D13*
X125526500Y-149251000D02*
X125526500Y-148751000D01*
X125026500Y-148751000D02*
X125026500Y-149251000D01*
X125526500Y-148751000D02*
X125026500Y-148751000D01*
X125026500Y-149251000D02*
X125526500Y-149251000D01*
X122076500Y-151351000D02*
X122076500Y-152351000D01*
X122326500Y-151151000D02*
X122326500Y-150851000D01*
X122076500Y-151351000D02*
X122326500Y-151151000D01*
X122326500Y-150851000D02*
X122076500Y-150651000D01*
D10*
X124176500Y-147601000D02*
X125326500Y-148751000D01*
D13*
X125526500Y-151251000D02*
X125526500Y-150751000D01*
X125526500Y-150751000D02*
X125026500Y-150751000D01*
X125026500Y-150751000D02*
X125026500Y-151251000D01*
X125026500Y-151251000D02*
X125526500Y-151251000D01*
D10*
X124176500Y-149201000D02*
X126576500Y-151601000D01*
X124176500Y-150001000D02*
X125026500Y-150851000D01*
X124176500Y-150801000D02*
X124976500Y-151601000D01*
D11*
X109722000Y-108638000D02*
X108792000Y-108638000D01*
X106562000Y-108638000D02*
X107492000Y-108638000D01*
X106562000Y-108638000D02*
X106562000Y-110798000D01*
X109722000Y-108638000D02*
X109722000Y-110098000D01*
X115680000Y-161857000D02*
X115680000Y-162857000D01*
X114320000Y-162857000D02*
X114320000Y-161857000D01*
X118167000Y-151988000D02*
X117167000Y-151988000D01*
X117167000Y-150628000D02*
X118167000Y-150628000D01*
X118167000Y-150591000D02*
X117167000Y-150591000D01*
X117167000Y-149231000D02*
X118167000Y-149231000D01*
X109027000Y-106051000D02*
X110027000Y-106051000D01*
X110027000Y-107411000D02*
X109027000Y-107411000D01*
X111044500Y-126551000D02*
X111044500Y-127551000D01*
X109684500Y-127551000D02*
X109684500Y-126551000D01*
D13*
X113373000Y-153891999D02*
G75*
G03X113373000Y-153891999I-1000000J0D01*
G01*
X114873000Y-142921999D02*
X114873000Y-156391999D01*
X114873000Y-156391999D02*
X101403000Y-156391999D01*
X101403000Y-156391999D02*
X101403000Y-142921999D01*
X101403000Y-142921999D02*
X114873000Y-142921999D01*
D11*
X109684500Y-134282000D02*
X109684500Y-133282000D01*
X111044500Y-133282000D02*
X111044500Y-134282000D01*
D10*
X119353000Y-121475000D02*
X106053000Y-121475000D01*
X119353000Y-115425000D02*
X119353000Y-121475000D01*
X110903000Y-115425000D02*
X119353000Y-115425000D01*
X110903000Y-111725000D02*
X110903000Y-115425000D01*
X106053000Y-111725000D02*
X110903000Y-111725000D01*
X106053000Y-121475000D02*
X106053000Y-111725000D01*
X119353000Y-122025000D02*
X107053000Y-122025000D01*
X119853000Y-121525000D02*
X119853000Y-118025000D01*
X105553000Y-120525000D02*
G75*
G03X107053000Y-122025000I1500000J0D01*
G01*
X105553000Y-120525000D02*
X105553000Y-118025000D01*
X119353000Y-122025000D02*
G75*
G03X119853000Y-121525000I0J500000D01*
G01*
X104553000Y-117025000D02*
X102853000Y-117025000D01*
X123053000Y-117025000D02*
X120853000Y-117025000D01*
X124553000Y-115525000D02*
X124553000Y-111025000D01*
X102853000Y-109525000D02*
X104553000Y-109525000D01*
X120853000Y-109525000D02*
X123053000Y-109525000D01*
X124553000Y-111025000D02*
G75*
G03X123053000Y-109525000I-1500000J0D01*
G01*
X119853000Y-105725000D02*
X119853000Y-108525000D01*
X105553000Y-105725000D02*
X119853000Y-105725000D01*
X105553000Y-108525000D02*
X105553000Y-105725000D01*
X104553000Y-109525000D02*
G75*
G03X105553000Y-108525000I0J1000000D01*
G01*
X113303000Y-109525000D02*
X113903000Y-109525000D01*
X113603000Y-109825000D02*
X113603000Y-109225000D01*
X110303000Y-110715000D02*
X111403000Y-110715000D01*
X110303000Y-108335000D02*
X111403000Y-108335000D01*
X110303000Y-110715000D02*
X110303000Y-108335000D01*
X116903000Y-110715000D02*
X116903000Y-108335000D01*
X116903000Y-110715000D02*
X115803000Y-110715000D01*
X116903000Y-108335000D02*
X115803000Y-108335000D01*
X119853000Y-108525000D02*
G75*
G03X120853000Y-109525000I1000000J0D01*
G01*
X102853000Y-109525000D02*
G75*
G03X101353000Y-111025000I0J-1500000D01*
G01*
X123053000Y-117025000D02*
G75*
G03X124553000Y-115525000I0J1500000D01*
G01*
X101353000Y-115525000D02*
X101353000Y-111025000D01*
X101353000Y-115525000D02*
G75*
G03X102853000Y-117025000I1500000J0D01*
G01*
X105553000Y-118025000D02*
G75*
G03X104553000Y-117025000I-1000000J0D01*
G01*
X120853000Y-117025000D02*
G75*
G03X119853000Y-118025000I0J-1000000D01*
G01*
D13*
X122430500Y-163779000D02*
X122230500Y-163529000D01*
X122230500Y-163529000D02*
X121930500Y-163529000D01*
X121930500Y-163529000D02*
X121730500Y-163779000D01*
X124430500Y-163779000D02*
X124230500Y-163529000D01*
X124230500Y-163529000D02*
X123930500Y-163529000D01*
X123930500Y-163529000D02*
X123730500Y-163779000D01*
X120730500Y-163779000D02*
X121730500Y-163779000D01*
X122430500Y-163779000D02*
X123730500Y-163779000D01*
X124430500Y-163779000D02*
X125430500Y-163779000D01*
X125430500Y-159579000D02*
X120730500Y-159579000D01*
X120730500Y-159579000D02*
X120730500Y-163779000D01*
X125430500Y-163779000D02*
X125430500Y-159579000D01*
X120080500Y-159179000D02*
X120080500Y-164179000D01*
X126080500Y-159179000D02*
X120080500Y-159179000D01*
X126080500Y-159179000D02*
X126080500Y-164179000D01*
X126080500Y-164179000D02*
X120080500Y-164179000D01*
X121603000Y-100864000D02*
X121803000Y-101114000D01*
X121803000Y-101114000D02*
X122103000Y-101114000D01*
X122103000Y-101114000D02*
X122303000Y-100864000D01*
X119603000Y-100864000D02*
X119803000Y-101114000D01*
X119803000Y-101114000D02*
X120103000Y-101114000D01*
X120103000Y-101114000D02*
X120303000Y-100864000D01*
X123303000Y-100864000D02*
X122303000Y-100864000D01*
X121603000Y-100864000D02*
X120303000Y-100864000D01*
X113603000Y-100864000D02*
X112603000Y-100864000D01*
X112603000Y-105064000D02*
X123303000Y-105064000D01*
X123303000Y-105064000D02*
X123303000Y-100864000D01*
X112603000Y-100864000D02*
X112603000Y-105064000D01*
X123953000Y-105464000D02*
X123953000Y-100464000D01*
X111953000Y-105464000D02*
X123953000Y-105464000D01*
X111953000Y-105464000D02*
X111953000Y-100464000D01*
X111953000Y-100464000D02*
X123953000Y-100464000D01*
X117603000Y-100864000D02*
X117803000Y-101114000D01*
X117803000Y-101114000D02*
X118103000Y-101114000D01*
X119603000Y-100864000D02*
X118303000Y-100864000D01*
X118103000Y-101114000D02*
X118303000Y-100864000D01*
X117603000Y-100864000D02*
X116303000Y-100864000D01*
X116103000Y-101114000D02*
X116303000Y-100864000D01*
X115803000Y-101114000D02*
X116103000Y-101114000D01*
X115603000Y-100864000D02*
X115803000Y-101114000D01*
X113803000Y-101114000D02*
X114103000Y-101114000D01*
X113603000Y-100864000D02*
X113803000Y-101114000D01*
X114103000Y-101114000D02*
X114303000Y-100864000D01*
X115603000Y-100864000D02*
X114303000Y-100864000D01*
D14*
G36*
X103816310Y-161228137D02*
X103862245Y-161228477D01*
X103900513Y-161228982D01*
X103929903Y-161229638D01*
X103949202Y-161230432D01*
X103957199Y-161231353D01*
X103957350Y-161231505D01*
X103956131Y-161238324D01*
X103952593Y-161256702D01*
X103946914Y-161285744D01*
X103939270Y-161324557D01*
X103929839Y-161372247D01*
X103918797Y-161427920D01*
X103906323Y-161490682D01*
X103892594Y-161559640D01*
X103877786Y-161633899D01*
X103862077Y-161712567D01*
X103846422Y-161790861D01*
X103824566Y-161899724D01*
X103804984Y-161996442D01*
X103787605Y-162081347D01*
X103772358Y-162154774D01*
X103759171Y-162217059D01*
X103747971Y-162268535D01*
X103738687Y-162309538D01*
X103731247Y-162340402D01*
X103725579Y-162361462D01*
X103721612Y-162373051D01*
X103721260Y-162373794D01*
X103700403Y-162404938D01*
X103671139Y-162434568D01*
X103637551Y-162458850D01*
X103621915Y-162467103D01*
X103614024Y-162470548D01*
X103605827Y-162473376D01*
X103596020Y-162475660D01*
X103583299Y-162477471D01*
X103566359Y-162478881D01*
X103543896Y-162479962D01*
X103514606Y-162480786D01*
X103477185Y-162481425D01*
X103430329Y-162481951D01*
X103372733Y-162482436D01*
X103339297Y-162482687D01*
X103275978Y-162483130D01*
X103224218Y-162483404D01*
X103182876Y-162483468D01*
X103150810Y-162483277D01*
X103126881Y-162482788D01*
X103109947Y-162481957D01*
X103098867Y-162480740D01*
X103092502Y-162479096D01*
X103089709Y-162476978D01*
X103089348Y-162474345D01*
X103089622Y-162473162D01*
X103092528Y-162460951D01*
X103096684Y-162441124D01*
X103100100Y-162423675D01*
X103104494Y-162401380D01*
X103108408Y-162383010D01*
X103110466Y-162374537D01*
X103112037Y-162371705D01*
X103115776Y-162369382D01*
X103122873Y-162367508D01*
X103134519Y-162366021D01*
X103151905Y-162364858D01*
X103176223Y-162363959D01*
X103208663Y-162363262D01*
X103250416Y-162362705D01*
X103302673Y-162362226D01*
X103355805Y-162361837D01*
X103598003Y-162360175D01*
X103618624Y-162258575D01*
X103625594Y-162223855D01*
X103631595Y-162193239D01*
X103636191Y-162169008D01*
X103638948Y-162153443D01*
X103639547Y-162149037D01*
X103637039Y-162146933D01*
X103628696Y-162145209D01*
X103613548Y-162143835D01*
X103590629Y-162142778D01*
X103558971Y-162142008D01*
X103517606Y-162141492D01*
X103465567Y-162141200D01*
X103401886Y-162141100D01*
X103395375Y-162141100D01*
X103330567Y-162141015D01*
X103277492Y-162140742D01*
X103235180Y-162140249D01*
X103202664Y-162139503D01*
X103178977Y-162138475D01*
X103163150Y-162137131D01*
X103154217Y-162135441D01*
X103151210Y-162133373D01*
X103151197Y-162133162D01*
X103152471Y-162125774D01*
X103156062Y-162106943D01*
X103161769Y-162077676D01*
X103169393Y-162038979D01*
X103173380Y-162018862D01*
X103304772Y-162018862D01*
X103306485Y-162021259D01*
X103314259Y-162023153D01*
X103329197Y-162024594D01*
X103352404Y-162025630D01*
X103384983Y-162026310D01*
X103428036Y-162026684D01*
X103482667Y-162026799D01*
X103483595Y-162026800D01*
X103530150Y-162026741D01*
X103572293Y-162026574D01*
X103608436Y-162026315D01*
X103636987Y-162025980D01*
X103656358Y-162025583D01*
X103664960Y-162025140D01*
X103665250Y-162025041D01*
X103666459Y-162018664D01*
X103669937Y-162000983D01*
X103675453Y-161973145D01*
X103682779Y-161936298D01*
X103691687Y-161891590D01*
X103701948Y-161840168D01*
X103713333Y-161783181D01*
X103725614Y-161721776D01*
X103731925Y-161690250D01*
X103744576Y-161626970D01*
X103756442Y-161567443D01*
X103767293Y-161512831D01*
X103776901Y-161464298D01*
X103785036Y-161423004D01*
X103791469Y-161390113D01*
X103795970Y-161366785D01*
X103798311Y-161354184D01*
X103798600Y-161352283D01*
X103792516Y-161351012D01*
X103775332Y-161349861D01*
X103748647Y-161348877D01*
X103714059Y-161348101D01*
X103673167Y-161347579D01*
X103627572Y-161347355D01*
X103619135Y-161347350D01*
X103439670Y-161347350D01*
X103373637Y-161679137D01*
X103361017Y-161742429D01*
X103349084Y-161802058D01*
X103338076Y-161856845D01*
X103328232Y-161905611D01*
X103319791Y-161947175D01*
X103312993Y-161980359D01*
X103308076Y-162003984D01*
X103305279Y-162016870D01*
X103304772Y-162018862D01*
X103173380Y-162018862D01*
X103178733Y-161991856D01*
X103189591Y-161937315D01*
X103201766Y-161876362D01*
X103215058Y-161810001D01*
X103229268Y-161739239D01*
X103241684Y-161677550D01*
X103331875Y-161229875D01*
X103644612Y-161228227D01*
X103706282Y-161227999D01*
X103763918Y-161227973D01*
X103816310Y-161228137D01*
X103816310Y-161228137D01*
G37*
X103816310Y-161228137D02*
X103862245Y-161228477D01*
X103900513Y-161228982D01*
X103929903Y-161229638D01*
X103949202Y-161230432D01*
X103957199Y-161231353D01*
X103957350Y-161231505D01*
X103956131Y-161238324D01*
X103952593Y-161256702D01*
X103946914Y-161285744D01*
X103939270Y-161324557D01*
X103929839Y-161372247D01*
X103918797Y-161427920D01*
X103906323Y-161490682D01*
X103892594Y-161559640D01*
X103877786Y-161633899D01*
X103862077Y-161712567D01*
X103846422Y-161790861D01*
X103824566Y-161899724D01*
X103804984Y-161996442D01*
X103787605Y-162081347D01*
X103772358Y-162154774D01*
X103759171Y-162217059D01*
X103747971Y-162268535D01*
X103738687Y-162309538D01*
X103731247Y-162340402D01*
X103725579Y-162361462D01*
X103721612Y-162373051D01*
X103721260Y-162373794D01*
X103700403Y-162404938D01*
X103671139Y-162434568D01*
X103637551Y-162458850D01*
X103621915Y-162467103D01*
X103614024Y-162470548D01*
X103605827Y-162473376D01*
X103596020Y-162475660D01*
X103583299Y-162477471D01*
X103566359Y-162478881D01*
X103543896Y-162479962D01*
X103514606Y-162480786D01*
X103477185Y-162481425D01*
X103430329Y-162481951D01*
X103372733Y-162482436D01*
X103339297Y-162482687D01*
X103275978Y-162483130D01*
X103224218Y-162483404D01*
X103182876Y-162483468D01*
X103150810Y-162483277D01*
X103126881Y-162482788D01*
X103109947Y-162481957D01*
X103098867Y-162480740D01*
X103092502Y-162479096D01*
X103089709Y-162476978D01*
X103089348Y-162474345D01*
X103089622Y-162473162D01*
X103092528Y-162460951D01*
X103096684Y-162441124D01*
X103100100Y-162423675D01*
X103104494Y-162401380D01*
X103108408Y-162383010D01*
X103110466Y-162374537D01*
X103112037Y-162371705D01*
X103115776Y-162369382D01*
X103122873Y-162367508D01*
X103134519Y-162366021D01*
X103151905Y-162364858D01*
X103176223Y-162363959D01*
X103208663Y-162363262D01*
X103250416Y-162362705D01*
X103302673Y-162362226D01*
X103355805Y-162361837D01*
X103598003Y-162360175D01*
X103618624Y-162258575D01*
X103625594Y-162223855D01*
X103631595Y-162193239D01*
X103636191Y-162169008D01*
X103638948Y-162153443D01*
X103639547Y-162149037D01*
X103637039Y-162146933D01*
X103628696Y-162145209D01*
X103613548Y-162143835D01*
X103590629Y-162142778D01*
X103558971Y-162142008D01*
X103517606Y-162141492D01*
X103465567Y-162141200D01*
X103401886Y-162141100D01*
X103395375Y-162141100D01*
X103330567Y-162141015D01*
X103277492Y-162140742D01*
X103235180Y-162140249D01*
X103202664Y-162139503D01*
X103178977Y-162138475D01*
X103163150Y-162137131D01*
X103154217Y-162135441D01*
X103151210Y-162133373D01*
X103151197Y-162133162D01*
X103152471Y-162125774D01*
X103156062Y-162106943D01*
X103161769Y-162077676D01*
X103169393Y-162038979D01*
X103173380Y-162018862D01*
X103304772Y-162018862D01*
X103306485Y-162021259D01*
X103314259Y-162023153D01*
X103329197Y-162024594D01*
X103352404Y-162025630D01*
X103384983Y-162026310D01*
X103428036Y-162026684D01*
X103482667Y-162026799D01*
X103483595Y-162026800D01*
X103530150Y-162026741D01*
X103572293Y-162026574D01*
X103608436Y-162026315D01*
X103636987Y-162025980D01*
X103656358Y-162025583D01*
X103664960Y-162025140D01*
X103665250Y-162025041D01*
X103666459Y-162018664D01*
X103669937Y-162000983D01*
X103675453Y-161973145D01*
X103682779Y-161936298D01*
X103691687Y-161891590D01*
X103701948Y-161840168D01*
X103713333Y-161783181D01*
X103725614Y-161721776D01*
X103731925Y-161690250D01*
X103744576Y-161626970D01*
X103756442Y-161567443D01*
X103767293Y-161512831D01*
X103776901Y-161464298D01*
X103785036Y-161423004D01*
X103791469Y-161390113D01*
X103795970Y-161366785D01*
X103798311Y-161354184D01*
X103798600Y-161352283D01*
X103792516Y-161351012D01*
X103775332Y-161349861D01*
X103748647Y-161348877D01*
X103714059Y-161348101D01*
X103673167Y-161347579D01*
X103627572Y-161347355D01*
X103619135Y-161347350D01*
X103439670Y-161347350D01*
X103373637Y-161679137D01*
X103361017Y-161742429D01*
X103349084Y-161802058D01*
X103338076Y-161856845D01*
X103328232Y-161905611D01*
X103319791Y-161947175D01*
X103312993Y-161980359D01*
X103308076Y-162003984D01*
X103305279Y-162016870D01*
X103304772Y-162018862D01*
X103173380Y-162018862D01*
X103178733Y-161991856D01*
X103189591Y-161937315D01*
X103201766Y-161876362D01*
X103215058Y-161810001D01*
X103229268Y-161739239D01*
X103241684Y-161677550D01*
X103331875Y-161229875D01*
X103644612Y-161228227D01*
X103706282Y-161227999D01*
X103763918Y-161227973D01*
X103816310Y-161228137D01*
G36*
X104654510Y-161228137D02*
X104700445Y-161228477D01*
X104738713Y-161228982D01*
X104768103Y-161229638D01*
X104787402Y-161230432D01*
X104795399Y-161231353D01*
X104795550Y-161231505D01*
X104794331Y-161238324D01*
X104790793Y-161256702D01*
X104785114Y-161285744D01*
X104777470Y-161324557D01*
X104768039Y-161372247D01*
X104756997Y-161427920D01*
X104744523Y-161490682D01*
X104730794Y-161559640D01*
X104715986Y-161633899D01*
X104700277Y-161712567D01*
X104684622Y-161790861D01*
X104662766Y-161899724D01*
X104643184Y-161996442D01*
X104625805Y-162081347D01*
X104610558Y-162154774D01*
X104597371Y-162217059D01*
X104586171Y-162268535D01*
X104576887Y-162309538D01*
X104569447Y-162340402D01*
X104563779Y-162361462D01*
X104559812Y-162373051D01*
X104559460Y-162373794D01*
X104538603Y-162404938D01*
X104509339Y-162434568D01*
X104475751Y-162458850D01*
X104460115Y-162467103D01*
X104452224Y-162470548D01*
X104444027Y-162473376D01*
X104434220Y-162475660D01*
X104421499Y-162477471D01*
X104404559Y-162478881D01*
X104382096Y-162479962D01*
X104352806Y-162480786D01*
X104315385Y-162481425D01*
X104268529Y-162481951D01*
X104210933Y-162482436D01*
X104177497Y-162482687D01*
X104114178Y-162483130D01*
X104062418Y-162483404D01*
X104021076Y-162483468D01*
X103989010Y-162483277D01*
X103965081Y-162482788D01*
X103948147Y-162481957D01*
X103937067Y-162480740D01*
X103930702Y-162479096D01*
X103927909Y-162476978D01*
X103927548Y-162474345D01*
X103927822Y-162473162D01*
X103930728Y-162460951D01*
X103934884Y-162441124D01*
X103938300Y-162423675D01*
X103942694Y-162401380D01*
X103946608Y-162383010D01*
X103948666Y-162374537D01*
X103950237Y-162371705D01*
X103953976Y-162369382D01*
X103961073Y-162367508D01*
X103972719Y-162366021D01*
X103990105Y-162364858D01*
X104014423Y-162363959D01*
X104046863Y-162363262D01*
X104088616Y-162362705D01*
X104140873Y-162362226D01*
X104194005Y-162361837D01*
X104436203Y-162360175D01*
X104456824Y-162258575D01*
X104463794Y-162223855D01*
X104469795Y-162193239D01*
X104474391Y-162169008D01*
X104477148Y-162153443D01*
X104477747Y-162149037D01*
X104475239Y-162146933D01*
X104466896Y-162145209D01*
X104451748Y-162143835D01*
X104428829Y-162142778D01*
X104397171Y-162142008D01*
X104355806Y-162141492D01*
X104303767Y-162141200D01*
X104240086Y-162141100D01*
X104233575Y-162141100D01*
X104168767Y-162141015D01*
X104115692Y-162140742D01*
X104073380Y-162140249D01*
X104040864Y-162139503D01*
X104017177Y-162138475D01*
X104001350Y-162137131D01*
X103992417Y-162135441D01*
X103989410Y-162133373D01*
X103989397Y-162133162D01*
X103990671Y-162125774D01*
X103994262Y-162106943D01*
X103999969Y-162077676D01*
X104007593Y-162038979D01*
X104011580Y-162018862D01*
X104142972Y-162018862D01*
X104144685Y-162021259D01*
X104152459Y-162023153D01*
X104167397Y-162024594D01*
X104190604Y-162025630D01*
X104223183Y-162026310D01*
X104266236Y-162026684D01*
X104320867Y-162026799D01*
X104321795Y-162026800D01*
X104368350Y-162026741D01*
X104410493Y-162026574D01*
X104446636Y-162026315D01*
X104475187Y-162025980D01*
X104494558Y-162025583D01*
X104503160Y-162025140D01*
X104503450Y-162025041D01*
X104504659Y-162018664D01*
X104508137Y-162000983D01*
X104513653Y-161973145D01*
X104520979Y-161936298D01*
X104529887Y-161891590D01*
X104540148Y-161840168D01*
X104551533Y-161783181D01*
X104563814Y-161721776D01*
X104570125Y-161690250D01*
X104582776Y-161626970D01*
X104594642Y-161567443D01*
X104605493Y-161512831D01*
X104615101Y-161464298D01*
X104623236Y-161423004D01*
X104629669Y-161390113D01*
X104634170Y-161366785D01*
X104636511Y-161354184D01*
X104636800Y-161352283D01*
X104630716Y-161351012D01*
X104613532Y-161349861D01*
X104586847Y-161348877D01*
X104552259Y-161348101D01*
X104511367Y-161347579D01*
X104465772Y-161347355D01*
X104457335Y-161347350D01*
X104277870Y-161347350D01*
X104211837Y-161679137D01*
X104199217Y-161742429D01*
X104187284Y-161802058D01*
X104176276Y-161856845D01*
X104166432Y-161905611D01*
X104157991Y-161947175D01*
X104151193Y-161980359D01*
X104146276Y-162003984D01*
X104143479Y-162016870D01*
X104142972Y-162018862D01*
X104011580Y-162018862D01*
X104016933Y-161991856D01*
X104027791Y-161937315D01*
X104039966Y-161876362D01*
X104053258Y-161810001D01*
X104067468Y-161739239D01*
X104079884Y-161677550D01*
X104170075Y-161229875D01*
X104482812Y-161228227D01*
X104544482Y-161227999D01*
X104602118Y-161227973D01*
X104654510Y-161228137D01*
X104654510Y-161228137D01*
G37*
X104654510Y-161228137D02*
X104700445Y-161228477D01*
X104738713Y-161228982D01*
X104768103Y-161229638D01*
X104787402Y-161230432D01*
X104795399Y-161231353D01*
X104795550Y-161231505D01*
X104794331Y-161238324D01*
X104790793Y-161256702D01*
X104785114Y-161285744D01*
X104777470Y-161324557D01*
X104768039Y-161372247D01*
X104756997Y-161427920D01*
X104744523Y-161490682D01*
X104730794Y-161559640D01*
X104715986Y-161633899D01*
X104700277Y-161712567D01*
X104684622Y-161790861D01*
X104662766Y-161899724D01*
X104643184Y-161996442D01*
X104625805Y-162081347D01*
X104610558Y-162154774D01*
X104597371Y-162217059D01*
X104586171Y-162268535D01*
X104576887Y-162309538D01*
X104569447Y-162340402D01*
X104563779Y-162361462D01*
X104559812Y-162373051D01*
X104559460Y-162373794D01*
X104538603Y-162404938D01*
X104509339Y-162434568D01*
X104475751Y-162458850D01*
X104460115Y-162467103D01*
X104452224Y-162470548D01*
X104444027Y-162473376D01*
X104434220Y-162475660D01*
X104421499Y-162477471D01*
X104404559Y-162478881D01*
X104382096Y-162479962D01*
X104352806Y-162480786D01*
X104315385Y-162481425D01*
X104268529Y-162481951D01*
X104210933Y-162482436D01*
X104177497Y-162482687D01*
X104114178Y-162483130D01*
X104062418Y-162483404D01*
X104021076Y-162483468D01*
X103989010Y-162483277D01*
X103965081Y-162482788D01*
X103948147Y-162481957D01*
X103937067Y-162480740D01*
X103930702Y-162479096D01*
X103927909Y-162476978D01*
X103927548Y-162474345D01*
X103927822Y-162473162D01*
X103930728Y-162460951D01*
X103934884Y-162441124D01*
X103938300Y-162423675D01*
X103942694Y-162401380D01*
X103946608Y-162383010D01*
X103948666Y-162374537D01*
X103950237Y-162371705D01*
X103953976Y-162369382D01*
X103961073Y-162367508D01*
X103972719Y-162366021D01*
X103990105Y-162364858D01*
X104014423Y-162363959D01*
X104046863Y-162363262D01*
X104088616Y-162362705D01*
X104140873Y-162362226D01*
X104194005Y-162361837D01*
X104436203Y-162360175D01*
X104456824Y-162258575D01*
X104463794Y-162223855D01*
X104469795Y-162193239D01*
X104474391Y-162169008D01*
X104477148Y-162153443D01*
X104477747Y-162149037D01*
X104475239Y-162146933D01*
X104466896Y-162145209D01*
X104451748Y-162143835D01*
X104428829Y-162142778D01*
X104397171Y-162142008D01*
X104355806Y-162141492D01*
X104303767Y-162141200D01*
X104240086Y-162141100D01*
X104233575Y-162141100D01*
X104168767Y-162141015D01*
X104115692Y-162140742D01*
X104073380Y-162140249D01*
X104040864Y-162139503D01*
X104017177Y-162138475D01*
X104001350Y-162137131D01*
X103992417Y-162135441D01*
X103989410Y-162133373D01*
X103989397Y-162133162D01*
X103990671Y-162125774D01*
X103994262Y-162106943D01*
X103999969Y-162077676D01*
X104007593Y-162038979D01*
X104011580Y-162018862D01*
X104142972Y-162018862D01*
X104144685Y-162021259D01*
X104152459Y-162023153D01*
X104167397Y-162024594D01*
X104190604Y-162025630D01*
X104223183Y-162026310D01*
X104266236Y-162026684D01*
X104320867Y-162026799D01*
X104321795Y-162026800D01*
X104368350Y-162026741D01*
X104410493Y-162026574D01*
X104446636Y-162026315D01*
X104475187Y-162025980D01*
X104494558Y-162025583D01*
X104503160Y-162025140D01*
X104503450Y-162025041D01*
X104504659Y-162018664D01*
X104508137Y-162000983D01*
X104513653Y-161973145D01*
X104520979Y-161936298D01*
X104529887Y-161891590D01*
X104540148Y-161840168D01*
X104551533Y-161783181D01*
X104563814Y-161721776D01*
X104570125Y-161690250D01*
X104582776Y-161626970D01*
X104594642Y-161567443D01*
X104605493Y-161512831D01*
X104615101Y-161464298D01*
X104623236Y-161423004D01*
X104629669Y-161390113D01*
X104634170Y-161366785D01*
X104636511Y-161354184D01*
X104636800Y-161352283D01*
X104630716Y-161351012D01*
X104613532Y-161349861D01*
X104586847Y-161348877D01*
X104552259Y-161348101D01*
X104511367Y-161347579D01*
X104465772Y-161347355D01*
X104457335Y-161347350D01*
X104277870Y-161347350D01*
X104211837Y-161679137D01*
X104199217Y-161742429D01*
X104187284Y-161802058D01*
X104176276Y-161856845D01*
X104166432Y-161905611D01*
X104157991Y-161947175D01*
X104151193Y-161980359D01*
X104146276Y-162003984D01*
X104143479Y-162016870D01*
X104142972Y-162018862D01*
X104011580Y-162018862D01*
X104016933Y-161991856D01*
X104027791Y-161937315D01*
X104039966Y-161876362D01*
X104053258Y-161810001D01*
X104067468Y-161739239D01*
X104079884Y-161677550D01*
X104170075Y-161229875D01*
X104482812Y-161228227D01*
X104544482Y-161227999D01*
X104602118Y-161227973D01*
X104654510Y-161228137D01*
G36*
X101932475Y-160878454D02*
X101943928Y-160879893D01*
X101949282Y-160882828D01*
X101950733Y-160887567D01*
X101950750Y-160888450D01*
X101949528Y-160896247D01*
X101945981Y-160915588D01*
X101940288Y-160945566D01*
X101932625Y-160985275D01*
X101923171Y-161033808D01*
X101912103Y-161090258D01*
X101899599Y-161153719D01*
X101885837Y-161223283D01*
X101870994Y-161298043D01*
X101855249Y-161377094D01*
X101839625Y-161455300D01*
X101823207Y-161537410D01*
X101807521Y-161615965D01*
X101792744Y-161690070D01*
X101779054Y-161758833D01*
X101766626Y-161821362D01*
X101755638Y-161876763D01*
X101746268Y-161924144D01*
X101738692Y-161962611D01*
X101733088Y-161991271D01*
X101729632Y-162009233D01*
X101728500Y-162015584D01*
X101734618Y-162016678D01*
X101752050Y-162017686D01*
X101779407Y-162018580D01*
X101815304Y-162019331D01*
X101858352Y-162019912D01*
X101907165Y-162020293D01*
X101960355Y-162020448D01*
X101967052Y-162020450D01*
X102028418Y-162020479D01*
X102078255Y-162020604D01*
X102117734Y-162020881D01*
X102148025Y-162021363D01*
X102170300Y-162022108D01*
X102185728Y-162023169D01*
X102195482Y-162024602D01*
X102200732Y-162026463D01*
X102202649Y-162028807D01*
X102202440Y-162031562D01*
X102199584Y-162043610D01*
X102195464Y-162063314D01*
X102192049Y-162080775D01*
X102187651Y-162103086D01*
X102183726Y-162121489D01*
X102181659Y-162129987D01*
X102180281Y-162132537D01*
X102177022Y-162134666D01*
X102170825Y-162136411D01*
X102160632Y-162137810D01*
X102145388Y-162138902D01*
X102124034Y-162139723D01*
X102095514Y-162140312D01*
X102058771Y-162140706D01*
X102012747Y-162140943D01*
X101956386Y-162141061D01*
X101888630Y-162141098D01*
X101870947Y-162141100D01*
X101797648Y-162141035D01*
X101736176Y-162140826D01*
X101685659Y-162140450D01*
X101645223Y-162139884D01*
X101613997Y-162139107D01*
X101591107Y-162138095D01*
X101575681Y-162136826D01*
X101566846Y-162135278D01*
X101563731Y-162133427D01*
X101563701Y-162133162D01*
X101564970Y-162125949D01*
X101568579Y-162107135D01*
X101574359Y-162077566D01*
X101582142Y-162038091D01*
X101591760Y-161989557D01*
X101603042Y-161932812D01*
X101615821Y-161868704D01*
X101629928Y-161798080D01*
X101645194Y-161721788D01*
X101661451Y-161640677D01*
X101678529Y-161555593D01*
X101689113Y-161502925D01*
X101814225Y-160880625D01*
X101882487Y-160878822D01*
X101912727Y-160878200D01*
X101932475Y-160878454D01*
X101932475Y-160878454D01*
G37*
X101932475Y-160878454D02*
X101943928Y-160879893D01*
X101949282Y-160882828D01*
X101950733Y-160887567D01*
X101950750Y-160888450D01*
X101949528Y-160896247D01*
X101945981Y-160915588D01*
X101940288Y-160945566D01*
X101932625Y-160985275D01*
X101923171Y-161033808D01*
X101912103Y-161090258D01*
X101899599Y-161153719D01*
X101885837Y-161223283D01*
X101870994Y-161298043D01*
X101855249Y-161377094D01*
X101839625Y-161455300D01*
X101823207Y-161537410D01*
X101807521Y-161615965D01*
X101792744Y-161690070D01*
X101779054Y-161758833D01*
X101766626Y-161821362D01*
X101755638Y-161876763D01*
X101746268Y-161924144D01*
X101738692Y-161962611D01*
X101733088Y-161991271D01*
X101729632Y-162009233D01*
X101728500Y-162015584D01*
X101734618Y-162016678D01*
X101752050Y-162017686D01*
X101779407Y-162018580D01*
X101815304Y-162019331D01*
X101858352Y-162019912D01*
X101907165Y-162020293D01*
X101960355Y-162020448D01*
X101967052Y-162020450D01*
X102028418Y-162020479D01*
X102078255Y-162020604D01*
X102117734Y-162020881D01*
X102148025Y-162021363D01*
X102170300Y-162022108D01*
X102185728Y-162023169D01*
X102195482Y-162024602D01*
X102200732Y-162026463D01*
X102202649Y-162028807D01*
X102202440Y-162031562D01*
X102199584Y-162043610D01*
X102195464Y-162063314D01*
X102192049Y-162080775D01*
X102187651Y-162103086D01*
X102183726Y-162121489D01*
X102181659Y-162129987D01*
X102180281Y-162132537D01*
X102177022Y-162134666D01*
X102170825Y-162136411D01*
X102160632Y-162137810D01*
X102145388Y-162138902D01*
X102124034Y-162139723D01*
X102095514Y-162140312D01*
X102058771Y-162140706D01*
X102012747Y-162140943D01*
X101956386Y-162141061D01*
X101888630Y-162141098D01*
X101870947Y-162141100D01*
X101797648Y-162141035D01*
X101736176Y-162140826D01*
X101685659Y-162140450D01*
X101645223Y-162139884D01*
X101613997Y-162139107D01*
X101591107Y-162138095D01*
X101575681Y-162136826D01*
X101566846Y-162135278D01*
X101563731Y-162133427D01*
X101563701Y-162133162D01*
X101564970Y-162125949D01*
X101568579Y-162107135D01*
X101574359Y-162077566D01*
X101582142Y-162038091D01*
X101591760Y-161989557D01*
X101603042Y-161932812D01*
X101615821Y-161868704D01*
X101629928Y-161798080D01*
X101645194Y-161721788D01*
X101661451Y-161640677D01*
X101678529Y-161555593D01*
X101689113Y-161502925D01*
X101814225Y-160880625D01*
X101882487Y-160878822D01*
X101912727Y-160878200D01*
X101932475Y-160878454D01*
G36*
X103018876Y-161227674D02*
X103050859Y-161227984D01*
X103075179Y-161228532D01*
X103092842Y-161229349D01*
X103104855Y-161230465D01*
X103112225Y-161231908D01*
X103115959Y-161233709D01*
X103117066Y-161235897D01*
X103116793Y-161237754D01*
X103115002Y-161245858D01*
X103110979Y-161265298D01*
X103104949Y-161294950D01*
X103097138Y-161333690D01*
X103087771Y-161380395D01*
X103077074Y-161433941D01*
X103065271Y-161493203D01*
X103052589Y-161557058D01*
X103040040Y-161620400D01*
X103022291Y-161709499D01*
X103006676Y-161786567D01*
X102993093Y-161852070D01*
X102981440Y-161906477D01*
X102971612Y-161950258D01*
X102963507Y-161983880D01*
X102957022Y-162007811D01*
X102952054Y-162022522D01*
X102951170Y-162024533D01*
X102926598Y-162066040D01*
X102895517Y-162098212D01*
X102863999Y-162119215D01*
X102830225Y-162137925D01*
X102558762Y-162139769D01*
X102490849Y-162140164D01*
X102434659Y-162140328D01*
X102389217Y-162140238D01*
X102353548Y-162139870D01*
X102326676Y-162139202D01*
X102307626Y-162138212D01*
X102295422Y-162136876D01*
X102289091Y-162135171D01*
X102287597Y-162133419D01*
X102288871Y-162125988D01*
X102292463Y-162107115D01*
X102298170Y-162077807D01*
X102305795Y-162039071D01*
X102311684Y-162009337D01*
X102439698Y-162009337D01*
X102440426Y-162012461D01*
X102443480Y-162014939D01*
X102450165Y-162016847D01*
X102461790Y-162018259D01*
X102479659Y-162019247D01*
X102505079Y-162019886D01*
X102539357Y-162020251D01*
X102583798Y-162020414D01*
X102636099Y-162020450D01*
X102832499Y-162020450D01*
X102839394Y-161987112D01*
X102842003Y-161974205D01*
X102846789Y-161950223D01*
X102853479Y-161916553D01*
X102861797Y-161874582D01*
X102871468Y-161825697D01*
X102882219Y-161771284D01*
X102893775Y-161712730D01*
X102905404Y-161653737D01*
X102964519Y-161353700D01*
X102568581Y-161353700D01*
X102504138Y-161675962D01*
X102491688Y-161738432D01*
X102480030Y-161797334D01*
X102469398Y-161851457D01*
X102460027Y-161899588D01*
X102452150Y-161940515D01*
X102446002Y-161973026D01*
X102441818Y-161995910D01*
X102439831Y-162007953D01*
X102439698Y-162009337D01*
X102311684Y-162009337D01*
X102315136Y-161991914D01*
X102325995Y-161937341D01*
X102338171Y-161876361D01*
X102351465Y-161809979D01*
X102365676Y-161739202D01*
X102378084Y-161677550D01*
X102468275Y-161229875D01*
X102794158Y-161228229D01*
X102866869Y-161227881D01*
X102927888Y-161227652D01*
X102978221Y-161227574D01*
X103018876Y-161227674D01*
X103018876Y-161227674D01*
G37*
X103018876Y-161227674D02*
X103050859Y-161227984D01*
X103075179Y-161228532D01*
X103092842Y-161229349D01*
X103104855Y-161230465D01*
X103112225Y-161231908D01*
X103115959Y-161233709D01*
X103117066Y-161235897D01*
X103116793Y-161237754D01*
X103115002Y-161245858D01*
X103110979Y-161265298D01*
X103104949Y-161294950D01*
X103097138Y-161333690D01*
X103087771Y-161380395D01*
X103077074Y-161433941D01*
X103065271Y-161493203D01*
X103052589Y-161557058D01*
X103040040Y-161620400D01*
X103022291Y-161709499D01*
X103006676Y-161786567D01*
X102993093Y-161852070D01*
X102981440Y-161906477D01*
X102971612Y-161950258D01*
X102963507Y-161983880D01*
X102957022Y-162007811D01*
X102952054Y-162022522D01*
X102951170Y-162024533D01*
X102926598Y-162066040D01*
X102895517Y-162098212D01*
X102863999Y-162119215D01*
X102830225Y-162137925D01*
X102558762Y-162139769D01*
X102490849Y-162140164D01*
X102434659Y-162140328D01*
X102389217Y-162140238D01*
X102353548Y-162139870D01*
X102326676Y-162139202D01*
X102307626Y-162138212D01*
X102295422Y-162136876D01*
X102289091Y-162135171D01*
X102287597Y-162133419D01*
X102288871Y-162125988D01*
X102292463Y-162107115D01*
X102298170Y-162077807D01*
X102305795Y-162039071D01*
X102311684Y-162009337D01*
X102439698Y-162009337D01*
X102440426Y-162012461D01*
X102443480Y-162014939D01*
X102450165Y-162016847D01*
X102461790Y-162018259D01*
X102479659Y-162019247D01*
X102505079Y-162019886D01*
X102539357Y-162020251D01*
X102583798Y-162020414D01*
X102636099Y-162020450D01*
X102832499Y-162020450D01*
X102839394Y-161987112D01*
X102842003Y-161974205D01*
X102846789Y-161950223D01*
X102853479Y-161916553D01*
X102861797Y-161874582D01*
X102871468Y-161825697D01*
X102882219Y-161771284D01*
X102893775Y-161712730D01*
X102905404Y-161653737D01*
X102964519Y-161353700D01*
X102568581Y-161353700D01*
X102504138Y-161675962D01*
X102491688Y-161738432D01*
X102480030Y-161797334D01*
X102469398Y-161851457D01*
X102460027Y-161899588D01*
X102452150Y-161940515D01*
X102446002Y-161973026D01*
X102441818Y-161995910D01*
X102439831Y-162007953D01*
X102439698Y-162009337D01*
X102311684Y-162009337D01*
X102315136Y-161991914D01*
X102325995Y-161937341D01*
X102338171Y-161876361D01*
X102351465Y-161809979D01*
X102365676Y-161739202D01*
X102378084Y-161677550D01*
X102468275Y-161229875D01*
X102794158Y-161228229D01*
X102866869Y-161227881D01*
X102927888Y-161227652D01*
X102978221Y-161227574D01*
X103018876Y-161227674D01*
G36*
X105625352Y-161240926D02*
X105623327Y-161250518D01*
X105619212Y-161270960D01*
X105613325Y-161300637D01*
X105605986Y-161337929D01*
X105597513Y-161381219D01*
X105588226Y-161428889D01*
X105583097Y-161455300D01*
X105573529Y-161504443D01*
X105564613Y-161549894D01*
X105556665Y-161590067D01*
X105550000Y-161623378D01*
X105544936Y-161648244D01*
X105541787Y-161663078D01*
X105540994Y-161666362D01*
X105539379Y-161669195D01*
X105535599Y-161671517D01*
X105528462Y-161673391D01*
X105516776Y-161674879D01*
X105499350Y-161676042D01*
X105474992Y-161676941D01*
X105442510Y-161677638D01*
X105400712Y-161678196D01*
X105348407Y-161678675D01*
X105295504Y-161679062D01*
X105053317Y-161680725D01*
X105019989Y-161845825D01*
X105011078Y-161890203D01*
X105003043Y-161930669D01*
X104996218Y-161965500D01*
X104990938Y-161992972D01*
X104987539Y-162011363D01*
X104986356Y-162018862D01*
X104988862Y-162020966D01*
X104997204Y-162022689D01*
X105012348Y-162024063D01*
X105035263Y-162025120D01*
X105066916Y-162025890D01*
X105108274Y-162026406D01*
X105160304Y-162026698D01*
X105223974Y-162026799D01*
X105230645Y-162026800D01*
X105475241Y-162026800D01*
X105471868Y-162041087D01*
X105468890Y-162054707D01*
X105464513Y-162075872D01*
X105460349Y-162096650D01*
X105452205Y-162137925D01*
X105198490Y-162139271D01*
X105134788Y-162139580D01*
X105082516Y-162139733D01*
X105040407Y-162139680D01*
X105007190Y-162139371D01*
X104981596Y-162138757D01*
X104962358Y-162137787D01*
X104948205Y-162136412D01*
X104937870Y-162134582D01*
X104930082Y-162132247D01*
X104923573Y-162129357D01*
X104921731Y-162128401D01*
X104891030Y-162105451D01*
X104868323Y-162074720D01*
X104855371Y-162039144D01*
X104853030Y-162014100D01*
X104854307Y-162005181D01*
X104857897Y-161984937D01*
X104863585Y-161954487D01*
X104871151Y-161914950D01*
X104880379Y-161867445D01*
X104891051Y-161813093D01*
X104902949Y-161753013D01*
X104915855Y-161688323D01*
X104929553Y-161620144D01*
X104930782Y-161614050D01*
X104944031Y-161548365D01*
X105081300Y-161548365D01*
X105083404Y-161550967D01*
X105090547Y-161553007D01*
X105103970Y-161554544D01*
X105124915Y-161555641D01*
X105154625Y-161556358D01*
X105194341Y-161556756D01*
X105245306Y-161556897D01*
X105255013Y-161556900D01*
X105428726Y-161556900D01*
X105448692Y-161456887D01*
X105455454Y-161422733D01*
X105461235Y-161392989D01*
X105465614Y-161369868D01*
X105468170Y-161355583D01*
X105468654Y-161352112D01*
X105462573Y-161350868D01*
X105445413Y-161349746D01*
X105418797Y-161348788D01*
X105384343Y-161348041D01*
X105343675Y-161347547D01*
X105298413Y-161347351D01*
X105294025Y-161347350D01*
X105248417Y-161347426D01*
X105207253Y-161347640D01*
X105172154Y-161347973D01*
X105144740Y-161348404D01*
X105126633Y-161348913D01*
X105119454Y-161349479D01*
X105119400Y-161349534D01*
X105118206Y-161356188D01*
X105114915Y-161373077D01*
X105109966Y-161397992D01*
X105103796Y-161428723D01*
X105100350Y-161445775D01*
X105093682Y-161479235D01*
X105088034Y-161508619D01*
X105083850Y-161531519D01*
X105081579Y-161545528D01*
X105081300Y-161548365D01*
X104944031Y-161548365D01*
X105008275Y-161229875D01*
X105318541Y-161228226D01*
X105628807Y-161226578D01*
X105625352Y-161240926D01*
X105625352Y-161240926D01*
G37*
X105625352Y-161240926D02*
X105623327Y-161250518D01*
X105619212Y-161270960D01*
X105613325Y-161300637D01*
X105605986Y-161337929D01*
X105597513Y-161381219D01*
X105588226Y-161428889D01*
X105583097Y-161455300D01*
X105573529Y-161504443D01*
X105564613Y-161549894D01*
X105556665Y-161590067D01*
X105550000Y-161623378D01*
X105544936Y-161648244D01*
X105541787Y-161663078D01*
X105540994Y-161666362D01*
X105539379Y-161669195D01*
X105535599Y-161671517D01*
X105528462Y-161673391D01*
X105516776Y-161674879D01*
X105499350Y-161676042D01*
X105474992Y-161676941D01*
X105442510Y-161677638D01*
X105400712Y-161678196D01*
X105348407Y-161678675D01*
X105295504Y-161679062D01*
X105053317Y-161680725D01*
X105019989Y-161845825D01*
X105011078Y-161890203D01*
X105003043Y-161930669D01*
X104996218Y-161965500D01*
X104990938Y-161992972D01*
X104987539Y-162011363D01*
X104986356Y-162018862D01*
X104988862Y-162020966D01*
X104997204Y-162022689D01*
X105012348Y-162024063D01*
X105035263Y-162025120D01*
X105066916Y-162025890D01*
X105108274Y-162026406D01*
X105160304Y-162026698D01*
X105223974Y-162026799D01*
X105230645Y-162026800D01*
X105475241Y-162026800D01*
X105471868Y-162041087D01*
X105468890Y-162054707D01*
X105464513Y-162075872D01*
X105460349Y-162096650D01*
X105452205Y-162137925D01*
X105198490Y-162139271D01*
X105134788Y-162139580D01*
X105082516Y-162139733D01*
X105040407Y-162139680D01*
X105007190Y-162139371D01*
X104981596Y-162138757D01*
X104962358Y-162137787D01*
X104948205Y-162136412D01*
X104937870Y-162134582D01*
X104930082Y-162132247D01*
X104923573Y-162129357D01*
X104921731Y-162128401D01*
X104891030Y-162105451D01*
X104868323Y-162074720D01*
X104855371Y-162039144D01*
X104853030Y-162014100D01*
X104854307Y-162005181D01*
X104857897Y-161984937D01*
X104863585Y-161954487D01*
X104871151Y-161914950D01*
X104880379Y-161867445D01*
X104891051Y-161813093D01*
X104902949Y-161753013D01*
X104915855Y-161688323D01*
X104929553Y-161620144D01*
X104930782Y-161614050D01*
X104944031Y-161548365D01*
X105081300Y-161548365D01*
X105083404Y-161550967D01*
X105090547Y-161553007D01*
X105103970Y-161554544D01*
X105124915Y-161555641D01*
X105154625Y-161556358D01*
X105194341Y-161556756D01*
X105245306Y-161556897D01*
X105255013Y-161556900D01*
X105428726Y-161556900D01*
X105448692Y-161456887D01*
X105455454Y-161422733D01*
X105461235Y-161392989D01*
X105465614Y-161369868D01*
X105468170Y-161355583D01*
X105468654Y-161352112D01*
X105462573Y-161350868D01*
X105445413Y-161349746D01*
X105418797Y-161348788D01*
X105384343Y-161348041D01*
X105343675Y-161347547D01*
X105298413Y-161347351D01*
X105294025Y-161347350D01*
X105248417Y-161347426D01*
X105207253Y-161347640D01*
X105172154Y-161347973D01*
X105144740Y-161348404D01*
X105126633Y-161348913D01*
X105119454Y-161349479D01*
X105119400Y-161349534D01*
X105118206Y-161356188D01*
X105114915Y-161373077D01*
X105109966Y-161397992D01*
X105103796Y-161428723D01*
X105100350Y-161445775D01*
X105093682Y-161479235D01*
X105088034Y-161508619D01*
X105083850Y-161531519D01*
X105081579Y-161545528D01*
X105081300Y-161548365D01*
X104944031Y-161548365D01*
X105008275Y-161229875D01*
X105318541Y-161228226D01*
X105628807Y-161226578D01*
X105625352Y-161240926D01*
G36*
X106235198Y-161227824D02*
X106258027Y-161228381D01*
X106273960Y-161229291D01*
X106284159Y-161230601D01*
X106289785Y-161232356D01*
X106291997Y-161234603D01*
X106291958Y-161237388D01*
X106291864Y-161237736D01*
X106288995Y-161249829D01*
X106284864Y-161269567D01*
X106281450Y-161287025D01*
X106277051Y-161309336D01*
X106273126Y-161327739D01*
X106271059Y-161336237D01*
X106269288Y-161339545D01*
X106265141Y-161342127D01*
X106257202Y-161344071D01*
X106244056Y-161345466D01*
X106224288Y-161346402D01*
X106196483Y-161346968D01*
X106159226Y-161347253D01*
X106111102Y-161347346D01*
X106094627Y-161347350D01*
X105921361Y-161347350D01*
X105842359Y-161742637D01*
X105763357Y-162137925D01*
X105695378Y-162139727D01*
X105663752Y-162140201D01*
X105643077Y-162139521D01*
X105631643Y-162137524D01*
X105627738Y-162134052D01*
X105627697Y-162133377D01*
X105628971Y-162125953D01*
X105632562Y-162107087D01*
X105638270Y-162077786D01*
X105645895Y-162039056D01*
X105655236Y-161991904D01*
X105666095Y-161937337D01*
X105678270Y-161876361D01*
X105691564Y-161809982D01*
X105705775Y-161739208D01*
X105718184Y-161677550D01*
X105808375Y-161229875D01*
X106051714Y-161228211D01*
X106113732Y-161227814D01*
X106164212Y-161227587D01*
X106204313Y-161227575D01*
X106235198Y-161227824D01*
X106235198Y-161227824D01*
G37*
X106235198Y-161227824D02*
X106258027Y-161228381D01*
X106273960Y-161229291D01*
X106284159Y-161230601D01*
X106289785Y-161232356D01*
X106291997Y-161234603D01*
X106291958Y-161237388D01*
X106291864Y-161237736D01*
X106288995Y-161249829D01*
X106284864Y-161269567D01*
X106281450Y-161287025D01*
X106277051Y-161309336D01*
X106273126Y-161327739D01*
X106271059Y-161336237D01*
X106269288Y-161339545D01*
X106265141Y-161342127D01*
X106257202Y-161344071D01*
X106244056Y-161345466D01*
X106224288Y-161346402D01*
X106196483Y-161346968D01*
X106159226Y-161347253D01*
X106111102Y-161347346D01*
X106094627Y-161347350D01*
X105921361Y-161347350D01*
X105842359Y-161742637D01*
X105763357Y-162137925D01*
X105695378Y-162139727D01*
X105663752Y-162140201D01*
X105643077Y-162139521D01*
X105631643Y-162137524D01*
X105627738Y-162134052D01*
X105627697Y-162133377D01*
X105628971Y-162125953D01*
X105632562Y-162107087D01*
X105638270Y-162077786D01*
X105645895Y-162039056D01*
X105655236Y-161991904D01*
X105666095Y-161937337D01*
X105678270Y-161876361D01*
X105691564Y-161809982D01*
X105705775Y-161739208D01*
X105718184Y-161677550D01*
X105808375Y-161229875D01*
X106051714Y-161228211D01*
X106113732Y-161227814D01*
X106164212Y-161227587D01*
X106204313Y-161227575D01*
X106235198Y-161227824D01*
G36*
X102391589Y-159107170D02*
X102445570Y-159107416D01*
X102492430Y-159107797D01*
X102531059Y-159108304D01*
X102560344Y-159108929D01*
X102579176Y-159109662D01*
X102586442Y-159110493D01*
X102586463Y-159110512D01*
X102586178Y-159117588D01*
X102583491Y-159136156D01*
X102578582Y-159165275D01*
X102571630Y-159204003D01*
X102562816Y-159251397D01*
X102552320Y-159306515D01*
X102540320Y-159368415D01*
X102526998Y-159436156D01*
X102512532Y-159508794D01*
X102497103Y-159585388D01*
X102480890Y-159664995D01*
X102477391Y-159682062D01*
X102470549Y-159715400D01*
X102331299Y-159715400D01*
X102290786Y-159715634D01*
X102254909Y-159716291D01*
X102225486Y-159717299D01*
X102204331Y-159718589D01*
X102193259Y-159720089D01*
X102192050Y-159720800D01*
X102193427Y-159727862D01*
X102197382Y-159746122D01*
X102203648Y-159774399D01*
X102211962Y-159811514D01*
X102222056Y-159856286D01*
X102233665Y-159907537D01*
X102246525Y-159964084D01*
X102260369Y-160024749D01*
X102265075Y-160045325D01*
X102279171Y-160106977D01*
X102292372Y-160164812D01*
X102304412Y-160217662D01*
X102315028Y-160264359D01*
X102323953Y-160303737D01*
X102330924Y-160334628D01*
X102335675Y-160355866D01*
X102337942Y-160366284D01*
X102338100Y-160367151D01*
X102332167Y-160368064D01*
X102316028Y-160368537D01*
X102292168Y-160368540D01*
X102263984Y-160368064D01*
X102189868Y-160366275D01*
X102041822Y-159718575D01*
X101935961Y-159716833D01*
X101900875Y-159716355D01*
X101870665Y-159716133D01*
X101847421Y-159716166D01*
X101833232Y-159716454D01*
X101829791Y-159716833D01*
X101828517Y-159723208D01*
X101824976Y-159740870D01*
X101819400Y-159768655D01*
X101812022Y-159805399D01*
X101803078Y-159849939D01*
X101792799Y-159901110D01*
X101781421Y-159957749D01*
X101769177Y-160018691D01*
X101764408Y-160042425D01*
X101699335Y-160366275D01*
X101631367Y-160368077D01*
X101599745Y-160368551D01*
X101579074Y-160367871D01*
X101567643Y-160365874D01*
X101563741Y-160362401D01*
X101563701Y-160361727D01*
X101564970Y-160354484D01*
X101568579Y-160335639D01*
X101574360Y-160306041D01*
X101582144Y-160266538D01*
X101591762Y-160217977D01*
X101603045Y-160161207D01*
X101615825Y-160097077D01*
X101629932Y-160026434D01*
X101645199Y-159950126D01*
X101661457Y-159869001D01*
X101678536Y-159783909D01*
X101689113Y-159731275D01*
X101718222Y-159586485D01*
X101855500Y-159586485D01*
X101861625Y-159586904D01*
X101879102Y-159587291D01*
X101906583Y-159587636D01*
X101942720Y-159587929D01*
X101986164Y-159588160D01*
X102035567Y-159588319D01*
X102089582Y-159588394D01*
X102108025Y-159588400D01*
X102360551Y-159588400D01*
X102431371Y-159232800D01*
X102178360Y-159232800D01*
X102123075Y-159232846D01*
X102071958Y-159232978D01*
X102026358Y-159233186D01*
X101987620Y-159233460D01*
X101957091Y-159233788D01*
X101936119Y-159234162D01*
X101926050Y-159234571D01*
X101925350Y-159234714D01*
X101924150Y-159241187D01*
X101920762Y-159258511D01*
X101915504Y-159285086D01*
X101908693Y-159319312D01*
X101900648Y-159359590D01*
X101891685Y-159404319D01*
X101890425Y-159410600D01*
X101881362Y-159455806D01*
X101873175Y-159496776D01*
X101866179Y-159531911D01*
X101860694Y-159559610D01*
X101857035Y-159578274D01*
X101855522Y-159586303D01*
X101855500Y-159586485D01*
X101718222Y-159586485D01*
X101814225Y-159108975D01*
X102198032Y-159107337D01*
X102266709Y-159107122D01*
X102331598Y-159107069D01*
X102391589Y-159107170D01*
X102391589Y-159107170D01*
G37*
X102391589Y-159107170D02*
X102445570Y-159107416D01*
X102492430Y-159107797D01*
X102531059Y-159108304D01*
X102560344Y-159108929D01*
X102579176Y-159109662D01*
X102586442Y-159110493D01*
X102586463Y-159110512D01*
X102586178Y-159117588D01*
X102583491Y-159136156D01*
X102578582Y-159165275D01*
X102571630Y-159204003D01*
X102562816Y-159251397D01*
X102552320Y-159306515D01*
X102540320Y-159368415D01*
X102526998Y-159436156D01*
X102512532Y-159508794D01*
X102497103Y-159585388D01*
X102480890Y-159664995D01*
X102477391Y-159682062D01*
X102470549Y-159715400D01*
X102331299Y-159715400D01*
X102290786Y-159715634D01*
X102254909Y-159716291D01*
X102225486Y-159717299D01*
X102204331Y-159718589D01*
X102193259Y-159720089D01*
X102192050Y-159720800D01*
X102193427Y-159727862D01*
X102197382Y-159746122D01*
X102203648Y-159774399D01*
X102211962Y-159811514D01*
X102222056Y-159856286D01*
X102233665Y-159907537D01*
X102246525Y-159964084D01*
X102260369Y-160024749D01*
X102265075Y-160045325D01*
X102279171Y-160106977D01*
X102292372Y-160164812D01*
X102304412Y-160217662D01*
X102315028Y-160264359D01*
X102323953Y-160303737D01*
X102330924Y-160334628D01*
X102335675Y-160355866D01*
X102337942Y-160366284D01*
X102338100Y-160367151D01*
X102332167Y-160368064D01*
X102316028Y-160368537D01*
X102292168Y-160368540D01*
X102263984Y-160368064D01*
X102189868Y-160366275D01*
X102041822Y-159718575D01*
X101935961Y-159716833D01*
X101900875Y-159716355D01*
X101870665Y-159716133D01*
X101847421Y-159716166D01*
X101833232Y-159716454D01*
X101829791Y-159716833D01*
X101828517Y-159723208D01*
X101824976Y-159740870D01*
X101819400Y-159768655D01*
X101812022Y-159805399D01*
X101803078Y-159849939D01*
X101792799Y-159901110D01*
X101781421Y-159957749D01*
X101769177Y-160018691D01*
X101764408Y-160042425D01*
X101699335Y-160366275D01*
X101631367Y-160368077D01*
X101599745Y-160368551D01*
X101579074Y-160367871D01*
X101567643Y-160365874D01*
X101563741Y-160362401D01*
X101563701Y-160361727D01*
X101564970Y-160354484D01*
X101568579Y-160335639D01*
X101574360Y-160306041D01*
X101582144Y-160266538D01*
X101591762Y-160217977D01*
X101603045Y-160161207D01*
X101615825Y-160097077D01*
X101629932Y-160026434D01*
X101645199Y-159950126D01*
X101661457Y-159869001D01*
X101678536Y-159783909D01*
X101689113Y-159731275D01*
X101718222Y-159586485D01*
X101855500Y-159586485D01*
X101861625Y-159586904D01*
X101879102Y-159587291D01*
X101906583Y-159587636D01*
X101942720Y-159587929D01*
X101986164Y-159588160D01*
X102035567Y-159588319D01*
X102089582Y-159588394D01*
X102108025Y-159588400D01*
X102360551Y-159588400D01*
X102431371Y-159232800D01*
X102178360Y-159232800D01*
X102123075Y-159232846D01*
X102071958Y-159232978D01*
X102026358Y-159233186D01*
X101987620Y-159233460D01*
X101957091Y-159233788D01*
X101936119Y-159234162D01*
X101926050Y-159234571D01*
X101925350Y-159234714D01*
X101924150Y-159241187D01*
X101920762Y-159258511D01*
X101915504Y-159285086D01*
X101908693Y-159319312D01*
X101900648Y-159359590D01*
X101891685Y-159404319D01*
X101890425Y-159410600D01*
X101881362Y-159455806D01*
X101873175Y-159496776D01*
X101866179Y-159531911D01*
X101860694Y-159559610D01*
X101857035Y-159578274D01*
X101855522Y-159586303D01*
X101855500Y-159586485D01*
X101718222Y-159586485D01*
X101814225Y-159108975D01*
X102198032Y-159107337D01*
X102266709Y-159107122D01*
X102331598Y-159107069D01*
X102391589Y-159107170D01*
G36*
X103285576Y-159456024D02*
X103317559Y-159456334D01*
X103341879Y-159456882D01*
X103359542Y-159457699D01*
X103371555Y-159458815D01*
X103378925Y-159460258D01*
X103382659Y-159462059D01*
X103383766Y-159464247D01*
X103383493Y-159466104D01*
X103381702Y-159474208D01*
X103377679Y-159493648D01*
X103371649Y-159523300D01*
X103363838Y-159562040D01*
X103354471Y-159608745D01*
X103343774Y-159662291D01*
X103331971Y-159721553D01*
X103319289Y-159785408D01*
X103306740Y-159848750D01*
X103288991Y-159937849D01*
X103273376Y-160014917D01*
X103259793Y-160080420D01*
X103248140Y-160134827D01*
X103238312Y-160178608D01*
X103230207Y-160212230D01*
X103223722Y-160236161D01*
X103218754Y-160250872D01*
X103217870Y-160252883D01*
X103193298Y-160294390D01*
X103162217Y-160326562D01*
X103130699Y-160347565D01*
X103096925Y-160366275D01*
X102825462Y-160368119D01*
X102757549Y-160368514D01*
X102701359Y-160368678D01*
X102655917Y-160368588D01*
X102620248Y-160368220D01*
X102593376Y-160367552D01*
X102574326Y-160366562D01*
X102562122Y-160365226D01*
X102555791Y-160363521D01*
X102554297Y-160361769D01*
X102555571Y-160354338D01*
X102559163Y-160335465D01*
X102564870Y-160306157D01*
X102572495Y-160267421D01*
X102578384Y-160237687D01*
X102706398Y-160237687D01*
X102707126Y-160240811D01*
X102710180Y-160243289D01*
X102716865Y-160245197D01*
X102728490Y-160246609D01*
X102746359Y-160247597D01*
X102771779Y-160248236D01*
X102806057Y-160248601D01*
X102850498Y-160248764D01*
X102902799Y-160248800D01*
X103099199Y-160248800D01*
X103106094Y-160215462D01*
X103108703Y-160202555D01*
X103113489Y-160178573D01*
X103120179Y-160144903D01*
X103128497Y-160102932D01*
X103138168Y-160054047D01*
X103148919Y-159999634D01*
X103160475Y-159941080D01*
X103172104Y-159882087D01*
X103231219Y-159582050D01*
X102835281Y-159582050D01*
X102770838Y-159904312D01*
X102758388Y-159966782D01*
X102746730Y-160025684D01*
X102736098Y-160079807D01*
X102726727Y-160127938D01*
X102718850Y-160168865D01*
X102712702Y-160201376D01*
X102708518Y-160224260D01*
X102706531Y-160236303D01*
X102706398Y-160237687D01*
X102578384Y-160237687D01*
X102581836Y-160220264D01*
X102592695Y-160165691D01*
X102604871Y-160104711D01*
X102618165Y-160038329D01*
X102632376Y-159967552D01*
X102644784Y-159905900D01*
X102734975Y-159458225D01*
X103060858Y-159456579D01*
X103133569Y-159456231D01*
X103194588Y-159456002D01*
X103244921Y-159455924D01*
X103285576Y-159456024D01*
X103285576Y-159456024D01*
G37*
X103285576Y-159456024D02*
X103317559Y-159456334D01*
X103341879Y-159456882D01*
X103359542Y-159457699D01*
X103371555Y-159458815D01*
X103378925Y-159460258D01*
X103382659Y-159462059D01*
X103383766Y-159464247D01*
X103383493Y-159466104D01*
X103381702Y-159474208D01*
X103377679Y-159493648D01*
X103371649Y-159523300D01*
X103363838Y-159562040D01*
X103354471Y-159608745D01*
X103343774Y-159662291D01*
X103331971Y-159721553D01*
X103319289Y-159785408D01*
X103306740Y-159848750D01*
X103288991Y-159937849D01*
X103273376Y-160014917D01*
X103259793Y-160080420D01*
X103248140Y-160134827D01*
X103238312Y-160178608D01*
X103230207Y-160212230D01*
X103223722Y-160236161D01*
X103218754Y-160250872D01*
X103217870Y-160252883D01*
X103193298Y-160294390D01*
X103162217Y-160326562D01*
X103130699Y-160347565D01*
X103096925Y-160366275D01*
X102825462Y-160368119D01*
X102757549Y-160368514D01*
X102701359Y-160368678D01*
X102655917Y-160368588D01*
X102620248Y-160368220D01*
X102593376Y-160367552D01*
X102574326Y-160366562D01*
X102562122Y-160365226D01*
X102555791Y-160363521D01*
X102554297Y-160361769D01*
X102555571Y-160354338D01*
X102559163Y-160335465D01*
X102564870Y-160306157D01*
X102572495Y-160267421D01*
X102578384Y-160237687D01*
X102706398Y-160237687D01*
X102707126Y-160240811D01*
X102710180Y-160243289D01*
X102716865Y-160245197D01*
X102728490Y-160246609D01*
X102746359Y-160247597D01*
X102771779Y-160248236D01*
X102806057Y-160248601D01*
X102850498Y-160248764D01*
X102902799Y-160248800D01*
X103099199Y-160248800D01*
X103106094Y-160215462D01*
X103108703Y-160202555D01*
X103113489Y-160178573D01*
X103120179Y-160144903D01*
X103128497Y-160102932D01*
X103138168Y-160054047D01*
X103148919Y-159999634D01*
X103160475Y-159941080D01*
X103172104Y-159882087D01*
X103231219Y-159582050D01*
X102835281Y-159582050D01*
X102770838Y-159904312D01*
X102758388Y-159966782D01*
X102746730Y-160025684D01*
X102736098Y-160079807D01*
X102726727Y-160127938D01*
X102718850Y-160168865D01*
X102712702Y-160201376D01*
X102708518Y-160224260D01*
X102706531Y-160236303D01*
X102706398Y-160237687D01*
X102578384Y-160237687D01*
X102581836Y-160220264D01*
X102592695Y-160165691D01*
X102604871Y-160104711D01*
X102618165Y-160038329D01*
X102632376Y-159967552D01*
X102644784Y-159905900D01*
X102734975Y-159458225D01*
X103060858Y-159456579D01*
X103133569Y-159456231D01*
X103194588Y-159456002D01*
X103244921Y-159455924D01*
X103285576Y-159456024D01*
G36*
X104209353Y-159481975D02*
X104205651Y-159504984D01*
X104200648Y-159531658D01*
X104198430Y-159542362D01*
X104191247Y-159575700D01*
X103711581Y-159575700D01*
X103646680Y-159901137D01*
X103634122Y-159964058D01*
X103622235Y-160023514D01*
X103611265Y-160078284D01*
X103601458Y-160127145D01*
X103593060Y-160168875D01*
X103586316Y-160202253D01*
X103581472Y-160226056D01*
X103578774Y-160239063D01*
X103578376Y-160240862D01*
X103574973Y-160255150D01*
X104054223Y-160255150D01*
X104050138Y-160280696D01*
X104046183Y-160303132D01*
X104041122Y-160329021D01*
X104039275Y-160337846D01*
X104032497Y-160369450D01*
X103786961Y-160369310D01*
X103724024Y-160369233D01*
X103672484Y-160369044D01*
X103631035Y-160368686D01*
X103598376Y-160368102D01*
X103573200Y-160367235D01*
X103554205Y-160366029D01*
X103540087Y-160364426D01*
X103529542Y-160362371D01*
X103521266Y-160359806D01*
X103515762Y-160357514D01*
X103484734Y-160336796D01*
X103461150Y-160307601D01*
X103446848Y-160272847D01*
X103443330Y-160242450D01*
X103444607Y-160233531D01*
X103448197Y-160213287D01*
X103453885Y-160182837D01*
X103461451Y-160143300D01*
X103470679Y-160095795D01*
X103481351Y-160041443D01*
X103493249Y-159981363D01*
X103506155Y-159916673D01*
X103519853Y-159848494D01*
X103521082Y-159842400D01*
X103598575Y-159458225D01*
X103905834Y-159456575D01*
X104213093Y-159454926D01*
X104209353Y-159481975D01*
X104209353Y-159481975D01*
G37*
X104209353Y-159481975D02*
X104205651Y-159504984D01*
X104200648Y-159531658D01*
X104198430Y-159542362D01*
X104191247Y-159575700D01*
X103711581Y-159575700D01*
X103646680Y-159901137D01*
X103634122Y-159964058D01*
X103622235Y-160023514D01*
X103611265Y-160078284D01*
X103601458Y-160127145D01*
X103593060Y-160168875D01*
X103586316Y-160202253D01*
X103581472Y-160226056D01*
X103578774Y-160239063D01*
X103578376Y-160240862D01*
X103574973Y-160255150D01*
X104054223Y-160255150D01*
X104050138Y-160280696D01*
X104046183Y-160303132D01*
X104041122Y-160329021D01*
X104039275Y-160337846D01*
X104032497Y-160369450D01*
X103786961Y-160369310D01*
X103724024Y-160369233D01*
X103672484Y-160369044D01*
X103631035Y-160368686D01*
X103598376Y-160368102D01*
X103573200Y-160367235D01*
X103554205Y-160366029D01*
X103540087Y-160364426D01*
X103529542Y-160362371D01*
X103521266Y-160359806D01*
X103515762Y-160357514D01*
X103484734Y-160336796D01*
X103461150Y-160307601D01*
X103446848Y-160272847D01*
X103443330Y-160242450D01*
X103444607Y-160233531D01*
X103448197Y-160213287D01*
X103453885Y-160182837D01*
X103461451Y-160143300D01*
X103470679Y-160095795D01*
X103481351Y-160041443D01*
X103493249Y-159981363D01*
X103506155Y-159916673D01*
X103519853Y-159848494D01*
X103521082Y-159842400D01*
X103598575Y-159458225D01*
X103905834Y-159456575D01*
X104213093Y-159454926D01*
X104209353Y-159481975D01*
G36*
X104551776Y-159137703D02*
X104574094Y-159138117D01*
X104588406Y-159138727D01*
X104592350Y-159139317D01*
X104591140Y-159145699D01*
X104587669Y-159163356D01*
X104582170Y-159191113D01*
X104574878Y-159227792D01*
X104566026Y-159272216D01*
X104555849Y-159323210D01*
X104544582Y-159379596D01*
X104532458Y-159440198D01*
X104528850Y-159458225D01*
X104516523Y-159519820D01*
X104504986Y-159577538D01*
X104494472Y-159630202D01*
X104485215Y-159676634D01*
X104477451Y-159715659D01*
X104471413Y-159746100D01*
X104467335Y-159766779D01*
X104465452Y-159776521D01*
X104465350Y-159777132D01*
X104471317Y-159777772D01*
X104487694Y-159778309D01*
X104512186Y-159778696D01*
X104542503Y-159778887D01*
X104552727Y-159778900D01*
X104640105Y-159778900D01*
X104765921Y-159616975D01*
X104891736Y-159455050D01*
X104967468Y-159455050D01*
X104996768Y-159455423D01*
X105020767Y-159456440D01*
X105037010Y-159457945D01*
X105043042Y-159459785D01*
X105043042Y-159459812D01*
X105039222Y-159465725D01*
X105028412Y-159480483D01*
X105011477Y-159502953D01*
X104989285Y-159532003D01*
X104962701Y-159566498D01*
X104932591Y-159605307D01*
X104899820Y-159647294D01*
X104897617Y-159650109D01*
X104752349Y-159835643D01*
X104767512Y-159894584D01*
X104772829Y-159915263D01*
X104780790Y-159946242D01*
X104790881Y-159985517D01*
X104802587Y-160031087D01*
X104815394Y-160080949D01*
X104828788Y-160133100D01*
X104836127Y-160161678D01*
X104889579Y-160369831D01*
X104736043Y-160366275D01*
X104677854Y-160137675D01*
X104619664Y-159909075D01*
X104529807Y-159907313D01*
X104497645Y-159906800D01*
X104470533Y-159906591D01*
X104450739Y-159906687D01*
X104440533Y-159907087D01*
X104439642Y-159907313D01*
X104438363Y-159913719D01*
X104434856Y-159931187D01*
X104429401Y-159958325D01*
X104422278Y-159993746D01*
X104413765Y-160036058D01*
X104404143Y-160083873D01*
X104393690Y-160135802D01*
X104393313Y-160137675D01*
X104347293Y-160366275D01*
X104278538Y-160368085D01*
X104209784Y-160369895D01*
X104213150Y-160352210D01*
X104214854Y-160343560D01*
X104218872Y-160323341D01*
X104225027Y-160292437D01*
X104233142Y-160251731D01*
X104243041Y-160202109D01*
X104254547Y-160144454D01*
X104267484Y-160079650D01*
X104281676Y-160008582D01*
X104296946Y-159932133D01*
X104313117Y-159851188D01*
X104330013Y-159766631D01*
X104336128Y-159736037D01*
X104455739Y-159137550D01*
X104524044Y-159137550D01*
X104551776Y-159137703D01*
X104551776Y-159137703D01*
G37*
X104551776Y-159137703D02*
X104574094Y-159138117D01*
X104588406Y-159138727D01*
X104592350Y-159139317D01*
X104591140Y-159145699D01*
X104587669Y-159163356D01*
X104582170Y-159191113D01*
X104574878Y-159227792D01*
X104566026Y-159272216D01*
X104555849Y-159323210D01*
X104544582Y-159379596D01*
X104532458Y-159440198D01*
X104528850Y-159458225D01*
X104516523Y-159519820D01*
X104504986Y-159577538D01*
X104494472Y-159630202D01*
X104485215Y-159676634D01*
X104477451Y-159715659D01*
X104471413Y-159746100D01*
X104467335Y-159766779D01*
X104465452Y-159776521D01*
X104465350Y-159777132D01*
X104471317Y-159777772D01*
X104487694Y-159778309D01*
X104512186Y-159778696D01*
X104542503Y-159778887D01*
X104552727Y-159778900D01*
X104640105Y-159778900D01*
X104765921Y-159616975D01*
X104891736Y-159455050D01*
X104967468Y-159455050D01*
X104996768Y-159455423D01*
X105020767Y-159456440D01*
X105037010Y-159457945D01*
X105043042Y-159459785D01*
X105043042Y-159459812D01*
X105039222Y-159465725D01*
X105028412Y-159480483D01*
X105011477Y-159502953D01*
X104989285Y-159532003D01*
X104962701Y-159566498D01*
X104932591Y-159605307D01*
X104899820Y-159647294D01*
X104897617Y-159650109D01*
X104752349Y-159835643D01*
X104767512Y-159894584D01*
X104772829Y-159915263D01*
X104780790Y-159946242D01*
X104790881Y-159985517D01*
X104802587Y-160031087D01*
X104815394Y-160080949D01*
X104828788Y-160133100D01*
X104836127Y-160161678D01*
X104889579Y-160369831D01*
X104736043Y-160366275D01*
X104677854Y-160137675D01*
X104619664Y-159909075D01*
X104529807Y-159907313D01*
X104497645Y-159906800D01*
X104470533Y-159906591D01*
X104450739Y-159906687D01*
X104440533Y-159907087D01*
X104439642Y-159907313D01*
X104438363Y-159913719D01*
X104434856Y-159931187D01*
X104429401Y-159958325D01*
X104422278Y-159993746D01*
X104413765Y-160036058D01*
X104404143Y-160083873D01*
X104393690Y-160135802D01*
X104393313Y-160137675D01*
X104347293Y-160366275D01*
X104278538Y-160368085D01*
X104209784Y-160369895D01*
X104213150Y-160352210D01*
X104214854Y-160343560D01*
X104218872Y-160323341D01*
X104225027Y-160292437D01*
X104233142Y-160251731D01*
X104243041Y-160202109D01*
X104254547Y-160144454D01*
X104267484Y-160079650D01*
X104281676Y-160008582D01*
X104296946Y-159932133D01*
X104313117Y-159851188D01*
X104330013Y-159766631D01*
X104336128Y-159736037D01*
X104455739Y-159137550D01*
X104524044Y-159137550D01*
X104551776Y-159137703D01*
G36*
X105796802Y-159469276D02*
X105794777Y-159478868D01*
X105790662Y-159499310D01*
X105784775Y-159528987D01*
X105777436Y-159566279D01*
X105768963Y-159609569D01*
X105759676Y-159657239D01*
X105754547Y-159683650D01*
X105744979Y-159732793D01*
X105736063Y-159778244D01*
X105728115Y-159818417D01*
X105721450Y-159851728D01*
X105716386Y-159876594D01*
X105713237Y-159891428D01*
X105712444Y-159894712D01*
X105710829Y-159897545D01*
X105707049Y-159899867D01*
X105699912Y-159901741D01*
X105688226Y-159903229D01*
X105670800Y-159904392D01*
X105646442Y-159905291D01*
X105613960Y-159905988D01*
X105572162Y-159906546D01*
X105519857Y-159907025D01*
X105466954Y-159907412D01*
X105224767Y-159909075D01*
X105191439Y-160074175D01*
X105182528Y-160118553D01*
X105174493Y-160159019D01*
X105167668Y-160193850D01*
X105162388Y-160221322D01*
X105158989Y-160239713D01*
X105157806Y-160247212D01*
X105160312Y-160249316D01*
X105168654Y-160251039D01*
X105183798Y-160252413D01*
X105206713Y-160253470D01*
X105238366Y-160254240D01*
X105279724Y-160254756D01*
X105331754Y-160255048D01*
X105395424Y-160255149D01*
X105402095Y-160255150D01*
X105646691Y-160255150D01*
X105643318Y-160269437D01*
X105640340Y-160283057D01*
X105635963Y-160304222D01*
X105631799Y-160325000D01*
X105623655Y-160366275D01*
X105369940Y-160367621D01*
X105306238Y-160367930D01*
X105253966Y-160368083D01*
X105211857Y-160368030D01*
X105178640Y-160367721D01*
X105153046Y-160367107D01*
X105133808Y-160366137D01*
X105119655Y-160364762D01*
X105109320Y-160362932D01*
X105101532Y-160360597D01*
X105095023Y-160357707D01*
X105093181Y-160356751D01*
X105062480Y-160333801D01*
X105039773Y-160303070D01*
X105026821Y-160267494D01*
X105024480Y-160242450D01*
X105025757Y-160233531D01*
X105029347Y-160213287D01*
X105035035Y-160182837D01*
X105042601Y-160143300D01*
X105051829Y-160095795D01*
X105062501Y-160041443D01*
X105074399Y-159981363D01*
X105087305Y-159916673D01*
X105101003Y-159848494D01*
X105102232Y-159842400D01*
X105115481Y-159776715D01*
X105252750Y-159776715D01*
X105254854Y-159779317D01*
X105261997Y-159781357D01*
X105275420Y-159782894D01*
X105296365Y-159783991D01*
X105326075Y-159784708D01*
X105365791Y-159785106D01*
X105416756Y-159785247D01*
X105426463Y-159785250D01*
X105600176Y-159785250D01*
X105620142Y-159685237D01*
X105626904Y-159651083D01*
X105632685Y-159621339D01*
X105637064Y-159598218D01*
X105639620Y-159583933D01*
X105640104Y-159580462D01*
X105634023Y-159579218D01*
X105616863Y-159578096D01*
X105590247Y-159577138D01*
X105555793Y-159576391D01*
X105515125Y-159575897D01*
X105469863Y-159575701D01*
X105465475Y-159575700D01*
X105419867Y-159575776D01*
X105378703Y-159575990D01*
X105343604Y-159576323D01*
X105316190Y-159576754D01*
X105298083Y-159577263D01*
X105290904Y-159577829D01*
X105290850Y-159577884D01*
X105289656Y-159584538D01*
X105286365Y-159601427D01*
X105281416Y-159626342D01*
X105275246Y-159657073D01*
X105271800Y-159674125D01*
X105265132Y-159707585D01*
X105259484Y-159736969D01*
X105255300Y-159759869D01*
X105253029Y-159773878D01*
X105252750Y-159776715D01*
X105115481Y-159776715D01*
X105179725Y-159458225D01*
X105489991Y-159456576D01*
X105800257Y-159454928D01*
X105796802Y-159469276D01*
X105796802Y-159469276D01*
G37*
X105796802Y-159469276D02*
X105794777Y-159478868D01*
X105790662Y-159499310D01*
X105784775Y-159528987D01*
X105777436Y-159566279D01*
X105768963Y-159609569D01*
X105759676Y-159657239D01*
X105754547Y-159683650D01*
X105744979Y-159732793D01*
X105736063Y-159778244D01*
X105728115Y-159818417D01*
X105721450Y-159851728D01*
X105716386Y-159876594D01*
X105713237Y-159891428D01*
X105712444Y-159894712D01*
X105710829Y-159897545D01*
X105707049Y-159899867D01*
X105699912Y-159901741D01*
X105688226Y-159903229D01*
X105670800Y-159904392D01*
X105646442Y-159905291D01*
X105613960Y-159905988D01*
X105572162Y-159906546D01*
X105519857Y-159907025D01*
X105466954Y-159907412D01*
X105224767Y-159909075D01*
X105191439Y-160074175D01*
X105182528Y-160118553D01*
X105174493Y-160159019D01*
X105167668Y-160193850D01*
X105162388Y-160221322D01*
X105158989Y-160239713D01*
X105157806Y-160247212D01*
X105160312Y-160249316D01*
X105168654Y-160251039D01*
X105183798Y-160252413D01*
X105206713Y-160253470D01*
X105238366Y-160254240D01*
X105279724Y-160254756D01*
X105331754Y-160255048D01*
X105395424Y-160255149D01*
X105402095Y-160255150D01*
X105646691Y-160255150D01*
X105643318Y-160269437D01*
X105640340Y-160283057D01*
X105635963Y-160304222D01*
X105631799Y-160325000D01*
X105623655Y-160366275D01*
X105369940Y-160367621D01*
X105306238Y-160367930D01*
X105253966Y-160368083D01*
X105211857Y-160368030D01*
X105178640Y-160367721D01*
X105153046Y-160367107D01*
X105133808Y-160366137D01*
X105119655Y-160364762D01*
X105109320Y-160362932D01*
X105101532Y-160360597D01*
X105095023Y-160357707D01*
X105093181Y-160356751D01*
X105062480Y-160333801D01*
X105039773Y-160303070D01*
X105026821Y-160267494D01*
X105024480Y-160242450D01*
X105025757Y-160233531D01*
X105029347Y-160213287D01*
X105035035Y-160182837D01*
X105042601Y-160143300D01*
X105051829Y-160095795D01*
X105062501Y-160041443D01*
X105074399Y-159981363D01*
X105087305Y-159916673D01*
X105101003Y-159848494D01*
X105102232Y-159842400D01*
X105115481Y-159776715D01*
X105252750Y-159776715D01*
X105254854Y-159779317D01*
X105261997Y-159781357D01*
X105275420Y-159782894D01*
X105296365Y-159783991D01*
X105326075Y-159784708D01*
X105365791Y-159785106D01*
X105416756Y-159785247D01*
X105426463Y-159785250D01*
X105600176Y-159785250D01*
X105620142Y-159685237D01*
X105626904Y-159651083D01*
X105632685Y-159621339D01*
X105637064Y-159598218D01*
X105639620Y-159583933D01*
X105640104Y-159580462D01*
X105634023Y-159579218D01*
X105616863Y-159578096D01*
X105590247Y-159577138D01*
X105555793Y-159576391D01*
X105515125Y-159575897D01*
X105469863Y-159575701D01*
X105465475Y-159575700D01*
X105419867Y-159575776D01*
X105378703Y-159575990D01*
X105343604Y-159576323D01*
X105316190Y-159576754D01*
X105298083Y-159577263D01*
X105290904Y-159577829D01*
X105290850Y-159577884D01*
X105289656Y-159584538D01*
X105286365Y-159601427D01*
X105281416Y-159626342D01*
X105275246Y-159657073D01*
X105271800Y-159674125D01*
X105265132Y-159707585D01*
X105259484Y-159736969D01*
X105255300Y-159759869D01*
X105253029Y-159773878D01*
X105252750Y-159776715D01*
X105115481Y-159776715D01*
X105179725Y-159458225D01*
X105489991Y-159456576D01*
X105800257Y-159454928D01*
X105796802Y-159469276D01*
G36*
X106173038Y-159137639D02*
X106192719Y-159138214D01*
X106203925Y-159139734D01*
X106208766Y-159142658D01*
X106209355Y-159147445D01*
X106208443Y-159151837D01*
X106206338Y-159161620D01*
X106202306Y-159181166D01*
X106196765Y-159208377D01*
X106190136Y-159241157D01*
X106182838Y-159277410D01*
X106175292Y-159315040D01*
X106167917Y-159351950D01*
X106161133Y-159386044D01*
X106155361Y-159415226D01*
X106151020Y-159437399D01*
X106148530Y-159450468D01*
X106148100Y-159453063D01*
X106154095Y-159453734D01*
X106170665Y-159454308D01*
X106195685Y-159454743D01*
X106227028Y-159454999D01*
X106249700Y-159455050D01*
X106283976Y-159455330D01*
X106313280Y-159456107D01*
X106335492Y-159457279D01*
X106348497Y-159458747D01*
X106351009Y-159459812D01*
X106349675Y-159467819D01*
X106346365Y-159485093D01*
X106341692Y-159508467D01*
X106339633Y-159518550D01*
X106328548Y-159572525D01*
X106225624Y-159574269D01*
X106191084Y-159574948D01*
X106161477Y-159575708D01*
X106138915Y-159576481D01*
X106125508Y-159577197D01*
X106122700Y-159577616D01*
X106121490Y-159583962D01*
X106118013Y-159601613D01*
X106112497Y-159629423D01*
X106105172Y-159666244D01*
X106096265Y-159710929D01*
X106086005Y-159762331D01*
X106074620Y-159819303D01*
X106062340Y-159880698D01*
X106056025Y-159912250D01*
X106043373Y-159975529D01*
X106031507Y-160035056D01*
X106020656Y-160089668D01*
X106011048Y-160138201D01*
X106002913Y-160179495D01*
X105996480Y-160212386D01*
X105991979Y-160235714D01*
X105989638Y-160248315D01*
X105989350Y-160250216D01*
X105995366Y-160251787D01*
X106012085Y-160253152D01*
X106037507Y-160254224D01*
X106069636Y-160254919D01*
X106104338Y-160255150D01*
X106219326Y-160255150D01*
X106215828Y-160269437D01*
X106212905Y-160282945D01*
X106208713Y-160304174D01*
X106204517Y-160326587D01*
X106196704Y-160369450D01*
X106072389Y-160369195D01*
X106027172Y-160368918D01*
X105992842Y-160368209D01*
X105967590Y-160366938D01*
X105949606Y-160364976D01*
X105937082Y-160362192D01*
X105929025Y-160358898D01*
X105896789Y-160335851D01*
X105872919Y-160306176D01*
X105859040Y-160272332D01*
X105856139Y-160248619D01*
X105857338Y-160238118D01*
X105860830Y-160216451D01*
X105866378Y-160184898D01*
X105873743Y-160144738D01*
X105882685Y-160097251D01*
X105892967Y-160043715D01*
X105904349Y-159985411D01*
X105916592Y-159923617D01*
X105919500Y-159909075D01*
X105931852Y-159847229D01*
X105943411Y-159789053D01*
X105953941Y-159735755D01*
X105963207Y-159688542D01*
X105970973Y-159648623D01*
X105977002Y-159617204D01*
X105981059Y-159595495D01*
X105982909Y-159584702D01*
X105983000Y-159583817D01*
X105978825Y-159579308D01*
X105965297Y-159576694D01*
X105940910Y-159575721D01*
X105935375Y-159575700D01*
X105908609Y-159574944D01*
X105893174Y-159572534D01*
X105887781Y-159568255D01*
X105887745Y-159567762D01*
X105888920Y-159558163D01*
X105892051Y-159539613D01*
X105896536Y-159515602D01*
X105898090Y-159507681D01*
X105908441Y-159455537D01*
X105959761Y-159453706D01*
X106011082Y-159451875D01*
X106042388Y-159294712D01*
X106073695Y-159137550D01*
X106142768Y-159137550D01*
X106173038Y-159137639D01*
X106173038Y-159137639D01*
G37*
X106173038Y-159137639D02*
X106192719Y-159138214D01*
X106203925Y-159139734D01*
X106208766Y-159142658D01*
X106209355Y-159147445D01*
X106208443Y-159151837D01*
X106206338Y-159161620D01*
X106202306Y-159181166D01*
X106196765Y-159208377D01*
X106190136Y-159241157D01*
X106182838Y-159277410D01*
X106175292Y-159315040D01*
X106167917Y-159351950D01*
X106161133Y-159386044D01*
X106155361Y-159415226D01*
X106151020Y-159437399D01*
X106148530Y-159450468D01*
X106148100Y-159453063D01*
X106154095Y-159453734D01*
X106170665Y-159454308D01*
X106195685Y-159454743D01*
X106227028Y-159454999D01*
X106249700Y-159455050D01*
X106283976Y-159455330D01*
X106313280Y-159456107D01*
X106335492Y-159457279D01*
X106348497Y-159458747D01*
X106351009Y-159459812D01*
X106349675Y-159467819D01*
X106346365Y-159485093D01*
X106341692Y-159508467D01*
X106339633Y-159518550D01*
X106328548Y-159572525D01*
X106225624Y-159574269D01*
X106191084Y-159574948D01*
X106161477Y-159575708D01*
X106138915Y-159576481D01*
X106125508Y-159577197D01*
X106122700Y-159577616D01*
X106121490Y-159583962D01*
X106118013Y-159601613D01*
X106112497Y-159629423D01*
X106105172Y-159666244D01*
X106096265Y-159710929D01*
X106086005Y-159762331D01*
X106074620Y-159819303D01*
X106062340Y-159880698D01*
X106056025Y-159912250D01*
X106043373Y-159975529D01*
X106031507Y-160035056D01*
X106020656Y-160089668D01*
X106011048Y-160138201D01*
X106002913Y-160179495D01*
X105996480Y-160212386D01*
X105991979Y-160235714D01*
X105989638Y-160248315D01*
X105989350Y-160250216D01*
X105995366Y-160251787D01*
X106012085Y-160253152D01*
X106037507Y-160254224D01*
X106069636Y-160254919D01*
X106104338Y-160255150D01*
X106219326Y-160255150D01*
X106215828Y-160269437D01*
X106212905Y-160282945D01*
X106208713Y-160304174D01*
X106204517Y-160326587D01*
X106196704Y-160369450D01*
X106072389Y-160369195D01*
X106027172Y-160368918D01*
X105992842Y-160368209D01*
X105967590Y-160366938D01*
X105949606Y-160364976D01*
X105937082Y-160362192D01*
X105929025Y-160358898D01*
X105896789Y-160335851D01*
X105872919Y-160306176D01*
X105859040Y-160272332D01*
X105856139Y-160248619D01*
X105857338Y-160238118D01*
X105860830Y-160216451D01*
X105866378Y-160184898D01*
X105873743Y-160144738D01*
X105882685Y-160097251D01*
X105892967Y-160043715D01*
X105904349Y-159985411D01*
X105916592Y-159923617D01*
X105919500Y-159909075D01*
X105931852Y-159847229D01*
X105943411Y-159789053D01*
X105953941Y-159735755D01*
X105963207Y-159688542D01*
X105970973Y-159648623D01*
X105977002Y-159617204D01*
X105981059Y-159595495D01*
X105982909Y-159584702D01*
X105983000Y-159583817D01*
X105978825Y-159579308D01*
X105965297Y-159576694D01*
X105940910Y-159575721D01*
X105935375Y-159575700D01*
X105908609Y-159574944D01*
X105893174Y-159572534D01*
X105887781Y-159568255D01*
X105887745Y-159567762D01*
X105888920Y-159558163D01*
X105892051Y-159539613D01*
X105896536Y-159515602D01*
X105898090Y-159507681D01*
X105908441Y-159455537D01*
X105959761Y-159453706D01*
X106011082Y-159451875D01*
X106042388Y-159294712D01*
X106073695Y-159137550D01*
X106142768Y-159137550D01*
X106173038Y-159137639D01*
G36*
X102414918Y-157335607D02*
X102469216Y-157336013D01*
X102513337Y-157336625D01*
X102546696Y-157337436D01*
X102568709Y-157338440D01*
X102578789Y-157339628D01*
X102579400Y-157340035D01*
X102578191Y-157348552D01*
X102575021Y-157366020D01*
X102570574Y-157388968D01*
X102565536Y-157413924D01*
X102560591Y-157437419D01*
X102557073Y-157453212D01*
X102553758Y-157467499D01*
X102243156Y-157467500D01*
X102172192Y-157467523D01*
X102112875Y-157467617D01*
X102064153Y-157467821D01*
X102024976Y-157468170D01*
X101994291Y-157468702D01*
X101971046Y-157469454D01*
X101954188Y-157470465D01*
X101942666Y-157471769D01*
X101935428Y-157473407D01*
X101931422Y-157475413D01*
X101929596Y-157477826D01*
X101929323Y-157478612D01*
X101927596Y-157486475D01*
X101923595Y-157505819D01*
X101917514Y-157535666D01*
X101909550Y-157575041D01*
X101899899Y-157622966D01*
X101888758Y-157678465D01*
X101876322Y-157740562D01*
X101862789Y-157808279D01*
X101848354Y-157880640D01*
X101833214Y-157956668D01*
X101830100Y-157972325D01*
X101814840Y-158048975D01*
X101800247Y-158122156D01*
X101786515Y-158190892D01*
X101773841Y-158254204D01*
X101762421Y-158311117D01*
X101752452Y-158360653D01*
X101744130Y-158401836D01*
X101737651Y-158433689D01*
X101733212Y-158455234D01*
X101731009Y-158465496D01*
X101730853Y-158466110D01*
X101730624Y-158468910D01*
X101732486Y-158471186D01*
X101737580Y-158472982D01*
X101747045Y-158474341D01*
X101762022Y-158475308D01*
X101783650Y-158475925D01*
X101813068Y-158476236D01*
X101851418Y-158476285D01*
X101899838Y-158476115D01*
X101959468Y-158475769D01*
X101980158Y-158475635D01*
X102232719Y-158473975D01*
X102285101Y-158213625D01*
X102296310Y-158157835D01*
X102306714Y-158105914D01*
X102316048Y-158059184D01*
X102324051Y-158018962D01*
X102330461Y-157986571D01*
X102335015Y-157963329D01*
X102337450Y-157950558D01*
X102337791Y-157948512D01*
X102331860Y-157947047D01*
X102315149Y-157945765D01*
X102289575Y-157944740D01*
X102257058Y-157944045D01*
X102219516Y-157943754D01*
X102214275Y-157943750D01*
X102169470Y-157943559D01*
X102136085Y-157942931D01*
X102112844Y-157941785D01*
X102098472Y-157940039D01*
X102091694Y-157937610D01*
X102090740Y-157935812D01*
X102092090Y-157926278D01*
X102095438Y-157907720D01*
X102100160Y-157883541D01*
X102102120Y-157873900D01*
X102113209Y-157819925D01*
X102308969Y-157818244D01*
X102363988Y-157817808D01*
X102407599Y-157817593D01*
X102441094Y-157817662D01*
X102465765Y-157818079D01*
X102482902Y-157818907D01*
X102493797Y-157820212D01*
X102499742Y-157822055D01*
X102502028Y-157824502D01*
X102501946Y-157827616D01*
X102501908Y-157827769D01*
X102500190Y-157835857D01*
X102496216Y-157855290D01*
X102490209Y-157884957D01*
X102482391Y-157923748D01*
X102472987Y-157970552D01*
X102462219Y-158024257D01*
X102450310Y-158083754D01*
X102437483Y-158147932D01*
X102423963Y-158215680D01*
X102423423Y-158218387D01*
X102347760Y-158597800D01*
X101955580Y-158597800D01*
X101872136Y-158597750D01*
X101800613Y-158597592D01*
X101740230Y-158597308D01*
X101690208Y-158596884D01*
X101649766Y-158596304D01*
X101618126Y-158595551D01*
X101594507Y-158594610D01*
X101578130Y-158593465D01*
X101568216Y-158592101D01*
X101563983Y-158590501D01*
X101563701Y-158589862D01*
X101564970Y-158582649D01*
X101568579Y-158563835D01*
X101574359Y-158534266D01*
X101582142Y-158494791D01*
X101591760Y-158446257D01*
X101603042Y-158389512D01*
X101615821Y-158325404D01*
X101629928Y-158254780D01*
X101645194Y-158178488D01*
X101661451Y-158097377D01*
X101678529Y-158012293D01*
X101689113Y-157959625D01*
X101814225Y-157337325D01*
X102196812Y-157335687D01*
X102278131Y-157335437D01*
X102351028Y-157335413D01*
X102414918Y-157335607D01*
X102414918Y-157335607D01*
G37*
X102414918Y-157335607D02*
X102469216Y-157336013D01*
X102513337Y-157336625D01*
X102546696Y-157337436D01*
X102568709Y-157338440D01*
X102578789Y-157339628D01*
X102579400Y-157340035D01*
X102578191Y-157348552D01*
X102575021Y-157366020D01*
X102570574Y-157388968D01*
X102565536Y-157413924D01*
X102560591Y-157437419D01*
X102557073Y-157453212D01*
X102553758Y-157467499D01*
X102243156Y-157467500D01*
X102172192Y-157467523D01*
X102112875Y-157467617D01*
X102064153Y-157467821D01*
X102024976Y-157468170D01*
X101994291Y-157468702D01*
X101971046Y-157469454D01*
X101954188Y-157470465D01*
X101942666Y-157471769D01*
X101935428Y-157473407D01*
X101931422Y-157475413D01*
X101929596Y-157477826D01*
X101929323Y-157478612D01*
X101927596Y-157486475D01*
X101923595Y-157505819D01*
X101917514Y-157535666D01*
X101909550Y-157575041D01*
X101899899Y-157622966D01*
X101888758Y-157678465D01*
X101876322Y-157740562D01*
X101862789Y-157808279D01*
X101848354Y-157880640D01*
X101833214Y-157956668D01*
X101830100Y-157972325D01*
X101814840Y-158048975D01*
X101800247Y-158122156D01*
X101786515Y-158190892D01*
X101773841Y-158254204D01*
X101762421Y-158311117D01*
X101752452Y-158360653D01*
X101744130Y-158401836D01*
X101737651Y-158433689D01*
X101733212Y-158455234D01*
X101731009Y-158465496D01*
X101730853Y-158466110D01*
X101730624Y-158468910D01*
X101732486Y-158471186D01*
X101737580Y-158472982D01*
X101747045Y-158474341D01*
X101762022Y-158475308D01*
X101783650Y-158475925D01*
X101813068Y-158476236D01*
X101851418Y-158476285D01*
X101899838Y-158476115D01*
X101959468Y-158475769D01*
X101980158Y-158475635D01*
X102232719Y-158473975D01*
X102285101Y-158213625D01*
X102296310Y-158157835D01*
X102306714Y-158105914D01*
X102316048Y-158059184D01*
X102324051Y-158018962D01*
X102330461Y-157986571D01*
X102335015Y-157963329D01*
X102337450Y-157950558D01*
X102337791Y-157948512D01*
X102331860Y-157947047D01*
X102315149Y-157945765D01*
X102289575Y-157944740D01*
X102257058Y-157944045D01*
X102219516Y-157943754D01*
X102214275Y-157943750D01*
X102169470Y-157943559D01*
X102136085Y-157942931D01*
X102112844Y-157941785D01*
X102098472Y-157940039D01*
X102091694Y-157937610D01*
X102090740Y-157935812D01*
X102092090Y-157926278D01*
X102095438Y-157907720D01*
X102100160Y-157883541D01*
X102102120Y-157873900D01*
X102113209Y-157819925D01*
X102308969Y-157818244D01*
X102363988Y-157817808D01*
X102407599Y-157817593D01*
X102441094Y-157817662D01*
X102465765Y-157818079D01*
X102482902Y-157818907D01*
X102493797Y-157820212D01*
X102499742Y-157822055D01*
X102502028Y-157824502D01*
X102501946Y-157827616D01*
X102501908Y-157827769D01*
X102500190Y-157835857D01*
X102496216Y-157855290D01*
X102490209Y-157884957D01*
X102482391Y-157923748D01*
X102472987Y-157970552D01*
X102462219Y-158024257D01*
X102450310Y-158083754D01*
X102437483Y-158147932D01*
X102423963Y-158215680D01*
X102423423Y-158218387D01*
X102347760Y-158597800D01*
X101955580Y-158597800D01*
X101872136Y-158597750D01*
X101800613Y-158597592D01*
X101740230Y-158597308D01*
X101690208Y-158596884D01*
X101649766Y-158596304D01*
X101618126Y-158595551D01*
X101594507Y-158594610D01*
X101578130Y-158593465D01*
X101568216Y-158592101D01*
X101563983Y-158590501D01*
X101563701Y-158589862D01*
X101564970Y-158582649D01*
X101568579Y-158563835D01*
X101574359Y-158534266D01*
X101582142Y-158494791D01*
X101591760Y-158446257D01*
X101603042Y-158389512D01*
X101615821Y-158325404D01*
X101629928Y-158254780D01*
X101645194Y-158178488D01*
X101661451Y-158097377D01*
X101678529Y-158012293D01*
X101689113Y-157959625D01*
X101814225Y-157337325D01*
X102196812Y-157335687D01*
X102278131Y-157335437D01*
X102351028Y-157335413D01*
X102414918Y-157335607D01*
G36*
X103358402Y-157697626D02*
X103356377Y-157707218D01*
X103352262Y-157727660D01*
X103346375Y-157757337D01*
X103339036Y-157794629D01*
X103330563Y-157837919D01*
X103321276Y-157885589D01*
X103316147Y-157912000D01*
X103306579Y-157961143D01*
X103297663Y-158006594D01*
X103289715Y-158046767D01*
X103283050Y-158080078D01*
X103277986Y-158104944D01*
X103274837Y-158119778D01*
X103274044Y-158123062D01*
X103272429Y-158125895D01*
X103268649Y-158128217D01*
X103261512Y-158130091D01*
X103249826Y-158131579D01*
X103232400Y-158132742D01*
X103208042Y-158133641D01*
X103175560Y-158134338D01*
X103133762Y-158134896D01*
X103081457Y-158135375D01*
X103028554Y-158135762D01*
X102786367Y-158137425D01*
X102753039Y-158302525D01*
X102744128Y-158346903D01*
X102736093Y-158387369D01*
X102729268Y-158422200D01*
X102723988Y-158449672D01*
X102720589Y-158468063D01*
X102719406Y-158475562D01*
X102721912Y-158477666D01*
X102730254Y-158479389D01*
X102745398Y-158480763D01*
X102768313Y-158481820D01*
X102799966Y-158482590D01*
X102841324Y-158483106D01*
X102893354Y-158483398D01*
X102957024Y-158483499D01*
X102963695Y-158483500D01*
X103208291Y-158483500D01*
X103204918Y-158497787D01*
X103201940Y-158511407D01*
X103197563Y-158532572D01*
X103193399Y-158553350D01*
X103185255Y-158594625D01*
X102931540Y-158595971D01*
X102867838Y-158596280D01*
X102815566Y-158596433D01*
X102773457Y-158596380D01*
X102740240Y-158596071D01*
X102714646Y-158595457D01*
X102695408Y-158594487D01*
X102681255Y-158593112D01*
X102670920Y-158591282D01*
X102663132Y-158588947D01*
X102656623Y-158586057D01*
X102654781Y-158585101D01*
X102624080Y-158562151D01*
X102601373Y-158531420D01*
X102588421Y-158495844D01*
X102586080Y-158470800D01*
X102587357Y-158461881D01*
X102590947Y-158441637D01*
X102596635Y-158411187D01*
X102604201Y-158371650D01*
X102613429Y-158324145D01*
X102624101Y-158269793D01*
X102635999Y-158209713D01*
X102648905Y-158145023D01*
X102662603Y-158076844D01*
X102663832Y-158070750D01*
X102677081Y-158005065D01*
X102814350Y-158005065D01*
X102816454Y-158007667D01*
X102823597Y-158009707D01*
X102837020Y-158011244D01*
X102857965Y-158012341D01*
X102887675Y-158013058D01*
X102927391Y-158013456D01*
X102978356Y-158013597D01*
X102988063Y-158013600D01*
X103161776Y-158013600D01*
X103181742Y-157913587D01*
X103188504Y-157879433D01*
X103194285Y-157849689D01*
X103198664Y-157826568D01*
X103201220Y-157812283D01*
X103201704Y-157808812D01*
X103195623Y-157807568D01*
X103178463Y-157806446D01*
X103151847Y-157805488D01*
X103117393Y-157804741D01*
X103076725Y-157804247D01*
X103031463Y-157804051D01*
X103027075Y-157804050D01*
X102981467Y-157804126D01*
X102940303Y-157804340D01*
X102905204Y-157804673D01*
X102877790Y-157805104D01*
X102859683Y-157805613D01*
X102852504Y-157806179D01*
X102852450Y-157806234D01*
X102851256Y-157812888D01*
X102847965Y-157829777D01*
X102843016Y-157854692D01*
X102836846Y-157885423D01*
X102833400Y-157902475D01*
X102826732Y-157935935D01*
X102821084Y-157965319D01*
X102816900Y-157988219D01*
X102814629Y-158002228D01*
X102814350Y-158005065D01*
X102677081Y-158005065D01*
X102741325Y-157686575D01*
X103051591Y-157684926D01*
X103361857Y-157683278D01*
X103358402Y-157697626D01*
X103358402Y-157697626D01*
G37*
X103358402Y-157697626D02*
X103356377Y-157707218D01*
X103352262Y-157727660D01*
X103346375Y-157757337D01*
X103339036Y-157794629D01*
X103330563Y-157837919D01*
X103321276Y-157885589D01*
X103316147Y-157912000D01*
X103306579Y-157961143D01*
X103297663Y-158006594D01*
X103289715Y-158046767D01*
X103283050Y-158080078D01*
X103277986Y-158104944D01*
X103274837Y-158119778D01*
X103274044Y-158123062D01*
X103272429Y-158125895D01*
X103268649Y-158128217D01*
X103261512Y-158130091D01*
X103249826Y-158131579D01*
X103232400Y-158132742D01*
X103208042Y-158133641D01*
X103175560Y-158134338D01*
X103133762Y-158134896D01*
X103081457Y-158135375D01*
X103028554Y-158135762D01*
X102786367Y-158137425D01*
X102753039Y-158302525D01*
X102744128Y-158346903D01*
X102736093Y-158387369D01*
X102729268Y-158422200D01*
X102723988Y-158449672D01*
X102720589Y-158468063D01*
X102719406Y-158475562D01*
X102721912Y-158477666D01*
X102730254Y-158479389D01*
X102745398Y-158480763D01*
X102768313Y-158481820D01*
X102799966Y-158482590D01*
X102841324Y-158483106D01*
X102893354Y-158483398D01*
X102957024Y-158483499D01*
X102963695Y-158483500D01*
X103208291Y-158483500D01*
X103204918Y-158497787D01*
X103201940Y-158511407D01*
X103197563Y-158532572D01*
X103193399Y-158553350D01*
X103185255Y-158594625D01*
X102931540Y-158595971D01*
X102867838Y-158596280D01*
X102815566Y-158596433D01*
X102773457Y-158596380D01*
X102740240Y-158596071D01*
X102714646Y-158595457D01*
X102695408Y-158594487D01*
X102681255Y-158593112D01*
X102670920Y-158591282D01*
X102663132Y-158588947D01*
X102656623Y-158586057D01*
X102654781Y-158585101D01*
X102624080Y-158562151D01*
X102601373Y-158531420D01*
X102588421Y-158495844D01*
X102586080Y-158470800D01*
X102587357Y-158461881D01*
X102590947Y-158441637D01*
X102596635Y-158411187D01*
X102604201Y-158371650D01*
X102613429Y-158324145D01*
X102624101Y-158269793D01*
X102635999Y-158209713D01*
X102648905Y-158145023D01*
X102662603Y-158076844D01*
X102663832Y-158070750D01*
X102677081Y-158005065D01*
X102814350Y-158005065D01*
X102816454Y-158007667D01*
X102823597Y-158009707D01*
X102837020Y-158011244D01*
X102857965Y-158012341D01*
X102887675Y-158013058D01*
X102927391Y-158013456D01*
X102978356Y-158013597D01*
X102988063Y-158013600D01*
X103161776Y-158013600D01*
X103181742Y-157913587D01*
X103188504Y-157879433D01*
X103194285Y-157849689D01*
X103198664Y-157826568D01*
X103201220Y-157812283D01*
X103201704Y-157808812D01*
X103195623Y-157807568D01*
X103178463Y-157806446D01*
X103151847Y-157805488D01*
X103117393Y-157804741D01*
X103076725Y-157804247D01*
X103031463Y-157804051D01*
X103027075Y-157804050D01*
X102981467Y-157804126D01*
X102940303Y-157804340D01*
X102905204Y-157804673D01*
X102877790Y-157805104D01*
X102859683Y-157805613D01*
X102852504Y-157806179D01*
X102852450Y-157806234D01*
X102851256Y-157812888D01*
X102847965Y-157829777D01*
X102843016Y-157854692D01*
X102836846Y-157885423D01*
X102833400Y-157902475D01*
X102826732Y-157935935D01*
X102821084Y-157965319D01*
X102816900Y-157988219D01*
X102814629Y-158002228D01*
X102814350Y-158005065D01*
X102677081Y-158005065D01*
X102741325Y-157686575D01*
X103051591Y-157684926D01*
X103361857Y-157683278D01*
X103358402Y-157697626D01*
G36*
X103931449Y-157684562D02*
X103983759Y-157685209D01*
X104023568Y-157686360D01*
X104050938Y-157688017D01*
X104065300Y-157690016D01*
X104102071Y-157704953D01*
X104130993Y-157728838D01*
X104150747Y-157760025D01*
X104160012Y-157796871D01*
X104160550Y-157808716D01*
X104159350Y-157818626D01*
X104155925Y-157839646D01*
X104150534Y-157870432D01*
X104143434Y-157909640D01*
X104134885Y-157955926D01*
X104125146Y-158007946D01*
X104114476Y-158064354D01*
X104103134Y-158123807D01*
X104091378Y-158184961D01*
X104079467Y-158246472D01*
X104067661Y-158306994D01*
X104056217Y-158365184D01*
X104045396Y-158419698D01*
X104035456Y-158469192D01*
X104026655Y-158512321D01*
X104019254Y-158547740D01*
X104013510Y-158574107D01*
X104011331Y-158583512D01*
X104009068Y-158590011D01*
X104004407Y-158594167D01*
X103994906Y-158596502D01*
X103978118Y-158597538D01*
X103951600Y-158597795D01*
X103944408Y-158597800D01*
X103915623Y-158597693D01*
X103897350Y-158597027D01*
X103887402Y-158595280D01*
X103883592Y-158591931D01*
X103883732Y-158586460D01*
X103884415Y-158583512D01*
X103886247Y-158574858D01*
X103890309Y-158554867D01*
X103896379Y-158524661D01*
X103904233Y-158485365D01*
X103913647Y-158438101D01*
X103924397Y-158383992D01*
X103936260Y-158324162D01*
X103949012Y-158259734D01*
X103962430Y-158191830D01*
X103962828Y-158189812D01*
X104037734Y-157810400D01*
X103641668Y-157810400D01*
X103484404Y-158597800D01*
X103422427Y-158597800D01*
X103391755Y-158597309D01*
X103372284Y-158595713D01*
X103362550Y-158592822D01*
X103360747Y-158589862D01*
X103362021Y-158582474D01*
X103365612Y-158563643D01*
X103371319Y-158534376D01*
X103378943Y-158495679D01*
X103388283Y-158448556D01*
X103399141Y-158394015D01*
X103411316Y-158333062D01*
X103424608Y-158266701D01*
X103438818Y-158195939D01*
X103451234Y-158134250D01*
X103541425Y-157686575D01*
X103789075Y-157684776D01*
X103866575Y-157684418D01*
X103931449Y-157684562D01*
X103931449Y-157684562D01*
G37*
X103931449Y-157684562D02*
X103983759Y-157685209D01*
X104023568Y-157686360D01*
X104050938Y-157688017D01*
X104065300Y-157690016D01*
X104102071Y-157704953D01*
X104130993Y-157728838D01*
X104150747Y-157760025D01*
X104160012Y-157796871D01*
X104160550Y-157808716D01*
X104159350Y-157818626D01*
X104155925Y-157839646D01*
X104150534Y-157870432D01*
X104143434Y-157909640D01*
X104134885Y-157955926D01*
X104125146Y-158007946D01*
X104114476Y-158064354D01*
X104103134Y-158123807D01*
X104091378Y-158184961D01*
X104079467Y-158246472D01*
X104067661Y-158306994D01*
X104056217Y-158365184D01*
X104045396Y-158419698D01*
X104035456Y-158469192D01*
X104026655Y-158512321D01*
X104019254Y-158547740D01*
X104013510Y-158574107D01*
X104011331Y-158583512D01*
X104009068Y-158590011D01*
X104004407Y-158594167D01*
X103994906Y-158596502D01*
X103978118Y-158597538D01*
X103951600Y-158597795D01*
X103944408Y-158597800D01*
X103915623Y-158597693D01*
X103897350Y-158597027D01*
X103887402Y-158595280D01*
X103883592Y-158591931D01*
X103883732Y-158586460D01*
X103884415Y-158583512D01*
X103886247Y-158574858D01*
X103890309Y-158554867D01*
X103896379Y-158524661D01*
X103904233Y-158485365D01*
X103913647Y-158438101D01*
X103924397Y-158383992D01*
X103936260Y-158324162D01*
X103949012Y-158259734D01*
X103962430Y-158191830D01*
X103962828Y-158189812D01*
X104037734Y-157810400D01*
X103641668Y-157810400D01*
X103484404Y-158597800D01*
X103422427Y-158597800D01*
X103391755Y-158597309D01*
X103372284Y-158595713D01*
X103362550Y-158592822D01*
X103360747Y-158589862D01*
X103362021Y-158582474D01*
X103365612Y-158563643D01*
X103371319Y-158534376D01*
X103378943Y-158495679D01*
X103388283Y-158448556D01*
X103399141Y-158394015D01*
X103411316Y-158333062D01*
X103424608Y-158266701D01*
X103438818Y-158195939D01*
X103451234Y-158134250D01*
X103541425Y-157686575D01*
X103789075Y-157684776D01*
X103866575Y-157684418D01*
X103931449Y-157684562D01*
G36*
X105022102Y-157697626D02*
X105020077Y-157707218D01*
X105015962Y-157727660D01*
X105010075Y-157757337D01*
X105002736Y-157794629D01*
X104994263Y-157837919D01*
X104984976Y-157885589D01*
X104979847Y-157912000D01*
X104970279Y-157961143D01*
X104961363Y-158006594D01*
X104953415Y-158046767D01*
X104946750Y-158080078D01*
X104941686Y-158104944D01*
X104938537Y-158119778D01*
X104937744Y-158123062D01*
X104936129Y-158125895D01*
X104932349Y-158128217D01*
X104925212Y-158130091D01*
X104913526Y-158131579D01*
X104896100Y-158132742D01*
X104871742Y-158133641D01*
X104839260Y-158134338D01*
X104797462Y-158134896D01*
X104745157Y-158135375D01*
X104692254Y-158135762D01*
X104450067Y-158137425D01*
X104416739Y-158302525D01*
X104407828Y-158346903D01*
X104399793Y-158387369D01*
X104392968Y-158422200D01*
X104387688Y-158449672D01*
X104384289Y-158468063D01*
X104383106Y-158475562D01*
X104385612Y-158477666D01*
X104393954Y-158479389D01*
X104409098Y-158480763D01*
X104432013Y-158481820D01*
X104463666Y-158482590D01*
X104505024Y-158483106D01*
X104557054Y-158483398D01*
X104620724Y-158483499D01*
X104627395Y-158483500D01*
X104871991Y-158483500D01*
X104868618Y-158497787D01*
X104865640Y-158511407D01*
X104861263Y-158532572D01*
X104857099Y-158553350D01*
X104848955Y-158594625D01*
X104595240Y-158595971D01*
X104531538Y-158596280D01*
X104479266Y-158596433D01*
X104437157Y-158596380D01*
X104403940Y-158596071D01*
X104378346Y-158595457D01*
X104359108Y-158594487D01*
X104344955Y-158593112D01*
X104334620Y-158591282D01*
X104326832Y-158588947D01*
X104320323Y-158586057D01*
X104318481Y-158585101D01*
X104287780Y-158562151D01*
X104265073Y-158531420D01*
X104252121Y-158495844D01*
X104249780Y-158470800D01*
X104251057Y-158461881D01*
X104254647Y-158441637D01*
X104260335Y-158411187D01*
X104267901Y-158371650D01*
X104277129Y-158324145D01*
X104287801Y-158269793D01*
X104299699Y-158209713D01*
X104312605Y-158145023D01*
X104326303Y-158076844D01*
X104327532Y-158070750D01*
X104340781Y-158005065D01*
X104478050Y-158005065D01*
X104480154Y-158007667D01*
X104487297Y-158009707D01*
X104500720Y-158011244D01*
X104521665Y-158012341D01*
X104551375Y-158013058D01*
X104591091Y-158013456D01*
X104642056Y-158013597D01*
X104651763Y-158013600D01*
X104825476Y-158013600D01*
X104845442Y-157913587D01*
X104852204Y-157879433D01*
X104857985Y-157849689D01*
X104862364Y-157826568D01*
X104864920Y-157812283D01*
X104865404Y-157808812D01*
X104859323Y-157807568D01*
X104842163Y-157806446D01*
X104815547Y-157805488D01*
X104781093Y-157804741D01*
X104740425Y-157804247D01*
X104695163Y-157804051D01*
X104690775Y-157804050D01*
X104645167Y-157804126D01*
X104604003Y-157804340D01*
X104568904Y-157804673D01*
X104541490Y-157805104D01*
X104523383Y-157805613D01*
X104516204Y-157806179D01*
X104516150Y-157806234D01*
X104514956Y-157812888D01*
X104511665Y-157829777D01*
X104506716Y-157854692D01*
X104500546Y-157885423D01*
X104497100Y-157902475D01*
X104490432Y-157935935D01*
X104484784Y-157965319D01*
X104480600Y-157988219D01*
X104478329Y-158002228D01*
X104478050Y-158005065D01*
X104340781Y-158005065D01*
X104405025Y-157686575D01*
X104715291Y-157684926D01*
X105025557Y-157683278D01*
X105022102Y-157697626D01*
X105022102Y-157697626D01*
G37*
X105022102Y-157697626D02*
X105020077Y-157707218D01*
X105015962Y-157727660D01*
X105010075Y-157757337D01*
X105002736Y-157794629D01*
X104994263Y-157837919D01*
X104984976Y-157885589D01*
X104979847Y-157912000D01*
X104970279Y-157961143D01*
X104961363Y-158006594D01*
X104953415Y-158046767D01*
X104946750Y-158080078D01*
X104941686Y-158104944D01*
X104938537Y-158119778D01*
X104937744Y-158123062D01*
X104936129Y-158125895D01*
X104932349Y-158128217D01*
X104925212Y-158130091D01*
X104913526Y-158131579D01*
X104896100Y-158132742D01*
X104871742Y-158133641D01*
X104839260Y-158134338D01*
X104797462Y-158134896D01*
X104745157Y-158135375D01*
X104692254Y-158135762D01*
X104450067Y-158137425D01*
X104416739Y-158302525D01*
X104407828Y-158346903D01*
X104399793Y-158387369D01*
X104392968Y-158422200D01*
X104387688Y-158449672D01*
X104384289Y-158468063D01*
X104383106Y-158475562D01*
X104385612Y-158477666D01*
X104393954Y-158479389D01*
X104409098Y-158480763D01*
X104432013Y-158481820D01*
X104463666Y-158482590D01*
X104505024Y-158483106D01*
X104557054Y-158483398D01*
X104620724Y-158483499D01*
X104627395Y-158483500D01*
X104871991Y-158483500D01*
X104868618Y-158497787D01*
X104865640Y-158511407D01*
X104861263Y-158532572D01*
X104857099Y-158553350D01*
X104848955Y-158594625D01*
X104595240Y-158595971D01*
X104531538Y-158596280D01*
X104479266Y-158596433D01*
X104437157Y-158596380D01*
X104403940Y-158596071D01*
X104378346Y-158595457D01*
X104359108Y-158594487D01*
X104344955Y-158593112D01*
X104334620Y-158591282D01*
X104326832Y-158588947D01*
X104320323Y-158586057D01*
X104318481Y-158585101D01*
X104287780Y-158562151D01*
X104265073Y-158531420D01*
X104252121Y-158495844D01*
X104249780Y-158470800D01*
X104251057Y-158461881D01*
X104254647Y-158441637D01*
X104260335Y-158411187D01*
X104267901Y-158371650D01*
X104277129Y-158324145D01*
X104287801Y-158269793D01*
X104299699Y-158209713D01*
X104312605Y-158145023D01*
X104326303Y-158076844D01*
X104327532Y-158070750D01*
X104340781Y-158005065D01*
X104478050Y-158005065D01*
X104480154Y-158007667D01*
X104487297Y-158009707D01*
X104500720Y-158011244D01*
X104521665Y-158012341D01*
X104551375Y-158013058D01*
X104591091Y-158013456D01*
X104642056Y-158013597D01*
X104651763Y-158013600D01*
X104825476Y-158013600D01*
X104845442Y-157913587D01*
X104852204Y-157879433D01*
X104857985Y-157849689D01*
X104862364Y-157826568D01*
X104864920Y-157812283D01*
X104865404Y-157808812D01*
X104859323Y-157807568D01*
X104842163Y-157806446D01*
X104815547Y-157805488D01*
X104781093Y-157804741D01*
X104740425Y-157804247D01*
X104695163Y-157804051D01*
X104690775Y-157804050D01*
X104645167Y-157804126D01*
X104604003Y-157804340D01*
X104568904Y-157804673D01*
X104541490Y-157805104D01*
X104523383Y-157805613D01*
X104516204Y-157806179D01*
X104516150Y-157806234D01*
X104514956Y-157812888D01*
X104511665Y-157829777D01*
X104506716Y-157854692D01*
X104500546Y-157885423D01*
X104497100Y-157902475D01*
X104490432Y-157935935D01*
X104484784Y-157965319D01*
X104480600Y-157988219D01*
X104478329Y-158002228D01*
X104478050Y-158005065D01*
X104340781Y-158005065D01*
X104405025Y-157686575D01*
X104715291Y-157684926D01*
X105025557Y-157683278D01*
X105022102Y-157697626D01*
G36*
X105631948Y-157684524D02*
X105654777Y-157685081D01*
X105670710Y-157685991D01*
X105680909Y-157687301D01*
X105686535Y-157689056D01*
X105688747Y-157691303D01*
X105688708Y-157694088D01*
X105688614Y-157694436D01*
X105685745Y-157706529D01*
X105681614Y-157726267D01*
X105678200Y-157743725D01*
X105673801Y-157766036D01*
X105669876Y-157784439D01*
X105667809Y-157792937D01*
X105666038Y-157796245D01*
X105661891Y-157798827D01*
X105653952Y-157800771D01*
X105640806Y-157802166D01*
X105621038Y-157803102D01*
X105593233Y-157803668D01*
X105555976Y-157803953D01*
X105507852Y-157804046D01*
X105491377Y-157804050D01*
X105318111Y-157804050D01*
X105239109Y-158199337D01*
X105160107Y-158594625D01*
X105092128Y-158596427D01*
X105060502Y-158596901D01*
X105039827Y-158596221D01*
X105028393Y-158594224D01*
X105024488Y-158590752D01*
X105024447Y-158590077D01*
X105025721Y-158582653D01*
X105029312Y-158563787D01*
X105035020Y-158534486D01*
X105042645Y-158495756D01*
X105051986Y-158448604D01*
X105062845Y-158394037D01*
X105075020Y-158333061D01*
X105088314Y-158266682D01*
X105102525Y-158195908D01*
X105114934Y-158134250D01*
X105205125Y-157686575D01*
X105448464Y-157684911D01*
X105510482Y-157684514D01*
X105560962Y-157684287D01*
X105601063Y-157684275D01*
X105631948Y-157684524D01*
X105631948Y-157684524D01*
G37*
X105631948Y-157684524D02*
X105654777Y-157685081D01*
X105670710Y-157685991D01*
X105680909Y-157687301D01*
X105686535Y-157689056D01*
X105688747Y-157691303D01*
X105688708Y-157694088D01*
X105688614Y-157694436D01*
X105685745Y-157706529D01*
X105681614Y-157726267D01*
X105678200Y-157743725D01*
X105673801Y-157766036D01*
X105669876Y-157784439D01*
X105667809Y-157792937D01*
X105666038Y-157796245D01*
X105661891Y-157798827D01*
X105653952Y-157800771D01*
X105640806Y-157802166D01*
X105621038Y-157803102D01*
X105593233Y-157803668D01*
X105555976Y-157803953D01*
X105507852Y-157804046D01*
X105491377Y-157804050D01*
X105318111Y-157804050D01*
X105239109Y-158199337D01*
X105160107Y-158594625D01*
X105092128Y-158596427D01*
X105060502Y-158596901D01*
X105039827Y-158596221D01*
X105028393Y-158594224D01*
X105024488Y-158590752D01*
X105024447Y-158590077D01*
X105025721Y-158582653D01*
X105029312Y-158563787D01*
X105035020Y-158534486D01*
X105042645Y-158495756D01*
X105051986Y-158448604D01*
X105062845Y-158394037D01*
X105075020Y-158333061D01*
X105088314Y-158266682D01*
X105102525Y-158195908D01*
X105114934Y-158134250D01*
X105205125Y-157686575D01*
X105448464Y-157684911D01*
X105510482Y-157684514D01*
X105560962Y-157684287D01*
X105601063Y-157684275D01*
X105631948Y-157684524D01*
G36*
X106331951Y-157684382D02*
X106361636Y-157684737D01*
X106383907Y-157685358D01*
X106399823Y-157686280D01*
X106410442Y-157687536D01*
X106416819Y-157689162D01*
X106420013Y-157691192D01*
X106421081Y-157693660D01*
X106421150Y-157694844D01*
X106419929Y-157702996D01*
X106416411Y-157722485D01*
X106410812Y-157752198D01*
X106403348Y-157791024D01*
X106394237Y-157837850D01*
X106383694Y-157891564D01*
X106371936Y-157951055D01*
X106359179Y-158015210D01*
X106345640Y-158082917D01*
X106345173Y-158085246D01*
X106327275Y-158173796D01*
X106311135Y-158252229D01*
X106296827Y-158320195D01*
X106284430Y-158377347D01*
X106274020Y-158423336D01*
X106265673Y-158457815D01*
X106259466Y-158480436D01*
X106256010Y-158489928D01*
X106232418Y-158524585D01*
X106200202Y-158555673D01*
X106163485Y-158579239D01*
X106132225Y-158594625D01*
X105873462Y-158596416D01*
X105817532Y-158596681D01*
X105765756Y-158596690D01*
X105719466Y-158596461D01*
X105679992Y-158596011D01*
X105648667Y-158595357D01*
X105626822Y-158594517D01*
X105615789Y-158593508D01*
X105614700Y-158593041D01*
X105615925Y-158585012D01*
X105619396Y-158566172D01*
X105624807Y-158538033D01*
X105631850Y-158502110D01*
X105635540Y-158483500D01*
X105766858Y-158483500D01*
X105947954Y-158483500D01*
X105994434Y-158483434D01*
X106036500Y-158483249D01*
X106072560Y-158482962D01*
X106101022Y-158482590D01*
X106120295Y-158482149D01*
X106128785Y-158481658D01*
X106129050Y-158481553D01*
X106130242Y-158474916D01*
X106133552Y-158457822D01*
X106138582Y-158432263D01*
X106144934Y-158400230D01*
X106152207Y-158363713D01*
X106160004Y-158324704D01*
X106167925Y-158285195D01*
X106175572Y-158247176D01*
X106182546Y-158212639D01*
X106188449Y-158183574D01*
X106192881Y-158161974D01*
X106195445Y-158149829D01*
X106195739Y-158148537D01*
X106199141Y-158134250D01*
X106018045Y-158134250D01*
X105971565Y-158134315D01*
X105929499Y-158134500D01*
X105893439Y-158134787D01*
X105864977Y-158135159D01*
X105845704Y-158135600D01*
X105837214Y-158136091D01*
X105836950Y-158136196D01*
X105835757Y-158142833D01*
X105832447Y-158159927D01*
X105827417Y-158185486D01*
X105821065Y-158217519D01*
X105813792Y-158254036D01*
X105805995Y-158293045D01*
X105798074Y-158332554D01*
X105790427Y-158370573D01*
X105783453Y-158405110D01*
X105777550Y-158434175D01*
X105773118Y-158455775D01*
X105770554Y-158467920D01*
X105770260Y-158469212D01*
X105766858Y-158483500D01*
X105635540Y-158483500D01*
X105640217Y-158459916D01*
X105649603Y-158412963D01*
X105659700Y-158362766D01*
X105670200Y-158310836D01*
X105680798Y-158258687D01*
X105691185Y-158207833D01*
X105701056Y-158159786D01*
X105710102Y-158116061D01*
X105718017Y-158078169D01*
X105724493Y-158047624D01*
X105729225Y-158025939D01*
X105731904Y-158014628D01*
X105732318Y-158013368D01*
X105739579Y-158011772D01*
X105758728Y-158010384D01*
X105788956Y-158009225D01*
X105829453Y-158008313D01*
X105879409Y-158007671D01*
X105938013Y-158007316D01*
X105980199Y-158007250D01*
X106034469Y-158007195D01*
X106084546Y-158007039D01*
X106129058Y-158006793D01*
X106166635Y-158006471D01*
X106195904Y-158006085D01*
X106215495Y-158005646D01*
X106224038Y-158005167D01*
X106224300Y-158005065D01*
X106225493Y-157998411D01*
X106228784Y-157981522D01*
X106233733Y-157956607D01*
X106239903Y-157925876D01*
X106243350Y-157908825D01*
X106249994Y-157875681D01*
X106255629Y-157846927D01*
X106259813Y-157824870D01*
X106262103Y-157811817D01*
X106262400Y-157809409D01*
X106256283Y-157808195D01*
X106238863Y-157807078D01*
X106211539Y-157806088D01*
X106175709Y-157805259D01*
X106132768Y-157804622D01*
X106084116Y-157804208D01*
X106031150Y-157804050D01*
X106027450Y-157804050D01*
X105966546Y-157804018D01*
X105917149Y-157803885D01*
X105878068Y-157803594D01*
X105848109Y-157803090D01*
X105826080Y-157802314D01*
X105810788Y-157801211D01*
X105801042Y-157799724D01*
X105795649Y-157797797D01*
X105793415Y-157795373D01*
X105793107Y-157792937D01*
X105794722Y-157781571D01*
X105798425Y-157761817D01*
X105803460Y-157737666D01*
X105804220Y-157734200D01*
X105814725Y-157686575D01*
X106117937Y-157684925D01*
X106187847Y-157684564D01*
X106246114Y-157684330D01*
X106293796Y-157684257D01*
X106331951Y-157684382D01*
X106331951Y-157684382D01*
G37*
X106331951Y-157684382D02*
X106361636Y-157684737D01*
X106383907Y-157685358D01*
X106399823Y-157686280D01*
X106410442Y-157687536D01*
X106416819Y-157689162D01*
X106420013Y-157691192D01*
X106421081Y-157693660D01*
X106421150Y-157694844D01*
X106419929Y-157702996D01*
X106416411Y-157722485D01*
X106410812Y-157752198D01*
X106403348Y-157791024D01*
X106394237Y-157837850D01*
X106383694Y-157891564D01*
X106371936Y-157951055D01*
X106359179Y-158015210D01*
X106345640Y-158082917D01*
X106345173Y-158085246D01*
X106327275Y-158173796D01*
X106311135Y-158252229D01*
X106296827Y-158320195D01*
X106284430Y-158377347D01*
X106274020Y-158423336D01*
X106265673Y-158457815D01*
X106259466Y-158480436D01*
X106256010Y-158489928D01*
X106232418Y-158524585D01*
X106200202Y-158555673D01*
X106163485Y-158579239D01*
X106132225Y-158594625D01*
X105873462Y-158596416D01*
X105817532Y-158596681D01*
X105765756Y-158596690D01*
X105719466Y-158596461D01*
X105679992Y-158596011D01*
X105648667Y-158595357D01*
X105626822Y-158594517D01*
X105615789Y-158593508D01*
X105614700Y-158593041D01*
X105615925Y-158585012D01*
X105619396Y-158566172D01*
X105624807Y-158538033D01*
X105631850Y-158502110D01*
X105635540Y-158483500D01*
X105766858Y-158483500D01*
X105947954Y-158483500D01*
X105994434Y-158483434D01*
X106036500Y-158483249D01*
X106072560Y-158482962D01*
X106101022Y-158482590D01*
X106120295Y-158482149D01*
X106128785Y-158481658D01*
X106129050Y-158481553D01*
X106130242Y-158474916D01*
X106133552Y-158457822D01*
X106138582Y-158432263D01*
X106144934Y-158400230D01*
X106152207Y-158363713D01*
X106160004Y-158324704D01*
X106167925Y-158285195D01*
X106175572Y-158247176D01*
X106182546Y-158212639D01*
X106188449Y-158183574D01*
X106192881Y-158161974D01*
X106195445Y-158149829D01*
X106195739Y-158148537D01*
X106199141Y-158134250D01*
X106018045Y-158134250D01*
X105971565Y-158134315D01*
X105929499Y-158134500D01*
X105893439Y-158134787D01*
X105864977Y-158135159D01*
X105845704Y-158135600D01*
X105837214Y-158136091D01*
X105836950Y-158136196D01*
X105835757Y-158142833D01*
X105832447Y-158159927D01*
X105827417Y-158185486D01*
X105821065Y-158217519D01*
X105813792Y-158254036D01*
X105805995Y-158293045D01*
X105798074Y-158332554D01*
X105790427Y-158370573D01*
X105783453Y-158405110D01*
X105777550Y-158434175D01*
X105773118Y-158455775D01*
X105770554Y-158467920D01*
X105770260Y-158469212D01*
X105766858Y-158483500D01*
X105635540Y-158483500D01*
X105640217Y-158459916D01*
X105649603Y-158412963D01*
X105659700Y-158362766D01*
X105670200Y-158310836D01*
X105680798Y-158258687D01*
X105691185Y-158207833D01*
X105701056Y-158159786D01*
X105710102Y-158116061D01*
X105718017Y-158078169D01*
X105724493Y-158047624D01*
X105729225Y-158025939D01*
X105731904Y-158014628D01*
X105732318Y-158013368D01*
X105739579Y-158011772D01*
X105758728Y-158010384D01*
X105788956Y-158009225D01*
X105829453Y-158008313D01*
X105879409Y-158007671D01*
X105938013Y-158007316D01*
X105980199Y-158007250D01*
X106034469Y-158007195D01*
X106084546Y-158007039D01*
X106129058Y-158006793D01*
X106166635Y-158006471D01*
X106195904Y-158006085D01*
X106215495Y-158005646D01*
X106224038Y-158005167D01*
X106224300Y-158005065D01*
X106225493Y-157998411D01*
X106228784Y-157981522D01*
X106233733Y-157956607D01*
X106239903Y-157925876D01*
X106243350Y-157908825D01*
X106249994Y-157875681D01*
X106255629Y-157846927D01*
X106259813Y-157824870D01*
X106262103Y-157811817D01*
X106262400Y-157809409D01*
X106256283Y-157808195D01*
X106238863Y-157807078D01*
X106211539Y-157806088D01*
X106175709Y-157805259D01*
X106132768Y-157804622D01*
X106084116Y-157804208D01*
X106031150Y-157804050D01*
X106027450Y-157804050D01*
X105966546Y-157804018D01*
X105917149Y-157803885D01*
X105878068Y-157803594D01*
X105848109Y-157803090D01*
X105826080Y-157802314D01*
X105810788Y-157801211D01*
X105801042Y-157799724D01*
X105795649Y-157797797D01*
X105793415Y-157795373D01*
X105793107Y-157792937D01*
X105794722Y-157781571D01*
X105798425Y-157761817D01*
X105803460Y-157737666D01*
X105804220Y-157734200D01*
X105814725Y-157686575D01*
X106117937Y-157684925D01*
X106187847Y-157684564D01*
X106246114Y-157684330D01*
X106293796Y-157684257D01*
X106331951Y-157684382D01*
G36*
X106844722Y-157365900D02*
X106728238Y-157948512D01*
X106711264Y-158033400D01*
X106694888Y-158115278D01*
X106679296Y-158193217D01*
X106664674Y-158266288D01*
X106651208Y-158333562D01*
X106639084Y-158394111D01*
X106628488Y-158447006D01*
X106619607Y-158491318D01*
X106612625Y-158526117D01*
X106607729Y-158550476D01*
X106605105Y-158563465D01*
X106604901Y-158564462D01*
X106598049Y-158597800D01*
X106457769Y-158597800D01*
X106461092Y-158580337D01*
X106462791Y-158571720D01*
X106466803Y-158551533D01*
X106472951Y-158520660D01*
X106481061Y-158479984D01*
X106490954Y-158430390D01*
X106502455Y-158372760D01*
X106515388Y-158307980D01*
X106529576Y-158236932D01*
X106544842Y-158160500D01*
X106561011Y-158079568D01*
X106577906Y-157995020D01*
X106584028Y-157964387D01*
X106703639Y-157365899D01*
X106774181Y-157365899D01*
X106844722Y-157365900D01*
X106844722Y-157365900D01*
G37*
X106844722Y-157365900D02*
X106728238Y-157948512D01*
X106711264Y-158033400D01*
X106694888Y-158115278D01*
X106679296Y-158193217D01*
X106664674Y-158266288D01*
X106651208Y-158333562D01*
X106639084Y-158394111D01*
X106628488Y-158447006D01*
X106619607Y-158491318D01*
X106612625Y-158526117D01*
X106607729Y-158550476D01*
X106605105Y-158563465D01*
X106604901Y-158564462D01*
X106598049Y-158597800D01*
X106457769Y-158597800D01*
X106461092Y-158580337D01*
X106462791Y-158571720D01*
X106466803Y-158551533D01*
X106472951Y-158520660D01*
X106481061Y-158479984D01*
X106490954Y-158430390D01*
X106502455Y-158372760D01*
X106515388Y-158307980D01*
X106529576Y-158236932D01*
X106544842Y-158160500D01*
X106561011Y-158079568D01*
X106577906Y-157995020D01*
X106584028Y-157964387D01*
X106703639Y-157365899D01*
X106774181Y-157365899D01*
X106844722Y-157365900D01*
D10*
X109634214Y-129406833D02*
X109672310Y-129444928D01*
X109710405Y-129559214D01*
X109710405Y-129635404D01*
X109672310Y-129749690D01*
X109596119Y-129825881D01*
X109519929Y-129863976D01*
X109367548Y-129902071D01*
X109253262Y-129902071D01*
X109100881Y-129863976D01*
X109024690Y-129825881D01*
X108948500Y-129749690D01*
X108910405Y-129635404D01*
X108910405Y-129559214D01*
X108948500Y-129444928D01*
X108986595Y-129406833D01*
X108910405Y-128721119D02*
X108910405Y-128873500D01*
X108948500Y-128949690D01*
X108986595Y-128987785D01*
X109100881Y-129063976D01*
X109253262Y-129102071D01*
X109558024Y-129102071D01*
X109634214Y-129063976D01*
X109672310Y-129025881D01*
X109710405Y-128949690D01*
X109710405Y-128797309D01*
X109672310Y-128721119D01*
X109634214Y-128683023D01*
X109558024Y-128644928D01*
X109367548Y-128644928D01*
X109291357Y-128683023D01*
X109253262Y-128721119D01*
X109215167Y-128797309D01*
X109215167Y-128949690D01*
X109253262Y-129025881D01*
X109291357Y-129063976D01*
X109367548Y-129102071D01*
X115361905Y-168319476D02*
X114561905Y-168319476D01*
X114561905Y-168129000D01*
X114600000Y-168014714D01*
X114676190Y-167938523D01*
X114752381Y-167900428D01*
X114904762Y-167862333D01*
X115019048Y-167862333D01*
X115171429Y-167900428D01*
X115247619Y-167938523D01*
X115323810Y-168014714D01*
X115361905Y-168129000D01*
X115361905Y-168319476D01*
X115361905Y-167100428D02*
X115361905Y-167557571D01*
X115361905Y-167329000D02*
X114561905Y-167329000D01*
X114676190Y-167405190D01*
X114752381Y-167481381D01*
X114790476Y-167557571D01*
X120823024Y-119792905D02*
X120823024Y-118992905D01*
X121013500Y-118992905D01*
X121127786Y-119031000D01*
X121203977Y-119107190D01*
X121242072Y-119183381D01*
X121280167Y-119335762D01*
X121280167Y-119450048D01*
X121242072Y-119602429D01*
X121203977Y-119678619D01*
X121127786Y-119754810D01*
X121013500Y-119792905D01*
X120823024Y-119792905D01*
X121584929Y-119069095D02*
X121623024Y-119031000D01*
X121699215Y-118992905D01*
X121889691Y-118992905D01*
X121965881Y-119031000D01*
X122003977Y-119069095D01*
X122042072Y-119145286D01*
X122042072Y-119221476D01*
X122003977Y-119335762D01*
X121546834Y-119792905D01*
X122042072Y-119792905D01*
X122410524Y-120110405D02*
X122410524Y-119310405D01*
X122601000Y-119310405D01*
X122715286Y-119348500D01*
X122791477Y-119424690D01*
X122829572Y-119500881D01*
X122867667Y-119653262D01*
X122867667Y-119767548D01*
X122829572Y-119919929D01*
X122791477Y-119996119D01*
X122715286Y-120072310D01*
X122601000Y-120110405D01*
X122410524Y-120110405D01*
X123134334Y-119310405D02*
X123629572Y-119310405D01*
X123362905Y-119615167D01*
X123477191Y-119615167D01*
X123553381Y-119653262D01*
X123591477Y-119691357D01*
X123629572Y-119767548D01*
X123629572Y-119958024D01*
X123591477Y-120034214D01*
X123553381Y-120072310D01*
X123477191Y-120110405D01*
X123248619Y-120110405D01*
X123172429Y-120072310D01*
X123134334Y-120034214D01*
X123998024Y-119792905D02*
X123998024Y-118992905D01*
X124188500Y-118992905D01*
X124302786Y-119031000D01*
X124378977Y-119107190D01*
X124417072Y-119183381D01*
X124455167Y-119335762D01*
X124455167Y-119450048D01*
X124417072Y-119602429D01*
X124378977Y-119678619D01*
X124302786Y-119754810D01*
X124188500Y-119792905D01*
X123998024Y-119792905D01*
X125140881Y-119259571D02*
X125140881Y-119792905D01*
X124950405Y-118954810D02*
X124759929Y-119526238D01*
X125255167Y-119526238D01*
X125585524Y-120173905D02*
X125585524Y-119373905D01*
X125776000Y-119373905D01*
X125890286Y-119412000D01*
X125966477Y-119488190D01*
X126004572Y-119564381D01*
X126042667Y-119716762D01*
X126042667Y-119831048D01*
X126004572Y-119983429D01*
X125966477Y-120059619D01*
X125890286Y-120135810D01*
X125776000Y-120173905D01*
X125585524Y-120173905D01*
X126766477Y-119373905D02*
X126385524Y-119373905D01*
X126347429Y-119754857D01*
X126385524Y-119716762D01*
X126461715Y-119678667D01*
X126652191Y-119678667D01*
X126728381Y-119716762D01*
X126766477Y-119754857D01*
X126804572Y-119831048D01*
X126804572Y-120021524D01*
X126766477Y-120097714D01*
X126728381Y-120135810D01*
X126652191Y-120173905D01*
X126461715Y-120173905D01*
X126385524Y-120135810D01*
X126347429Y-120097714D01*
X128595405Y-122999666D02*
X129166833Y-122999666D01*
X129281119Y-123037762D01*
X129357310Y-123113952D01*
X129395405Y-123228238D01*
X129395405Y-123304428D01*
X129395405Y-122199666D02*
X129395405Y-122656809D01*
X129395405Y-122428238D02*
X128595405Y-122428238D01*
X128709690Y-122504428D01*
X128785881Y-122580619D01*
X128823976Y-122656809D01*
X101925405Y-126492166D02*
X102496833Y-126492166D01*
X102611119Y-126530262D01*
X102687310Y-126606452D01*
X102725405Y-126720738D01*
X102725405Y-126796928D01*
X102001595Y-126149309D02*
X101963500Y-126111214D01*
X101925405Y-126035023D01*
X101925405Y-125844547D01*
X101963500Y-125768357D01*
X102001595Y-125730261D01*
X102077786Y-125692166D01*
X102153976Y-125692166D01*
X102268262Y-125730261D01*
X102725405Y-126187404D01*
X102725405Y-125692166D01*
X127977067Y-142106576D02*
X127277067Y-142106576D01*
X127277067Y-141801814D01*
X127310400Y-141725623D01*
X127343733Y-141687528D01*
X127410400Y-141649433D01*
X127510400Y-141649433D01*
X127577067Y-141687528D01*
X127610400Y-141725623D01*
X127643733Y-141801814D01*
X127643733Y-142106576D01*
X127977067Y-140887528D02*
X127977067Y-141344671D01*
X127977067Y-141116100D02*
X127277067Y-141116100D01*
X127377067Y-141192290D01*
X127443733Y-141268481D01*
X127477067Y-141344671D01*
X106357595Y-110236190D02*
X106319500Y-110312381D01*
X106243310Y-110388571D01*
X106129024Y-110502857D01*
X106090929Y-110579048D01*
X106090929Y-110655238D01*
X106281405Y-110617143D02*
X106243310Y-110693333D01*
X106167119Y-110769524D01*
X106014738Y-110807619D01*
X105748071Y-110807619D01*
X105595690Y-110769524D01*
X105519500Y-110693333D01*
X105481405Y-110617143D01*
X105481405Y-110464762D01*
X105519500Y-110388571D01*
X105595690Y-110312381D01*
X105748071Y-110274286D01*
X106014738Y-110274286D01*
X106167119Y-110312381D01*
X106243310Y-110388571D01*
X106281405Y-110464762D01*
X106281405Y-110617143D01*
X106281405Y-109512381D02*
X106281405Y-109969524D01*
X106281405Y-109740953D02*
X105481405Y-109740953D01*
X105595690Y-109817143D01*
X105671881Y-109893334D01*
X105709976Y-109969524D01*
X115361905Y-160395533D02*
X114980952Y-160662200D01*
X115361905Y-160852676D02*
X114561905Y-160852676D01*
X114561905Y-160547914D01*
X114600000Y-160471723D01*
X114638095Y-160433628D01*
X114714286Y-160395533D01*
X114828571Y-160395533D01*
X114904762Y-160433628D01*
X114942857Y-160471723D01*
X114980952Y-160547914D01*
X114980952Y-160852676D01*
X115361905Y-159633628D02*
X115361905Y-160090771D01*
X115361905Y-159862200D02*
X114561905Y-159862200D01*
X114676190Y-159938390D01*
X114752381Y-160014581D01*
X114790476Y-160090771D01*
X119565667Y-151669905D02*
X119299000Y-151288952D01*
X119108524Y-151669905D02*
X119108524Y-150869905D01*
X119413286Y-150869905D01*
X119489477Y-150908000D01*
X119527572Y-150946095D01*
X119565667Y-151022286D01*
X119565667Y-151136571D01*
X119527572Y-151212762D01*
X119489477Y-151250857D01*
X119413286Y-151288952D01*
X119108524Y-151288952D01*
X120022810Y-151212762D02*
X119946619Y-151174667D01*
X119908524Y-151136571D01*
X119870429Y-151060381D01*
X119870429Y-151022286D01*
X119908524Y-150946095D01*
X119946619Y-150908000D01*
X120022810Y-150869905D01*
X120175191Y-150869905D01*
X120251381Y-150908000D01*
X120289477Y-150946095D01*
X120327572Y-151022286D01*
X120327572Y-151060381D01*
X120289477Y-151136571D01*
X120251381Y-151174667D01*
X120175191Y-151212762D01*
X120022810Y-151212762D01*
X119946619Y-151250857D01*
X119908524Y-151288952D01*
X119870429Y-151365143D01*
X119870429Y-151517524D01*
X119908524Y-151593714D01*
X119946619Y-151631810D01*
X120022810Y-151669905D01*
X120175191Y-151669905D01*
X120251381Y-151631810D01*
X120289477Y-151593714D01*
X120327572Y-151517524D01*
X120327572Y-151365143D01*
X120289477Y-151288952D01*
X120251381Y-151250857D01*
X120175191Y-151212762D01*
X119565667Y-150272905D02*
X119299000Y-149891952D01*
X119108524Y-150272905D02*
X119108524Y-149472905D01*
X119413286Y-149472905D01*
X119489477Y-149511000D01*
X119527572Y-149549095D01*
X119565667Y-149625286D01*
X119565667Y-149739571D01*
X119527572Y-149815762D01*
X119489477Y-149853857D01*
X119413286Y-149891952D01*
X119108524Y-149891952D01*
X119946619Y-150272905D02*
X120099000Y-150272905D01*
X120175191Y-150234810D01*
X120213286Y-150196714D01*
X120289477Y-150082429D01*
X120327572Y-149930048D01*
X120327572Y-149625286D01*
X120289477Y-149549095D01*
X120251381Y-149511000D01*
X120175191Y-149472905D01*
X120022810Y-149472905D01*
X119946619Y-149511000D01*
X119908524Y-149549095D01*
X119870429Y-149625286D01*
X119870429Y-149815762D01*
X119908524Y-149891952D01*
X119946619Y-149930048D01*
X120022810Y-149968143D01*
X120175191Y-149968143D01*
X120251381Y-149930048D01*
X120289477Y-149891952D01*
X120327572Y-149815762D01*
X106548214Y-107092905D02*
X106281547Y-106711952D01*
X106091071Y-107092905D02*
X106091071Y-106292905D01*
X106395833Y-106292905D01*
X106472024Y-106331000D01*
X106510119Y-106369095D01*
X106548214Y-106445286D01*
X106548214Y-106559571D01*
X106510119Y-106635762D01*
X106472024Y-106673857D01*
X106395833Y-106711952D01*
X106091071Y-106711952D01*
X107310119Y-107092905D02*
X106852976Y-107092905D01*
X107081547Y-107092905D02*
X107081547Y-106292905D01*
X107005357Y-106407190D01*
X106929166Y-106483381D01*
X106852976Y-106521476D01*
X107805357Y-106292905D02*
X107881548Y-106292905D01*
X107957738Y-106331000D01*
X107995833Y-106369095D01*
X108033929Y-106445286D01*
X108072024Y-106597667D01*
X108072024Y-106788143D01*
X108033929Y-106940524D01*
X107995833Y-107016714D01*
X107957738Y-107054810D01*
X107881548Y-107092905D01*
X107805357Y-107092905D01*
X107729167Y-107054810D01*
X107691071Y-107016714D01*
X107652976Y-106940524D01*
X107614881Y-106788143D01*
X107614881Y-106597667D01*
X107652976Y-106445286D01*
X107691071Y-106369095D01*
X107729167Y-106331000D01*
X107805357Y-106292905D01*
X110726405Y-125152286D02*
X110345452Y-125418953D01*
X110726405Y-125609429D02*
X109926405Y-125609429D01*
X109926405Y-125304667D01*
X109964500Y-125228476D01*
X110002595Y-125190381D01*
X110078786Y-125152286D01*
X110193071Y-125152286D01*
X110269262Y-125190381D01*
X110307357Y-125228476D01*
X110345452Y-125304667D01*
X110345452Y-125609429D01*
X110726405Y-124390381D02*
X110726405Y-124847524D01*
X110726405Y-124618953D02*
X109926405Y-124618953D01*
X110040690Y-124695143D01*
X110116881Y-124771334D01*
X110154976Y-124847524D01*
X110002595Y-124085619D02*
X109964500Y-124047524D01*
X109926405Y-123971333D01*
X109926405Y-123780857D01*
X109964500Y-123704667D01*
X110002595Y-123666571D01*
X110078786Y-123628476D01*
X110154976Y-123628476D01*
X110269262Y-123666571D01*
X110726405Y-124123714D01*
X110726405Y-123628476D01*
X101396876Y-141840005D02*
X101396876Y-142487624D01*
X101434971Y-142563814D01*
X101473067Y-142601910D01*
X101549257Y-142640005D01*
X101701638Y-142640005D01*
X101777829Y-142601910D01*
X101815924Y-142563814D01*
X101854019Y-142487624D01*
X101854019Y-141840005D01*
X102577828Y-141840005D02*
X102425447Y-141840005D01*
X102349257Y-141878100D01*
X102311162Y-141916195D01*
X102234971Y-142030481D01*
X102196876Y-142182862D01*
X102196876Y-142487624D01*
X102234971Y-142563814D01*
X102273066Y-142601910D01*
X102349257Y-142640005D01*
X102501638Y-142640005D01*
X102577828Y-142601910D01*
X102615924Y-142563814D01*
X102654019Y-142487624D01*
X102654019Y-142297148D01*
X102615924Y-142220957D01*
X102577828Y-142182862D01*
X102501638Y-142144767D01*
X102349257Y-142144767D01*
X102273066Y-142182862D01*
X102234971Y-142220957D01*
X102196876Y-142297148D01*
X110726405Y-136772786D02*
X110345452Y-137039453D01*
X110726405Y-137229929D02*
X109926405Y-137229929D01*
X109926405Y-136925167D01*
X109964500Y-136848976D01*
X110002595Y-136810881D01*
X110078786Y-136772786D01*
X110193071Y-136772786D01*
X110269262Y-136810881D01*
X110307357Y-136848976D01*
X110345452Y-136925167D01*
X110345452Y-137229929D01*
X110726405Y-136010881D02*
X110726405Y-136468024D01*
X110726405Y-136239453D02*
X109926405Y-136239453D01*
X110040690Y-136315643D01*
X110116881Y-136391834D01*
X110154976Y-136468024D01*
X109926405Y-135744214D02*
X109926405Y-135248976D01*
X110231167Y-135515643D01*
X110231167Y-135401357D01*
X110269262Y-135325167D01*
X110307357Y-135287071D01*
X110383548Y-135248976D01*
X110574024Y-135248976D01*
X110650214Y-135287071D01*
X110688310Y-135325167D01*
X110726405Y-135401357D01*
X110726405Y-135629929D01*
X110688310Y-135706119D01*
X110650214Y-135744214D01*
X105817976Y-104705405D02*
X105817976Y-105353024D01*
X105856071Y-105429214D01*
X105894167Y-105467310D01*
X105970357Y-105505405D01*
X106122738Y-105505405D01*
X106198929Y-105467310D01*
X106237024Y-105429214D01*
X106275119Y-105353024D01*
X106275119Y-104705405D01*
X107037024Y-104705405D02*
X106656071Y-104705405D01*
X106617976Y-105086357D01*
X106656071Y-105048262D01*
X106732262Y-105010167D01*
X106922738Y-105010167D01*
X106998928Y-105048262D01*
X107037024Y-105086357D01*
X107075119Y-105162548D01*
X107075119Y-105353024D01*
X107037024Y-105429214D01*
X106998928Y-105467310D01*
X106922738Y-105505405D01*
X106732262Y-105505405D01*
X106656071Y-105467310D01*
X106617976Y-105429214D01*
X122096371Y-165157305D02*
X122096371Y-164357305D01*
X122401133Y-164357305D01*
X122477324Y-164395400D01*
X122515419Y-164433495D01*
X122553514Y-164509686D01*
X122553514Y-164623971D01*
X122515419Y-164700162D01*
X122477324Y-164738257D01*
X122401133Y-164776352D01*
X122096371Y-164776352D01*
X122858276Y-165119210D02*
X122972562Y-165157305D01*
X123163038Y-165157305D01*
X123239228Y-165119210D01*
X123277324Y-165081114D01*
X123315419Y-165004924D01*
X123315419Y-164928733D01*
X123277324Y-164852543D01*
X123239228Y-164814448D01*
X123163038Y-164776352D01*
X123010657Y-164738257D01*
X122934466Y-164700162D01*
X122896371Y-164662067D01*
X122858276Y-164585876D01*
X122858276Y-164509686D01*
X122896371Y-164433495D01*
X122934466Y-164395400D01*
X123010657Y-164357305D01*
X123201133Y-164357305D01*
X123315419Y-164395400D01*
X124077324Y-165157305D02*
X123620181Y-165157305D01*
X123848752Y-165157305D02*
X123848752Y-164357305D01*
X123772562Y-164471590D01*
X123696371Y-164547781D01*
X123620181Y-164585876D01*
X122728024Y-106584905D02*
X122728024Y-105784905D01*
X123032786Y-105784905D01*
X123108977Y-105823000D01*
X123147072Y-105861095D01*
X123185167Y-105937286D01*
X123185167Y-106051571D01*
X123147072Y-106127762D01*
X123108977Y-106165857D01*
X123032786Y-106203952D01*
X122728024Y-106203952D01*
X123451834Y-105784905D02*
X123947072Y-105784905D01*
X123680405Y-106089667D01*
X123794691Y-106089667D01*
X123870881Y-106127762D01*
X123908977Y-106165857D01*
X123947072Y-106242048D01*
X123947072Y-106432524D01*
X123908977Y-106508714D01*
X123870881Y-106546810D01*
X123794691Y-106584905D01*
X123566119Y-106584905D01*
X123489929Y-106546810D01*
X123451834Y-106508714D01*
%LPC*%
D15*
X127500000Y-167500000D03*
X102500000Y-167500000D03*
X102500000Y-102500000D03*
D16*
X110364500Y-129603000D03*
X110364500Y-131103000D03*
D17*
X115000000Y-166205000D03*
X115000000Y-164605000D03*
X123039000Y-118288000D03*
X121439000Y-118288000D03*
X123039000Y-120891500D03*
X121439000Y-120891500D03*
X124614000Y-118288000D03*
X126214000Y-118288000D03*
X124614000Y-120891500D03*
X126214000Y-120891500D03*
D18*
X127093000Y-122441000D03*
D19*
X111993000Y-126341000D03*
X111993000Y-127441000D03*
X111993000Y-128541000D03*
X111993000Y-129641000D03*
X111993000Y-130741000D03*
X111993000Y-131841000D03*
X111993000Y-132941000D03*
X111993000Y-134041000D03*
X111993000Y-134991000D03*
D20*
X111993000Y-124791000D03*
X116293000Y-135941000D03*
D21*
X122493000Y-135941000D03*
D22*
X126643000Y-135941000D03*
D23*
X106237000Y-123357000D03*
D24*
X101787000Y-135877000D03*
X101787000Y-133877000D03*
D23*
X106237000Y-140397000D03*
D24*
X101787000Y-131877000D03*
X101787000Y-129877000D03*
X101787000Y-127877000D03*
D23*
X123826500Y-155521000D03*
D24*
X128276500Y-143001000D03*
X128276500Y-145001000D03*
D23*
X123826500Y-138481000D03*
D24*
X128276500Y-147001000D03*
X128276500Y-149001000D03*
X128276500Y-151001000D03*
D25*
X107192000Y-110398000D03*
X109092000Y-110398000D03*
X108142000Y-108398000D03*
D26*
X115000000Y-163107000D03*
X115000000Y-161607000D03*
D27*
X116917000Y-151308000D03*
X118417000Y-151308000D03*
X116917000Y-149911000D03*
X118417000Y-149911000D03*
X110277000Y-106731000D03*
X108777000Y-106731000D03*
D26*
X110364500Y-127801000D03*
X110364500Y-126301000D03*
D28*
X120016500Y-146672500D03*
D29*
X120016500Y-144132500D03*
X120016500Y-141592500D03*
X120016500Y-139052500D03*
X117476500Y-146672500D03*
X117476500Y-144132500D03*
X117476500Y-141592500D03*
X117476500Y-139052500D03*
D30*
X118810000Y-158293000D03*
D31*
X111190000Y-168453000D03*
X118810000Y-160833000D03*
X111190000Y-165913000D03*
X118810000Y-163373000D03*
X111190000Y-163373000D03*
X118810000Y-165913000D03*
X111190000Y-160833000D03*
X118810000Y-168453000D03*
X111190000Y-158293000D03*
D32*
X114873000Y-154101999D03*
X114873000Y-152831999D03*
X114873000Y-151561999D03*
X114873000Y-150291999D03*
X114873000Y-149021999D03*
X114873000Y-147751999D03*
X114873000Y-146481999D03*
X114873000Y-145211999D03*
D33*
X112583000Y-142921999D03*
X111313000Y-142921999D03*
X110043000Y-142921999D03*
X108773000Y-142921999D03*
X107503000Y-142921999D03*
X106233000Y-142921999D03*
X104963000Y-142921999D03*
X103693000Y-142921999D03*
D32*
X101403000Y-145211999D03*
X101403000Y-146481999D03*
X101403000Y-147751999D03*
X101403000Y-149021999D03*
X101403000Y-150291999D03*
X101403000Y-151561999D03*
X101403000Y-152831999D03*
X101403000Y-154101999D03*
D33*
X103693000Y-156391999D03*
X104963000Y-156391999D03*
X106233000Y-156391999D03*
X107503000Y-156391999D03*
X108773000Y-156391999D03*
X110043000Y-156391999D03*
X111313000Y-156391999D03*
X112583000Y-156391999D03*
D34*
X111373000Y-153891999D03*
D26*
X110364500Y-133032000D03*
X110364500Y-134532000D03*
D15*
X127500000Y-102500000D03*
D35*
X111803000Y-107985000D03*
X111803000Y-111065000D03*
X112203000Y-107985000D03*
X112203000Y-111065000D03*
X112603000Y-107985000D03*
X112603000Y-111065000D03*
X113003000Y-107985000D03*
X113003000Y-111065000D03*
X113403000Y-107985000D03*
X113403000Y-111065000D03*
X113803000Y-107985000D03*
X113803000Y-111065000D03*
X114203000Y-107985000D03*
X114203000Y-111065000D03*
X114603000Y-107985000D03*
X114603000Y-111065000D03*
X115003000Y-107985000D03*
X115003000Y-111065000D03*
X115403000Y-107985000D03*
X115403000Y-111065000D03*
D36*
X122553000Y-115025000D03*
X103353000Y-111725000D03*
D37*
X124080500Y-160579000D03*
D38*
X122080500Y-160579000D03*
D37*
X119953000Y-104064000D03*
D38*
X121953000Y-104064000D03*
D37*
X117953000Y-104064000D03*
X115953000Y-104064000D03*
X113953000Y-104064000D03*
D39*
X128271500Y-162357000D03*
D40*
X128271500Y-159817000D03*
X128271500Y-157277000D03*
X128271500Y-154737000D03*
M02*
